<svg id="kity_svg_6" xmlns="http://www.w3.org/2000/svg" xmlns:xlink="http://www.w3.org/1999/xlink" version="1.1" width="658" height="612" style="background: rgb(251, 251, 251); visibility: visible;" viewBox="0 0 658 612"><defs id="kity_defs_7"><linearGradient id="kity_linearGradient_17" x1="0" y1="0" x2="0" y2="1"><stop id="kity_stop_18" offset="0" stop-color="rgb(255, 255, 255)"></stop><stop id="kity_stop_19" offset="1" stop-color="rgb(204, 204, 204)"></stop></linearGradient><marker id="kity_marker_2" orient="auto" refX="6" refY="0" viewBox="-7 -7 14 14" markerWidth="7" markerHeight="7" markerUnits="userSpaceOnUse"><path id="kity_path_3" fill="rgb(115, 161, 191)" stroke="none" d="M6,0A6,6,0,1,1,-6,0A6,6,0,1,1,6,0"></path></marker></defs><g id="kity_g_8"><g id="minder1" text-rendering="optimize-speed"><g id="minder_connect_group1"><path id="kity_path_31" fill="none" stroke="rgb(115, 161, 191)" stroke-width="1" d="M94,318.5A89.5,153,0,0,1,183.5,165.5"></path><path id="kity_path_33" fill="none" stroke="rgb(115, 161, 191)" stroke-width="1" d="M285.5,165.5C293.5,165.5,293.5,29.5,301.5,29.5"></path><path id="kity_path_35" fill="none" stroke="rgb(115, 161, 191)" stroke-width="1" d="M285.5,165.5C293.5,165.5,293.5,107.5,301.5,107.5"></path><path id="kity_path_37" fill="none" stroke="rgb(115, 161, 191)" stroke-width="1" d="M378.5,107.5C386.5,107.5,386.5,55.5,394.5,55.5"></path><path id="kity_path_39" fill="none" stroke="rgb(115, 161, 191)" stroke-width="1" d="M378.5,107.5C386.5,107.5,386.5,81.5,394.5,81.5"></path><path id="kity_path_41" fill="none" stroke="rgb(115, 161, 191)" stroke-width="1" d="M378.5,107.5C386.5,107.5,386.5,107.5,394.5,107.5"></path><path id="kity_path_43" fill="none" stroke="rgb(115, 161, 191)" stroke-width="1" d="M378.5,107.5C386.5,107.5,386.5,133.5,394.5,133.5"></path><path id="kity_path_45" fill="none" stroke="rgb(115, 161, 191)" stroke-width="1" d="M378.5,107.5C386.5,107.5,386.5,159.5,394.5,159.5"></path><path id="kity_path_47" fill="none" stroke="rgb(115, 161, 191)" stroke-width="1" d="M285.5,165.5C293.5,165.5,293.5,185.5,301.5,185.5"></path><path id="kity_path_49" fill="none" stroke="rgb(115, 161, 191)" stroke-width="1" d="M285.5,165.5C293.5,165.5,293.5,224.5,301.5,224.5"></path><path id="kity_path_51" fill="none" stroke="rgb(115, 161, 191)" stroke-width="1" d="M328.5,224.5C336.5,224.5,336.5,211.5,344.5,211.5"></path><path id="kity_path_53" fill="none" stroke="rgb(115, 161, 191)" stroke-width="1" d="M328.5,224.5C336.5,224.5,336.5,237.5,344.5,237.5"></path><path id="kity_path_55" fill="none" stroke="rgb(115, 161, 191)" stroke-width="1" d="M285.5,165.5C293.5,165.5,293.5,302.5,301.5,302.5"></path><path id="kity_path_57" fill="none" stroke="rgb(115, 161, 191)" stroke-width="1" d="M372.5,302.5C380.5,302.5,380.5,263.5,388.5,263.5"></path><path id="kity_path_59" fill="none" stroke="rgb(115, 161, 191)" stroke-width="1" d="M372.5,302.5C380.5,302.5,380.5,289.5,388.5,289.5"></path><path id="kity_path_61" fill="none" stroke="rgb(115, 161, 191)" stroke-width="1" d="M372.5,302.5C380.5,302.5,380.5,315.5,388.5,315.5"></path><path id="kity_path_63" fill="none" stroke="rgb(115, 161, 191)" stroke-width="1" d="M372.5,302.5C380.5,302.5,380.5,341.5,388.5,341.5"></path><path id="kity_path_65" fill="none" stroke="rgb(115, 161, 191)" stroke-width="1" d="M94,318.5A89.5,154,0,0,0,183.5,472.5"></path><path id="kity_path_67" fill="none" stroke="rgb(115, 161, 191)" stroke-width="1" d="M273.5,472.5C281.5,472.5,281.5,375.5,289.5,375.5"></path><path id="kity_path_69" fill="none" stroke="rgb(115, 161, 191)" stroke-width="1" d="M432.5,375.5C440.5,375.5,440.5,375.5,448.5,375.5"></path><path id="kity_path_71" fill="none" stroke="rgb(115, 161, 191)" stroke-width="1" d="M273.5,472.5C281.5,472.5,281.5,440.5,289.5,440.5"></path><path id="kity_path_73" fill="none" stroke="rgb(115, 161, 191)" stroke-width="1" d="M349.5,440.5C357.5,440.5,357.5,401.5,365.5,401.5"></path><path id="kity_path_75" fill="none" stroke="rgb(115, 161, 191)" stroke-width="1" d="M349.5,440.5C357.5,440.5,357.5,427.5,365.5,427.5"></path><path id="kity_path_77" fill="none" stroke="rgb(115, 161, 191)" stroke-width="1" d="M349.5,440.5C357.5,440.5,357.5,453.5,365.5,453.5"></path><path id="kity_path_79" fill="none" stroke="rgb(115, 161, 191)" stroke-width="1" d="M349.5,440.5C357.5,440.5,357.5,479.5,365.5,479.5"></path><path id="kity_path_81" fill="none" stroke="rgb(115, 161, 191)" stroke-width="1" d="M273.5,472.5C281.5,472.5,281.5,518.5,289.5,518.5"></path><path id="kity_path_83" fill="none" stroke="rgb(115, 161, 191)" stroke-width="1" d="M337.5,518.5C345.5,518.5,345.5,505.5,353.5,505.5"></path><path id="kity_path_85" fill="none" stroke="rgb(115, 161, 191)" stroke-width="1" d="M337.5,518.5C345.5,518.5,345.5,531.5,353.5,531.5"></path><path id="kity_path_87" fill="none" stroke="rgb(115, 161, 191)" stroke-width="1" d="M273.5,472.5C281.5,472.5,281.5,570.5,289.5,570.5"></path><path id="kity_path_89" fill="none" stroke="rgb(115, 161, 191)" stroke-width="1" d="M322.5,570.5C330.5,570.5,330.5,557.5,338.5,557.5"></path><path id="kity_path_91" fill="none" stroke="rgb(115, 161, 191)" stroke-width="1" d="M322.5,570.5C330.5,570.5,330.5,583.5,338.5,583.5"></path></g><g id="minder_node1"><path id="kity_path_280" fill="rgba(0, 0, 0, .25)" stroke="none" d="M33.5,301.5h190a22,22,0,0,1,22,22v0a22,22,0,0,1,-22,22h-190a22,22,0,0,1,-22,-22v0a22,22,0,0,1,22,-22z" display="none"></path><path id="node_outline1" fill="rgb(115, 161, 191)" stroke="rgb(115, 161, 191)" d="M25.5,304.5h137a5,5,0,0,1,5,5v18a5,5,0,0,1,-5,5h-137a5,5,0,0,1,-5,-5v-18a5,5,0,0,1,5,-5z" stroke-width="3"></path><g id="node_text1" fill="white"><text id="kity_text_22" text-rendering="inherit" font-size="16" dy=".8em" y="308.09999990463257" x="32.5">2 Portfolio tools</text></g></g><g id="kity_g_12"><path id="kity_path_13" fill="none" stroke="none" d="M32.5,318.5h0v0h0z"></path></g><g id="kity_g_14"><path id="kity_path_15" fill="none" stroke="none" d="M32.5,318.5h0v0h0z"></path><path id="kity_path_16" fill="none" stroke="none"></path></g><g id="minder_node2"><path id="kity_path_278" fill="rgba(0, 0, 0, .25)" stroke="none" d="M204.50000515580177,157.49999544024467h78a10,10,0,0,1,10,10v6a10,10,0,0,1,-10,10h-78a10,10,0,0,1,-10,-10v-6a10,10,0,0,1,10,-10z" display="none"></path><g id="node_expander17" style="cursor: pointer;"><path id="kity_path_234" fill="white" stroke="gray" d="M184.50000515580177,165.49999544024467A6,6,0,1,1,172.50000515580177,165.49999544024467A6,6,0,1,1,184.50000515580177,165.49999544024467"></path><path id="kity_path_235" fill="none" stroke="gray" d="M174.00000515580177,165.49999544024467L183.00000515580177,165.49999544024467"></path></g><path id="node_outline18" fill="rgb(238, 243, 246)" stroke="rgb(115, 161, 191)" d="M188.50000515580177,152.49999544024467h94a3,3,0,0,1,3,3v20a3,3,0,0,1,-3,3h-94a3,3,0,0,1,-3,-3v-20a3,3,0,0,1,3,-3z" stroke-width="1"></path><g id="node_text18" fill="black"><text id="kity_text_125" text-rendering="inherit" font-size="14" dy=".8em" y="156.3999955356121" x="205.50000515580177">Xaringan</text></g></g><g id="minder_node3"><g id="node_expander1" style="cursor: pointer;" display="none"><path id="kity_path_186" fill="white" stroke="gray" d="M301.50000816583633,29.499991387128773A6,6,0,1,1,289.50000816583633,29.499991387128773A6,6,0,1,1,301.50000816583633,29.499991387128773"></path><path id="kity_path_187" fill="none" stroke="gray"></path></g><path id="node_outline2" fill="none" stroke="none" d="M306.50000816583633,20.499991387128773h113a5,5,0,0,1,5,5v8a5,5,0,0,1,-5,5h-113a5,5,0,0,1,-5,-5v-8a5,5,0,0,1,5,-5z"></path><g id="node_text2" fill="black"><text id="kity_text_93" text-rendering="inherit" font-size="12" dy=".8em" y="21.69999143481249" x="306.50000816583633">Make a new project</text></g></g><g id="minder_node4"><g id="node_expander7" style="cursor: pointer;"><path id="kity_path_204" fill="white" stroke="gray" d="M301.50000816583633,107.49999371170998A6,6,0,1,1,289.50000816583633,107.49999371170998A6,6,0,1,1,301.50000816583633,107.49999371170998"></path><path id="kity_path_205" fill="none" stroke="gray" d="M291.00000816583633,107.49999371170998L300.00000816583633,107.49999371170998"></path></g><path id="node_outline8" fill="none" stroke="none" d="M306.50000816583633,98.49999371170998h67a5,5,0,0,1,5,5v8a5,5,0,0,1,-5,5h-67a5,5,0,0,1,-5,-5v-8a5,5,0,0,1,5,-5z"></path><g id="node_text8" fill="black"><text id="kity_text_105" text-rendering="inherit" font-size="12" dy=".8em" y="99.69999375939369" x="306.50000816583633">Write slides</text></g></g><g id="minder_node5"><g id="node_expander2" style="cursor: pointer;" display="none"><path id="kity_path_189" fill="white" stroke="gray" d="M394.5000109374523,55.49999216198921A6,6,0,1,1,382.5000109374523,55.49999216198921A6,6,0,1,1,394.5000109374523,55.49999216198921"></path><path id="kity_path_190" fill="none" stroke="gray"></path></g><path id="node_outline3" fill="none" stroke="none" d="M399.5000109374523,46.49999216198921h60a5,5,0,0,1,5,5v8a5,5,0,0,1,-5,5h-60a5,5,0,0,1,-5,-5v-8a5,5,0,0,1,5,-5z"></path><g id="node_text3" fill="black"><text id="kity_text_95" text-rendering="inherit" font-size="12" dy=".8em" y="47.69999220967293" x="399.5000109374523">Slide tools</text></g></g><g id="minder_node6"><g id="node_expander3" style="cursor: pointer;" display="none"><path id="kity_path_192" fill="white" stroke="gray" d="M394.5000109374523,81.49999293684962A6,6,0,1,1,382.5000109374523,81.49999293684962A6,6,0,1,1,394.5000109374523,81.49999293684962"></path><path id="kity_path_193" fill="none" stroke="gray"></path></g><path id="node_outline4" fill="none" stroke="none" d="M399.5000109374523,72.49999293684962h41a5,5,0,0,1,5,5v8a5,5,0,0,1,-5,5h-41a5,5,0,0,1,-5,-5v-8a5,5,0,0,1,5,-5z"></path><g id="node_text4" fill="black"><text id="kity_text_97" text-rendering="inherit" font-size="12" dy=".8em" y="73.69999298453334" x="399.5000109374523">Images</text></g></g><g id="minder_node7"><g id="node_expander4" style="cursor: pointer;" display="none"><path id="kity_path_195" fill="white" stroke="gray" d="M394.5000109374523,107.49999371170998A6,6,0,1,1,382.5000109374523,107.49999371170998A6,6,0,1,1,394.5000109374523,107.49999371170998"></path><path id="kity_path_196" fill="none" stroke="gray"></path></g><path id="node_outline5" fill="none" stroke="none" d="M399.5000109374523,98.49999371170998h42a5,5,0,0,1,5,5v8a5,5,0,0,1,-5,5h-42a5,5,0,0,1,-5,-5v-8a5,5,0,0,1,5,-5z"></path><g id="node_text5" fill="black"><text id="kity_text_99" text-rendering="inherit" font-size="12" dy=".8em" y="99.69999375939369" x="399.5000109374523">Tabales</text></g></g><g id="minder_node8"><g id="node_expander5" style="cursor: pointer;" display="none"><path id="kity_path_198" fill="white" stroke="gray" d="M394.5000109374523,133.49999448657036A6,6,0,1,1,382.5000109374523,133.49999448657036A6,6,0,1,1,394.5000109374523,133.49999448657036"></path><path id="kity_path_199" fill="none" stroke="gray"></path></g><path id="node_outline6" fill="none" stroke="none" d="M399.5000109374523,124.49999448657036h34a5,5,0,0,1,5,5v8a5,5,0,0,1,-5,5h-34a5,5,0,0,1,-5,-5v-8a5,5,0,0,1,5,-5z"></path><g id="node_text6" fill="black"><text id="kity_text_101" text-rendering="inherit" font-size="12" dy=".8em" y="125.69999453425407" x="399.5000109374523">Citing</text></g></g><g id="minder_node9"><g id="node_expander6" style="cursor: pointer;" display="none"><path id="kity_path_201" fill="white" stroke="gray" d="M394.5000109374523,159.49999526143074A6,6,0,1,1,382.5000109374523,159.49999526143074A6,6,0,1,1,394.5000109374523,159.49999526143074"></path><path id="kity_path_202" fill="none" stroke="gray"></path></g><path id="node_outline7" fill="none" stroke="none" d="M399.5000109374523,150.49999526143074h45a5,5,0,0,1,5,5v8a5,5,0,0,1,-5,5h-45a5,5,0,0,1,-5,-5v-8a5,5,0,0,1,5,-5z"></path><g id="node_text7" fill="black"><text id="kity_text_103" text-rendering="inherit" font-size="12" dy=".8em" y="151.69999530911446" x="399.5000109374523">Themes</text></g></g><g id="minder_node10"><g id="node_expander8" style="cursor: pointer;" display="none"><path id="kity_path_207" fill="white" stroke="gray" d="M301.50000816583633,185.49999603629112A6,6,0,1,1,289.50000816583633,185.49999603629112A6,6,0,1,1,301.50000816583633,185.49999603629112"></path><path id="kity_path_208" fill="none" stroke="gray"></path></g><path id="node_outline9" fill="none" stroke="none" d="M306.50000816583633,176.49999603629112h121a5,5,0,0,1,5,5v8a5,5,0,0,1,-5,5h-121a5,5,0,0,1,-5,-5v-8a5,5,0,0,1,5,-5z"></path><g id="node_text9" fill="black"><text id="kity_text_107" text-rendering="inherit" font-size="12" dy=".8em" y="177.69999608397484" x="306.50000816583633">Live preview of slides</text></g></g><g id="minder_node11"><g id="node_expander11" style="cursor: pointer;"><path id="kity_path_216" fill="white" stroke="gray" d="M301.50000816583633,224.4999971985817A6,6,0,1,1,289.50000816583633,224.4999971985817A6,6,0,1,1,301.50000816583633,224.4999971985817"></path><path id="kity_path_217" fill="none" stroke="gray" d="M291.00000816583633,224.4999971985817L300.00000816583633,224.4999971985817"></path></g><path id="node_outline12" fill="none" stroke="none" d="M306.50000816583633,215.4999971985817h17a5,5,0,0,1,5,5v8a5,5,0,0,1,-5,5h-17a5,5,0,0,1,-5,-5v-8a5,5,0,0,1,5,-5z"></path><g id="node_text12" fill="black"><text id="kity_text_113" text-rendering="inherit" font-size="12" dy=".8em" y="216.6999972462654" x="306.50000816583633">Git</text></g></g><g id="minder_node12"><g id="node_expander9" style="cursor: pointer;" display="none"><path id="kity_path_210" fill="white" stroke="gray" d="M344.5000094473362,211.4999968111515A6,6,0,1,1,332.5000094473362,211.4999968111515A6,6,0,1,1,344.5000094473362,211.4999968111515"></path><path id="kity_path_211" fill="none" stroke="gray"></path></g><path id="node_outline10" fill="none" stroke="none" d="M349.5000094473362,202.4999968111515h53a5,5,0,0,1,5,5v8a5,5,0,0,1,-5,5h-53a5,5,0,0,1,-5,-5v-8a5,5,0,0,1,5,-5z"></path><g id="node_text10" fill="black"><text id="kity_text_109" text-rendering="inherit" font-size="12" dy=".8em" y="203.69999685883522" x="349.5000094473362">Using Git</text></g></g><g id="minder_node13"><g id="node_expander10" style="cursor: pointer;" display="none"><path id="kity_path_213" fill="white" stroke="gray" d="M344.5000094473362,237.4999975860119A6,6,0,1,1,332.5000094473362,237.4999975860119A6,6,0,1,1,344.5000094473362,237.4999975860119"></path><path id="kity_path_214" fill="none" stroke="gray"></path></g><path id="node_outline11" fill="none" stroke="none" d="M349.5000094473362,228.4999975860119h106a5,5,0,0,1,5,5v8a5,5,0,0,1,-5,5h-106a5,5,0,0,1,-5,-5v-8a5,5,0,0,1,5,-5z"></path><g id="node_text11" fill="black"><text id="kity_text_111" text-rendering="inherit" font-size="12" dy=".8em" y="229.6999976336956" x="349.5000094473362">Hosting on Github</text></g></g><g id="minder_node14"><g id="node_expander16" style="cursor: pointer;"><path id="kity_path_231" fill="white" stroke="gray" d="M301.50000816583633,302.49999952316284A6,6,0,1,1,289.50000816583633,302.49999952316284A6,6,0,1,1,301.50000816583633,302.49999952316284"></path><path id="kity_path_232" fill="none" stroke="gray" d="M291.00000816583633,302.49999952316284L300.00000816583633,302.49999952316284"></path></g><path id="node_outline17" fill="none" stroke="none" d="M306.50000816583633,293.49999952316284h61a5,5,0,0,1,5,5v8a5,5,0,0,1,-5,5h-61a5,5,0,0,1,-5,-5v-8a5,5,0,0,1,5,-5z"></path><g id="node_text17" fill="black"><text id="kity_text_123" text-rendering="inherit" font-size="12" dy=".8em" y="294.69999957084656" x="306.50000816583633">Extensions</text></g></g><g id="minder_node15"><g id="node_expander12" style="cursor: pointer;" display="none"><path id="kity_path_219" fill="white" stroke="gray" d="M388.5000107586384,263.49999836087227A6,6,0,1,1,376.5000107586384,263.49999836087227A6,6,0,1,1,388.5000107586384,263.49999836087227"></path><path id="kity_path_220" fill="none" stroke="gray"></path></g><path id="node_outline13" fill="none" stroke="none" d="M393.5000107586384,254.49999836087227h79a5,5,0,0,1,5,5v8a5,5,0,0,1,-5,5h-79a5,5,0,0,1,-5,-5v-8a5,5,0,0,1,5,-5z"></path><g id="node_text13" fill="black"><text id="kity_text_115" text-rendering="inherit" font-size="12" dy=".8em" y="255.69999840855598" x="393.5000107586384">xaringanExtra</text></g></g><g id="minder_node16"><g id="node_expander13" style="cursor: pointer;" display="none"><path id="kity_path_222" fill="white" stroke="gray" d="M388.5000107586384,289.49999913573265A6,6,0,1,1,376.5000107586384,289.49999913573265A6,6,0,1,1,388.5000107586384,289.49999913573265"></path><path id="kity_path_223" fill="none" stroke="gray"></path></g><path id="node_outline14" fill="none" stroke="none" d="M393.5000107586384,280.49999913573265h92a5,5,0,0,1,5,5v8a5,5,0,0,1,-5,5h-92a5,5,0,0,1,-5,-5v-8a5,5,0,0,1,5,-5z"></path><g id="node_text14" fill="black"><text id="kity_text_117" text-rendering="inherit" font-size="12" dy=".8em" y="281.69999918341637" x="393.5000107586384">xaringanthemer</text></g></g><g id="minder_node17"><g id="node_expander14" style="cursor: pointer;" display="none"><path id="kity_path_225" fill="white" stroke="gray" d="M388.5000107586384,315.49999991059303A6,6,0,1,1,376.5000107586384,315.49999991059303A6,6,0,1,1,388.5000107586384,315.49999991059303"></path><path id="kity_path_226" fill="none" stroke="gray"></path></g><path id="node_outline15" fill="none" stroke="none" d="M393.5000107586384,306.49999991059303h91a5,5,0,0,1,5,5v8a5,5,0,0,1,-5,5h-91a5,5,0,0,1,-5,-5v-8a5,5,0,0,1,5,-5z"></path><g id="node_text15" fill="black"><text id="kity_text_119" text-rendering="inherit" font-size="12" dy=".8em" y="307.69999995827675" x="393.5000107586384">xaringanBuilder</text></g></g><g id="minder_node18"><g id="node_expander15" style="cursor: pointer;" display="none"><path id="kity_path_228" fill="white" stroke="gray" d="M388.5000107586384,341.5000006854534A6,6,0,1,1,376.5000107586384,341.5000006854534A6,6,0,1,1,388.5000107586384,341.5000006854534"></path><path id="kity_path_229" fill="none" stroke="gray"></path></g><path id="node_outline16" fill="none" stroke="none" d="M393.5000107586384,332.5000006854534h20a5,5,0,0,1,5,5v8a5,5,0,0,1,-5,5h-20a5,5,0,0,1,-5,-5v-8a5,5,0,0,1,5,-5z"></path><g id="node_text16" fill="black"><text id="kity_text_121" text-rendering="inherit" font-size="12" dy=".8em" y="333.70000073313713" x="393.5000107586384">.......</text></g></g><g id="minder_node19"><path id="kity_path_279" fill="rgba(0, 0, 0, .25)" stroke="none" d="M204.50000515580177,464.50000458955765h64a10,10,0,0,1,10,10v6a10,10,0,0,1,-10,10h-64a10,10,0,0,1,-10,-10v-6a10,10,0,0,1,10,-10z" display="none"></path><g id="node_expander31" style="cursor: pointer;"><path id="kity_path_276" fill="white" stroke="gray" d="M184.50000515580177,472.50000458955765A6,6,0,1,1,172.50000515580177,472.50000458955765A6,6,0,1,1,184.50000515580177,472.50000458955765"></path><path id="kity_path_277" fill="none" stroke="gray" d="M174.00000515580177,472.50000458955765L183.00000515580177,472.50000458955765"></path></g><path id="node_outline32" fill="rgb(238, 243, 246)" stroke="rgb(115, 161, 191)" d="M188.50000515580177,459.50000458955765h82a3,3,0,0,1,3,3v20a3,3,0,0,1,-3,3h-82a3,3,0,0,1,-3,-3v-20a3,3,0,0,1,3,-3z" stroke-width="1"></path><g id="node_text32" fill="black"><text id="kity_text_153" text-rendering="inherit" font-size="14" dy=".8em" y="463.4000046849251" x="205.50000515580177">Quarto</text></g></g><g id="minder_node20"><g id="node_expander19" style="cursor: pointer;"><path id="kity_path_240" fill="white" stroke="gray" d="M289.50000780820847,375.5000016987324A6,6,0,1,1,277.50000780820847,375.5000016987324A6,6,0,1,1,289.50000780820847,375.5000016987324"></path><path id="kity_path_241" fill="none" stroke="gray" d="M279.00000780820847,375.5000016987324L288.00000780820847,375.5000016987324"></path></g><path id="node_outline20" fill="none" stroke="none" d="M294.50000780820847,366.5000016987324h133a5,5,0,0,1,5,5v8a5,5,0,0,1,-5,5h-133a5,5,0,0,1,-5,-5v-8a5,5,0,0,1,5,-5z"></path><g id="node_text20" fill="black"><text id="kity_text_129" text-rendering="inherit" font-size="12" dy=".8em" y="367.7000017464161" x="294.50000780820847">Compare to Bookdown</text></g></g><g id="minder_node21"><g id="node_expander18" style="cursor: pointer;" display="none"><path id="kity_path_237" fill="white" stroke="gray" d="M448.5000125467777,375.5000016987324A6,6,0,1,1,436.5000125467777,375.5000016987324A6,6,0,1,1,448.5000125467777,375.5000016987324"></path><path id="kity_path_238" fill="none" stroke="gray"></path></g><path id="node_outline19" fill="none" stroke="none" d="M453.5000125467777,366.5000016987324h77a5,5,0,0,1,5,5v8a5,5,0,0,1,-5,5h-77a5,5,0,0,1,-5,-5v-8a5,5,0,0,1,5,-5z"></path><g id="node_text19" fill="black"><text id="kity_text_127" text-rendering="inherit" font-size="12" dy=".8em" y="367.7000017464161" x="453.5000125467777">Less complex</text></g></g><g id="minder_node22"><g id="node_expander24" style="cursor: pointer;"><path id="kity_path_255" fill="white" stroke="gray" d="M289.50000780820847,440.50000363588333A6,6,0,1,1,277.50000780820847,440.50000363588333A6,6,0,1,1,289.50000780820847,440.50000363588333"></path><path id="kity_path_256" fill="none" stroke="gray" d="M279.00000780820847,440.50000363588333L288.00000780820847,440.50000363588333"></path></g><path id="node_outline25" fill="none" stroke="none" d="M294.50000780820847,431.50000363588333h50a5,5,0,0,1,5,5v8a5,5,0,0,1,-5,5h-50a5,5,0,0,1,-5,-5v-8a5,5,0,0,1,5,-5z"></path><g id="node_text25" fill="black"><text id="kity_text_139" text-rendering="inherit" font-size="12" dy=".8em" y="432.70000368356705" x="294.50000780820847">Function</text></g></g><g id="minder_node23"><g id="node_expander20" style="cursor: pointer;" display="none"><path id="kity_path_243" fill="white" stroke="gray" d="M365.50001007318497,401.50000247359276A6,6,0,1,1,353.50001007318497,401.50000247359276A6,6,0,1,1,365.50001007318497,401.50000247359276"></path><path id="kity_path_244" fill="none" stroke="gray"></path></g><path id="node_outline21" fill="none" stroke="none" d="M370.50001007318497,392.50000247359276h35a5,5,0,0,1,5,5v8a5,5,0,0,1,-5,5h-35a5,5,0,0,1,-5,-5v-8a5,5,0,0,1,5,-5z"></path><g id="node_text21" fill="black"><text id="kity_text_131" text-rendering="inherit" font-size="12" dy=".8em" y="393.7000025212765" x="370.50001007318497">Tables</text></g></g><g id="minder_node24"><g id="node_expander21" style="cursor: pointer;" display="none"><path id="kity_path_246" fill="white" stroke="gray" d="M365.50001007318497,427.50000324845314A6,6,0,1,1,353.50001007318497,427.50000324845314A6,6,0,1,1,365.50001007318497,427.50000324845314"></path><path id="kity_path_247" fill="none" stroke="gray"></path></g><path id="node_outline22" fill="none" stroke="none" d="M370.50001007318497,418.50000324845314h100a5,5,0,0,1,5,5v8a5,5,0,0,1,-5,5h-100a5,5,0,0,1,-5,-5v-8a5,5,0,0,1,5,-5z"></path><g id="node_text22" fill="black"><text id="kity_text_133" text-rendering="inherit" font-size="12" dy=".8em" y="419.70000329613686" x="370.50001007318497">Cross referencing</text></g></g><g id="minder_node25"><g id="node_expander22" style="cursor: pointer;" display="none"><path id="kity_path_249" fill="white" stroke="gray" d="M365.50001007318497,453.5000040233135A6,6,0,1,1,353.50001007318497,453.5000040233135A6,6,0,1,1,365.50001007318497,453.5000040233135"></path><path id="kity_path_250" fill="none" stroke="gray"></path></g><path id="node_outline23" fill="none" stroke="none" d="M370.50001007318497,444.5000040233135h57a5,5,0,0,1,5,5v8a5,5,0,0,1,-5,5h-57a5,5,0,0,1,-5,-5v-8a5,5,0,0,1,5,-5z"></path><g id="node_text23" fill="black"><text id="kity_text_135" text-rendering="inherit" font-size="12" dy=".8em" y="445.70000407099724" x="370.50001007318497">Equations</text></g></g><g id="minder_node26"><g id="node_expander23" style="cursor: pointer;" display="none"><path id="kity_path_252" fill="white" stroke="gray" d="M365.50001007318497,479.5000047981739A6,6,0,1,1,353.50001007318497,479.5000047981739A6,6,0,1,1,365.50001007318497,479.5000047981739"></path><path id="kity_path_253" fill="none" stroke="gray"></path></g><path id="node_outline24" fill="none" stroke="none" d="M370.50001007318497,470.5000047981739h34a5,5,0,0,1,5,5v8a5,5,0,0,1,-5,5h-34a5,5,0,0,1,-5,-5v-8a5,5,0,0,1,5,-5z"></path><g id="node_text24" fill="black"><text id="kity_text_137" text-rendering="inherit" font-size="12" dy=".8em" y="471.7000048458576" x="370.50001007318497">Citing</text></g></g><g id="minder_node27"><g id="node_expander27" style="cursor: pointer;"><path id="kity_path_264" fill="white" stroke="gray" d="M289.50000780820847,518.5000059604645A6,6,0,1,1,277.50000780820847,518.5000059604645A6,6,0,1,1,289.50000780820847,518.5000059604645"></path><path id="kity_path_265" fill="none" stroke="gray" d="M279.00000780820847,518.5000059604645L288.00000780820847,518.5000059604645"></path></g><path id="node_outline28" fill="none" stroke="none" d="M294.50000780820847,509.5000059604645h38a5,5,0,0,1,5,5v8a5,5,0,0,1,-5,5h-38a5,5,0,0,1,-5,-5v-8a5,5,0,0,1,5,-5z"></path><g id="node_text28" fill="black"><text id="kity_text_145" text-rendering="inherit" font-size="12" dy=".8em" y="510.7000060081482" x="294.50000780820847">Export</text></g></g><g id="minder_node28"><g id="node_expander25" style="cursor: pointer;" display="none"><path id="kity_path_258" fill="white" stroke="gray" d="M353.5000097155571,505.5000055730343A6,6,0,1,1,341.5000097155571,505.5000055730343A6,6,0,1,1,353.5000097155571,505.5000055730343"></path><path id="kity_path_259" fill="none" stroke="gray"></path></g><path id="node_outline26" fill="none" stroke="none" d="M358.5000097155571,496.5000055730343h33a5,5,0,0,1,5,5v8a5,5,0,0,1,-5,5h-33a5,5,0,0,1,-5,-5v-8a5,5,0,0,1,5,-5z"></path><g id="node_text26" fill="black"><text id="kity_text_141" text-rendering="inherit" font-size="12" dy=".8em" y="497.700005620718" x="358.5000097155571">Slides</text></g></g><g id="minder_node29"><g id="node_expander26" style="cursor: pointer;" display="none"><path id="kity_path_261" fill="white" stroke="gray" d="M353.5000097155571,531.5000063478947A6,6,0,1,1,341.5000097155571,531.5000063478947A6,6,0,1,1,353.5000097155571,531.5000063478947"></path><path id="kity_path_262" fill="none" stroke="gray"></path></g><path id="node_outline27" fill="none" stroke="none" d="M358.5000097155571,522.5000063478947h84a5,5,0,0,1,5,5v8a5,5,0,0,1,-5,5h-84a5,5,0,0,1,-5,-5v-8a5,5,0,0,1,5,-5z"></path><g id="node_text27" fill="black"><text id="kity_text_143" text-rendering="inherit" font-size="12" dy=".8em" y="523.7000063955784" x="358.5000097155571">Word and PDF</text></g></g><g id="minder_node30"><g id="node_expander30" style="cursor: pointer;"><path id="kity_path_273" fill="white" stroke="gray" d="M289.50000780820847,570.5000075101852A6,6,0,1,1,277.50000780820847,570.5000075101852A6,6,0,1,1,289.50000780820847,570.5000075101852"></path><path id="kity_path_274" fill="none" stroke="gray" d="M279.00000780820847,570.5000075101852L288.00000780820847,570.5000075101852"></path></g><path id="node_outline31" fill="none" stroke="none" d="M294.50000780820847,561.5000075101852h23a5,5,0,0,1,5,5v8a5,5,0,0,1,-5,5h-23a5,5,0,0,1,-5,-5v-8a5,5,0,0,1,5,-5z"></path><g id="node_text31" fill="black"><text id="kity_text_151" text-rendering="inherit" font-size="12" dy=".8em" y="562.700007557869" x="294.50000780820847">Tips</text></g></g><g id="minder_node31"><g id="node_expander28" style="cursor: pointer;" display="none"><path id="kity_path_267" fill="white" stroke="gray" d="M338.50000926852226,557.500007122755A6,6,0,1,1,326.50000926852226,557.500007122755A6,6,0,1,1,338.50000926852226,557.500007122755"></path><path id="kity_path_268" fill="none" stroke="gray"></path></g><path id="node_outline29" fill="none" stroke="none" d="M343.50000926852226,548.500007122755h45a5,5,0,0,1,5,5v8a5,5,0,0,1,-5,5h-45a5,5,0,0,1,-5,-5v-8a5,5,0,0,1,5,-5z"></path><g id="node_text29" fill="black"><text id="kity_text_147" text-rendering="inherit" font-size="12" dy=".8em" y="549.7000071704388" x="343.50000926852226">Hosting</text></g></g><g id="minder_node32"><g id="node_expander29" style="cursor: pointer;" display="none"><path id="kity_path_270" fill="white" stroke="gray" d="M338.50000926852226,583.5000078976154A6,6,0,1,1,326.50000926852226,583.5000078976154A6,6,0,1,1,338.50000926852226,583.5000078976154"></path><path id="kity_path_271" fill="none" stroke="gray"></path></g><path id="node_outline30" fill="none" stroke="none" d="M343.50000926852226,574.5000078976154h290a5,5,0,0,1,5,5v8a5,5,0,0,1,-5,5h-290a5,5,0,0,1,-5,-5v-8a5,5,0,0,1,5,-5z"></path><g id="node_text30" fill="black"><text id="kity_text_149" text-rendering="inherit" font-size="12" dy=".8em" y="575.7000079452991" x="343.50000926852226">DONT do analysis and thesis in the same R project</text></g></g></g></g></svg>