<svg id="kity_svg_6" xmlns="http://www.w3.org/2000/svg" xmlns:xlink="http://www.w3.org/1999/xlink" version="1.1" width="977" height="691" style="background: rgb(251, 251, 251); visibility: visible;" viewBox="0 0 977 691"><defs id="kity_defs_7"><linearGradient id="kity_linearGradient_17" x1="0" y1="0" x2="0" y2="1"><stop id="kity_stop_18" offset="0" stop-color="rgb(255, 255, 255)"></stop><stop id="kity_stop_19" offset="1" stop-color="rgb(204, 204, 204)"></stop></linearGradient><marker id="kity_marker_2" orient="auto" refX="6" refY="0" viewBox="-7 -7 14 14" markerWidth="7" markerHeight="7" markerUnits="userSpaceOnUse"><path id="kity_path_3" fill="rgb(115, 161, 191)" stroke="none" d="M6,0A6,6,0,1,1,-6,0A6,6,0,1,1,6,0"></path></marker></defs><g id="kity_g_8"><g id="minder1" text-rendering="optimize-speed"><g id="minder_connect_group1"><path id="kity_path_31" fill="none" stroke="rgb(115, 161, 191)" stroke-width="1" d="M120,376.5A115.5,139,0,0,1,235.5,237.5"></path><path id="kity_path_33" fill="none" stroke="rgb(115, 161, 191)" stroke-width="1" d="M354.5,237.5C362.5,237.5,362.5,55.5,370.5,55.5"></path><path id="kity_path_35" fill="none" stroke="rgb(115, 161, 191)" stroke-width="1" d="M440.5,55.5C448.5,55.5,448.5,29.5,456.5,29.5"></path><path id="kity_path_37" fill="none" stroke="rgb(115, 161, 191)" stroke-width="1" d="M440.5,55.5C448.5,55.5,448.5,55.5,456.5,55.5"></path><path id="kity_path_39" fill="none" stroke="rgb(115, 161, 191)" stroke-width="1" d="M440.5,55.5C448.5,55.5,448.5,81.5,456.5,81.5"></path><path id="kity_path_41" fill="none" stroke="rgb(115, 161, 191)" stroke-width="1" d="M354.5,237.5C362.5,237.5,362.5,185.5,370.5,185.5"></path><path id="kity_path_43" fill="none" stroke="rgb(115, 161, 191)" stroke-width="1" d="M454.5,185.5C462.5,185.5,462.5,133.5,470.5,133.5"></path><path id="kity_path_45" fill="none" stroke="rgb(115, 161, 191)" stroke-width="1" d="M613.5,133.5C621.5,133.5,621.5,107.5,629.5,107.5"></path><path id="kity_path_47" fill="none" stroke="rgb(115, 161, 191)" stroke-width="1" d="M613.5,133.5C621.5,133.5,621.5,133.5,629.5,133.5"></path><path id="kity_path_49" fill="none" stroke="rgb(115, 161, 191)" stroke-width="1" d="M613.5,133.5C621.5,133.5,621.5,159.5,629.5,159.5"></path><path id="kity_path_51" fill="none" stroke="rgb(115, 161, 191)" stroke-width="1" d="M454.5,185.5C462.5,185.5,462.5,198.5,470.5,198.5"></path><path id="kity_path_53" fill="none" stroke="rgb(115, 161, 191)" stroke-width="1" d="M596.5,198.5C604.5,198.5,604.5,185.5,612.5,185.5"></path><path id="kity_path_55" fill="none" stroke="rgb(115, 161, 191)" stroke-width="1" d="M596.5,198.5C604.5,198.5,604.5,211.5,612.5,211.5"></path><path id="kity_path_57" fill="none" stroke="rgb(115, 161, 191)" stroke-width="1" d="M454.5,185.5C462.5,185.5,462.5,237.5,470.5,237.5"></path><path id="kity_path_59" fill="none" stroke="rgb(115, 161, 191)" stroke-width="1" d="M354.5,237.5C362.5,237.5,362.5,302.5,370.5,302.5"></path><path id="kity_path_61" fill="none" stroke="rgb(115, 161, 191)" stroke-width="1" d="M513.5,302.5C521.5,302.5,521.5,302.5,529.5,302.5"></path><path id="kity_path_63" fill="none" stroke="rgb(115, 161, 191)" stroke-width="1" d="M590.5,302.5C598.5,302.5,598.5,263.5,606.5,263.5"></path><path id="kity_path_65" fill="none" stroke="rgb(115, 161, 191)" stroke-width="1" d="M590.5,302.5C598.5,302.5,598.5,289.5,606.5,289.5"></path><path id="kity_path_67" fill="none" stroke="rgb(115, 161, 191)" stroke-width="1" d="M590.5,302.5C598.5,302.5,598.5,315.5,606.5,315.5"></path><path id="kity_path_69" fill="none" stroke="rgb(115, 161, 191)" stroke-width="1" d="M590.5,302.5C598.5,302.5,598.5,341.5,606.5,341.5"></path><path id="kity_path_71" fill="none" stroke="rgb(115, 161, 191)" stroke-width="1" d="M354.5,237.5C362.5,237.5,362.5,367.5,370.5,367.5"></path><path id="kity_path_73" fill="none" stroke="rgb(115, 161, 191)" stroke-width="1" d="M449.5,367.5C457.5,367.5,457.5,367.5,465.5,367.5"></path><path id="kity_path_75" fill="none" stroke="rgb(115, 161, 191)" stroke-width="1" d="M354.5,237.5C362.5,237.5,362.5,419.5,370.5,419.5"></path><path id="kity_path_77" fill="none" stroke="rgb(115, 161, 191)" stroke-width="1" d="M414.5,419.5C422.5,419.5,422.5,393.5,430.5,393.5"></path><path id="kity_path_79" fill="none" stroke="rgb(115, 161, 191)" stroke-width="1" d="M414.5,419.5C422.5,419.5,422.5,419.5,430.5,419.5"></path><path id="kity_path_81" fill="none" stroke="rgb(115, 161, 191)" stroke-width="1" d="M414.5,419.5C422.5,419.5,422.5,445.5,430.5,445.5"></path><path id="kity_path_83" fill="none" stroke="rgb(115, 161, 191)" stroke-width="1" d="M120,376.5A115.5,139,0,0,0,235.5,515.5"></path><path id="kity_path_85" fill="none" stroke="rgb(115, 161, 191)" stroke-width="1" d="M472.5,515.5C480.5,515.5,480.5,479.5,488.5,479.5"></path><path id="kity_path_87" fill="none" stroke="rgb(115, 161, 191)" stroke-width="1" d="M559.5,479.5C567.5,479.5,567.5,479.5,575.5,479.5"></path><path id="kity_path_89" fill="none" stroke="rgb(115, 161, 191)" stroke-width="1" d="M472.5,515.5C480.5,515.5,480.5,551.5,488.5,551.5"></path><path id="kity_path_91" fill="none" stroke="rgb(115, 161, 191)" stroke-width="1" d="M616.5,551.5C624.5,551.5,624.5,506.5,632.5,506.5"></path><path id="kity_path_93" fill="none" stroke="rgb(115, 161, 191)" stroke-width="1" d="M666.5,506.5C674.5,506.5,674.5,506.5,682.5,506.5"></path><path id="kity_path_95" fill="none" stroke="rgb(115, 161, 191)" stroke-width="1" d="M616.5,551.5C624.5,551.5,624.5,597.5,632.5,597.5"></path><path id="kity_path_97" fill="none" stroke="rgb(115, 161, 191)" stroke-width="1" d="M669.5,597.5C677.5,597.5,677.5,532.5,685.5,532.5"></path><path id="kity_path_99" fill="none" stroke="rgb(115, 161, 191)" stroke-width="1" d="M669.5,597.5C677.5,597.5,677.5,558.5,685.5,558.5"></path><path id="kity_path_101" fill="none" stroke="rgb(115, 161, 191)" stroke-width="1" d="M669.5,597.5C677.5,597.5,677.5,584.5,685.5,584.5"></path><path id="kity_path_103" fill="none" stroke="rgb(115, 161, 191)" stroke-width="1" d="M669.5,597.5C677.5,597.5,677.5,610.5,685.5,610.5"></path><path id="kity_path_105" fill="none" stroke="rgb(115, 161, 191)" stroke-width="1" d="M669.5,597.5C677.5,597.5,677.5,636.5,685.5,636.5"></path><path id="kity_path_107" fill="none" stroke="rgb(115, 161, 191)" stroke-width="1" d="M669.5,597.5C677.5,597.5,677.5,662.5,685.5,662.5"></path></g><g id="minder_node1"><path id="kity_path_345" fill="rgba(0, 0, 0, .25)" stroke="none" d="M33.5,359.5h268a22,22,0,0,1,22,22v0a22,22,0,0,1,-22,22h-268a22,22,0,0,1,-22,-22v0a22,22,0,0,1,22,-22z" display="none"></path><path id="node_outline1" fill="rgb(115, 161, 191)" stroke="rgb(115, 161, 191)" d="M25.5,362.5h189a5,5,0,0,1,5,5v18a5,5,0,0,1,-5,5h-189a5,5,0,0,1,-5,-5v-18a5,5,0,0,1,5,-5z" stroke-width="3"></path><g id="node_text1" fill="white"><text id="kity_text_22" text-rendering="inherit" font-size="16" dy=".8em" y="366.09999990463257" x="32.5">3 Remote sensing data</text></g></g><g id="kity_g_12"><path id="kity_path_13" fill="none" stroke="none" d="M32.5,376.5h0v0h0z"></path></g><g id="kity_g_14"><path id="kity_path_15" fill="none" stroke="none" d="M32.5,376.5h0v0h0z"></path><path id="kity_path_16" fill="none" stroke="none"></path></g><g id="minder_node2"><path id="kity_path_343" fill="rgba(0, 0, 0, .25)" stroke="none" d="M256.50000670552254,229.4999958574772h98a10,10,0,0,1,10,10v6a10,10,0,0,1,-10,10h-98a10,10,0,0,1,-10,-10v-6a10,10,0,0,1,10,-10z" display="none"></path><g id="node_expander26" style="cursor: pointer;"><path id="kity_path_302" fill="white" stroke="gray" d="M236.50000670552254,237.4999958574772A6,6,0,1,1,224.50000670552254,237.4999958574772A6,6,0,1,1,236.50000670552254,237.4999958574772"></path><path id="kity_path_303" fill="none" stroke="gray" d="M226.00000670552254,237.4999958574772L235.00000670552254,237.4999958574772"></path></g><path id="node_outline27" fill="rgb(238, 243, 246)" stroke="rgb(115, 161, 191)" d="M240.50000670552254,224.4999958574772h111a3,3,0,0,1,3,3v20a3,3,0,0,1,-3,3h-111a3,3,0,0,1,-3,-3v-20a3,3,0,0,1,3,-3z" stroke-width="1"></path><g id="node_text27" fill="black"><text id="kity_text_160" text-rendering="inherit" font-size="14" dy=".8em" y="228.39999595284462" x="257.50000670552254">Corrections</text></g></g><g id="minder_node3"><g id="node_expander4" style="cursor: pointer;"><path id="kity_path_236" fill="white" stroke="gray" d="M370.5000102221966,55.49999043345451A6,6,0,1,1,358.5000102221966,55.49999043345451A6,6,0,1,1,370.5000102221966,55.49999043345451"></path><path id="kity_path_237" fill="none" stroke="gray" d="M360.0000102221966,55.49999043345451L369.0000102221966,55.49999043345451"></path></g><path id="node_outline5" fill="none" stroke="none" d="M375.5000102221966,46.49999043345451h60a5,5,0,0,1,5,5v8a5,5,0,0,1,-5,5h-60a5,5,0,0,1,-5,-5v-8a5,5,0,0,1,5,-5z"></path><g id="node_text5" fill="black"><text id="kity_text_115" text-rendering="inherit" font-size="12" dy=".8em" y="47.69999048113823" x="375.5000102221966">Geometric</text></g></g><g id="minder_node4"><g id="node_expander1" style="cursor: pointer;" display="none"><path id="kity_path_227" fill="white" stroke="gray" d="M456.5000127851963,29.49998965859413A6,6,0,1,1,444.5000127851963,29.49998965859413A6,6,0,1,1,456.5000127851963,29.49998965859413"></path><path id="kity_path_228" fill="none" stroke="gray"></path></g><path id="node_outline2" fill="none" stroke="none" d="M461.5000127851963,20.49998965859413h163a5,5,0,0,1,5,5v8a5,5,0,0,1,-5,5h-163a5,5,0,0,1,-5,-5v-8a5,5,0,0,1,5,-5z"></path><g id="node_text2" fill="black"><text id="kity_text_109" text-rendering="inherit" font-size="12" dy=".8em" y="21.699989706277847" x="461.5000127851963">Ground Control Points (GPS)</text></g></g><g id="minder_node5"><g id="node_expander2" style="cursor: pointer;" display="none"><path id="kity_path_230" fill="white" stroke="gray" d="M456.5000127851963,55.49999043345451A6,6,0,1,1,444.5000127851963,55.49999043345451A6,6,0,1,1,456.5000127851963,55.49999043345451"></path><path id="kity_path_231" fill="none" stroke="gray"></path></g><path id="node_outline3" fill="none" stroke="none" d="M461.5000127851963,46.49999043345451h153a5,5,0,0,1,5,5v8a5,5,0,0,1,-5,5h-153a5,5,0,0,1,-5,-5v-8a5,5,0,0,1,5,-5z"></path><g id="node_text3" fill="black"><text id="kity_text_111" text-rendering="inherit" font-size="12" dy=".8em" y="47.69999048113823" x="461.5000127851963">Coordinate transformation</text></g></g><g id="minder_node6"><g id="node_expander3" style="cursor: pointer;" display="none"><path id="kity_path_233" fill="white" stroke="gray" d="M456.5000127851963,81.49999120831484A6,6,0,1,1,444.5000127851963,81.49999120831484A6,6,0,1,1,456.5000127851963,81.49999120831484"></path><path id="kity_path_234" fill="none" stroke="gray"></path></g><path id="node_outline4" fill="none" stroke="none" d="M461.5000127851963,72.49999120831484h140a5,5,0,0,1,5,5v8a5,5,0,0,1,-5,5h-140a5,5,0,0,1,-5,-5v-8a5,5,0,0,1,5,-5z"></path><g id="node_text4" fill="black"><text id="kity_text_113" text-rendering="inherit" font-size="12" dy=".8em" y="73.69999125599855" x="461.5000127851963">Plot and minimise RMSE</text></g></g><g id="minder_node7"><g id="node_expander13" style="cursor: pointer;"><path id="kity_path_263" fill="white" stroke="gray" d="M370.5000102221966,185.49999430775642A6,6,0,1,1,358.5000102221966,185.49999430775642A6,6,0,1,1,370.5000102221966,185.49999430775642"></path><path id="kity_path_264" fill="none" stroke="gray" d="M360.0000102221966,185.49999430775642L369.0000102221966,185.49999430775642"></path></g><path id="node_outline14" fill="none" stroke="none" d="M375.5000102221966,176.49999430775642h74a5,5,0,0,1,5,5v8a5,5,0,0,1,-5,5h-74a5,5,0,0,1,-5,-5v-8a5,5,0,0,1,5,-5z"></path><g id="node_text14" fill="black"><text id="kity_text_133" text-rendering="inherit" font-size="12" dy=".8em" y="177.69999435544014" x="375.5000102221966">Atmospheric</text></g></g><g id="minder_node8"><g id="node_expander8" style="cursor: pointer;"><path id="kity_path_248" fill="white" stroke="gray" d="M470.5000132024288,133.49999275803566A6,6,0,1,1,458.5000132024288,133.49999275803566A6,6,0,1,1,470.5000132024288,133.49999275803566"></path><path id="kity_path_249" fill="none" stroke="gray" d="M460.0000132024288,133.49999275803566L469.0000132024288,133.49999275803566"></path></g><path id="node_outline9" fill="none" stroke="none" d="M475.5000132024288,124.49999275803566h133a5,5,0,0,1,5,5v8a5,5,0,0,1,-5,5h-133a5,5,0,0,1,-5,-5v-8a5,5,0,0,1,5,-5z"></path><g id="node_text9" fill="black"><text id="kity_text_123" text-rendering="inherit" font-size="12" dy=".8em" y="125.69999280571938" x="475.5000132024288">Relative (to something)</text></g></g><g id="minder_node9"><g id="node_expander5" style="cursor: pointer;" display="none"><path id="kity_path_239" fill="white" stroke="gray" d="M629.5000179409981,107.49999198317528A6,6,0,1,1,617.5000179409981,107.49999198317528A6,6,0,1,1,629.5000179409981,107.49999198317528"></path><path id="kity_path_240" fill="none" stroke="gray"></path></g><path id="node_outline6" fill="none" stroke="none" d="M634.5000179409981,98.49999198317528h318a5,5,0,0,1,5,5v8a5,5,0,0,1,-5,5h-318a5,5,0,0,1,-5,-5v-8a5,5,0,0,1,5,-5z"></path><g id="node_text6" fill="black"><text id="kity_text_117" text-rendering="inherit" font-size="12" dy=".8em" y="99.699992030859" x="634.5000179409981">Dark object subtraction (DOS) or histogram adjustment</text></g></g><g id="minder_node10"><g id="node_expander6" style="cursor: pointer;" display="none"><path id="kity_path_242" fill="white" stroke="gray" d="M629.5000179409981,133.49999275803566A6,6,0,1,1,617.5000179409981,133.49999275803566A6,6,0,1,1,629.5000179409981,133.49999275803566"></path><path id="kity_path_243" fill="none" stroke="gray"></path></g><path id="node_outline7" fill="none" stroke="none" d="M634.5000179409981,124.49999275803566h184a5,5,0,0,1,5,5v8a5,5,0,0,1,-5,5h-184a5,5,0,0,1,-5,-5v-8a5,5,0,0,1,5,-5z"></path><g id="node_text7" fill="black"><text id="kity_text_119" text-rendering="inherit" font-size="12" dy=".8em" y="125.69999280571938" x="634.5000179409981">Psuedo-invariant Features (PIFs)</text></g></g><g id="minder_node11"><g id="node_expander7" style="cursor: pointer;" display="none"><path id="kity_path_245" fill="white" stroke="gray" d="M629.5000179409981,159.49999353289604A6,6,0,1,1,617.5000179409981,159.49999353289604A6,6,0,1,1,629.5000179409981,159.49999353289604"></path><path id="kity_path_246" fill="none" stroke="gray"></path></g><path id="node_outline8" fill="none" stroke="none" d="M634.5000179409981,150.49999353289604h17a5,5,0,0,1,5,5v8a5,5,0,0,1,-5,5h-17a5,5,0,0,1,-5,-5v-8a5,5,0,0,1,5,-5z"></path><g id="node_text8" fill="black"><text id="kity_text_121" text-rendering="inherit" font-size="12" dy=".8em" y="151.69999358057976" x="634.5000179409981">......</text></g></g><g id="minder_node12"><g id="node_expander11" style="cursor: pointer;"><path id="kity_path_257" fill="white" stroke="gray" d="M470.5000132024288,198.49999469518661A6,6,0,1,1,458.5000132024288,198.49999469518661A6,6,0,1,1,470.5000132024288,198.49999469518661"></path><path id="kity_path_258" fill="none" stroke="gray" d="M460.0000132024288,198.49999469518661L469.0000132024288,198.49999469518661"></path></g><path id="node_outline12" fill="none" stroke="none" d="M475.5000132024288,189.49999469518661h116a5,5,0,0,1,5,5v8a5,5,0,0,1,-5,5h-116a5,5,0,0,1,-5,-5v-8a5,5,0,0,1,5,-5z"></path><g id="node_text12" fill="black"><text id="kity_text_129" text-rendering="inherit" font-size="12" dy=".8em" y="190.69999474287033" x="475.5000132024288">Absolute (definitive)</text></g></g><g id="minder_node13"><g id="node_expander9" style="cursor: pointer;" display="none"><path id="kity_path_251" fill="white" stroke="gray" d="M612.5000174343586,185.49999430775642A6,6,0,1,1,600.5000174343586,185.49999430775642A6,6,0,1,1,612.5000174343586,185.49999430775642"></path><path id="kity_path_252" fill="none" stroke="gray"></path></g><path id="node_outline10" fill="none" stroke="none" d="M617.5000174343586,176.49999430775642h220a5,5,0,0,1,5,5v8a5,5,0,0,1,-5,5h-220a5,5,0,0,1,-5,-5v-8a5,5,0,0,1,5,-5z"></path><g id="node_text10" fill="black"><text id="kity_text_125" text-rendering="inherit" font-size="12" dy=".8em" y="177.69999435544014" x="617.5000174343586">Atmospheric radiative transfer models</text></g></g><g id="minder_node14"><g id="node_expander10" style="cursor: pointer;" display="none"><path id="kity_path_254" fill="white" stroke="gray" d="M612.5000174343586,211.4999950826168A6,6,0,1,1,600.5000174343586,211.4999950826168A6,6,0,1,1,612.5000174343586,211.4999950826168"></path><path id="kity_path_255" fill="none" stroke="gray"></path></g><path id="node_outline11" fill="none" stroke="none" d="M617.5000174343586,202.4999950826168h17a5,5,0,0,1,5,5v8a5,5,0,0,1,-5,5h-17a5,5,0,0,1,-5,-5v-8a5,5,0,0,1,5,-5z"></path><g id="node_text11" fill="black"><text id="kity_text_127" text-rendering="inherit" font-size="12" dy=".8em" y="203.69999513030052" x="617.5000174343586">......</text></g></g><g id="minder_node15"><g id="node_expander12" style="cursor: pointer;" display="none"><path id="kity_path_260" fill="white" stroke="gray" d="M470.5000132024288,237.4999958574772A6,6,0,1,1,458.5000132024288,237.4999958574772A6,6,0,1,1,470.5000132024288,237.4999958574772"></path><path id="kity_path_261" fill="none" stroke="gray"></path></g><path id="node_outline13" fill="none" stroke="none" d="M475.5000132024288,228.4999958574772h143a5,5,0,0,1,5,5v8a5,5,0,0,1,-5,5h-143a5,5,0,0,1,-5,-5v-8a5,5,0,0,1,5,-5z"></path><g id="node_text13" fill="black"><text id="kity_text_131" text-rendering="inherit" font-size="12" dy=".8em" y="229.6999959051609" x="475.5000132024288">Empirical Line Correction</text></g></g><g id="minder_node16"><g id="node_expander19" style="cursor: pointer;"><path id="kity_path_281" fill="white" stroke="gray" d="M370.5000102221966,302.49999779462814A6,6,0,1,1,358.5000102221966,302.49999779462814A6,6,0,1,1,370.5000102221966,302.49999779462814"></path><path id="kity_path_282" fill="none" stroke="gray" d="M360.0000102221966,302.49999779462814L369.0000102221966,302.49999779462814"></path></g><path id="node_outline20" fill="none" stroke="none" d="M375.5000102221966,284.49999779462814h133a5,5,0,0,1,5,5v26a5,5,0,0,1,-5,5h-133a5,5,0,0,1,-5,-5v-26a5,5,0,0,1,5,-5z"></path><g id="node_text20" fill="black"><text id="kity_text_145" text-rendering="inherit" font-size="12" dy=".8em" y="285.69999784231186" x="375.5000102221966">Orthorectification /</text><text id="kity_text_146" text-rendering="inherit" font-size="12" dy=".8em" y="303.69999784231186" x="375.5000102221966">Topographic correction</text></g></g><g id="minder_node17"><g id="node_expander18" style="cursor: pointer;"><path id="kity_path_278" fill="white" stroke="gray" d="M529.5000149607658,302.49999779462814A6,6,0,1,1,517.5000149607658,302.49999779462814A6,6,0,1,1,529.5000149607658,302.49999779462814"></path><path id="kity_path_279" fill="none" stroke="gray" d="M519.0000149607658,302.49999779462814L528.0000149607658,302.49999779462814"></path></g><path id="node_outline19" fill="none" stroke="none" d="M534.5000149607658,293.49999779462814h51a5,5,0,0,1,5,5v8a5,5,0,0,1,-5,5h-51a5,5,0,0,1,-5,-5v-8a5,5,0,0,1,5,-5z"></path><g id="node_text19" fill="black"><text id="kity_text_143" text-rendering="inherit" font-size="12" dy=".8em" y="294.69999784231186" x="534.5000149607658">Software</text></g></g><g id="minder_node18"><g id="node_expander14" style="cursor: pointer;" display="none"><path id="kity_path_266" fill="white" stroke="gray" d="M606.5000172555447,263.49999663233757A6,6,0,1,1,594.5000172555447,263.49999663233757A6,6,0,1,1,606.5000172555447,263.49999663233757"></path><path id="kity_path_267" fill="none" stroke="gray"></path></g><path id="node_outline15" fill="none" stroke="none" d="M611.5000172555447,254.49999663233757h29a5,5,0,0,1,5,5v8a5,5,0,0,1,-5,5h-29a5,5,0,0,1,-5,-5v-8a5,5,0,0,1,5,-5z"></path><g id="node_text15" fill="black"><text id="kity_text_135" text-rendering="inherit" font-size="12" dy=".8em" y="255.6999966800213" x="611.5000172555447">QGIS</text></g></g><g id="minder_node19"><g id="node_expander15" style="cursor: pointer;" display="none"><path id="kity_path_269" fill="white" stroke="gray" d="M606.5000172555447,289.49999740719795A6,6,0,1,1,594.5000172555447,289.49999740719795A6,6,0,1,1,606.5000172555447,289.49999740719795"></path><path id="kity_path_270" fill="none" stroke="gray"></path></g><path id="node_outline16" fill="none" stroke="none" d="M611.5000172555447,280.49999740719795h56a5,5,0,0,1,5,5v8a5,5,0,0,1,-5,5h-56a5,5,0,0,1,-5,-5v-8a5,5,0,0,1,5,-5z"></path><g id="node_text16" fill="black"><text id="kity_text_137" text-rendering="inherit" font-size="12" dy=".8em" y="281.69999745488167" x="611.5000172555447">SAGA GIS</text></g></g><g id="minder_node20"><g id="node_expander16" style="cursor: pointer;" display="none"><path id="kity_path_272" fill="white" stroke="gray" d="M606.5000172555447,315.49999818205833A6,6,0,1,1,594.5000172555447,315.49999818205833A6,6,0,1,1,606.5000172555447,315.49999818205833"></path><path id="kity_path_273" fill="none" stroke="gray"></path></g><path id="node_outline17" fill="none" stroke="none" d="M611.5000172555447,306.49999818205833h114a5,5,0,0,1,5,5v8a5,5,0,0,1,-5,5h-114a5,5,0,0,1,-5,-5v-8a5,5,0,0,1,5,-5z"></path><g id="node_text17" fill="black"><text id="kity_text_139" text-rendering="inherit" font-size="12" dy=".8em" y="307.69999822974205" x="611.5000172555447">R package topocorr</text></g></g><g id="minder_node21"><g id="node_expander17" style="cursor: pointer;" display="none"><path id="kity_path_275" fill="white" stroke="gray" d="M606.5000172555447,341.4999989569187A6,6,0,1,1,594.5000172555447,341.4999989569187A6,6,0,1,1,606.5000172555447,341.4999989569187"></path><path id="kity_path_276" fill="none" stroke="gray"></path></g><path id="node_outline18" fill="none" stroke="none" d="M611.5000172555447,332.4999989569187h122a5,5,0,0,1,5,5v8a5,5,0,0,1,-5,5h-122a5,5,0,0,1,-5,-5v-8a5,5,0,0,1,5,-5z"></path><g id="node_text18" fill="black"><text id="kity_text_141" text-rendering="inherit" font-size="12" dy=".8em" y="333.69999900460243" x="611.5000172555447">R package RStoolbox</text></g></g><g id="minder_node22"><g id="node_expander21" style="cursor: pointer;"><path id="kity_path_287" fill="white" stroke="gray" d="M370.5000102221966,367.4999997317791A6,6,0,1,1,358.5000102221966,367.4999997317791A6,6,0,1,1,370.5000102221966,367.4999997317791"></path><path id="kity_path_288" fill="none" stroke="gray" d="M360.0000102221966,367.4999997317791L369.0000102221966,367.4999997317791"></path></g><path id="node_outline22" fill="none" stroke="none" d="M375.5000102221966,358.4999997317791h69a5,5,0,0,1,5,5v8a5,5,0,0,1,-5,5h-69a5,5,0,0,1,-5,-5v-8a5,5,0,0,1,5,-5z"></path><g id="node_text22" fill="black"><text id="kity_text_150" text-rendering="inherit" font-size="12" dy=".8em" y="359.6999997794628" x="375.5000102221966">Radiometric</text></g></g><g id="minder_node23"><g id="node_expander20" style="cursor: pointer;" display="none"><path id="kity_path_284" fill="white" stroke="gray" d="M465.5000130534172,367.4999997317791A6,6,0,1,1,453.5000130534172,367.4999997317791A6,6,0,1,1,465.5000130534172,367.4999997317791"></path><path id="kity_path_285" fill="none" stroke="gray"></path></g><path id="node_outline21" fill="none" stroke="none" d="M470.5000130534172,358.4999997317791h103a5,5,0,0,1,5,5v8a5,5,0,0,1,-5,5h-103a5,5,0,0,1,-5,-5v-8a5,5,0,0,1,5,-5z"></path><g id="node_text21" fill="black"><text id="kity_text_148" text-rendering="inherit" font-size="12" dy=".8em" y="359.6999997794628" x="470.5000130534172">Sensor calibration</text></g></g><g id="minder_node24"><g id="node_expander25" style="cursor: pointer;"><path id="kity_path_299" fill="white" stroke="gray" d="M370.5000102221966,419.50000128149986A6,6,0,1,1,358.5000102221966,419.50000128149986A6,6,0,1,1,370.5000102221966,419.50000128149986"></path><path id="kity_path_300" fill="none" stroke="gray" d="M360.0000102221966,419.50000128149986L369.0000102221966,419.50000128149986"></path></g><path id="node_outline26" fill="none" stroke="none" d="M375.5000102221966,410.50000128149986h34a5,5,0,0,1,5,5v8a5,5,0,0,1,-5,5h-34a5,5,0,0,1,-5,-5v-8a5,5,0,0,1,5,-5z"></path><g id="node_text26" fill="black"><text id="kity_text_158" text-rendering="inherit" font-size="12" dy=".8em" y="411.7000013291836" x="375.5000102221966">Terms</text></g></g><g id="minder_node25"><g id="node_expander22" style="cursor: pointer;" display="none"><path id="kity_path_290" fill="white" stroke="gray" d="M430.5000120103359,393.5000005066395A6,6,0,1,1,418.5000120103359,393.5000005066395A6,6,0,1,1,430.5000120103359,393.5000005066395"></path><path id="kity_path_291" fill="none" stroke="gray"></path></g><path id="node_outline23" fill="none" stroke="none" d="M435.5000120103359,384.5000005066395h19a5,5,0,0,1,5,5v8a5,5,0,0,1,-5,5h-19a5,5,0,0,1,-5,-5v-8a5,5,0,0,1,5,-5z"></path><g id="node_text23" fill="black"><text id="kity_text_152" text-rendering="inherit" font-size="12" dy=".8em" y="385.7000005543232" x="435.5000120103359">DN</text></g></g><g id="minder_node26"><g id="node_expander23" style="cursor: pointer;" display="none"><path id="kity_path_293" fill="white" stroke="gray" d="M430.5000120103359,419.50000128149986A6,6,0,1,1,418.5000120103359,419.50000128149986A6,6,0,1,1,430.5000120103359,419.50000128149986"></path><path id="kity_path_294" fill="none" stroke="gray"></path></g><path id="node_outline24" fill="none" stroke="none" d="M435.5000120103359,410.50000128149986h52a5,5,0,0,1,5,5v8a5,5,0,0,1,-5,5h-52a5,5,0,0,1,-5,-5v-8a5,5,0,0,1,5,-5z"></path><g id="node_text24" fill="black"><text id="kity_text_154" text-rendering="inherit" font-size="12" dy=".8em" y="411.7000013291836" x="435.5000120103359">Radiance</text></g></g><g id="minder_node27"><g id="node_expander24" style="cursor: pointer;" display="none"><path id="kity_path_296" fill="white" stroke="gray" d="M430.5000120103359,445.50000205636024A6,6,0,1,1,418.5000120103359,445.50000205636024A6,6,0,1,1,430.5000120103359,445.50000205636024"></path><path id="kity_path_297" fill="none" stroke="gray"></path></g><path id="node_outline25" fill="none" stroke="none" d="M435.5000120103359,436.50000205636024h66a5,5,0,0,1,5,5v8a5,5,0,0,1,-5,5h-66a5,5,0,0,1,-5,-5v-8a5,5,0,0,1,5,-5z"></path><g id="node_text25" fill="black"><text id="kity_text_156" text-rendering="inherit" font-size="12" dy=".8em" y="437.70000210404396" x="435.5000120103359">Reflectance</text></g></g><g id="minder_node28"><path id="kity_path_344" fill="rgba(0, 0, 0, .25)" stroke="none" d="M256.50000670552254,507.5000041425228h232a10,10,0,0,1,10,10v6a10,10,0,0,1,-10,10h-232a10,10,0,0,1,-10,-10v-6a10,10,0,0,1,10,-10z" display="none"></path><g id="node_expander39" style="cursor: pointer;"><path id="kity_path_341" fill="white" stroke="gray" d="M236.50000670552254,515.5000041425228A6,6,0,1,1,224.50000670552254,515.5000041425228A6,6,0,1,1,236.50000670552254,515.5000041425228"></path><path id="kity_path_342" fill="none" stroke="gray" d="M226.00000670552254,515.5000041425228L235.00000670552254,515.5000041425228"></path></g><path id="node_outline40" fill="rgb(238, 243, 246)" stroke="rgb(115, 161, 191)" d="M240.50000670552254,502.5000041425228h229a3,3,0,0,1,3,3v20a3,3,0,0,1,-3,3h-229a3,3,0,0,1,-3,-3v-20a3,3,0,0,1,3,-3z" stroke-width="1"></path><g id="node_text40" fill="black"><text id="kity_text_186" text-rendering="inherit" font-size="14" dy=".8em" y="506.40000423789024" x="257.50000670552254">Data joing and enhancement</text></g></g><g id="minder_node29"><g id="node_expander28" style="cursor: pointer;"><path id="kity_path_308" fill="white" stroke="gray" d="M488.5000137388706,479.5000030696392A6,6,0,1,1,476.5000137388706,479.5000030696392A6,6,0,1,1,488.5000137388706,479.5000030696392"></path><path id="kity_path_309" fill="none" stroke="gray" d="M478.0000137388706,479.5000030696392L487.0000137388706,479.5000030696392"></path></g><path id="node_outline29" fill="none" stroke="none" d="M493.5000137388706,470.5000030696392h61a5,5,0,0,1,5,5v8a5,5,0,0,1,-5,5h-61a5,5,0,0,1,-5,-5v-8a5,5,0,0,1,5,-5z"></path><g id="node_text29" fill="black"><text id="kity_text_164" text-rendering="inherit" font-size="12" dy=".8em" y="471.7000031173229" x="493.5000137388706">Feathering</text></g></g><g id="minder_node30"><g id="node_expander27" style="cursor: pointer;" display="none"><path id="kity_path_305" fill="white" stroke="gray" d="M575.5000163316727,479.5000030696392A6,6,0,1,1,563.5000163316727,479.5000030696392A6,6,0,1,1,575.5000163316727,479.5000030696392"></path><path id="kity_path_306" fill="none" stroke="gray"></path></g><path id="node_outline28" fill="none" stroke="none" d="M580.5000163316727,470.5000030696392h220a5,5,0,0,1,5,5v8a5,5,0,0,1,-5,5h-220a5,5,0,0,1,-5,-5v-8a5,5,0,0,1,5,-5z"></path><g id="node_text28" fill="black"><text id="kity_text_162" text-rendering="inherit" font-size="12" dy=".8em" y="471.7000031173229" x="580.5000163316727">Creates a seamless mosaic or image(s)</text></g></g><g id="minder_node31"><g id="node_expander38" style="cursor: pointer;"><path id="kity_path_338" fill="white" stroke="gray" d="M488.5000137388706,551.5000052154064A6,6,0,1,1,476.5000137388706,551.5000052154064A6,6,0,1,1,488.5000137388706,551.5000052154064"></path><path id="kity_path_339" fill="none" stroke="gray" d="M478.0000137388706,551.5000052154064L487.0000137388706,551.5000052154064"></path></g><path id="node_outline39" fill="none" stroke="none" d="M493.5000137388706,542.5000052154064h118a5,5,0,0,1,5,5v8a5,5,0,0,1,-5,5h-118a5,5,0,0,1,-5,-5v-8a5,5,0,0,1,5,-5z"></path><g id="node_text39" fill="black"><text id="kity_text_184" text-rendering="inherit" font-size="12" dy=".8em" y="543.7000052630901" x="493.5000137388706">Image enhancement</text></g></g><g id="minder_node32"><g id="node_expander30" style="cursor: pointer;"><path id="kity_path_314" fill="white" stroke="gray" d="M632.500018030405,506.5000038743019A6,6,0,1,1,620.500018030405,506.5000038743019A6,6,0,1,1,632.500018030405,506.5000038743019"></path><path id="kity_path_315" fill="none" stroke="gray" d="M622.000018030405,506.5000038743019L631.000018030405,506.5000038743019"></path></g><path id="node_outline31" fill="none" stroke="none" d="M637.500018030405,497.5000038743019h24a5,5,0,0,1,5,5v8a5,5,0,0,1,-5,5h-24a5,5,0,0,1,-5,-5v-8a5,5,0,0,1,5,-5z"></path><g id="node_text31" fill="black"><text id="kity_text_168" text-rendering="inherit" font-size="12" dy=".8em" y="498.7000039219856" x="637.500018030405">Aim</text></g></g><g id="minder_node33"><g id="node_expander29" style="cursor: pointer;" display="none"><path id="kity_path_311" fill="white" stroke="gray" d="M682.5000195205212,506.5000038743019A6,6,0,1,1,670.5000195205212,506.5000038743019A6,6,0,1,1,682.5000195205212,506.5000038743019"></path><path id="kity_path_312" fill="none" stroke="gray"></path></g><path id="node_outline30" fill="none" stroke="none" d="M687.5000195205212,497.5000038743019h205a5,5,0,0,1,5,5v8a5,5,0,0,1,-5,5h-205a5,5,0,0,1,-5,-5v-8a5,5,0,0,1,5,-5z"></path><g id="node_text30" fill="black"><text id="kity_text_166" text-rendering="inherit" font-size="12" dy=".8em" y="498.7000039219856" x="687.5000195205212">Easier recognition of image content</text></g></g><g id="minder_node34"><g id="node_expander37" style="cursor: pointer;"><path id="kity_path_335" fill="white" stroke="gray" d="M632.500018030405,597.5000065863132A6,6,0,1,1,620.500018030405,597.5000065863132A6,6,0,1,1,632.500018030405,597.5000065863132"></path><path id="kity_path_336" fill="none" stroke="gray" d="M622.000018030405,597.5000065863132L631.000018030405,597.5000065863132"></path></g><path id="node_outline38" fill="none" stroke="none" d="M637.500018030405,588.5000065863132h27a5,5,0,0,1,5,5v8a5,5,0,0,1,-5,5h-27a5,5,0,0,1,-5,-5v-8a5,5,0,0,1,5,-5z"></path><g id="node_text38" fill="black"><text id="kity_text_182" text-rendering="inherit" font-size="12" dy=".8em" y="589.700006633997" x="637.500018030405">Type</text></g></g><g id="minder_node35"><g id="node_expander31" style="cursor: pointer;" display="none"><path id="kity_path_317" fill="white" stroke="gray" d="M685.5000196099281,532.5000046491623A6,6,0,1,1,673.5000196099281,532.5000046491623A6,6,0,1,1,685.5000196099281,532.5000046491623"></path><path id="kity_path_318" fill="none" stroke="gray"></path></g><path id="node_outline32" fill="none" stroke="none" d="M690.5000196099281,523.5000046491623h49a5,5,0,0,1,5,5v8a5,5,0,0,1,-5,5h-49a5,5,0,0,1,-5,-5v-8a5,5,0,0,1,5,-5z"></path><g id="node_text32" fill="black"><text id="kity_text_170" text-rendering="inherit" font-size="12" dy=".8em" y="524.700004696846" x="690.5000196099281">Contrast</text></g></g><g id="minder_node36"><g id="node_expander32" style="cursor: pointer;" display="none"><path id="kity_path_320" fill="white" stroke="gray" d="M685.5000196099281,558.5000054240227A6,6,0,1,1,673.5000196099281,558.5000054240227A6,6,0,1,1,685.5000196099281,558.5000054240227"></path><path id="kity_path_321" fill="none" stroke="gray"></path></g><path id="node_outline33" fill="none" stroke="none" d="M690.5000196099281,549.5000054240227h30a5,5,0,0,1,5,5v8a5,5,0,0,1,-5,5h-30a5,5,0,0,1,-5,-5v-8a5,5,0,0,1,5,-5z"></path><g id="node_text33" fill="black"><text id="kity_text_172" text-rendering="inherit" font-size="12" dy=".8em" y="550.7000054717064" x="690.5000196099281">Ratio</text></g></g><g id="minder_node37"><g id="node_expander33" style="cursor: pointer;" display="none"><path id="kity_path_323" fill="white" stroke="gray" d="M685.5000196099281,584.500006198883A6,6,0,1,1,673.5000196099281,584.500006198883A6,6,0,1,1,685.5000196099281,584.500006198883"></path><path id="kity_path_324" fill="none" stroke="gray"></path></g><path id="node_outline34" fill="none" stroke="none" d="M690.5000196099281,575.500006198883h29a5,5,0,0,1,5,5v8a5,5,0,0,1,-5,5h-29a5,5,0,0,1,-5,-5v-8a5,5,0,0,1,5,-5z"></path><g id="node_text34" fill="black"><text id="kity_text_174" text-rendering="inherit" font-size="12" dy=".8em" y="576.7000062465668" x="690.5000196099281">Edge</text></g></g><g id="minder_node38"><g id="node_expander34" style="cursor: pointer;" display="none"><path id="kity_path_326" fill="white" stroke="gray" d="M685.5000196099281,610.5000069737434A6,6,0,1,1,673.5000196099281,610.5000069737434A6,6,0,1,1,685.5000196099281,610.5000069737434"></path><path id="kity_path_327" fill="none" stroke="gray"></path></g><path id="node_outline35" fill="none" stroke="none" d="M690.5000196099281,601.5000069737434h24a5,5,0,0,1,5,5v8a5,5,0,0,1,-5,5h-24a5,5,0,0,1,-5,-5v-8a5,5,0,0,1,5,-5z"></path><g id="node_text35" fill="black"><text id="kity_text_176" text-rendering="inherit" font-size="12" dy=".8em" y="602.7000070214272" x="690.5000196099281">PCA</text></g></g><g id="minder_node39"><g id="node_expander35" style="cursor: pointer;" display="none"><path id="kity_path_329" fill="white" stroke="gray" d="M685.5000196099281,636.5000077486038A6,6,0,1,1,673.5000196099281,636.5000077486038A6,6,0,1,1,685.5000196099281,636.5000077486038"></path><path id="kity_path_330" fill="none" stroke="gray"></path></g><path id="node_outline36" fill="none" stroke="none" d="M690.5000196099281,627.5000077486038h42a5,5,0,0,1,5,5v8a5,5,0,0,1,-5,5h-42a5,5,0,0,1,-5,-5v-8a5,5,0,0,1,5,-5z"></path><g id="node_text36" fill="black"><text id="kity_text_178" text-rendering="inherit" font-size="12" dy=".8em" y="628.7000077962875" x="690.5000196099281">Texture</text></g></g><g id="minder_node40"><g id="node_expander36" style="cursor: pointer;" display="none"><path id="kity_path_332" fill="white" stroke="gray" d="M685.5000196099281,662.5000085234642A6,6,0,1,1,673.5000196099281,662.5000085234642A6,6,0,1,1,685.5000196099281,662.5000085234642"></path><path id="kity_path_333" fill="none" stroke="gray"></path></g><path id="node_outline37" fill="none" stroke="none" d="M690.5000196099281,653.5000085234642h17a5,5,0,0,1,5,5v8a5,5,0,0,1,-5,5h-17a5,5,0,0,1,-5,-5v-8a5,5,0,0,1,5,-5z"></path><g id="node_text37" fill="black"><text id="kity_text_180" text-rendering="inherit" font-size="12" dy=".8em" y="654.7000085711479" x="690.5000196099281">......</text></g></g></g></g></svg>