<svg id="kity_svg_6" xmlns="http://www.w3.org/2000/svg" xmlns:xlink="http://www.w3.org/1999/xlink" version="1.1" width="1012" height="834" style="background: rgb(251, 251, 251); visibility: visible;" viewBox="0 0 1012 834"><defs id="kity_defs_7"><linearGradient id="kity_linearGradient_17" x1="0" y1="0" x2="0" y2="1"><stop id="kity_stop_18" offset="0" stop-color="rgb(255, 255, 255)"></stop><stop id="kity_stop_19" offset="1" stop-color="rgb(204, 204, 204)"></stop></linearGradient><marker id="kity_marker_2" orient="auto" refX="6" refY="0" viewBox="-7 -7 14 14" markerWidth="7" markerHeight="7" markerUnits="userSpaceOnUse"><path id="kity_path_3" fill="rgb(115, 161, 191)" stroke="none" d="M6,0A6,6,0,1,1,-6,0A6,6,0,1,1,6,0"></path></marker></defs><g id="kity_g_8"><g id="minder1" text-rendering="optimize-speed"><g id="minder_connect_group1"><path id="kity_path_31" fill="none" stroke="rgb(115, 161, 191)" stroke-width="1" d="M110.50002780556679,508.50001657009125A106,206,0,0,1,216.5000278055668,302.50001657009125"></path><path id="kity_path_33" fill="none" stroke="rgb(115, 161, 191)" stroke-width="1" d="M396.5000278055668,302.50001657009125C404.5000278055668,302.50001657009125,404.5000278055668,29.500016570091248,412.5000278055668,29.500016570091248"></path><path id="kity_path_35" fill="none" stroke="rgb(115, 161, 191)" stroke-width="1" d="M519.5000278055668,29.500016570091248C527.5000278055668,29.500016570091248,527.5000278055668,29.500016570091248,535.5000278055668,29.500016570091248"></path><path id="kity_path_37" fill="none" stroke="rgb(115, 161, 191)" stroke-width="1" d="M396.5000278055668,302.50001657009125C404.5000278055668,302.50001657009125,404.5000278055668,68.50001657009125,412.5000278055668,68.50001657009125"></path><path id="kity_path_39" fill="none" stroke="rgb(115, 161, 191)" stroke-width="1" d="M552.5000278055668,68.50001657009125C560.5000278055668,68.50001657009125,560.5000278055668,55.50001657009125,568.5000278055668,55.50001657009125"></path><path id="kity_path_41" fill="none" stroke="rgb(115, 161, 191)" stroke-width="1" d="M552.5000278055668,68.50001657009125C560.5000278055668,68.50001657009125,560.5000278055668,81.50001657009125,568.5000278055668,81.50001657009125"></path><path id="kity_path_43" fill="none" stroke="rgb(115, 161, 191)" stroke-width="1" d="M396.5000278055668,302.50001657009125C404.5000278055668,302.50001657009125,404.5000278055668,159.50001657009125,412.5000278055668,159.50001657009125"></path><path id="kity_path_45" fill="none" stroke="rgb(115, 161, 191)" stroke-width="1" d="M535.5000278055668,159.50001657009125C543.5000278055668,159.50001657009125,543.5000278055668,107.50001657009125,551.5000278055668,107.50001657009125"></path><path id="kity_path_47" fill="none" stroke="rgb(115, 161, 191)" stroke-width="1" d="M535.5000278055668,159.50001657009125C543.5000278055668,159.50001657009125,543.5000278055668,133.50001657009125,551.5000278055668,133.50001657009125"></path><path id="kity_path_49" fill="none" stroke="rgb(115, 161, 191)" stroke-width="1" d="M535.5000278055668,159.50001657009125C543.5000278055668,159.50001657009125,543.5000278055668,159.50001657009125,551.5000278055668,159.50001657009125"></path><path id="kity_path_51" fill="none" stroke="rgb(115, 161, 191)" stroke-width="1" d="M535.5000278055668,159.50001657009125C543.5000278055668,159.50001657009125,543.5000278055668,185.50001657009125,551.5000278055668,185.50001657009125"></path><path id="kity_path_53" fill="none" stroke="rgb(115, 161, 191)" stroke-width="1" d="M535.5000278055668,159.50001657009125C543.5000278055668,159.50001657009125,543.5000278055668,211.50001657009125,551.5000278055668,211.50001657009125"></path><path id="kity_path_55" fill="none" stroke="rgb(115, 161, 191)" stroke-width="1" d="M396.5000278055668,302.50001657009125C404.5000278055668,302.50001657009125,404.5000278055668,237.50001657009125,412.5000278055668,237.50001657009125"></path><path id="kity_path_57" fill="none" stroke="rgb(115, 161, 191)" stroke-width="1" d="M613.5000278055668,237.50001657009125C621.5000278055668,237.50001657009125,621.5000278055668,237.50001657009125,629.5000278055668,237.50001657009125"></path><path id="kity_path_59" fill="none" stroke="rgb(115, 161, 191)" stroke-width="1" d="M396.5000278055668,302.50001657009125C404.5000278055668,302.50001657009125,404.5000278055668,308.50001657009125,412.5000278055668,308.50001657009125"></path><path id="kity_path_61" fill="none" stroke="rgb(115, 161, 191)" stroke-width="1" d="M684.5000278055668,308.50001657009125C692.5000278055668,308.50001657009125,692.5000278055668,308.50001657009125,700.5000278055668,308.50001657009125"></path><path id="kity_path_63" fill="none" stroke="rgb(115, 161, 191)" stroke-width="1" d="M396.5000278055668,302.50001657009125C404.5000278055668,302.50001657009125,404.5000278055668,401.50001657009125,412.5000278055668,401.50001657009125"></path><path id="kity_path_65" fill="none" stroke="rgb(115, 161, 191)" stroke-width="1" d="M627.5000278055668,401.50001657009125C635.5000278055668,401.50001657009125,635.5000278055668,379.50001657009125,643.5000278055668,379.50001657009125"></path><path id="kity_path_67" fill="none" stroke="rgb(115, 161, 191)" stroke-width="1" d="M627.5000278055668,401.50001657009125C635.5000278055668,401.50001657009125,635.5000278055668,414.50001657009125,643.5000278055668,414.50001657009125"></path><path id="kity_path_69" fill="none" stroke="rgb(115, 161, 191)" stroke-width="1" d="M396.5000278055668,302.50001657009125C404.5000278055668,302.50001657009125,404.5000278055668,449.50001657009125,412.5000278055668,449.50001657009125"></path><path id="kity_path_71" fill="none" stroke="rgb(115, 161, 191)" stroke-width="1" d="M476.5000278055668,449.50001657009125C484.5000278055668,449.50001657009125,484.5000278055668,449.50001657009125,492.5000278055668,449.50001657009125"></path><path id="kity_path_73" fill="none" stroke="rgb(115, 161, 191)" stroke-width="1" d="M396.5000278055668,302.50001657009125C404.5000278055668,302.50001657009125,404.5000278055668,475.50001657009125,412.5000278055668,475.50001657009125"></path><path id="kity_path_75" fill="none" stroke="rgb(115, 161, 191)" stroke-width="1" d="M485.5000278055668,475.50001657009125C493.5000278055668,475.50001657009125,493.5000278055668,475.50001657009125,501.5000278055668,475.50001657009125"></path><path id="kity_path_77" fill="none" stroke="rgb(115, 161, 191)" stroke-width="1" d="M396.5000278055668,302.50001657009125C404.5000278055668,302.50001657009125,404.5000278055668,519.5000165700912,412.5000278055668,519.5000165700912"></path><path id="kity_path_79" fill="none" stroke="rgb(115, 161, 191)" stroke-width="1" d="M675.5000278055668,519.5000165700912C683.5000278055668,519.5000165700912,683.5000278055668,519.5000165700912,691.5000278055668,519.5000165700912"></path><path id="kity_path_81" fill="none" stroke="rgb(115, 161, 191)" stroke-width="1" d="M396.5000278055668,302.50001657009125C404.5000278055668,302.50001657009125,404.5000278055668,576.5000165700912,412.5000278055668,576.5000165700912"></path><path id="kity_path_83" fill="none" stroke="rgb(115, 161, 191)" stroke-width="1" d="M445.5000278055668,576.5000165700912C453.5000278055668,576.5000165700912,453.5000278055668,563.5000165700912,461.5000278055668,563.5000165700912"></path><path id="kity_path_85" fill="none" stroke="rgb(115, 161, 191)" stroke-width="1" d="M445.5000278055668,576.5000165700912C453.5000278055668,576.5000165700912,453.5000278055668,589.5000165700912,461.5000278055668,589.5000165700912"></path><path id="kity_path_87" fill="none" stroke="rgb(115, 161, 191)" stroke-width="1" d="M110.50002780556679,508.50001657009125A106,206,0,0,0,216.5000278055668,714.5000165700912"></path><path id="kity_path_89" fill="none" stroke="rgb(115, 161, 191)" stroke-width="1" d="M372.5000278055668,714.5000165700912C380.5000278055668,714.5000165700912,380.5000278055668,636.5000165700912,388.5000278055668,636.5000165700912"></path><path id="kity_path_91" fill="none" stroke="rgb(115, 161, 191)" stroke-width="1" d="M540.5000278055668,636.5000165700912C548.5000278055668,636.5000165700912,548.5000278055668,623.5000165700912,556.5000278055668,623.5000165700912"></path><path id="kity_path_93" fill="none" stroke="rgb(115, 161, 191)" stroke-width="1" d="M540.5000278055668,636.5000165700912C548.5000278055668,636.5000165700912,548.5000278055668,649.5000165700912,556.5000278055668,649.5000165700912"></path><path id="kity_path_95" fill="none" stroke="rgb(115, 161, 191)" stroke-width="1" d="M372.5000278055668,714.5000165700912C380.5000278055668,714.5000165700912,380.5000278055668,714.5000165700912,388.5000278055668,714.5000165700912"></path><path id="kity_path_97" fill="none" stroke="rgb(115, 161, 191)" stroke-width="1" d="M579.5000278055668,714.5000165700912C587.5000278055668,714.5000165700912,587.5000278055668,675.5000165700912,595.5000278055668,675.5000165700912"></path><path id="kity_path_99" fill="none" stroke="rgb(115, 161, 191)" stroke-width="1" d="M579.5000278055668,714.5000165700912C587.5000278055668,714.5000165700912,587.5000278055668,701.5000165700912,595.5000278055668,701.5000165700912"></path><path id="kity_path_101" fill="none" stroke="rgb(115, 161, 191)" stroke-width="1" d="M579.5000278055668,714.5000165700912C587.5000278055668,714.5000165700912,587.5000278055668,727.5000165700912,595.5000278055668,727.5000165700912"></path><path id="kity_path_103" fill="none" stroke="rgb(115, 161, 191)" stroke-width="1" d="M579.5000278055668,714.5000165700912C587.5000278055668,714.5000165700912,587.5000278055668,753.5000165700912,595.5000278055668,753.5000165700912"></path><path id="kity_path_105" fill="none" stroke="rgb(115, 161, 191)" stroke-width="1" d="M372.5000278055668,714.5000165700912C380.5000278055668,714.5000165700912,380.5000278055668,792.5000165700912,388.5000278055668,792.5000165700912"></path><path id="kity_path_107" fill="none" stroke="rgb(115, 161, 191)" stroke-width="1" d="M533.5000278055668,792.5000165700912C541.5000278055668,792.5000165700912,541.5000278055668,779.5000165700912,549.5000278055668,779.5000165700912"></path><path id="kity_path_109" fill="none" stroke="rgb(115, 161, 191)" stroke-width="1" d="M533.5000278055668,792.5000165700912C541.5000278055668,792.5000165700912,541.5000278055668,805.5000165700912,549.5000278055668,805.5000165700912"></path></g><g id="minder_node1"><path id="kity_path_360" fill="rgba(0, 0, 0, .25)" stroke="none" d="M33.50002780556679,491.50001657009125h239a22,22,0,0,1,22,22v0a22,22,0,0,1,-22,22h-239a22,22,0,0,1,-22,-22v0a22,22,0,0,1,22,-22z" display="none"></path><path id="node_outline1" fill="rgb(115, 161, 191)" stroke="rgb(115, 161, 191)" d="M25.500027805566788,494.50001657009125h170a5,5,0,0,1,5,5v18a5,5,0,0,1,-5,5h-170a5,5,0,0,1,-5,-5v-18a5,5,0,0,1,5,-5z" stroke-width="3"></path><g id="node_text1" fill="white"><text id="kity_text_22" text-rendering="inherit" font-size="16" dy=".8em" y="498.1000164747238" x="32.50002780556679">4 Policy applications</text></g></g><g id="kity_g_12"><path id="kity_path_13" fill="none" stroke="none" d="M32.50002780556679,508.50001657009125h0v0h0z"></path></g><g id="kity_g_14"><path id="kity_path_15" fill="none" stroke="none" d="M32.50002780556679,508.50001657009125h0v0h0z"></path><path id="kity_path_16" fill="none" stroke="none"></path></g><g id="minder_node2"><path id="kity_path_358" fill="rgba(0, 0, 0, .25)" stroke="none" d="M237.5000339448452,294.50001043081284h167a10,10,0,0,1,10,10v6a10,10,0,0,1,-10,10h-167a10,10,0,0,1,-10,-10v-6a10,10,0,0,1,10,-10z" display="none"></path><g id="node_expander28" style="cursor: pointer;"><path id="kity_path_320" fill="white" stroke="gray" d="M217.5000339448452,302.50001043081284A6,6,0,1,1,205.5000339448452,302.50001043081284A6,6,0,1,1,217.5000339448452,302.50001043081284"></path><path id="kity_path_321" fill="none" stroke="gray" d="M207.0000339448452,302.50001043081284L216.0000339448452,302.50001043081284"></path></g><path id="node_outline29" fill="rgb(238, 243, 246)" stroke="rgb(115, 161, 191)" d="M221.5000339448452,289.50001043081284h172a3,3,0,0,1,3,3v20a3,3,0,0,1,-3,3h-172a3,3,0,0,1,-3,-3v-20a3,3,0,0,1,3,-3z" stroke-width="1"></path><g id="node_text29" fill="black"><text id="kity_text_173" text-rendering="inherit" font-size="14" dy=".8em" y="293.40001052618027" x="238.5000339448452">Example applcations</text></g></g><g id="minder_node3"><g id="node_expander2" style="cursor: pointer;"><path id="kity_path_242" fill="white" stroke="gray" d="M412.5000392794609,29.500002294778824A6,6,0,1,1,400.5000392794609,29.500002294778824A6,6,0,1,1,412.5000392794609,29.500002294778824"></path><path id="kity_path_243" fill="none" stroke="gray" d="M402.0000392794609,29.500002294778824L411.0000392794609,29.500002294778824"></path></g><path id="node_outline3" fill="none" stroke="none" d="M417.5000392794609,20.500002294778824h97a5,5,0,0,1,5,5v8a5,5,0,0,1,-5,5h-97a5,5,0,0,1,-5,-5v-8a5,5,0,0,1,5,-5z"></path><g id="node_text3" fill="black"><text id="kity_text_113" text-rendering="inherit" font-size="12" dy=".8em" y="21.70000234246254" x="417.5000392794609">Urban expansion</text></g></g><g id="minder_node4"><g id="node_expander1" style="cursor: pointer;" display="none"><path id="kity_path_239" fill="white" stroke="gray" d="M535.5000429451466,29.500002294778824A6,6,0,1,1,523.5000429451466,29.500002294778824A6,6,0,1,1,535.5000429451466,29.500002294778824"></path><path id="kity_path_240" fill="none" stroke="gray"></path></g><path id="node_outline2" fill="none" stroke="none" d="M540.5000429451466,20.500002294778824h45a5,5,0,0,1,5,5v8a5,5,0,0,1,-5,5h-45a5,5,0,0,1,-5,-5v-8a5,5,0,0,1,5,-5z"></path><g id="node_text2" fill="black"><text id="kity_text_111" text-rendering="inherit" font-size="12" dy=".8em" y="21.70000234246254" x="540.5000429451466">Landsat</text></g></g><g id="minder_node5"><g id="node_expander5" style="cursor: pointer;"><path id="kity_path_251" fill="white" stroke="gray" d="M412.5000392794609,68.50000345706934A6,6,0,1,1,400.5000392794609,68.50000345706934A6,6,0,1,1,412.5000392794609,68.50000345706934"></path><path id="kity_path_252" fill="none" stroke="gray" d="M402.0000392794609,68.50000345706934L411.0000392794609,68.50000345706934"></path></g><path id="node_outline6" fill="none" stroke="none" d="M417.5000392794609,59.50000345706934h130a5,5,0,0,1,5,5v8a5,5,0,0,1,-5,5h-130a5,5,0,0,1,-5,-5v-8a5,5,0,0,1,5,-5z"></path><g id="node_text6" fill="black"><text id="kity_text_119" text-rendering="inherit" font-size="12" dy=".8em" y="60.700003504753056" x="417.5000392794609">Air pollution and LULC</text></g></g><g id="minder_node6"><g id="node_expander3" style="cursor: pointer;" display="none"><path id="kity_path_245" fill="white" stroke="gray" d="M568.5000439286232,55.500003069639206A6,6,0,1,1,556.5000439286232,55.500003069639206A6,6,0,1,1,568.5000439286232,55.500003069639206"></path><path id="kity_path_246" fill="none" stroke="gray"></path></g><path id="node_outline4" fill="none" stroke="none" d="M573.5000439286232,46.500003069639206h261a5,5,0,0,1,5,5v8a5,5,0,0,1,-5,5h-261a5,5,0,0,1,-5,-5v-8a5,5,0,0,1,5,-5z"></path><g id="node_text4" fill="black"><text id="kity_text_115" text-rendering="inherit" font-size="12" dy=".8em" y="47.70000311732292" x="573.5000439286232">Sentinel-3 Sea and Land Surface Temperature</text></g></g><g id="minder_node7"><g id="node_expander4" style="cursor: pointer;" display="none"><path id="kity_path_248" fill="white" stroke="gray" d="M568.5000439286232,81.50000384449953A6,6,0,1,1,556.5000439286232,81.50000384449953A6,6,0,1,1,568.5000439286232,81.50000384449953"></path><path id="kity_path_249" fill="none" stroke="gray"></path></g><path id="node_outline5" fill="none" stroke="none" d="M573.5000439286232,72.50000384449953h234a5,5,0,0,1,5,5v8a5,5,0,0,1,-5,5h-234a5,5,0,0,1,-5,-5v-8a5,5,0,0,1,5,-5z"></path><g id="node_text5" fill="black"><text id="kity_text_117" text-rendering="inherit" font-size="12" dy=".8em" y="73.70000389218325" x="573.5000439286232">Sentinel-5 Precursor Major Air Pollutants</text></g></g><g id="minder_node8"><g id="node_expander11" style="cursor: pointer;"><path id="kity_path_269" fill="white" stroke="gray" d="M412.5000392794609,159.50000616908073A6,6,0,1,1,400.5000392794609,159.50000616908073A6,6,0,1,1,412.5000392794609,159.50000616908073"></path><path id="kity_path_270" fill="none" stroke="gray" d="M402.0000392794609,159.50000616908073L411.0000392794609,159.50000616908073"></path></g><path id="node_outline12" fill="none" stroke="none" d="M417.5000392794609,150.50000616908073h113a5,5,0,0,1,5,5v8a5,5,0,0,1,-5,5h-113a5,5,0,0,1,-5,-5v-8a5,5,0,0,1,5,-5z"></path><g id="node_text12" fill="black"><text id="kity_text_131" text-rendering="inherit" font-size="12" dy=".8em" y="151.70000621676445" x="417.5000392794609">Urban green spaces</text></g></g><g id="minder_node9"><g id="node_expander6" style="cursor: pointer;" display="none"><path id="kity_path_254" fill="white" stroke="gray" d="M551.5000434219837,107.50000461935997A6,6,0,1,1,539.5000434219837,107.50000461935997A6,6,0,1,1,551.5000434219837,107.50000461935997"></path><path id="kity_path_255" fill="none" stroke="gray"></path></g><path id="node_outline7" fill="none" stroke="none" d="M556.5000434219837,98.50000461935997h152a5,5,0,0,1,5,5v8a5,5,0,0,1,-5,5h-152a5,5,0,0,1,-5,-5v-8a5,5,0,0,1,5,-5z"></path><g id="node_text7" fill="black"><text id="kity_text_121" text-rendering="inherit" font-size="12" dy=".8em" y="99.70000466704369" x="556.5000434219837">Landsat (medium res 17%)</text></g></g><g id="minder_node10"><g id="node_expander7" style="cursor: pointer;" display="none"><path id="kity_path_257" fill="white" stroke="gray" d="M551.5000434219837,133.5000053942203A6,6,0,1,1,539.5000434219837,133.5000053942203A6,6,0,1,1,551.5000434219837,133.5000053942203"></path><path id="kity_path_258" fill="none" stroke="gray"></path></g><path id="node_outline8" fill="none" stroke="none" d="M556.5000434219837,124.5000053942203h46a5,5,0,0,1,5,5v8a5,5,0,0,1,-5,5h-46a5,5,0,0,1,-5,-5v-8a5,5,0,0,1,5,-5z"></path><g id="node_text8" fill="black"><text id="kity_text_123" text-rendering="inherit" font-size="12" dy=".8em" y="125.70000544190401" x="556.5000434219837">Sentinel</text></g></g><g id="minder_node11"><g id="node_expander8" style="cursor: pointer;" display="none"><path id="kity_path_260" fill="white" stroke="gray" d="M551.5000434219837,159.50000616908073A6,6,0,1,1,539.5000434219837,159.50000616908073A6,6,0,1,1,551.5000434219837,159.50000616908073"></path><path id="kity_path_261" fill="none" stroke="gray"></path></g><path id="node_outline9" fill="none" stroke="none" d="M556.5000434219837,150.50000616908073h45a5,5,0,0,1,5,5v8a5,5,0,0,1,-5,5h-45a5,5,0,0,1,-5,-5v-8a5,5,0,0,1,5,-5z"></path><g id="node_text9" fill="black"><text id="kity_text_125" text-rendering="inherit" font-size="12" dy=".8em" y="151.70000621676445" x="556.5000434219837">LiDAR $</text></g></g><g id="minder_node12"><g id="node_expander9" style="cursor: pointer;" display="none"><path id="kity_path_263" fill="white" stroke="gray" d="M551.5000434219837,185.50000694394112A6,6,0,1,1,539.5000434219837,185.50000694394112A6,6,0,1,1,551.5000434219837,185.50000694394112"></path><path id="kity_path_264" fill="none" stroke="gray"></path></g><path id="node_outline10" fill="none" stroke="none" d="M556.5000434219837,176.50000694394112h176a5,5,0,0,1,5,5v8a5,5,0,0,1,-5,5h-176a5,5,0,0,1,-5,-5v-8a5,5,0,0,1,5,-5z"></path><g id="node_text10" fill="black"><text id="kity_text_127" text-rendering="inherit" font-size="12" dy=".8em" y="177.70000699162483" x="556.5000434219837">High spatial resolution (38%) $</text></g></g><g id="minder_node13"><g id="node_expander10" style="cursor: pointer;" display="none"><path id="kity_path_266" fill="white" stroke="gray" d="M551.5000434219837,211.50000771880144A6,6,0,1,1,539.5000434219837,211.50000771880144A6,6,0,1,1,551.5000434219837,211.50000771880144"></path><path id="kity_path_267" fill="none" stroke="gray"></path></g><path id="node_outline11" fill="none" stroke="none" d="M556.5000434219837,202.50000771880144h145a5,5,0,0,1,5,5v8a5,5,0,0,1,-5,5h-145a5,5,0,0,1,-5,-5v-8a5,5,0,0,1,5,-5z"></path><g id="node_text11" fill="black"><text id="kity_text_129" text-rendering="inherit" font-size="12" dy=".8em" y="203.70000776648516" x="556.5000434219837">High + medium res = 9%</text></g></g><g id="minder_node14"><g id="node_expander13" style="cursor: pointer;"><path id="kity_path_275" fill="white" stroke="gray" d="M412.5000392794609,237.50000849366188A6,6,0,1,1,400.5000392794609,237.50000849366188A6,6,0,1,1,412.5000392794609,237.50000849366188"></path><path id="kity_path_276" fill="none" stroke="gray" d="M402.0000392794609,237.50000849366188L411.0000392794609,237.50000849366188"></path></g><path id="node_outline14" fill="none" stroke="none" d="M417.5000392794609,228.50000849366188h191a5,5,0,0,1,5,5v8a5,5,0,0,1,-5,5h-191a5,5,0,0,1,-5,-5v-8a5,5,0,0,1,5,-5z"></path><g id="node_text14" fill="black"><text id="kity_text_135" text-rendering="inherit" font-size="12" dy=".8em" y="229.7000085413456" x="417.5000392794609">Disaster response / preparedness</text></g></g><g id="minder_node15"><g id="node_expander12" style="cursor: pointer;" display="none"><path id="kity_path_272" fill="white" stroke="gray" d="M629.5000457465649,237.50000849366188A6,6,0,1,1,617.5000457465649,237.50000849366188A6,6,0,1,1,629.5000457465649,237.50000849366188"></path><path id="kity_path_273" fill="none" stroke="gray"></path></g><path id="node_outline13" fill="none" stroke="none" d="M634.5000457465649,228.50000849366188h158a5,5,0,0,1,5,5v8a5,5,0,0,1,-5,5h-158a5,5,0,0,1,-5,-5v-8a5,5,0,0,1,5,-5z"></path><g id="node_text13" fill="black"><text id="kity_text_133" text-rendering="inherit" font-size="12" dy=".8em" y="229.7000085413456" x="634.5000457465649">Sentinel-2 spectral imagery</text></g></g><g id="minder_node16"><g id="node_expander15" style="cursor: pointer;"><path id="kity_path_281" fill="white" stroke="gray" d="M412.5000392794609,308.50001060962677A6,6,0,1,1,400.5000392794609,308.50001060962677A6,6,0,1,1,412.5000392794609,308.50001060962677"></path><path id="kity_path_282" fill="none" stroke="gray" d="M402.0000392794609,308.50001060962677L411.0000392794609,308.50001060962677"></path></g><path id="node_outline16" fill="none" stroke="none" d="M417.5000392794609,254.50001060962677h262a5,5,0,0,1,5,5v98a5,5,0,0,1,-5,5h-262a5,5,0,0,1,-5,-5v-98a5,5,0,0,1,5,-5z"></path><g id="node_text16" fill="black"><text id="kity_text_139" text-rendering="inherit" font-size="12" dy=".8em" y="255.7000106573105" x="417.5000392794609">Damage detection</text><text id="kity_text_140" text-rendering="inherit" font-size="12" dy=".8em" y="273.7000106573105" x="417.5000392794609">Urban area mapping</text><text id="kity_text_141" text-rendering="inherit" font-size="12" dy=".8em" y="291.7000106573105" x="417.5000392794609">Urban flooding (lower backscatter coefficient)</text><text id="kity_text_142" text-rendering="inherit" font-size="12" dy=".8em" y="309.7000106573105" x="417.5000392794609">Landslides</text><text id="kity_text_143" text-rendering="inherit" font-size="12" dy=".8em" y="327.7000106573105" x="417.5000392794609">Earthquakes</text><text id="kity_text_144" text-rendering="inherit" font-size="12" dy=".8em" y="345.7000106573105" x="417.5000392794609">Data fusion* / DEM creation</text></g></g><g id="minder_node17"><g id="node_expander14" style="cursor: pointer;" display="none"><path id="kity_path_278" fill="white" stroke="gray" d="M700.5000478625298,308.50001060962677A6,6,0,1,1,688.5000478625298,308.50001060962677A6,6,0,1,1,700.5000478625298,308.50001060962677"></path><path id="kity_path_279" fill="none" stroke="gray"></path></g><path id="node_outline15" fill="none" stroke="none" d="M705.5000478625298,299.50001060962677h64a5,5,0,0,1,5,5v8a5,5,0,0,1,-5,5h-64a5,5,0,0,1,-5,-5v-8a5,5,0,0,1,5,-5z"></path><g id="node_text15" fill="black"><text id="kity_text_137" text-rendering="inherit" font-size="12" dy=".8em" y="300.7000106573105" x="705.5000478625298">SAR, InSAR</text></g></g><g id="minder_node18"><g id="node_expander18" style="cursor: pointer;"><path id="kity_path_290" fill="white" stroke="gray" d="M412.5000392794609,401.50001338124275A6,6,0,1,1,400.5000392794609,401.50001338124275A6,6,0,1,1,412.5000392794609,401.50001338124275"></path><path id="kity_path_291" fill="none" stroke="gray" d="M402.0000392794609,401.50001338124275L411.0000392794609,401.50001338124275"></path></g><path id="node_outline19" fill="none" stroke="none" d="M417.5000392794609,392.50001338124275h205a5,5,0,0,1,5,5v8a5,5,0,0,1,-5,5h-205a5,5,0,0,1,-5,-5v-8a5,5,0,0,1,5,-5z"></path><g id="node_text19" fill="black"><text id="kity_text_151" text-rendering="inherit" font-size="12" dy=".8em" y="393.70001342892647" x="417.5000392794609">Monitoring forests + illegal logging</text></g></g><g id="minder_node19"><g id="node_expander16" style="cursor: pointer;" display="none"><path id="kity_path_284" fill="white" stroke="gray" d="M643.5000461637974,379.50001272559166A6,6,0,1,1,631.5000461637974,379.50001272559166A6,6,0,1,1,643.5000461637974,379.50001272559166"></path><path id="kity_path_285" fill="none" stroke="gray"></path></g><path id="node_outline17" fill="none" stroke="none" d="M648.5000461637974,370.50001272559166h131a5,5,0,0,1,5,5v8a5,5,0,0,1,-5,5h-131a5,5,0,0,1,-5,-5v-8a5,5,0,0,1,5,-5z"></path><g id="node_text17" fill="black"><text id="kity_text_146" text-rendering="inherit" font-size="12" dy=".8em" y="371.7000127732754" x="648.5000461637974">Landsat (2000 to 2012)</text></g></g><g id="minder_node20"><g id="node_expander17" style="cursor: pointer;" display="none"><path id="kity_path_287" fill="white" stroke="gray" d="M643.5000461637974,414.50001376867294A6,6,0,1,1,631.5000461637974,414.50001376867294A6,6,0,1,1,643.5000461637974,414.50001376867294"></path><path id="kity_path_288" fill="none" stroke="gray"></path></g><path id="node_outline18" fill="none" stroke="none" d="M648.5000461637974,396.50001376867294h195a5,5,0,0,1,5,5v26a5,5,0,0,1,-5,5h-195a5,5,0,0,1,-5,-5v-26a5,5,0,0,1,5,-5z"></path><g id="node_text18" fill="black"><text id="kity_text_148" text-rendering="inherit" font-size="12" dy=".8em" y="397.70001381635666" x="648.5000461637974">Classification with </text><text id="kity_text_149" text-rendering="inherit" font-size="12" dy=".8em" y="415.70001381635666" x="648.5000461637974">decision trees and random forests</text></g></g><g id="minder_node21"><g id="node_expander20" style="cursor: pointer;"><path id="kity_path_296" fill="white" stroke="gray" d="M412.5000392794609,449.5000148117542A6,6,0,1,1,400.5000392794609,449.5000148117542A6,6,0,1,1,412.5000392794609,449.5000148117542"></path><path id="kity_path_297" fill="none" stroke="gray" d="M402.0000392794609,449.5000148117542L411.0000392794609,449.5000148117542"></path></g><path id="node_outline21" fill="none" stroke="none" d="M417.5000392794609,440.5000148117542h54a5,5,0,0,1,5,5v8a5,5,0,0,1,-5,5h-54a5,5,0,0,1,-5,-5v-8a5,5,0,0,1,5,-5z"></path><g id="node_text21" fill="black"><text id="kity_text_155" text-rendering="inherit" font-size="12" dy=".8em" y="441.70001485943794" x="417.5000392794609">Droughts</text></g></g><g id="minder_node22"><g id="node_expander19" style="cursor: pointer;" display="none"><path id="kity_path_293" fill="white" stroke="gray" d="M492.5000416636467,449.5000148117542A6,6,0,1,1,480.5000416636467,449.5000148117542A6,6,0,1,1,492.5000416636467,449.5000148117542"></path><path id="kity_path_294" fill="none" stroke="gray"></path></g><path id="node_outline20" fill="none" stroke="none" d="M497.5000416636467,440.5000148117542h136a5,5,0,0,1,5,5v8a5,5,0,0,1,-5,5h-136a5,5,0,0,1,-5,-5v-8a5,5,0,0,1,5,-5z"></path><g id="node_text20" fill="black"><text id="kity_text_153" text-rendering="inherit" font-size="12" dy=".8em" y="441.70001485943794" x="497.5000416636467">Sentinel moisture index</text></g></g><g id="minder_node23"><g id="node_expander22" style="cursor: pointer;"><path id="kity_path_302" fill="white" stroke="gray" d="M412.5000392794609,475.5000155866146A6,6,0,1,1,400.5000392794609,475.5000155866146A6,6,0,1,1,412.5000392794609,475.5000155866146"></path><path id="kity_path_303" fill="none" stroke="gray" d="M402.0000392794609,475.5000155866146L411.0000392794609,475.5000155866146"></path></g><path id="node_outline23" fill="none" stroke="none" d="M417.5000392794609,466.5000155866146h63a5,5,0,0,1,5,5v8a5,5,0,0,1,-5,5h-63a5,5,0,0,1,-5,-5v-8a5,5,0,0,1,5,-5z"></path><g id="node_text23" fill="black"><text id="kity_text_159" text-rendering="inherit" font-size="12" dy=".8em" y="467.7000156342983" x="417.5000392794609">Forest fires</text></g></g><g id="minder_node24"><g id="node_expander21" style="cursor: pointer;" display="none"><path id="kity_path_299" fill="white" stroke="gray" d="M501.5000419318676,475.5000155866146A6,6,0,1,1,489.5000419318676,475.5000155866146A6,6,0,1,1,501.5000419318676,475.5000155866146"></path><path id="kity_path_300" fill="none" stroke="gray"></path></g><path id="node_outline22" fill="none" stroke="none" d="M506.5000419318676,466.5000155866146h99a5,5,0,0,1,5,5v8a5,5,0,0,1,-5,5h-99a5,5,0,0,1,-5,-5v-8a5,5,0,0,1,5,-5z"></path><g id="node_text22" fill="black"><text id="kity_text_157" text-rendering="inherit" font-size="12" dy=".8em" y="467.7000156342983" x="506.5000419318676">Landsat TM 1984</text></g></g><g id="minder_node25"><g id="node_expander24" style="cursor: pointer;"><path id="kity_path_308" fill="white" stroke="gray" d="M412.5000392794609,519.5000168979168A6,6,0,1,1,400.5000392794609,519.5000168979168A6,6,0,1,1,412.5000392794609,519.5000168979168"></path><path id="kity_path_309" fill="none" stroke="gray" d="M402.0000392794609,519.5000168979168L411.0000392794609,519.5000168979168"></path></g><path id="node_outline25" fill="none" stroke="none" d="M417.5000392794609,492.5000168979168h253a5,5,0,0,1,5,5v44a5,5,0,0,1,-5,5h-253a5,5,0,0,1,-5,-5v-44a5,5,0,0,1,5,-5z"></path><g id="node_text25" fill="black"><text id="kity_text_163" text-rendering="inherit" font-size="12" dy=".8em" y="493.7000169456005" x="417.5000392794609">reducing air pollution,</text><text id="kity_text_164" text-rendering="inherit" font-size="12" dy=".8em" y="511.7000169456005" x="417.5000392794609">population are most at risk from forest fires,</text><text id="kity_text_165" text-rendering="inherit" font-size="12" dy=".8em" y="529.7000169456005" x="417.5000392794609">illegal monitoring be most effectively </text></g></g><g id="minder_node26"><g id="node_expander23" style="cursor: pointer;" display="none"><path id="kity_path_305" fill="white" stroke="gray" d="M691.5000475943089,519.5000168979168A6,6,0,1,1,679.5000475943089,519.5000168979168A6,6,0,1,1,691.5000475943089,519.5000168979168"></path><path id="kity_path_306" fill="none" stroke="gray"></path></g><path id="node_outline24" fill="none" stroke="none" d="M696.5000475943089,510.5000168979168h291a5,5,0,0,1,5,5v8a5,5,0,0,1,-5,5h-291a5,5,0,0,1,-5,-5v-8a5,5,0,0,1,5,-5z"></path><g id="node_text24" fill="black"><text id="kity_text_161" text-rendering="inherit" font-size="12" dy=".8em" y="511.7000169456005" x="696.5000475943089"> combining the RSg data with GIS or other datasets</text></g></g><g id="minder_node27"><g id="node_expander27" style="cursor: pointer;"><path id="kity_path_317" fill="white" stroke="gray" d="M412.5000392794609,576.5000185966492A6,6,0,1,1,400.5000392794609,576.5000185966492A6,6,0,1,1,412.5000392794609,576.5000185966492"></path><path id="kity_path_318" fill="none" stroke="gray" d="M402.0000392794609,576.5000185966492L411.0000392794609,576.5000185966492"></path></g><path id="node_outline28" fill="none" stroke="none" d="M417.5000392794609,567.5000185966492h23a5,5,0,0,1,5,5v8a5,5,0,0,1,-5,5h-23a5,5,0,0,1,-5,-5v-8a5,5,0,0,1,5,-5z"></path><g id="node_text28" fill="black"><text id="kity_text_171" text-rendering="inherit" font-size="12" dy=".8em" y="568.7000186443329" x="417.5000392794609">Tips</text></g></g><g id="minder_node28"><g id="node_expander25" style="cursor: pointer;" display="none"><path id="kity_path_311" fill="white" stroke="gray" d="M461.5000407397747,563.500018209219A6,6,0,1,1,449.5000407397747,563.500018209219A6,6,0,1,1,461.5000407397747,563.500018209219"></path><path id="kity_path_312" fill="none" stroke="gray"></path></g><path id="node_outline26" fill="none" stroke="none" d="M466.5000407397747,554.500018209219h365a5,5,0,0,1,5,5v8a5,5,0,0,1,-5,5h-365a5,5,0,0,1,-5,-5v-8a5,5,0,0,1,5,-5z"></path><g id="node_text26" fill="black"><text id="kity_text_167" text-rendering="inherit" font-size="12" dy=".8em" y="555.7000182569027" x="466.5000407397747">The regression models will have produced Coefficient estimates</text></g></g><g id="minder_node29"><g id="node_expander26" style="cursor: pointer;" display="none"><path id="kity_path_314" fill="white" stroke="gray" d="M461.5000407397747,589.5000189840794A6,6,0,1,1,449.5000407397747,589.5000189840794A6,6,0,1,1,461.5000407397747,589.5000189840794"></path><path id="kity_path_315" fill="none" stroke="gray"></path></g><path id="node_outline27" fill="none" stroke="none" d="M466.5000407397747,580.5000189840794h207a5,5,0,0,1,5,5v8a5,5,0,0,1,-5,5h-207a5,5,0,0,1,-5,-5v-8a5,5,0,0,1,5,-5z"></path><g id="node_text27" fill="black"><text id="kity_text_169" text-rendering="inherit" font-size="12" dy=".8em" y="581.7000190317631" x="466.5000407397747">We also have the Coefficient t-value</text></g></g><g id="minder_node30"><path id="kity_path_359" fill="rgba(0, 0, 0, .25)" stroke="none" d="M237.5000339448452,706.5000227093697h140a10,10,0,0,1,10,10v6a10,10,0,0,1,-10,10h-140a10,10,0,0,1,-10,-10v-6a10,10,0,0,1,10,-10z" display="none"></path><g id="node_expander40" style="cursor: pointer;"><path id="kity_path_356" fill="white" stroke="gray" d="M217.5000339448452,714.5000227093697A6,6,0,1,1,205.5000339448452,714.5000227093697A6,6,0,1,1,217.5000339448452,714.5000227093697"></path><path id="kity_path_357" fill="none" stroke="gray" d="M207.0000339448452,714.5000227093697L216.0000339448452,714.5000227093697"></path></g><path id="node_outline41" fill="rgb(238, 243, 246)" stroke="rgb(115, 161, 191)" d="M221.5000339448452,701.5000227093697h148a3,3,0,0,1,3,3v20a3,3,0,0,1,-3,3h-148a3,3,0,0,1,-3,-3v-20a3,3,0,0,1,3,-3z" stroke-width="1"></path><g id="node_text41" fill="black"><text id="kity_text_197" text-rendering="inherit" font-size="14" dy=".8em" y="705.4000228047371" x="238.5000339448452">Policy challenges</text></g></g><g id="minder_node31"><g id="node_expander31" style="cursor: pointer;"><path id="kity_path_329" fill="white" stroke="gray" d="M388.50003856420517,636.5000203847885A6,6,0,1,1,376.50003856420517,636.5000203847885A6,6,0,1,1,388.50003856420517,636.5000203847885"></path><path id="kity_path_330" fill="none" stroke="gray" d="M378.00003856420517,636.5000203847885L387.00003856420517,636.5000203847885"></path></g><path id="node_outline32" fill="#ffc000" stroke="none" d="M393.50003856420517,627.5000203847885h142a5,5,0,0,1,5,5v8a5,5,0,0,1,-5,5h-142a5,5,0,0,1,-5,-5v-8a5,5,0,0,1,5,-5z"></path><g id="node_text32" fill="black"><text id="kity_text_179" text-rendering="inherit" font-size="12" dy=".8em" y="628.7000204324722" x="393.50003856420517">Global policy documents</text></g></g><g id="minder_node32"><g id="node_expander29" style="cursor: pointer;" display="none"><path id="kity_path_323" fill="white" stroke="gray" d="M556.5000435709953,623.5000199973583A6,6,0,1,1,544.5000435709953,623.5000199973583A6,6,0,1,1,556.5000435709953,623.5000199973583"></path><path id="kity_path_324" fill="none" stroke="gray"></path></g><path id="node_outline30" fill="none" stroke="none" d="M561.5000435709953,614.5000199973583h113a5,5,0,0,1,5,5v8a5,5,0,0,1,-5,5h-113a5,5,0,0,1,-5,-5v-8a5,5,0,0,1,5,-5z"></path><g id="node_text30" fill="black"><text id="kity_text_175" text-rendering="inherit" font-size="12" dy=".8em" y="615.700020045042" x="561.5000435709953">New Urban Agenda</text></g></g><g id="minder_node33"><g id="node_expander30" style="cursor: pointer;" display="none"><path id="kity_path_326" fill="white" stroke="gray" d="M556.5000435709953,649.5000207722187A6,6,0,1,1,544.5000435709953,649.5000207722187A6,6,0,1,1,556.5000435709953,649.5000207722187"></path><path id="kity_path_327" fill="none" stroke="gray"></path></g><path id="node_outline31" fill="none" stroke="none" d="M561.5000435709953,640.5000207722187h219a5,5,0,0,1,5,5v8a5,5,0,0,1,-5,5h-219a5,5,0,0,1,-5,-5v-8a5,5,0,0,1,5,-5z"></path><g id="node_text31" fill="black"><text id="kity_text_177" text-rendering="inherit" font-size="12" dy=".8em" y="641.7000208199024" x="561.5000435709953">Sustainable Development Goals (SDG) </text></g></g><g id="minder_node34"><g id="node_expander36" style="cursor: pointer;"><path id="kity_path_344" fill="white" stroke="gray" d="M388.50003856420517,714.5000227093697A6,6,0,1,1,376.50003856420517,714.5000227093697A6,6,0,1,1,388.50003856420517,714.5000227093697"></path><path id="kity_path_345" fill="none" stroke="gray" d="M378.00003856420517,714.5000227093697L387.00003856420517,714.5000227093697"></path></g><path id="node_outline37" fill="#ffc000" stroke="none" d="M393.50003856420517,705.5000227093697h181a5,5,0,0,1,5,5v8a5,5,0,0,1,-5,5h-181a5,5,0,0,1,-5,-5v-8a5,5,0,0,1,5,-5z" stroke-width="3"></path><g id="node_text37" fill="black"><text id="kity_text_189" text-rendering="inherit" font-size="12" dy=".8em" y="706.7000227570534" x="393.50003856420517">Metropolitan policy documents</text></g></g><g id="minder_node35"><g id="node_expander32" style="cursor: pointer;" display="none"><path id="kity_path_332" fill="white" stroke="gray" d="M595.5000447332859,675.5000215470791A6,6,0,1,1,583.5000447332859,675.5000215470791A6,6,0,1,1,595.5000447332859,675.5000215470791"></path><path id="kity_path_333" fill="none" stroke="gray"></path></g><path id="node_outline33" fill="none" stroke="none" d="M600.5000447332859,666.5000215470791h44a5,5,0,0,1,5,5v8a5,5,0,0,1,-5,5h-44a5,5,0,0,1,-5,-5v-8a5,5,0,0,1,5,-5z"></path><g id="node_text33" fill="black"><text id="kity_text_181" text-rendering="inherit" font-size="12" dy=".8em" y="667.7000215947628" x="600.5000447332859">London</text></g></g><g id="minder_node36"><g id="node_expander33" style="cursor: pointer;" display="none"><path id="kity_path_335" fill="white" stroke="gray" d="M595.5000447332859,701.5000223219395A6,6,0,1,1,583.5000447332859,701.5000223219395A6,6,0,1,1,595.5000447332859,701.5000223219395"></path><path id="kity_path_336" fill="none" stroke="gray"></path></g><path id="node_outline34" fill="none" stroke="none" d="M600.5000447332859,692.5000223219395h53a5,5,0,0,1,5,5v8a5,5,0,0,1,-5,5h-53a5,5,0,0,1,-5,-5v-8a5,5,0,0,1,5,-5z"></path><g id="node_text34" fill="black"><text id="kity_text_183" text-rendering="inherit" font-size="12" dy=".8em" y="693.7000223696232" x="600.5000447332859">NYC2050</text></g></g><g id="minder_node37"><g id="node_expander34" style="cursor: pointer;" display="none"><path id="kity_path_338" fill="white" stroke="gray" d="M595.5000447332859,727.5000230967999A6,6,0,1,1,583.5000447332859,727.5000230967999A6,6,0,1,1,595.5000447332859,727.5000230967999"></path><path id="kity_path_339" fill="none" stroke="gray"></path></g><path id="node_outline35" fill="none" stroke="none" d="M600.5000447332859,718.5000230967999h307a5,5,0,0,1,5,5v8a5,5,0,0,1,-5,5h-307a5,5,0,0,1,-5,-5v-8a5,5,0,0,1,5,-5z"></path><g id="node_text35" fill="black"><text id="kity_text_185" text-rendering="inherit" font-size="12" dy=".8em" y="719.7000231444836" x="600.5000447332859">Cape Town Municipal Spatial Development Framewor</text></g></g><g id="minder_node38"><g id="node_expander35" style="cursor: pointer;" display="none"><path id="kity_path_341" fill="white" stroke="gray" d="M595.5000447332859,753.5000238716602A6,6,0,1,1,583.5000447332859,753.5000238716602A6,6,0,1,1,595.5000447332859,753.5000238716602"></path><path id="kity_path_342" fill="none" stroke="gray"></path></g><path id="node_outline36" fill="none" stroke="none" d="M600.5000447332859,744.5000238716602h128a5,5,0,0,1,5,5v8a5,5,0,0,1,-5,5h-128a5,5,0,0,1,-5,-5v-8a5,5,0,0,1,5,-5z"></path><g id="node_text36" fill="black"><text id="kity_text_187" text-rendering="inherit" font-size="12" dy=".8em" y="745.700023919344" x="600.5000447332859">2016 Heat Action Plan</text></g></g><g id="minder_node39"><g id="node_expander39" style="cursor: pointer;"><path id="kity_path_353" fill="white" stroke="gray" d="M388.50003856420517,792.5000250339508A6,6,0,1,1,376.50003856420517,792.5000250339508A6,6,0,1,1,388.50003856420517,792.5000250339508"></path><path id="kity_path_354" fill="none" stroke="gray" d="M378.00003856420517,792.5000250339508L387.00003856420517,792.5000250339508"></path></g><path id="node_outline40" fill="none" stroke="none" d="M393.50003856420517,783.5000250339508h135a5,5,0,0,1,5,5v8a5,5,0,0,1,-5,5h-135a5,5,0,0,1,-5,-5v-8a5,5,0,0,1,5,-5z"></path><g id="node_text40" fill="black"><text id="kity_text_195" text-rendering="inherit" font-size="12" dy=".8em" y="784.7000250816345" x="393.50003856420517">Local policy documents</text></g></g><g id="minder_node40"><g id="node_expander37" style="cursor: pointer;" display="none"><path id="kity_path_347" fill="white" stroke="gray" d="M549.5000433623791,779.5000246465206A6,6,0,1,1,537.5000433623791,779.5000246465206A6,6,0,1,1,549.5000433623791,779.5000246465206"></path><path id="kity_path_348" fill="none" stroke="gray"></path></g><path id="node_outline38" fill="none" stroke="none" d="M554.5000433623791,770.5000246465206h103a5,5,0,0,1,5,5v8a5,5,0,0,1,-5,5h-103a5,5,0,0,1,-5,-5v-8a5,5,0,0,1,5,-5z"></path><g id="node_text38" fill="black"><text id="kity_text_191" text-rendering="inherit" font-size="12" dy=".8em" y="771.7000246942043" x="554.5000433623791">City of Cape Town</text></g></g><g id="minder_node41"><g id="node_expander38" style="cursor: pointer;" display="none"><path id="kity_path_350" fill="white" stroke="gray" d="M549.5000433623791,805.500025421381A6,6,0,1,1,537.5000433623791,805.500025421381A6,6,0,1,1,549.5000433623791,805.500025421381"></path><path id="kity_path_351" fill="none" stroke="gray"></path></g><path id="node_outline39" fill="none" stroke="none" d="M554.5000433623791,796.500025421381h55a5,5,0,0,1,5,5v8a5,5,0,0,1,-5,5h-55a5,5,0,0,1,-5,-5v-8a5,5,0,0,1,5,-5z"></path><g id="node_text39" fill="black"><text id="kity_text_193" text-rendering="inherit" font-size="12" dy=".8em" y="797.7000254690647" x="554.5000433623791">New York</text></g></g></g></g></svg>