<svg id="kity_svg_6" xmlns="http://www.w3.org/2000/svg" xmlns:xlink="http://www.w3.org/1999/xlink" version="1.1" width="1001" height="738" style="background: rgb(251, 251, 251); visibility: visible;" viewBox="0 0 1001 738"><defs id="kity_defs_7"><linearGradient id="kity_linearGradient_17" x1="0" y1="0" x2="0" y2="1"><stop id="kity_stop_18" offset="0" stop-color="rgb(255, 255, 255)"></stop><stop id="kity_stop_19" offset="1" stop-color="rgb(204, 204, 204)"></stop></linearGradient><marker id="kity_marker_2" orient="auto" refX="6" refY="0" viewBox="-7 -7 14 14" markerWidth="7" markerHeight="7" markerUnits="userSpaceOnUse"><path id="kity_path_3" fill="rgb(115, 161, 191)" stroke="none" d="M6,0A6,6,0,1,1,-6,0A6,6,0,1,1,6,0"></path></marker></defs><g id="kity_g_8"><g id="minder1" text-rendering="optimize-speed"><g id="minder_connect_group1"><path id="kity_path_31" fill="none" stroke="rgb(115, 161, 191)" stroke-width="1" d="M118.5,324.49999999999994A114,150,0,0,1,232.5,174.49999999999994"></path><path id="kity_path_33" fill="none" stroke="rgb(115, 161, 191)" stroke-width="1" d="M392.5,174.49999999999994C400.5,174.49999999999994,400.5,29.499999999999943,408.5,29.499999999999943"></path><path id="kity_path_35" fill="none" stroke="rgb(115, 161, 191)" stroke-width="1" d="M493.5,29.499999999999943C501.5,29.499999999999943,501.5,29.499999999999943,509.5,29.499999999999943"></path><path id="kity_path_37" fill="none" stroke="rgb(115, 161, 191)" stroke-width="1" d="M392.5,174.49999999999994C400.5,174.49999999999994,400.5,95.49999999999994,408.5,95.49999999999994"></path><path id="kity_path_39" fill="none" stroke="rgb(115, 161, 191)" stroke-width="1" d="M542.5,95.49999999999994C550.5,95.49999999999994,550.5,82.49999999999994,558.5,82.49999999999994"></path><path id="kity_path_41" fill="none" stroke="rgb(115, 161, 191)" stroke-width="1" d="M542.5,95.49999999999994C550.5,95.49999999999994,550.5,135.49999999999994,558.5,135.49999999999994"></path><path id="kity_path_43" fill="none" stroke="rgb(115, 161, 191)" stroke-width="1" d="M392.5,174.49999999999994C400.5,174.49999999999994,400.5,201.49999999999994,408.5,201.49999999999994"></path><path id="kity_path_45" fill="none" stroke="rgb(115, 161, 191)" stroke-width="1" d="M532.5,201.49999999999994C540.5,201.49999999999994,540.5,170.49999999999994,548.5,170.49999999999994"></path><path id="kity_path_47" fill="none" stroke="rgb(115, 161, 191)" stroke-width="1" d="M532.5,201.49999999999994C540.5,201.49999999999994,540.5,223.49999999999994,548.5,223.49999999999994"></path><path id="kity_path_49" fill="none" stroke="rgb(115, 161, 191)" stroke-width="1" d="M392.5,174.49999999999994C400.5,174.49999999999994,400.5,280.49999999999994,408.5,280.49999999999994"></path><path id="kity_path_51" fill="none" stroke="rgb(115, 161, 191)" stroke-width="1" d="M517.5,280.49999999999994C525.5,280.49999999999994,525.5,267.49999999999994,533.5,267.49999999999994"></path><path id="kity_path_53" fill="none" stroke="rgb(115, 161, 191)" stroke-width="1" d="M517.5,280.49999999999994C525.5,280.49999999999994,525.5,293.49999999999994,533.5,293.49999999999994"></path><path id="kity_path_55" fill="none" stroke="rgb(115, 161, 191)" stroke-width="1" d="M392.5,174.49999999999994C400.5,174.49999999999994,400.5,319.49999999999994,408.5,319.49999999999994"></path><path id="kity_path_57" fill="none" stroke="rgb(115, 161, 191)" stroke-width="1" d="M482.5,319.49999999999994C490.5,319.49999999999994,490.5,319.49999999999994,498.5,319.49999999999994"></path><path id="kity_path_59" fill="none" stroke="rgb(115, 161, 191)" stroke-width="1" d="M118.5,324.49999999999994A114,150,0,0,0,232.5,474.49999999999994"></path><path id="kity_path_61" fill="none" stroke="rgb(115, 161, 191)" stroke-width="1" d="M433.5,474.49999999999994C441.5,474.49999999999994,441.5,361.49999999999994,449.5,361.49999999999994"></path><path id="kity_path_63" fill="none" stroke="rgb(115, 161, 191)" stroke-width="1" d="M596.5,361.49999999999994C604.5,361.49999999999994,604.5,361.49999999999994,612.5,361.49999999999994"></path><path id="kity_path_65" fill="none" stroke="rgb(115, 161, 191)" stroke-width="1" d="M433.5,474.49999999999994C441.5,474.49999999999994,441.5,422.49999999999994,449.5,422.49999999999994"></path><path id="kity_path_67" fill="none" stroke="rgb(115, 161, 191)" stroke-width="1" d="M668.5,422.49999999999994C676.5,422.49999999999994,676.5,396.49999999999994,684.5,396.49999999999994"></path><path id="kity_path_69" fill="none" stroke="rgb(115, 161, 191)" stroke-width="1" d="M668.5,422.49999999999994C676.5,422.49999999999994,676.5,422.49999999999994,684.5,422.49999999999994"></path><path id="kity_path_71" fill="none" stroke="rgb(115, 161, 191)" stroke-width="1" d="M668.5,422.49999999999994C676.5,422.49999999999994,676.5,448.49999999999994,684.5,448.49999999999994"></path><path id="kity_path_73" fill="none" stroke="rgb(115, 161, 191)" stroke-width="1" d="M433.5,474.49999999999994C441.5,474.49999999999994,441.5,596.5,449.5,596.5"></path><path id="kity_path_75" fill="none" stroke="rgb(115, 161, 191)" stroke-width="1" d="M558.5,596.5C566.5,596.5,566.5,501.49999999999994,574.5,501.49999999999994"></path><path id="kity_path_77" fill="none" stroke="rgb(115, 161, 191)" stroke-width="1" d="M706.5,501.49999999999994C714.5,501.49999999999994,714.5,475.49999999999994,722.5,475.49999999999994"></path><path id="kity_path_79" fill="none" stroke="rgb(115, 161, 191)" stroke-width="1" d="M706.5,501.49999999999994C714.5,501.49999999999994,714.5,501.49999999999994,722.5,501.49999999999994"></path><path id="kity_path_81" fill="none" stroke="rgb(115, 161, 191)" stroke-width="1" d="M706.5,501.49999999999994C714.5,501.49999999999994,714.5,527.5,722.5,527.5"></path><path id="kity_path_83" fill="none" stroke="rgb(115, 161, 191)" stroke-width="1" d="M558.5,596.5C566.5,596.5,566.5,592.5,574.5,592.5"></path><path id="kity_path_85" fill="none" stroke="rgb(115, 161, 191)" stroke-width="1" d="M635.5,592.5C643.5,592.5,643.5,553.5,651.5,553.5"></path><path id="kity_path_87" fill="none" stroke="rgb(115, 161, 191)" stroke-width="1" d="M635.5,592.5C643.5,592.5,643.5,579.5,651.5,579.5"></path><path id="kity_path_89" fill="none" stroke="rgb(115, 161, 191)" stroke-width="1" d="M635.5,592.5C643.5,592.5,643.5,605.5,651.5,605.5"></path><path id="kity_path_91" fill="none" stroke="rgb(115, 161, 191)" stroke-width="1" d="M635.5,592.5C643.5,592.5,643.5,631.5,651.5,631.5"></path><path id="kity_path_93" fill="none" stroke="rgb(115, 161, 191)" stroke-width="1" d="M558.5,596.5C566.5,596.5,566.5,683.5,574.5,683.5"></path><path id="kity_path_95" fill="none" stroke="rgb(115, 161, 191)" stroke-width="1" d="M656.5,683.5C664.5,683.5,664.5,657.5,672.5,657.5"></path><path id="kity_path_97" fill="none" stroke="rgb(115, 161, 191)" stroke-width="1" d="M656.5,683.5C664.5,683.5,664.5,683.5,672.5,683.5"></path><path id="kity_path_99" fill="none" stroke="rgb(115, 161, 191)" stroke-width="1" d="M656.5,683.5C664.5,683.5,664.5,709.5,672.5,709.5"></path></g><g id="minder_node1"><path id="kity_path_320" fill="rgba(0, 0, 0, .25)" stroke="none" d="M33.5,307.49999999999994h263a22,22,0,0,1,22,22v0a22,22,0,0,1,-22,22h-263a22,22,0,0,1,-22,-22v0a22,22,0,0,1,22,-22z" display="none"></path><path id="node_outline1" fill="rgb(115, 161, 191)" stroke="rgb(115, 161, 191)" d="M25.5,310.49999999999994h186a5,5,0,0,1,5,5v18a5,5,0,0,1,-5,5h-186a5,5,0,0,1,-5,-5v-18a5,5,0,0,1,5,-5z" stroke-width="3"></path><g id="node_text1" fill="white"><text id="kity_text_22" text-rendering="inherit" font-size="16" dy=".8em" y="314.0999999046325" x="32.5">5 Google Earth Engine</text></g></g><g id="kity_g_12"><path id="kity_path_13" fill="none" stroke="none" d="M32.5,324.49999999999994h0v0h0z"></path></g><g id="kity_g_14"><path id="kity_path_15" fill="none" stroke="none" d="M32.5,324.49999999999994h0v0h0z"></path><path id="kity_path_16" fill="none" stroke="none"></path></g><g id="minder_node2"><path id="kity_path_318" fill="rgba(0, 0, 0, .25)" stroke="none" d="M253.50000661611557,166.49999552965159h144a10,10,0,0,1,10,10v6a10,10,0,0,1,-10,10h-144a10,10,0,0,1,-10,-10v-6a10,10,0,0,1,10,-10z" display="none"></path><g id="node_expander14" style="cursor: pointer;"><path id="kity_path_253" fill="white" stroke="gray" d="M233.50000661611557,174.49999552965159A6,6,0,1,1,221.50000661611557,174.49999552965159A6,6,0,1,1,233.50000661611557,174.49999552965159"></path><path id="kity_path_254" fill="none" stroke="gray" d="M223.00000661611557,174.49999552965159L232.00000661611557,174.49999552965159"></path></g><path id="node_outline15" fill="rgb(238, 243, 246)" stroke="rgb(115, 161, 191)" d="M237.50000661611557,161.49999552965159h152a3,3,0,0,1,3,3v20a3,3,0,0,1,-3,3h-152a3,3,0,0,1,-3,-3v-20a3,3,0,0,1,3,-3z" stroke-width="1"></path><g id="node_text15" fill="black"><text id="kity_text_133" text-rendering="inherit" font-size="14" dy=".8em" y="165.39999562501902" x="254.50000661611557"> The set up of GEE</text></g></g><g id="minder_node3"><g id="node_expander2" style="cursor: pointer;"><path id="kity_path_217" fill="white" stroke="gray" d="M408.50001135468483,29.499991208314782A6,6,0,1,1,396.50001135468483,29.499991208314782A6,6,0,1,1,408.50001135468483,29.499991208314782"></path><path id="kity_path_218" fill="none" stroke="gray" d="M398.00001135468483,29.499991208314782L407.00001135468483,29.499991208314782"></path></g><path id="node_outline3" fill="none" stroke="none" d="M413.50001135468483,20.499991208314782h75a5,5,0,0,1,5,5v8a5,5,0,0,1,-5,5h-75a5,5,0,0,1,-5,-5v-8a5,5,0,0,1,5,-5z"></path><g id="node_text3" fill="black"><text id="kity_text_103" text-rendering="inherit" font-size="12" dy=".8em" y="21.699991255998498" x="413.50001135468483">What is GEE?</text></g></g><g id="minder_node4"><g id="node_expander1" style="cursor: pointer;" display="none"><path id="kity_path_214" fill="white" stroke="gray" d="M509.5000143647194,29.499991208314782A6,6,0,1,1,497.5000143647194,29.499991208314782A6,6,0,1,1,509.5000143647194,29.499991208314782"></path><path id="kity_path_215" fill="none" stroke="gray"></path></g><path id="node_outline2" fill="none" stroke="none" d="M514.5000143647194,20.499991208314782h365a5,5,0,0,1,5,5v8a5,5,0,0,1,-5,5h-365a5,5,0,0,1,-5,-5v-8a5,5,0,0,1,5,-5z"></path><g id="node_text2" fill="black"><text id="kity_text_101" text-rendering="inherit" font-size="12" dy=".8em" y="21.699991255998498" x="514.5000143647194">Collection, visualization, analysis of geographical or spatial data</text></g></g><g id="minder_node5"><g id="node_expander5" style="cursor: pointer;"><path id="kity_path_226" fill="white" stroke="gray" d="M408.50001135468483,95.49999317526812A6,6,0,1,1,396.50001135468483,95.49999317526812A6,6,0,1,1,408.50001135468483,95.49999317526812"></path><path id="kity_path_227" fill="none" stroke="gray" d="M398.00001135468483,95.49999317526812L407.00001135468483,95.49999317526812"></path></g><path id="node_outline6" fill="#ffc000" stroke="none" d="M413.50001135468483,86.49999317526812h124a5,5,0,0,1,5,5v8a5,5,0,0,1,-5,5h-124a5,5,0,0,1,-5,-5v-8a5,5,0,0,1,5,-5z"></path><g id="node_text6" fill="black"><text id="kity_text_112" text-rendering="inherit" font-size="12" dy=".8em" y="87.69999322295183" x="413.50001135468483">Terms / jargon to GEE</text></g></g><g id="minder_node6"><g id="node_expander3" style="cursor: pointer;" display="none"><path id="kity_path_220" fill="white" stroke="gray" d="M558.5000158250332,82.49999278783793A6,6,0,1,1,546.5000158250332,82.49999278783793A6,6,0,1,1,558.5000158250332,82.49999278783793"></path><path id="kity_path_221" fill="none" stroke="gray"></path></g><path id="node_outline4" fill="none" stroke="none" d="M563.5000158250332,46.499992787837925h290a5,5,0,0,1,5,5v62a5,5,0,0,1,-5,5h-290a5,5,0,0,1,-5,-5v-62a5,5,0,0,1,5,-5z"></path><g id="node_text4" fill="black"><text id="kity_text_105" text-rendering="inherit" font-size="12" dy=".8em" y="47.69999283552164" x="563.5000158250332">Image = raster</text><text id="kity_text_106" text-rendering="inherit" font-size="12" dy=".8em" y="65.69999283552164" x="563.5000158250332">Feature = vector</text><text id="kity_text_107" text-rendering="inherit" font-size="12" dy=".8em" y="83.69999283552164" x="563.5000158250332">Image stack= ImageCollection</text><text id="kity_text_108" text-rendering="inherit" font-size="12" dy=".8em" y="101.69999283552164" x="563.5000158250332">Feature stack (lots of polygons) = FeatureColletion</text></g></g><g id="minder_node7"><g id="node_expander4" style="cursor: pointer;" display="none"><path id="kity_path_223" fill="white" stroke="gray" d="M558.5000158250332,135.499994367361A6,6,0,1,1,546.5000158250332,135.499994367361A6,6,0,1,1,558.5000158250332,135.499994367361"></path><path id="kity_path_224" fill="none" stroke="gray"></path></g><path id="node_outline5" fill="none" stroke="none" d="M563.5000158250332,126.49999436736101h80a5,5,0,0,1,5,5v8a5,5,0,0,1,-5,5h-80a5,5,0,0,1,-5,-5v-8a5,5,0,0,1,5,-5z"></path><g id="node_text5" fill="black"><text id="kity_text_110" text-rendering="inherit" font-size="12" dy=".8em" y="127.69999441504473" x="563.5000158250332">Use Javascript</text></g></g><g id="minder_node8"><g id="node_expander8" style="cursor: pointer;"><path id="kity_path_235" fill="white" stroke="gray" d="M408.50001135468483,201.4999963343143A6,6,0,1,1,396.50001135468483,201.4999963343143A6,6,0,1,1,408.50001135468483,201.4999963343143"></path><path id="kity_path_236" fill="none" stroke="gray" d="M398.00001135468483,201.4999963343143L407.00001135468483,201.4999963343143"></path></g><path id="node_outline9" fill="#ffc000" stroke="none" d="M413.50001135468483,192.4999963343143h114a5,5,0,0,1,5,5v8a5,5,0,0,1,-5,5h-114a5,5,0,0,1,-5,-5v-8a5,5,0,0,1,5,-5z"></path><g id="node_text9" fill="black"><text id="kity_text_121" text-rendering="inherit" font-size="12" dy=".8em" y="193.699996381998" x="413.50001135468483">Client vs server side</text></g></g><g id="minder_node9"><g id="node_expander6" style="cursor: pointer;" display="none"><path id="kity_path_229" fill="white" stroke="gray" d="M548.50001552701,170.4999954104423A6,6,0,1,1,536.50001552701,170.4999954104423A6,6,0,1,1,548.50001552701,170.4999954104423"></path><path id="kity_path_230" fill="none" stroke="gray"></path></g><path id="node_outline7" fill="none" stroke="none" d="M553.50001552701,152.4999954104423h149a5,5,0,0,1,5,5v26a5,5,0,0,1,-5,5h-149a5,5,0,0,1,-5,-5v-26a5,5,0,0,1,5,-5z"></path><g id="node_text7" fill="black"><text id="kity_text_114" text-rendering="inherit" font-size="12" dy=".8em" y="153.699995458126" x="553.50001552701">Client side:&#xa0;browser</text><text id="kity_text_115" text-rendering="inherit" font-size="12" dy=".8em" y="171.699995458126" x="553.50001552701">Server side: run the codes</text></g></g><g id="minder_node10"><g id="node_expander7" style="cursor: pointer;" display="none"><path id="kity_path_232" fill="white" stroke="gray" d="M548.50001552701,223.49999698996538A6,6,0,1,1,536.50001552701,223.49999698996538A6,6,0,1,1,548.50001552701,223.49999698996538"></path><path id="kity_path_233" fill="none" stroke="gray"></path></g><path id="node_outline8" fill="none" stroke="none" d="M553.50001552701,196.49999698996538h120a5,5,0,0,1,5,5v44a5,5,0,0,1,-5,5h-120a5,5,0,0,1,-5,-5v-44a5,5,0,0,1,5,-5z"></path><g id="node_text8" fill="black"><text id="kity_text_117" text-rendering="inherit" font-size="12" dy=".8em" y="197.6999970376491" x="553.50001552701">Looping</text><text id="kity_text_118" text-rendering="inherit" font-size="12" dy=".8em" y="215.6999970376491" x="553.50001552701">Mapping functions</text><text id="kity_text_119" text-rendering="inherit" font-size="12" dy=".8em" y="233.6999970376491" x="553.50001552701">Server side&#xa0;functions</text></g></g><g id="minder_node11"><g id="node_expander11" style="cursor: pointer;"><path id="kity_path_244" fill="white" stroke="gray" d="M408.50001135468483,280.49999868869776A6,6,0,1,1,396.50001135468483,280.49999868869776A6,6,0,1,1,408.50001135468483,280.49999868869776"></path><path id="kity_path_245" fill="none" stroke="gray" d="M398.00001135468483,280.49999868869776L407.00001135468483,280.49999868869776"></path></g><path id="node_outline12" fill="none" stroke="none" d="M413.50001135468483,271.49999868869776h99a5,5,0,0,1,5,5v8a5,5,0,0,1,-5,5h-99a5,5,0,0,1,-5,-5v-8a5,5,0,0,1,5,-5z"></path><g id="node_text12" fill="black"><text id="kity_text_127" text-rendering="inherit" font-size="12" dy=".8em" y="272.6999987363815" x="413.50001135468483">Scale (resolution)</text></g></g><g id="minder_node12"><g id="node_expander9" style="cursor: pointer;" display="none"><path id="kity_path_238" fill="white" stroke="gray" d="M533.5000150799751,267.49999830126757A6,6,0,1,1,521.5000150799751,267.49999830126757A6,6,0,1,1,533.5000150799751,267.49999830126757"></path><path id="kity_path_239" fill="none" stroke="gray"></path></g><path id="node_outline10" fill="none" stroke="none" d="M538.5000150799751,258.49999830126757h88a5,5,0,0,1,5,5v8a5,5,0,0,1,-5,5h-88a5,5,0,0,1,-5,-5v-8a5,5,0,0,1,5,-5z"></path><g id="node_text10" fill="black"><text id="kity_text_123" text-rendering="inherit" font-size="12" dy=".8em" y="259.6999983489513" x="538.5000150799751"> Pixel resolution</text></g></g><g id="minder_node13"><g id="node_expander10" style="cursor: pointer;" display="none"><path id="kity_path_241" fill="white" stroke="gray" d="M533.5000150799751,293.49999907612795A6,6,0,1,1,521.5000150799751,293.49999907612795A6,6,0,1,1,533.5000150799751,293.49999907612795"></path><path id="kity_path_242" fill="none" stroke="gray"></path></g><path id="node_outline11" fill="none" stroke="none" d="M538.5000150799751,284.49999907612795h157a5,5,0,0,1,5,5v8a5,5,0,0,1,-5,5h-157a5,5,0,0,1,-5,-5v-8a5,5,0,0,1,5,-5z"></path><g id="node_text11" fill="black"><text id="kity_text_125" text-rendering="inherit" font-size="12" dy=".8em" y="285.69999912381166" x="538.5000150799751">Set by the output not input</text></g></g><g id="minder_node14"><g id="node_expander13" style="cursor: pointer;"><path id="kity_path_250" fill="white" stroke="gray" d="M408.50001135468483,319.49999985098833A6,6,0,1,1,396.50001135468483,319.49999985098833A6,6,0,1,1,408.50001135468483,319.49999985098833"></path><path id="kity_path_251" fill="none" stroke="gray" d="M398.00001135468483,319.49999985098833L407.00001135468483,319.49999985098833"></path></g><path id="node_outline14" fill="none" stroke="none" d="M413.50001135468483,310.49999985098833h64a5,5,0,0,1,5,5v8a5,5,0,0,1,-5,5h-64a5,5,0,0,1,-5,-5v-8a5,5,0,0,1,5,-5z"></path><g id="node_text14" fill="black"><text id="kity_text_131" text-rendering="inherit" font-size="12" dy=".8em" y="311.69999989867205" x="413.50001135468483">Projections</text></g></g><g id="minder_node15"><g id="node_expander12" style="cursor: pointer;" display="none"><path id="kity_path_247" fill="white" stroke="gray" d="M498.50001403689384,319.49999985098833A6,6,0,1,1,486.50001403689384,319.49999985098833A6,6,0,1,1,498.50001403689384,319.49999985098833"></path><path id="kity_path_248" fill="none" stroke="gray"></path></g><path id="node_outline13" fill="none" stroke="none" d="M503.50001403689384,310.49999985098833h333a5,5,0,0,1,5,5v8a5,5,0,0,1,-5,5h-333a5,5,0,0,1,-5,-5v-8a5,5,0,0,1,5,-5z"></path><g id="node_text13" fill="black"><text id="kity_text_129" text-rendering="inherit" font-size="12" dy=".8em" y="311.69999989867205" x="503.50001403689384">Convert all data into the Mercator projection (EPSG: 3857)</text></g></g><g id="minder_node16"><path id="kity_path_319" fill="rgba(0, 0, 0, .25)" stroke="none" d="M253.50000661611557,466.50000447034836h191a10,10,0,0,1,10,10v6a10,10,0,0,1,-10,10h-191a10,10,0,0,1,-10,-10v-6a10,10,0,0,1,10,-10z" display="none"></path><g id="node_expander35" style="cursor: pointer;"><path id="kity_path_316" fill="white" stroke="gray" d="M233.50000661611557,474.50000447034836A6,6,0,1,1,221.50000661611557,474.50000447034836A6,6,0,1,1,233.50000661611557,474.50000447034836"></path><path id="kity_path_317" fill="none" stroke="gray" d="M223.00000661611557,474.50000447034836L232.00000661611557,474.50000447034836"></path></g><path id="node_outline36" fill="rgb(238, 243, 246)" stroke="rgb(115, 161, 191)" d="M237.50000661611557,461.50000447034836h193a3,3,0,0,1,3,3v20a3,3,0,0,1,-3,3h-193a3,3,0,0,1,-3,-3v-20a3,3,0,0,1,3,-3z" stroke-width="1"></path><g id="node_text36" fill="black"><text id="kity_text_177" text-rendering="inherit" font-size="14" dy=".8em" y="465.4000045657158" x="254.50000661611557">GEE functions and tools</text></g></g><g id="minder_node17"><g id="node_expander16" style="cursor: pointer;"><path id="kity_path_259" fill="white" stroke="gray" d="M449.50001257658005,361.50000110268587A6,6,0,1,1,437.50001257658005,361.50000110268587A6,6,0,1,1,449.50001257658005,361.50000110268587"></path><path id="kity_path_260" fill="none" stroke="gray" d="M439.00001257658005,361.50000110268587L448.00001257658005,361.50000110268587"></path></g><path id="node_outline17" fill="none" stroke="none" d="M454.50001257658005,343.50000110268587h137a5,5,0,0,1,5,5v26a5,5,0,0,1,-5,5h-137a5,5,0,0,1,-5,-5v-26a5,5,0,0,1,5,-5z"></path><g id="node_text17" fill="black"><text id="kity_text_137" text-rendering="inherit" font-size="12" dy=".8em" y="344.7000011503696" x="454.50001257658005">Buildings blocks of data </text><text id="kity_text_138" text-rendering="inherit" font-size="12" dy=".8em" y="362.7000011503696" x="454.50001257658005">(the data in GEE)</text></g></g><g id="minder_node18"><g id="node_expander15" style="cursor: pointer;" display="none"><path id="kity_path_256" fill="white" stroke="gray" d="M612.5000174343586,361.50000110268587A6,6,0,1,1,600.5000174343586,361.50000110268587A6,6,0,1,1,612.5000174343586,361.50000110268587"></path><path id="kity_path_257" fill="none" stroke="gray"></path></g><path id="node_outline16" fill="none" stroke="none" d="M617.5000174343586,352.50000110268587h265a5,5,0,0,1,5,5v8a5,5,0,0,1,-5,5h-265a5,5,0,0,1,-5,-5v-8a5,5,0,0,1,5,-5z"></path><g id="node_text16" fill="black"><text id="kity_text_135" text-rendering="inherit" font-size="12" dy=".8em" y="353.7000011503696" x="617.5000174343586">Object = vector, raster, feature, string, number</text></g></g><g id="minder_node19"><g id="node_expander20" style="cursor: pointer;"><path id="kity_path_271" fill="white" stroke="gray" d="M449.50001257658005,422.50000292062754A6,6,0,1,1,437.50001257658005,422.50000292062754A6,6,0,1,1,449.50001257658005,422.50000292062754"></path><path id="kity_path_272" fill="none" stroke="gray" d="M439.00001257658005,422.50000292062754L448.00001257658005,422.50000292062754"></path></g><path id="node_outline21" fill="none" stroke="none" d="M454.50001257658005,413.50000292062754h209a5,5,0,0,1,5,5v8a5,5,0,0,1,-5,5h-209a5,5,0,0,1,-5,-5v-8a5,5,0,0,1,5,-5z"></path><g id="node_text21" fill="black"><text id="kity_text_146" text-rendering="inherit" font-size="12" dy=".8em" y="414.70000296831125" x="454.50001257658005">Collections, geometries and features</text></g></g><g id="minder_node20"><g id="node_expander17" style="cursor: pointer;" display="none"><path id="kity_path_262" fill="white" stroke="gray" d="M684.5000195801258,396.50000214576716A6,6,0,1,1,672.5000195801258,396.50000214576716A6,6,0,1,1,684.5000195801258,396.50000214576716"></path><path id="kity_path_263" fill="none" stroke="gray"></path></g><path id="node_outline18" fill="none" stroke="none" d="M689.5000195801258,387.50000214576716h217a5,5,0,0,1,5,5v8a5,5,0,0,1,-5,5h-217a5,5,0,0,1,-5,-5v-8a5,5,0,0,1,5,-5z"></path><g id="node_text18" fill="black"><text id="kity_text_140" text-rendering="inherit" font-size="12" dy=".8em" y="388.70000219345087" x="689.5000195801258">Image collection = a stack or rasters...</text></g></g><g id="minder_node21"><g id="node_expander18" style="cursor: pointer;" display="none"><path id="kity_path_265" fill="white" stroke="gray" d="M684.5000195801258,422.50000292062754A6,6,0,1,1,672.5000195801258,422.50000292062754A6,6,0,1,1,684.5000195801258,422.50000292062754"></path><path id="kity_path_266" fill="none" stroke="gray"></path></g><path id="node_outline19" fill="none" stroke="none" d="M689.5000195801258,413.50000292062754h287a5,5,0,0,1,5,5v8a5,5,0,0,1,-5,5h-287a5,5,0,0,1,-5,-5v-8a5,5,0,0,1,5,-5z"></path><g id="node_text19" fill="black"><text id="kity_text_142" text-rendering="inherit" font-size="12" dy=".8em" y="414.70000296831125" x="689.5000195801258">Geometry = point/line/polygon with no attributes</text></g></g><g id="minder_node22"><g id="node_expander19" style="cursor: pointer;" display="none"><path id="kity_path_268" fill="white" stroke="gray" d="M684.5000195801258,448.5000036954879A6,6,0,1,1,672.5000195801258,448.5000036954879A6,6,0,1,1,684.5000195801258,448.5000036954879"></path><path id="kity_path_269" fill="none" stroke="gray"></path></g><path id="node_outline20" fill="none" stroke="none" d="M689.5000195801258,439.5000036954879h202a5,5,0,0,1,5,5v8a5,5,0,0,1,-5,5h-202a5,5,0,0,1,-5,-5v-8a5,5,0,0,1,5,-5z"></path><g id="node_text20" fill="black"><text id="kity_text_144" text-rendering="inherit" font-size="12" dy=".8em" y="440.70000374317164" x="689.5000195801258">Feature = geometry with attributes</text></g></g><g id="minder_node23"><g id="node_expander34" style="cursor: pointer;"><path id="kity_path_313" fill="white" stroke="gray" d="M449.50001257658005,596.5000081062316A6,6,0,1,1,437.50001257658005,596.5000081062316A6,6,0,1,1,449.50001257658005,596.5000081062316"></path><path id="kity_path_314" fill="none" stroke="gray" d="M439.00001257658005,596.5000081062316L448.00001257658005,596.5000081062316"></path></g><path id="node_outline35" fill="none" stroke="none" d="M454.50001257658005,587.5000081062316h99a5,5,0,0,1,5,5v8a5,5,0,0,1,-5,5h-99a5,5,0,0,1,-5,-5v-8a5,5,0,0,1,5,-5z"></path><g id="node_text35" fill="black"><text id="kity_text_175" text-rendering="inherit" font-size="12" dy=".8em" y="588.7000081539153" x="454.50001257658005">Typical processes</text></g></g><g id="minder_node24"><g id="node_expander24" style="cursor: pointer;"><path id="kity_path_283" fill="white" stroke="gray" d="M574.5000163018703,501.50000527501106A6,6,0,1,1,562.5000163018703,501.50000527501106A6,6,0,1,1,574.5000163018703,501.50000527501106"></path><path id="kity_path_284" fill="none" stroke="gray" d="M564.0000163018703,501.50000527501106L573.0000163018703,501.50000527501106"></path></g><path id="node_outline25" fill="none" stroke="none" d="M579.5000163018703,492.50000527501106h122a5,5,0,0,1,5,5v8a5,5,0,0,1,-5,5h-122a5,5,0,0,1,-5,-5v-8a5,5,0,0,1,5,-5z"></path><g id="node_text25" fill="black"><text id="kity_text_154" text-rendering="inherit" font-size="12" dy=".8em" y="493.7000053226948" x="579.5000163018703">Geometry operations</text></g></g><g id="minder_node25"><g id="node_expander21" style="cursor: pointer;" display="none"><path id="kity_path_274" fill="white" stroke="gray" d="M722.5000207126141,475.5000045001507A6,6,0,1,1,710.5000207126141,475.5000045001507A6,6,0,1,1,722.5000207126141,475.5000045001507"></path><path id="kity_path_275" fill="none" stroke="gray"></path></g><path id="node_outline22" fill="#ffc000" stroke="none" d="M727.5000207126141,466.5000045001507h29a5,5,0,0,1,5,5v8a5,5,0,0,1,-5,5h-29a5,5,0,0,1,-5,-5v-8a5,5,0,0,1,5,-5z"></path><g id="node_text22" fill="black"><text id="kity_text_148" text-rendering="inherit" font-size="12" dy=".8em" y="467.7000045478344" x="727.5000207126141">Joins</text></g></g><g id="minder_node26"><g id="node_expander22" style="cursor: pointer;" display="none"><path id="kity_path_277" fill="white" stroke="gray" d="M722.5000207126141,501.50000527501106A6,6,0,1,1,710.5000207126141,501.50000527501106A6,6,0,1,1,722.5000207126141,501.50000527501106"></path><path id="kity_path_278" fill="none" stroke="gray"></path></g><path id="node_outline23" fill="none" stroke="none" d="M727.5000207126141,492.50000527501106h85a5,5,0,0,1,5,5v8a5,5,0,0,1,-5,5h-85a5,5,0,0,1,-5,-5v-8a5,5,0,0,1,5,-5z"></path><g id="node_text23" fill="black"><text id="kity_text_150" text-rendering="inherit" font-size="12" dy=".8em" y="493.7000053226948" x="727.5000207126141">Zonal statistics</text></g></g><g id="minder_node27"><g id="node_expander23" style="cursor: pointer;" display="none"><path id="kity_path_280" fill="white" stroke="gray" d="M722.5000207126141,527.5000060498714A6,6,0,1,1,710.5000207126141,527.5000060498714A6,6,0,1,1,722.5000207126141,527.5000060498714"></path><path id="kity_path_281" fill="none" stroke="gray"></path></g><path id="node_outline24" fill="none" stroke="none" d="M727.5000207126141,518.5000060498714h208a5,5,0,0,1,5,5v8a5,5,0,0,1,-5,5h-208a5,5,0,0,1,-5,-5v-8a5,5,0,0,1,5,-5z"></path><g id="node_text24" fill="black"><text id="kity_text_152" text-rendering="inherit" font-size="12" dy=".8em" y="519.7000060975552" x="727.5000207126141">Filtering of images or specific values</text></g></g><g id="minder_node28"><g id="node_expander29" style="cursor: pointer;"><path id="kity_path_298" fill="white" stroke="gray" d="M574.5000163018703,592.5000079870223A6,6,0,1,1,562.5000163018703,592.5000079870223A6,6,0,1,1,574.5000163018703,592.5000079870223"></path><path id="kity_path_299" fill="none" stroke="gray" d="M564.0000163018703,592.5000079870223L573.0000163018703,592.5000079870223"></path></g><path id="node_outline30" fill="none" stroke="none" d="M579.5000163018703,583.5000079870223h51a5,5,0,0,1,5,5v8a5,5,0,0,1,-5,5h-51a5,5,0,0,1,-5,-5v-8a5,5,0,0,1,5,-5z"></path><g id="node_text30" fill="black"><text id="kity_text_164" text-rendering="inherit" font-size="12" dy=".8em" y="584.700008034706" x="579.5000163018703">Methods</text></g></g><g id="minder_node29"><g id="node_expander25" style="cursor: pointer;" display="none"><path id="kity_path_286" fill="white" stroke="gray" d="M651.5000185966492,553.5000068247318A6,6,0,1,1,639.5000185966492,553.5000068247318A6,6,0,1,1,651.5000185966492,553.5000068247318"></path><path id="kity_path_287" fill="none" stroke="gray"></path></g><path id="node_outline26" fill="#ffc000" stroke="none" d="M656.5000185966492,544.5000068247318h100a5,5,0,0,1,5,5v8a5,5,0,0,1,-5,5h-100a5,5,0,0,1,-5,-5v-8a5,5,0,0,1,5,-5z"></path><g id="node_text26" fill="black"><text id="kity_text_156" text-rendering="inherit" font-size="12" dy=".8em" y="545.7000068724155" x="656.5000185966492">Machine learning</text></g></g><g id="minder_node30"><g id="node_expander26" style="cursor: pointer;" display="none"><path id="kity_path_289" fill="white" stroke="gray" d="M651.5000185966492,579.5000075995922A6,6,0,1,1,639.5000185966492,579.5000075995922A6,6,0,1,1,651.5000185966492,579.5000075995922"></path><path id="kity_path_290" fill="none" stroke="gray"></path></g><path id="node_outline27" fill="#ffc000" stroke="none" d="M656.5000185966492,570.5000075995922h245a5,5,0,0,1,5,5v8a5,5,0,0,1,-5,5h-245a5,5,0,0,1,-5,-5v-8a5,5,0,0,1,5,-5z"></path><g id="node_text27" fill="black"><text id="kity_text_158" text-rendering="inherit" font-size="12" dy=".8em" y="571.7000076472759" x="656.5000185966492">Supervised and unsupervised classification</text></g></g><g id="minder_node31"><g id="node_expander27" style="cursor: pointer;" display="none"><path id="kity_path_292" fill="white" stroke="gray" d="M651.5000185966492,605.5000083744525A6,6,0,1,1,639.5000185966492,605.5000083744525A6,6,0,1,1,651.5000185966492,605.5000083744525"></path><path id="kity_path_293" fill="none" stroke="gray"></path></g><path id="node_outline28" fill="none" stroke="none" d="M656.5000185966492,596.5000083744525h181a5,5,0,0,1,5,5v8a5,5,0,0,1,-5,5h-181a5,5,0,0,1,-5,-5v-8a5,5,0,0,1,5,-5z"></path><g id="node_text28" fill="black"><text id="kity_text_160" text-rendering="inherit" font-size="12" dy=".8em" y="597.7000084221362" x="656.5000185966492">Deep learning with Tensor Flow</text></g></g><g id="minder_node32"><g id="node_expander28" style="cursor: pointer;" display="none"><path id="kity_path_295" fill="white" stroke="gray" d="M651.5000185966492,631.500009149313A6,6,0,1,1,639.5000185966492,631.500009149313A6,6,0,1,1,651.5000185966492,631.500009149313"></path><path id="kity_path_296" fill="none" stroke="gray"></path></g><path id="node_outline29" fill="#ffc000" stroke="none" d="M656.5000185966492,622.500009149313h237a5,5,0,0,1,5,5v8a5,5,0,0,1,-5,5h-237a5,5,0,0,1,-5,-5v-8a5,5,0,0,1,5,-5z"></path><g id="node_text29" fill="black"><text id="kity_text_162" text-rendering="inherit" font-size="12" dy=".8em" y="623.7000091969967" x="656.5000185966492">Exploring relationships between variables</text></g></g><g id="minder_node33"><g id="node_expander33" style="cursor: pointer;"><path id="kity_path_310" fill="white" stroke="gray" d="M574.5000163018703,683.5000106990337A6,6,0,1,1,562.5000163018703,683.5000106990337A6,6,0,1,1,574.5000163018703,683.5000106990337"></path><path id="kity_path_311" fill="none" stroke="gray" d="M564.0000163018703,683.5000106990337L573.0000163018703,683.5000106990337"></path></g><path id="node_outline34" fill="none" stroke="none" d="M579.5000163018703,665.5000106990337h72a5,5,0,0,1,5,5v26a5,5,0,0,1,-5,5h-72a5,5,0,0,1,-5,-5v-26a5,5,0,0,1,5,-5z"></path><g id="node_text34" fill="black"><text id="kity_text_172" text-rendering="inherit" font-size="12" dy=".8em" y="666.7000107467175" x="579.5000163018703">Applications</text><text id="kity_text_173" text-rendering="inherit" font-size="12" dy=".8em" y="684.7000107467175" x="579.5000163018703">/outputs</text></g></g><g id="minder_node34"><g id="node_expander30" style="cursor: pointer;" display="none"><path id="kity_path_301" fill="white" stroke="gray" d="M672.5000192224979,657.5000099241732A6,6,0,1,1,660.5000192224979,657.5000099241732A6,6,0,1,1,672.5000192224979,657.5000099241732"></path><path id="kity_path_302" fill="none" stroke="gray"></path></g><path id="node_outline31" fill="none" stroke="none" d="M677.5000192224979,648.5000099241732h76a5,5,0,0,1,5,5v8a5,5,0,0,1,-5,5h-76a5,5,0,0,1,-5,-5v-8a5,5,0,0,1,5,-5z"></path><g id="node_text31" fill="black"><text id="kity_text_166" text-rendering="inherit" font-size="12" dy=".8em" y="649.700009971857" x="677.5000192224979">Online charts</text></g></g><g id="minder_node35"><g id="node_expander31" style="cursor: pointer;" display="none"><path id="kity_path_304" fill="white" stroke="gray" d="M672.5000192224979,683.5000106990337A6,6,0,1,1,660.5000192224979,683.5000106990337A6,6,0,1,1,672.5000192224979,683.5000106990337"></path><path id="kity_path_305" fill="none" stroke="gray"></path></g><path id="node_outline32" fill="none" stroke="none" d="M677.5000192224979,674.5000106990337h265a5,5,0,0,1,5,5v8a5,5,0,0,1,-5,5h-265a5,5,0,0,1,-5,-5v-8a5,5,0,0,1,5,-5z"></path><g id="node_text32" fill="black"><text id="kity_text_168" text-rendering="inherit" font-size="12" dy=".8em" y="675.7000107467175" x="677.5000192224979">Scalable geospatial applications with GEE data</text></g></g><g id="minder_node36"><g id="node_expander32" style="cursor: pointer;" display="none"><path id="kity_path_307" fill="white" stroke="gray" d="M672.5000192224979,709.5000114738941A6,6,0,1,1,660.5000192224979,709.5000114738941A6,6,0,1,1,672.5000192224979,709.5000114738941"></path><path id="kity_path_308" fill="none" stroke="gray"></path></g><path id="node_outline33" fill="none" stroke="none" d="M677.5000192224979,700.5000114738941h232a5,5,0,0,1,5,5v8a5,5,0,0,1,-5,5h-232a5,5,0,0,1,-5,-5v-8a5,5,0,0,1,5,-5z"></path><g id="node_text33" fill="black"><text id="kity_text_170" text-rendering="inherit" font-size="12" dy=".8em" y="701.7000115215778" x="677.5000192224979">Query the data and&#xa0;then updates results</text></g></g></g></g></svg>