<svg id="kity_svg_6" xmlns="http://www.w3.org/2000/svg" xmlns:xlink="http://www.w3.org/1999/xlink" version="1.1" width="1040" height="586" style="background: rgb(251, 251, 251); visibility: visible;" viewBox="0 0 1040 586"><defs id="kity_defs_7"><linearGradient id="kity_linearGradient_17" x1="0" y1="0" x2="0" y2="1"><stop id="kity_stop_18" offset="0" stop-color="rgb(255, 255, 255)"></stop><stop id="kity_stop_19" offset="1" stop-color="rgb(204, 204, 204)"></stop></linearGradient><marker id="kity_marker_2" orient="auto" refX="6" refY="0" viewBox="-7 -7 14 14" markerWidth="7" markerHeight="7" markerUnits="userSpaceOnUse"><path id="kity_path_3" fill="rgb(115, 161, 191)" stroke="none" d="M6,0A6,6,0,1,1,-6,0A6,6,0,1,1,6,0"></path></marker></defs><g id="kity_g_8"><g id="minder1" text-rendering="optimize-speed"><g id="minder_connect_group1"><path id="kity_path_31" fill="none" stroke="rgb(115, 161, 191)" stroke-width="1" d="M94,190.5A89.5,109,0,0,1,183.5,81.5"></path><path id="kity_path_33" fill="none" stroke="rgb(115, 161, 191)" stroke-width="1" d="M471.5,81.5C479.5,81.5,479.5,29.5,487.5,29.5"></path><path id="kity_path_35" fill="none" stroke="rgb(115, 161, 191)" stroke-width="1" d="M471.5,81.5C479.5,81.5,479.5,55.5,487.5,55.5"></path><path id="kity_path_37" fill="none" stroke="rgb(115, 161, 191)" stroke-width="1" d="M471.5,81.5C479.5,81.5,479.5,81.5,487.5,81.5"></path><path id="kity_path_39" fill="none" stroke="rgb(115, 161, 191)" stroke-width="1" d="M471.5,81.5C479.5,81.5,479.5,107.5,487.5,107.5"></path><path id="kity_path_41" fill="none" stroke="rgb(115, 161, 191)" stroke-width="1" d="M471.5,81.5C479.5,81.5,479.5,133.5,487.5,133.5"></path><path id="kity_path_43" fill="none" stroke="rgb(115, 161, 191)" stroke-width="1" d="M94,190.5A89.5,109,0,0,0,183.5,299.5"></path><path id="kity_path_45" fill="none" stroke="rgb(115, 161, 191)" stroke-width="1" d="M330.5,299.5C338.5,299.5,338.5,299.5,346.5,299.5"></path><path id="kity_path_47" fill="none" stroke="rgb(115, 161, 191)" stroke-width="1" d="M456.5,299.5C464.5,299.5,464.5,219.5,472.5,219.5"></path><path id="kity_path_49" fill="none" stroke="rgb(115, 161, 191)" stroke-width="1" d="M615.5,219.5C623.5,219.5,623.5,167.5,631.5,167.5"></path><path id="kity_path_51" fill="none" stroke="rgb(115, 161, 191)" stroke-width="1" d="M615.5,219.5C623.5,219.5,623.5,193.5,631.5,193.5"></path><path id="kity_path_53" fill="none" stroke="rgb(115, 161, 191)" stroke-width="1" d="M615.5,219.5C623.5,219.5,623.5,219.5,631.5,219.5"></path><path id="kity_path_55" fill="none" stroke="rgb(115, 161, 191)" stroke-width="1" d="M615.5,219.5C623.5,219.5,623.5,245.5,631.5,245.5"></path><path id="kity_path_57" fill="none" stroke="rgb(115, 161, 191)" stroke-width="1" d="M615.5,219.5C623.5,219.5,623.5,271.5,631.5,271.5"></path><path id="kity_path_59" fill="none" stroke="rgb(115, 161, 191)" stroke-width="1" d="M456.5,299.5C464.5,299.5,464.5,388.5,472.5,388.5"></path><path id="kity_path_61" fill="none" stroke="rgb(115, 161, 191)" stroke-width="1" d="M624.5,388.5C632.5,388.5,632.5,297.5,640.5,297.5"></path><path id="kity_path_63" fill="none" stroke="rgb(115, 161, 191)" stroke-width="1" d="M624.5,388.5C632.5,388.5,632.5,479.5,640.5,479.5"></path><path id="kity_path_65" fill="none" stroke="rgb(115, 161, 191)" stroke-width="1" d="M762.5,479.5C770.5,479.5,770.5,401.5,778.5,401.5"></path><path id="kity_path_69" fill="none" stroke="rgb(115, 161, 191)" stroke-width="1" d="M850.5,401.5C858.5,401.5,858.5,349.5,866.5,349.5"></path><path id="kity_path_71" fill="none" stroke="rgb(115, 161, 191)" stroke-width="1" d="M762.5,479.5C770.5,479.5,770.5,518.5,778.5,518.5"></path><path id="kity_path_73" fill="none" stroke="rgb(115, 161, 191)" stroke-width="1" d="M762.5,479.5C770.5,479.5,770.5,557.5,778.5,557.5"></path><path id="kity_path_208" fill="none" stroke="rgb(115, 161, 191)" stroke-width="1" d="M850.5,401.5C858.5,401.5,858.5,375.5,866.5,375.5"></path><path id="kity_path_216" fill="none" stroke="rgb(115, 161, 191)" stroke-width="1" d="M865.5,518.5C873.5,518.5,873.5,505.5,881.5,505.5"></path><path id="kity_path_232" fill="none" stroke="rgb(115, 161, 191)" stroke-width="1" d="M850.5,401.5C858.5,401.5,858.5,323.5,866.5,323.5"></path><path id="kity_path_248" fill="none" stroke="rgb(115, 161, 191)" stroke-width="1" d="M850.5,401.5C858.5,401.5,858.5,401.5,866.5,401.5"></path><path id="kity_path_280" fill="none" stroke="rgb(115, 161, 191)" stroke-width="1" d="M865.5,518.5C873.5,518.5,873.5,531.5,881.5,531.5"></path><path id="kity_path_326" fill="none" stroke="rgb(115, 161, 191)" stroke-width="1" d="M850.5,401.5C858.5,401.5,858.5,479.5,866.5,479.5"></path><path id="kity_path_343" fill="none" stroke="rgb(115, 161, 191)" stroke-width="1" d="M850.5,401.5C858.5,401.5,858.5,427.5,866.5,427.5"></path><path id="kity_path_351" fill="none" stroke="rgb(115, 161, 191)" stroke-width="1" d="M850.5,401.5C858.5,401.5,858.5,453.5,866.5,453.5"></path></g><g id="minder_node1"><path id="node_outline1" fill="rgb(115, 161, 191)" stroke="rgb(115, 161, 191)" d="M25.5,176.5h137a5,5,0,0,1,5,5v18a5,5,0,0,1,-5,5h-137a5,5,0,0,1,-5,-5v-18a5,5,0,0,1,5,-5z" stroke-width="3"></path><g id="node_text1" fill="white"><text id="kity_text_22" text-rendering="inherit" font-size="16" dy=".8em" y="180.09999990463257" x="32.5">6 Classification I</text></g></g><g id="kity_g_14" display="none"><path id="kity_path_15" fill="rgba(0, 92, 153, 0.5)" stroke="none" d="M866.5,490.5h136v4h-136z"></path><path id="kity_path_16" fill="none" stroke="rgb(0, 76, 128)" d="M866.5,490.5L1002.5,490.5" stroke-width="1"></path></g><g id="minder_node2"><g id="node_expander6" style="cursor: pointer;"><path id="kity_path_157" fill="white" stroke="gray" d="M184.50000515580177,81.49999675154686A6,6,0,1,1,172.50000515580177,81.49999675154686A6,6,0,1,1,184.50000515580177,81.49999675154686"></path><path id="kity_path_158" fill="none" stroke="gray" d="M174.00000515580177,81.49999675154686L183.00000515580177,81.49999675154686"></path></g><path id="node_outline7" fill="rgb(238, 243, 246)" stroke="rgb(115, 161, 191)" d="M188.50000515580177,68.49999675154686h280a3,3,0,0,1,3,3v20a3,3,0,0,1,-3,3h-280a3,3,0,0,1,-3,-3v-20a3,3,0,0,1,3,-3z" stroke-width="1"></path><g id="node_text7" fill="black"><text id="kity_text_85" text-rendering="inherit" font-size="14" dy=".8em" y="72.39999684691429" x="205.50000515580177">Review of how classified data is used</text></g></g><g id="minder_node3"><g id="node_expander1" style="cursor: pointer;" display="none"><path id="kity_path_142" fill="white" stroke="gray" d="M487.5000137090683,29.499995201826096A6,6,0,1,1,475.5000137090683,29.499995201826096A6,6,0,1,1,487.5000137090683,29.499995201826096"></path><path id="kity_path_143" fill="none" stroke="gray"></path></g><path id="node_outline2" fill="none" stroke="none" d="M492.5000137090683,20.499995201826096h97a5,5,0,0,1,5,5v8a5,5,0,0,1,-5,5h-97a5,5,0,0,1,-5,-5v-8a5,5,0,0,1,5,-5z"></path><g id="node_text2" fill="black"><text id="kity_text_75" text-rendering="inherit" font-size="12" dy=".8em" y="21.69999524950981" x="492.5000137090683">Urban expansion</text></g></g><g id="minder_node4"><g id="node_expander2" style="cursor: pointer;" display="none"><path id="kity_path_145" fill="white" stroke="gray" d="M487.5000137090683,55.49999597668648A6,6,0,1,1,475.5000137090683,55.49999597668648A6,6,0,1,1,487.5000137090683,55.49999597668648"></path><path id="kity_path_146" fill="none" stroke="gray"></path></g><path id="node_outline3" fill="none" stroke="none" d="M492.5000137090683,46.49999597668648h130a5,5,0,0,1,5,5v8a5,5,0,0,1,-5,5h-130a5,5,0,0,1,-5,-5v-8a5,5,0,0,1,5,-5z"></path><g id="node_text3" fill="black"><text id="kity_text_77" text-rendering="inherit" font-size="12" dy=".8em" y="47.69999602437019" x="492.5000137090683">Air pollution and LULC</text></g></g><g id="minder_node5"><g id="node_expander3" style="cursor: pointer;" display="none"><path id="kity_path_148" fill="white" stroke="gray" d="M487.5000137090683,81.49999675154686A6,6,0,1,1,475.5000137090683,81.49999675154686A6,6,0,1,1,487.5000137090683,81.49999675154686"></path><path id="kity_path_149" fill="none" stroke="gray"></path></g><path id="node_outline4" fill="none" stroke="none" d="M492.5000137090683,72.49999675154686h113a5,5,0,0,1,5,5v8a5,5,0,0,1,-5,5h-113a5,5,0,0,1,-5,-5v-8a5,5,0,0,1,5,-5z"></path><g id="node_text4" fill="black"><text id="kity_text_79" text-rendering="inherit" font-size="12" dy=".8em" y="73.69999679923058" x="492.5000137090683">Urban green spaces</text></g></g><g id="minder_node6"><g id="node_expander4" style="cursor: pointer;" display="none"><path id="kity_path_151" fill="white" stroke="gray" d="M487.5000137090683,107.49999752640724A6,6,0,1,1,475.5000137090683,107.49999752640724A6,6,0,1,1,487.5000137090683,107.49999752640724"></path><path id="kity_path_152" fill="none" stroke="gray"></path></g><path id="node_outline5" fill="none" stroke="none" d="M492.5000137090683,98.49999752640724h205a5,5,0,0,1,5,5v8a5,5,0,0,1,-5,5h-205a5,5,0,0,1,-5,-5v-8a5,5,0,0,1,5,-5z"></path><g id="node_text5" fill="black"><text id="kity_text_81" text-rendering="inherit" font-size="12" dy=".8em" y="99.69999757409096" x="492.5000137090683">Monitoring forests + illegal logging</text></g></g><g id="minder_node7"><g id="node_expander5" style="cursor: pointer;" display="none"><path id="kity_path_154" fill="white" stroke="gray" d="M487.5000137090683,133.49999830126762A6,6,0,1,1,475.5000137090683,133.49999830126762A6,6,0,1,1,487.5000137090683,133.49999830126762"></path><path id="kity_path_155" fill="none" stroke="gray"></path></g><path id="node_outline6" fill="none" stroke="none" d="M492.5000137090683,124.49999830126762h63a5,5,0,0,1,5,5v8a5,5,0,0,1,-5,5h-63a5,5,0,0,1,-5,-5v-8a5,5,0,0,1,5,-5z"></path><g id="node_text6" fill="black"><text id="kity_text_83" text-rendering="inherit" font-size="12" dy=".8em" y="125.69999834895134" x="492.5000137090683">Forest fires</text></g></g><g id="minder_node8"><g id="node_expander22" style="cursor: pointer;"><path id="kity_path_205" fill="white" stroke="gray" d="M184.50000515580177,299.50000324845314A6,6,0,1,1,172.50000515580177,299.50000324845314A6,6,0,1,1,184.50000515580177,299.50000324845314"></path><path id="kity_path_206" fill="none" stroke="gray" d="M174.00000515580177,299.50000324845314L183.00000515580177,299.50000324845314"></path></g><path id="node_outline23" fill="rgb(238, 243, 246)" stroke="rgb(115, 161, 191)" d="M188.50000515580177,286.50000324845314h139a3,3,0,0,1,3,3v20a3,3,0,0,1,-3,3h-139a3,3,0,0,1,-3,-3v-20a3,3,0,0,1,3,-3z" stroke-width="1"></path><g id="node_text23" fill="black"><text id="kity_text_118" text-rendering="inherit" font-size="14" dy=".8em" y="290.4000033438206" x="205.50000515580177">Classify RS data</text></g></g><g id="minder_node9"><g id="node_expander21" style="cursor: pointer;"><path id="kity_path_202" fill="white" stroke="gray" d="M346.50000950694084,299.50000324845314A6,6,0,1,1,334.50000950694084,299.50000324845314A6,6,0,1,1,346.50000950694084,299.50000324845314"></path><path id="kity_path_203" fill="none" stroke="gray" d="M336.00000950694084,299.50000324845314L345.00000950694084,299.50000324845314"></path></g><path id="node_outline22" fill="none" stroke="none" d="M351.50000950694084,290.50000324845314h100a5,5,0,0,1,5,5v8a5,5,0,0,1,-5,5h-100a5,5,0,0,1,-5,-5v-8a5,5,0,0,1,5,-5z"></path><g id="node_text22" fill="black"><text id="kity_text_116" text-rendering="inherit" font-size="12" dy=".8em" y="291.70000329613686" x="351.50000950694084">Machine learning </text></g></g><g id="minder_node10"><g id="node_expander12" style="cursor: pointer;"><path id="kity_path_175" fill="white" stroke="gray" d="M472.50001326203346,219.50000086426735A6,6,0,1,1,460.50001326203346,219.50000086426735A6,6,0,1,1,472.50001326203346,219.50000086426735"></path><path id="kity_path_176" fill="none" stroke="gray" d="M462.00001326203346,219.50000086426735L471.00001326203346,219.50000086426735"></path></g><path id="node_outline13" fill="#ffc000" stroke="none" d="M477.50001326203346,201.50000086426735h133a5,5,0,0,1,5,5v26a5,5,0,0,1,-5,5h-133a5,5,0,0,1,-5,-5v-26a5,5,0,0,1,5,-5z"></path><g id="node_text13" fill="black"><text id="kity_text_97" text-rendering="inherit" font-size="12" dy=".8em" y="202.70000091195107" x="477.50001326203346">Classification and </text><text id="kity_text_98" text-rendering="inherit" font-size="12" dy=".8em" y="220.70000091195107" x="477.50001326203346">regression trees (CART)</text></g></g><g id="minder_node11"><g id="node_expander7" style="cursor: pointer;" display="none"><path id="kity_path_160" fill="white" stroke="gray" d="M631.5000180006027,167.49999931454659A6,6,0,1,1,619.5000180006027,167.49999931454659A6,6,0,1,1,631.5000180006027,167.49999931454659"></path><path id="kity_path_161" fill="none" stroke="gray"></path></g><path id="node_outline8" fill="none" stroke="none" d="M636.5000180006027,158.49999931454659h104a5,5,0,0,1,5,5v8a5,5,0,0,1,-5,5h-104a5,5,0,0,1,-5,-5v-8a5,5,0,0,1,5,-5z"></path><g id="node_text8" fill="black"><text id="kity_text_87" text-rendering="inherit" font-size="12" dy=".8em" y="159.6999993622303" x="636.5000180006027">classification trees</text></g></g><g id="minder_node12"><g id="node_expander8" style="cursor: pointer;" display="none"><path id="kity_path_163" fill="white" stroke="gray" d="M631.5000180006027,193.50000008940697A6,6,0,1,1,619.5000180006027,193.50000008940697A6,6,0,1,1,631.5000180006027,193.50000008940697"></path><path id="kity_path_164" fill="none" stroke="gray"></path></g><path id="node_outline9" fill="none" stroke="none" d="M636.5000180006027,184.50000008940697h91a5,5,0,0,1,5,5v8a5,5,0,0,1,-5,5h-91a5,5,0,0,1,-5,-5v-8a5,5,0,0,1,5,-5z"></path><g id="node_text9" fill="black"><text id="kity_text_89" text-rendering="inherit" font-size="12" dy=".8em" y="185.70000013709068" x="636.5000180006027">regression trees</text></g></g><g id="minder_node13"><g id="node_expander9" style="cursor: pointer;" display="none"><path id="kity_path_166" fill="white" stroke="gray" d="M631.5000180006027,219.50000086426735A6,6,0,1,1,619.5000180006027,219.50000086426735A6,6,0,1,1,631.5000180006027,219.50000086426735"></path><path id="kity_path_167" fill="none" stroke="gray"></path></g><path id="node_outline10" fill="none" stroke="none" d="M636.5000180006027,210.50000086426735h75a5,5,0,0,1,5,5v8a5,5,0,0,1,-5,5h-75a5,5,0,0,1,-5,-5v-8a5,5,0,0,1,5,-5z"></path><g id="node_text10" fill="black"><text id="kity_text_91" text-rendering="inherit" font-size="12" dy=".8em" y="211.70000091195107" x="636.5000180006027">Gini impurity</text></g></g><g id="minder_node14"><g id="node_expander10" style="cursor: pointer;" display="none"><path id="kity_path_169" fill="white" stroke="gray" d="M631.5000180006027,245.50000163912773A6,6,0,1,1,619.5000180006027,245.50000163912773A6,6,0,1,1,631.5000180006027,245.50000163912773"></path><path id="kity_path_170" fill="none" stroke="gray"></path></g><path id="node_outline11" fill="none" stroke="none" d="M636.5000180006027,236.50000163912773h62a5,5,0,0,1,5,5v8a5,5,0,0,1,-5,5h-62a5,5,0,0,1,-5,-5v-8a5,5,0,0,1,5,-5z"></path><g id="node_text11" fill="black"><text id="kity_text_93" text-rendering="inherit" font-size="12" dy=".8em" y="237.70000168681145" x="636.5000180006027">Overfitting</text></g></g><g id="minder_node15"><g id="node_expander11" style="cursor: pointer;" display="none"><path id="kity_path_172" fill="white" stroke="gray" d="M631.5000180006027,271.5000024139881A6,6,0,1,1,619.5000180006027,271.5000024139881A6,6,0,1,1,631.5000180006027,271.5000024139881"></path><path id="kity_path_173" fill="none" stroke="gray"></path></g><path id="node_outline12" fill="#ffc000" stroke="none" d="M636.5000180006027,262.5000024139881h93a5,5,0,0,1,5,5v8a5,5,0,0,1,-5,5h-93a5,5,0,0,1,-5,-5v-8a5,5,0,0,1,5,-5z" stroke-width="3"></path><g id="node_text12" fill="black"><text id="kity_text_95" text-rendering="inherit" font-size="12" dy=".8em" y="263.70000246167183" x="636.5000180006027">Random Forests</text></g></g><g id="minder_node16"><g id="node_expander20" style="cursor: pointer;"><path id="kity_path_199" fill="white" stroke="gray" d="M472.50001326203346,388.50000590085983A6,6,0,1,1,460.50001326203346,388.50000590085983A6,6,0,1,1,472.50001326203346,388.50000590085983"></path><path id="kity_path_200" fill="none" stroke="gray" d="M462.00001326203346,388.50000590085983L471.00001326203346,388.50000590085983"></path></g><path id="node_outline21" fill="#ffc000" stroke="none" d="M477.50001326203346,379.50000590085983h142a5,5,0,0,1,5,5v8a5,5,0,0,1,-5,5h-142a5,5,0,0,1,-5,-5v-8a5,5,0,0,1,5,-5z" stroke-width="3"></path><g id="node_text21" fill="black"><text id="kity_text_114" text-rendering="inherit" font-size="12" dy=".8em" y="380.70000594854355" x="477.50001326203346">Classification application</text></g></g><g id="minder_node17"><g id="node_expander13" style="cursor: pointer;" display="none"><path id="kity_path_178" fill="white" stroke="gray" d="M640.5000182688236,297.5000031888485A6,6,0,1,1,628.5000182688236,297.5000031888485A6,6,0,1,1,640.5000182688236,297.5000031888485"></path><path id="kity_path_179" fill="none" stroke="gray"></path></g><path id="node_outline14" fill="none" stroke="none" d="M645.5000182688236,288.5000031888485h115a5,5,0,0,1,5,5v8a5,5,0,0,1,-5,5h-115a5,5,0,0,1,-5,-5v-8a5,5,0,0,1,5,-5z" stroke-width="3"></path><g id="node_text14" fill="black"><text id="kity_text_100" text-rendering="inherit" font-size="12" dy=".8em" y="289.7000032365322" x="645.5000182688236">Classification trends</text></g></g><g id="minder_node18"><g id="node_expander19" style="cursor: pointer;"><path id="kity_path_196" fill="white" stroke="gray" d="M640.5000182688236,479.50000861287117A6,6,0,1,1,628.5000182688236,479.50000861287117A6,6,0,1,1,640.5000182688236,479.50000861287117"></path><path id="kity_path_197" fill="none" stroke="gray" d="M630.0000182688236,479.50000861287117L639.0000182688236,479.50000861287117"></path></g><path id="node_outline20" fill="none" stroke="none" d="M645.5000182688236,470.50000861287117h112a5,5,0,0,1,5,5v8a5,5,0,0,1,-5,5h-112a5,5,0,0,1,-5,-5v-8a5,5,0,0,1,5,-5z" stroke-width="3"></path><g id="node_text20" fill="black"><text id="kity_text_112" text-rendering="inherit" font-size="12" dy=".8em" y="471.7000086605549" x="645.5000182688236">Image classification</text></g></g><g id="minder_node19"><g id="node_expander16" style="cursor: pointer;"><path id="kity_path_187" fill="white" stroke="gray" d="M778.5000223815441,401.50000628829A6,6,0,1,1,766.5000223815441,401.50000628829A6,6,0,1,1,778.5000223815441,401.50000628829"></path><path id="kity_path_188" fill="none" stroke="gray" d="M768.0000223815441,401.50000628829L777.0000223815441,401.50000628829"></path></g><path id="node_outline17" fill="none" stroke="none" d="M783.5000223815441,392.50000628829h62a5,5,0,0,1,5,5v8a5,5,0,0,1,-5,5h-62a5,5,0,0,1,-5,-5v-8a5,5,0,0,1,5,-5z" stroke-width="3"></path><g id="node_text17" fill="black"><text id="kity_text_106" text-rendering="inherit" font-size="12" dy=".8em" y="393.70000633597374" x="783.5000223815441">supervised</text></g></g><g id="minder_node21"><g id="node_expander15" style="cursor: pointer;" display="none"><path id="kity_path_184" fill="white" stroke="gray" d="M866.5000250041485,349.50000473856926A6,6,0,1,1,854.5000250041485,349.50000473856926A6,6,0,1,1,866.5000250041485,349.50000473856926"></path><path id="kity_path_185" fill="none" stroke="gray"></path></g><path id="node_outline16" fill="none" stroke="none" d="M871.5000250041485,340.50000473856926h144a5,5,0,0,1,5,5v8a5,5,0,0,1,-5,5h-144a5,5,0,0,1,-5,-5v-8a5,5,0,0,1,5,-5z" stroke-width="3"></path><g id="node_text16" fill="black"><text id="kity_text_104" text-rendering="inherit" font-size="12" dy=".8em" y="341.700004786253" x="871.5000250041485">Support vector machines</text></g></g><g id="minder_node22"><g id="node_expander17" style="cursor: pointer;"><path id="kity_path_190" fill="white" stroke="gray" d="M778.5000223815441,518.5000097751617A6,6,0,1,1,766.5000223815441,518.5000097751617A6,6,0,1,1,778.5000223815441,518.5000097751617"></path><path id="kity_path_191" fill="none" stroke="gray" d="M768.0000223815441,518.5000097751617L777.0000223815441,518.5000097751617"></path></g><path id="node_outline18" fill="none" stroke="none" d="M783.5000223815441,509.50000977516174h77a5,5,0,0,1,5,5v8a5,5,0,0,1,-5,5h-77a5,5,0,0,1,-5,-5v-8a5,5,0,0,1,5,-5z" stroke-width="3"></path><g id="node_text18" fill="black"><text id="kity_text_108" text-rendering="inherit" font-size="12" dy=".8em" y="510.70000982284546" x="783.5000223815441">unsupervised</text></g></g><g id="minder_node23"><g id="node_expander18" style="cursor: pointer;" display="none"><path id="kity_path_193" fill="white" stroke="gray" d="M778.5000223815441,557.5000109374523A6,6,0,1,1,766.5000223815441,557.5000109374523A6,6,0,1,1,778.5000223815441,557.5000109374523"></path><path id="kity_path_194" fill="none" stroke="gray" d="M768.0000223815441,557.5000109374523L777.0000223815441,557.5000109374523"></path></g><path id="node_outline19" fill="none" stroke="none" d="M783.5000223815441,548.5000109374523h57a5,5,0,0,1,5,5v8a5,5,0,0,1,-5,5h-57a5,5,0,0,1,-5,-5v-8a5,5,0,0,1,5,-5z" stroke-width="3"></path><g id="node_text19" fill="black"><text id="kity_text_110" text-rendering="inherit" font-size="12" dy=".8em" y="549.700010985136" x="783.5000223815441">difference</text></g></g><g id="minder_node24"><g id="node_expander23" style="cursor: pointer;" display="none"><path id="kity_path_213" fill="white" stroke="gray" d="M866.5000250041485,375.50000551342964A6,6,0,1,1,854.5000250041485,375.50000551342964A6,6,0,1,1,866.5000250041485,375.50000551342964"></path><path id="kity_path_214" fill="none" stroke="gray"></path></g><path id="node_outline24" fill="none" stroke="none" d="M871.5000250041485,366.50000551342964h75a5,5,0,0,1,5,5v8a5,5,0,0,1,-5,5h-75a5,5,0,0,1,-5,-5v-8a5,5,0,0,1,5,-5z" stroke-width="3"></path><g id="node_text24" fill="black"><text id="kity_text_210" text-rendering="inherit" font-size="12" dy=".8em" y="367.70000556111336" x="871.5000250041485">Decision tree</text></g></g><g id="minder_node25"><g id="node_expander24" style="cursor: pointer;" display="none"><path id="kity_path_221" fill="white" stroke="gray" d="M881.5000254511833,505.50000938773155A6,6,0,1,1,869.5000254511833,505.50000938773155A6,6,0,1,1,881.5000254511833,505.50000938773155"></path><path id="kity_path_222" fill="none" stroke="gray"></path></g><path id="node_outline25" fill="none" stroke="none" d="M886.5000254511833,496.50000938773155h51a5,5,0,0,1,5,5v8a5,5,0,0,1,-5,5h-51a5,5,0,0,1,-5,-5v-8a5,5,0,0,1,5,-5z" stroke-width="3"></path><g id="node_text25" fill="black"><text id="kity_text_218" text-rendering="inherit" font-size="12" dy=".8em" y="497.70000943541527" x="886.5000254511833">K-Means</text></g></g><g id="minder_node27" opacity="1"><g id="node_expander26" style="cursor: pointer;" display="none"><path id="kity_path_237" fill="white" stroke="gray" d="M866.5000250041485,323.5000039637089A6,6,0,1,1,854.5000250041485,323.5000039637089A6,6,0,1,1,866.5000250041485,323.5000039637089"></path><path id="kity_path_238" fill="none" stroke="gray"></path></g><path id="node_outline27" fill="none" stroke="none" d="M871.5000250041485,314.5000039637089h120a5,5,0,0,1,5,5v8a5,5,0,0,1,-5,5h-120a5,5,0,0,1,-5,-5v-8a5,5,0,0,1,5,-5z" stroke-width="3"></path><g id="node_text27" fill="black"><text id="kity_text_234" text-rendering="inherit" font-size="12" dy=".8em" y="315.7000040113926" x="871.5000250041485">Maximum Likelihood</text></g></g><g id="minder_node29"><g id="node_expander28" style="cursor: pointer;" display="none"><path id="kity_path_253" fill="white" stroke="gray" d="M866.5000250041485,401.50000628829A6,6,0,1,1,854.5000250041485,401.50000628829A6,6,0,1,1,866.5000250041485,401.50000628829"></path><path id="kity_path_254" fill="none" stroke="gray" d="M856.0000250041485,401.50000628829L865.0000250041485,401.50000628829"></path></g><path id="node_outline29" fill="none" stroke="none" d="M871.5000250041485,392.50000628829h92a5,5,0,0,1,5,5v8a5,5,0,0,1,-5,5h-92a5,5,0,0,1,-5,-5v-8a5,5,0,0,1,5,-5z" stroke-width="3"></path><g id="node_text29" fill="black"><text id="kity_text_250" text-rendering="inherit" font-size="12" dy=".8em" y="393.70000633597374" x="871.5000250041485">Neural Network</text></g></g><g id="minder_node33"><g id="node_expander32" style="cursor: pointer;" display="none"><path id="kity_path_285" fill="white" stroke="gray" d="M881.5000254511833,531.5000101625919A6,6,0,1,1,869.5000254511833,531.5000101625919A6,6,0,1,1,881.5000254511833,531.5000101625919"></path><path id="kity_path_286" fill="none" stroke="gray"></path></g><path id="node_outline33" fill="none" stroke="none" d="M886.5000254511833,522.5000101625919h51a5,5,0,0,1,5,5v8a5,5,0,0,1,-5,5h-51a5,5,0,0,1,-5,-5v-8a5,5,0,0,1,5,-5z"></path><g id="node_text33" fill="black"><text id="kity_text_282" text-rendering="inherit" font-size="12" dy=".8em" y="523.7000102102757" x="886.5000254511833">ISODATA</text></g></g><g id="minder_node38" opacity="1"><g id="node_expander37" style="cursor: pointer;" display="none"><path id="kity_path_331" fill="white" stroke="gray" d="M866.5000250041485,479.50000861287117A6,6,0,1,1,854.5000250041485,479.50000861287117A6,6,0,1,1,866.5000250041485,479.50000861287117"></path><path id="kity_path_332" fill="none" stroke="gray"></path></g><path id="node_outline38" fill="none" stroke="none" d="M871.5000250041485,470.50000861287117h17a5,5,0,0,1,5,5v8a5,5,0,0,1,-5,5h-17a5,5,0,0,1,-5,-5v-8a5,5,0,0,1,5,-5z" stroke-width="3"></path><g id="node_text38" fill="black"><text id="kity_text_328" text-rendering="inherit" font-size="12" dy=".8em" y="471.7000086605549" x="871.5000250041485">......</text></g></g><g id="minder_node40"><g id="node_expander39" style="cursor: pointer;" display="none"><path id="kity_path_348" fill="white" stroke="gray" d="M866.5000250041485,427.5000070631504A6,6,0,1,1,854.5000250041485,427.5000070631504A6,6,0,1,1,866.5000250041485,427.5000070631504"></path><path id="kity_path_349" fill="none" stroke="gray"></path></g><path id="node_outline40" fill="none" stroke="none" d="M871.5000250041485,418.5000070631504h108a5,5,0,0,1,5,5v8a5,5,0,0,1,-5,5h-108a5,5,0,0,1,-5,-5v-8a5,5,0,0,1,5,-5z"></path><g id="node_text40" fill="black"><text id="kity_text_345" text-rendering="inherit" font-size="12" dy=".8em" y="419.7000071108341" x="871.5000250041485">Minimum Distance</text></g></g><g id="minder_node41"><g id="node_expander40" display="none" style="cursor: pointer;"><path id="kity_path_356" fill="white" stroke="gray" d="M866.5000250041485,453.5000078380108A6,6,0,1,1,854.5000250041485,453.5000078380108A6,6,0,1,1,866.5000250041485,453.5000078380108"></path><path id="kity_path_357" fill="none" stroke="gray"></path></g><path id="node_outline41" fill="none" stroke="none" d="M871.5000250041485,444.5000078380108h126a5,5,0,0,1,5,5v8a5,5,0,0,1,-5,5h-126a5,5,0,0,1,-5,-5v-8a5,5,0,0,1,5,-5z"></path><g id="node_text41" fill="black"><text id="kity_text_353" text-rendering="inherit" font-size="12" dy=".8em" y="445.7000078856945" x="871.5000250041485">Mahalanobis Distance</text></g></g><g id="kity_g_12" display="none"><path id="kity_path_13" fill="none" stroke="rgb(66, 94, 112)" d="M871.5,467.5h126a5,5,0,0,1,5,5v8a5,5,0,0,1,-5,5h-126a5,5,0,0,1,-5,-5v-8a5,5,0,0,1,5,-5z" stroke-width="5"></path></g></g></g></svg>