<svg id="kity_svg_6" xmlns="http://www.w3.org/2000/svg" xmlns:xlink="http://www.w3.org/1999/xlink" version="1.1" width="962" height="430" style="background: rgb(251, 251, 251); visibility: visible;" viewBox="0 0 962 430"><defs id="kity_defs_7"><linearGradient id="kity_linearGradient_17" x1="0" y1="0" x2="0" y2="1"><stop id="kity_stop_18" offset="0" stop-color="rgb(255, 255, 255)"></stop><stop id="kity_stop_19" offset="1" stop-color="rgb(204, 204, 204)"></stop></linearGradient><marker id="kity_marker_2" orient="auto" refX="6" refY="0" viewBox="-7 -7 14 14" markerWidth="7" markerHeight="7" markerUnits="userSpaceOnUse"><path id="kity_path_3" fill="rgb(115, 161, 191)" stroke="none" d="M6,0A6,6,0,1,1,-6,0A6,6,0,1,1,6,0"></path></marker></defs><g id="kity_g_8"><g id="minder1" text-rendering="optimize-speed"><g id="minder_connect_group1"><path id="kity_path_31" fill="none" stroke="rgb(115, 161, 191)" stroke-width="1" d="M94,176.5A89.5,95,0,0,1,183.5,81.5"></path><path id="kity_path_33" fill="none" stroke="rgb(115, 161, 191)" stroke-width="1" d="M471.5,81.5C479.5,81.5,479.5,29.5,487.5,29.5"></path><path id="kity_path_35" fill="none" stroke="rgb(115, 161, 191)" stroke-width="1" d="M471.5,81.5C479.5,81.5,479.5,55.5,487.5,55.5"></path><path id="kity_path_37" fill="none" stroke="rgb(115, 161, 191)" stroke-width="1" d="M471.5,81.5C479.5,81.5,479.5,81.5,487.5,81.5"></path><path id="kity_path_39" fill="none" stroke="rgb(115, 161, 191)" stroke-width="1" d="M471.5,81.5C479.5,81.5,479.5,107.5,487.5,107.5"></path><path id="kity_path_41" fill="none" stroke="rgb(115, 161, 191)" stroke-width="1" d="M471.5,81.5C479.5,81.5,479.5,133.5,487.5,133.5"></path><path id="kity_path_43" fill="none" stroke="rgb(115, 161, 191)" stroke-width="1" d="M94,176.5A89.5,95,0,0,0,183.5,271.5"></path><path id="kity_path_45" fill="none" stroke="rgb(115, 161, 191)" stroke-width="1" d="M330.5,271.5C338.5,271.5,338.5,271.5,346.5,271.5"></path><path id="kity_path_47" fill="none" stroke="rgb(115, 161, 191)" stroke-width="1" d="M456.5,271.5C464.5,271.5,464.5,219.5,472.5,219.5"></path><path id="kity_path_49" fill="none" stroke="rgb(115, 161, 191)" stroke-width="1" d="M615.5,219.5C623.5,219.5,623.5,167.5,631.5,167.5"></path><path id="kity_path_51" fill="none" stroke="rgb(115, 161, 191)" stroke-width="1" d="M615.5,219.5C623.5,219.5,623.5,193.5,631.5,193.5"></path><path id="kity_path_53" fill="none" stroke="rgb(115, 161, 191)" stroke-width="1" d="M615.5,219.5C623.5,219.5,623.5,219.5,631.5,219.5"></path><path id="kity_path_55" fill="none" stroke="rgb(115, 161, 191)" stroke-width="1" d="M615.5,219.5C623.5,219.5,623.5,245.5,631.5,245.5"></path><path id="kity_path_57" fill="none" stroke="rgb(115, 161, 191)" stroke-width="1" d="M615.5,219.5C623.5,219.5,623.5,271.5,631.5,271.5"></path><path id="kity_path_59" fill="none" stroke="rgb(115, 161, 191)" stroke-width="1" d="M456.5,271.5C464.5,271.5,464.5,332.5,472.5,332.5"></path><path id="kity_path_61" fill="none" stroke="rgb(115, 161, 191)" stroke-width="1" d="M548.5,332.5C556.5,332.5,556.5,296.5,564.5,296.5"></path><path id="kity_path_63" fill="none" stroke="rgb(115, 161, 191)" stroke-width="1" d="M548.5,332.5C556.5,332.5,556.5,368.5,564.5,368.5"></path><path id="kity_path_65" fill="none" stroke="rgb(115, 161, 191)" stroke-width="1" d="M686.5,368.5C694.5,368.5,694.5,336.5,702.5,336.5"></path><path id="kity_path_67" fill="none" stroke="rgb(115, 161, 191)" stroke-width="1" d="M774.5,336.5C782.5,336.5,782.5,323.5,790.5,323.5"></path><path id="kity_path_69" fill="none" stroke="rgb(115, 161, 191)" stroke-width="1" d="M774.5,336.5C782.5,336.5,782.5,349.5,790.5,349.5"></path><path id="kity_path_71" fill="none" stroke="rgb(115, 161, 191)" stroke-width="1" d="M686.5,368.5C694.5,368.5,694.5,375.5,702.5,375.5"></path><path id="kity_path_73" fill="none" stroke="rgb(115, 161, 191)" stroke-width="1" d="M686.5,368.5C694.5,368.5,694.5,401.5,702.5,401.5"></path></g><g id="minder_node1"><path id="kity_path_209" fill="rgba(0, 0, 0, .25)" stroke="none" d="M33.5,159.5h191a22,22,0,0,1,22,22v0a22,22,0,0,1,-22,22h-191a22,22,0,0,1,-22,-22v0a22,22,0,0,1,22,-22z" display="none"></path><path id="node_outline1" fill="rgb(115, 161, 191)" stroke="rgb(115, 161, 191)" d="M25.5,162.5h137a5,5,0,0,1,5,5v18a5,5,0,0,1,-5,5h-137a5,5,0,0,1,-5,-5v-18a5,5,0,0,1,5,-5z" stroke-width="3"></path><g id="node_text1" fill="white"><text id="kity_text_22" text-rendering="inherit" font-size="16" dy=".8em" y="166.09999990463257" x="32.5">6 Classification I</text></g></g><g id="kity_g_12"><path id="kity_path_13" fill="none" stroke="none" d="M32.5,176.5h0v0h0z"></path></g><g id="kity_g_14"><path id="kity_path_15" fill="none" stroke="none" d="M32.5,176.5h0v0h0z"></path><path id="kity_path_16" fill="none" stroke="none"></path></g><g id="minder_node2"><path id="kity_path_207" fill="rgba(0, 0, 0, .25)" stroke="none" d="M204.50000515580177,73.49999716877937h291a10,10,0,0,1,10,10v6a10,10,0,0,1,-10,10h-291a10,10,0,0,1,-10,-10v-6a10,10,0,0,1,10,-10z" display="none"></path><g id="node_expander6" style="cursor: pointer;"><path id="kity_path_157" fill="white" stroke="gray" d="M184.50000515580177,81.49999716877937A6,6,0,1,1,172.50000515580177,81.49999716877937A6,6,0,1,1,184.50000515580177,81.49999716877937"></path><path id="kity_path_158" fill="none" stroke="gray" d="M174.00000515580177,81.49999716877937L183.00000515580177,81.49999716877937"></path></g><path id="node_outline7" fill="rgb(238, 243, 246)" stroke="rgb(115, 161, 191)" d="M188.50000515580177,68.49999716877937h280a3,3,0,0,1,3,3v20a3,3,0,0,1,-3,3h-280a3,3,0,0,1,-3,-3v-20a3,3,0,0,1,3,-3z" stroke-width="1"></path><g id="node_text7" fill="black"><text id="kity_text_85" text-rendering="inherit" font-size="14" dy=".8em" y="72.3999972641468" x="205.50000515580177">Review of how classified data is used</text></g></g><g id="minder_node3"><g id="node_expander1" style="cursor: pointer;" display="none"><path id="kity_path_142" fill="white" stroke="gray" d="M487.5000137090683,29.49999561905861A6,6,0,1,1,475.5000137090683,29.49999561905861A6,6,0,1,1,487.5000137090683,29.49999561905861"></path><path id="kity_path_143" fill="none" stroke="gray"></path></g><path id="node_outline2" fill="none" stroke="none" d="M492.5000137090683,20.49999561905861h97a5,5,0,0,1,5,5v8a5,5,0,0,1,-5,5h-97a5,5,0,0,1,-5,-5v-8a5,5,0,0,1,5,-5z"></path><g id="node_text2" fill="black"><text id="kity_text_75" text-rendering="inherit" font-size="12" dy=".8em" y="21.699995666742325" x="492.5000137090683">Urban expansion</text></g></g><g id="minder_node4"><g id="node_expander2" style="cursor: pointer;" display="none"><path id="kity_path_145" fill="white" stroke="gray" d="M487.5000137090683,55.49999639391899A6,6,0,1,1,475.5000137090683,55.49999639391899A6,6,0,1,1,487.5000137090683,55.49999639391899"></path><path id="kity_path_146" fill="none" stroke="gray"></path></g><path id="node_outline3" fill="none" stroke="none" d="M492.5000137090683,46.49999639391899h130a5,5,0,0,1,5,5v8a5,5,0,0,1,-5,5h-130a5,5,0,0,1,-5,-5v-8a5,5,0,0,1,5,-5z"></path><g id="node_text3" fill="black"><text id="kity_text_77" text-rendering="inherit" font-size="12" dy=".8em" y="47.69999644160271" x="492.5000137090683">Air pollution and LULC</text></g></g><g id="minder_node5"><g id="node_expander3" style="cursor: pointer;" display="none"><path id="kity_path_148" fill="white" stroke="gray" d="M487.5000137090683,81.49999716877937A6,6,0,1,1,475.5000137090683,81.49999716877937A6,6,0,1,1,487.5000137090683,81.49999716877937"></path><path id="kity_path_149" fill="none" stroke="gray"></path></g><path id="node_outline4" fill="none" stroke="none" d="M492.5000137090683,72.49999716877937h113a5,5,0,0,1,5,5v8a5,5,0,0,1,-5,5h-113a5,5,0,0,1,-5,-5v-8a5,5,0,0,1,5,-5z"></path><g id="node_text4" fill="black"><text id="kity_text_79" text-rendering="inherit" font-size="12" dy=".8em" y="73.69999721646309" x="492.5000137090683">Urban green spaces</text></g></g><g id="minder_node6"><g id="node_expander4" style="cursor: pointer;" display="none"><path id="kity_path_151" fill="white" stroke="gray" d="M487.5000137090683,107.49999794363976A6,6,0,1,1,475.5000137090683,107.49999794363976A6,6,0,1,1,487.5000137090683,107.49999794363976"></path><path id="kity_path_152" fill="none" stroke="gray"></path></g><path id="node_outline5" fill="none" stroke="none" d="M492.5000137090683,98.49999794363976h205a5,5,0,0,1,5,5v8a5,5,0,0,1,-5,5h-205a5,5,0,0,1,-5,-5v-8a5,5,0,0,1,5,-5z"></path><g id="node_text5" fill="black"><text id="kity_text_81" text-rendering="inherit" font-size="12" dy=".8em" y="99.69999799132347" x="492.5000137090683">Monitoring forests + illegal logging</text></g></g><g id="minder_node7"><g id="node_expander5" style="cursor: pointer;" display="none"><path id="kity_path_154" fill="white" stroke="gray" d="M487.5000137090683,133.49999871850014A6,6,0,1,1,475.5000137090683,133.49999871850014A6,6,0,1,1,487.5000137090683,133.49999871850014"></path><path id="kity_path_155" fill="none" stroke="gray"></path></g><path id="node_outline6" fill="none" stroke="none" d="M492.5000137090683,124.49999871850014h63a5,5,0,0,1,5,5v8a5,5,0,0,1,-5,5h-63a5,5,0,0,1,-5,-5v-8a5,5,0,0,1,5,-5z"></path><g id="node_text6" fill="black"><text id="kity_text_83" text-rendering="inherit" font-size="12" dy=".8em" y="125.69999876618385" x="492.5000137090683">Forest fires</text></g></g><g id="minder_node8"><path id="kity_path_208" fill="rgba(0, 0, 0, .25)" stroke="none" d="M204.50000515580177,263.5000028312206h130a10,10,0,0,1,10,10v6a10,10,0,0,1,-10,10h-130a10,10,0,0,1,-10,-10v-6a10,10,0,0,1,10,-10z" display="none"></path><g id="node_expander22" style="cursor: pointer;"><path id="kity_path_205" fill="white" stroke="gray" d="M184.50000515580177,271.5000028312206A6,6,0,1,1,172.50000515580177,271.5000028312206A6,6,0,1,1,184.50000515580177,271.5000028312206"></path><path id="kity_path_206" fill="none" stroke="gray" d="M174.00000515580177,271.5000028312206L183.00000515580177,271.5000028312206"></path></g><path id="node_outline23" fill="rgb(238, 243, 246)" stroke="rgb(115, 161, 191)" d="M188.50000515580177,258.5000028312206h139a3,3,0,0,1,3,3v20a3,3,0,0,1,-3,3h-139a3,3,0,0,1,-3,-3v-20a3,3,0,0,1,3,-3z" stroke-width="1"></path><g id="node_text23" fill="black"><text id="kity_text_118" text-rendering="inherit" font-size="14" dy=".8em" y="262.40000292658806" x="205.50000515580177">Classify RS data</text></g></g><g id="minder_node9"><g id="node_expander21" style="cursor: pointer;"><path id="kity_path_202" fill="white" stroke="gray" d="M346.50000950694084,271.5000028312206A6,6,0,1,1,334.50000950694084,271.5000028312206A6,6,0,1,1,346.50000950694084,271.5000028312206"></path><path id="kity_path_203" fill="none" stroke="gray" d="M336.00000950694084,271.5000028312206L345.00000950694084,271.5000028312206"></path></g><path id="node_outline22" fill="none" stroke="none" d="M351.50000950694084,262.5000028312206h100a5,5,0,0,1,5,5v8a5,5,0,0,1,-5,5h-100a5,5,0,0,1,-5,-5v-8a5,5,0,0,1,5,-5z"></path><g id="node_text22" fill="black"><text id="kity_text_116" text-rendering="inherit" font-size="12" dy=".8em" y="263.70000287890434" x="351.50000950694084">Machine learning </text></g></g><g id="minder_node10"><g id="node_expander12" style="cursor: pointer;"><path id="kity_path_175" fill="white" stroke="gray" d="M472.50001326203346,219.50000128149986A6,6,0,1,1,460.50001326203346,219.50000128149986A6,6,0,1,1,472.50001326203346,219.50000128149986"></path><path id="kity_path_176" fill="none" stroke="gray" d="M462.00001326203346,219.50000128149986L471.00001326203346,219.50000128149986"></path></g><path id="node_outline13" fill="#ffc000" stroke="none" d="M477.50001326203346,201.50000128149986h133a5,5,0,0,1,5,5v26a5,5,0,0,1,-5,5h-133a5,5,0,0,1,-5,-5v-26a5,5,0,0,1,5,-5z"></path><g id="node_text13" fill="black"><text id="kity_text_97" text-rendering="inherit" font-size="12" dy=".8em" y="202.70000132918358" x="477.50001326203346">Classification and </text><text id="kity_text_98" text-rendering="inherit" font-size="12" dy=".8em" y="220.70000132918358" x="477.50001326203346">regression trees (CART)</text></g></g><g id="minder_node11"><g id="node_expander7" style="cursor: pointer;" display="none"><path id="kity_path_160" fill="white" stroke="gray" d="M631.5000180006027,167.4999997317791A6,6,0,1,1,619.5000180006027,167.4999997317791A6,6,0,1,1,631.5000180006027,167.4999997317791"></path><path id="kity_path_161" fill="none" stroke="gray"></path></g><path id="node_outline8" fill="none" stroke="none" d="M636.5000180006027,158.4999997317791h104a5,5,0,0,1,5,5v8a5,5,0,0,1,-5,5h-104a5,5,0,0,1,-5,-5v-8a5,5,0,0,1,5,-5z"></path><g id="node_text8" fill="black"><text id="kity_text_87" text-rendering="inherit" font-size="12" dy=".8em" y="159.69999977946281" x="636.5000180006027">classification trees</text></g></g><g id="minder_node12"><g id="node_expander8" style="cursor: pointer;" display="none"><path id="kity_path_163" fill="white" stroke="gray" d="M631.5000180006027,193.50000050663948A6,6,0,1,1,619.5000180006027,193.50000050663948A6,6,0,1,1,631.5000180006027,193.50000050663948"></path><path id="kity_path_164" fill="none" stroke="gray"></path></g><path id="node_outline9" fill="none" stroke="none" d="M636.5000180006027,184.50000050663948h91a5,5,0,0,1,5,5v8a5,5,0,0,1,-5,5h-91a5,5,0,0,1,-5,-5v-8a5,5,0,0,1,5,-5z"></path><g id="node_text9" fill="black"><text id="kity_text_89" text-rendering="inherit" font-size="12" dy=".8em" y="185.7000005543232" x="636.5000180006027">regression trees</text></g></g><g id="minder_node13"><g id="node_expander9" style="cursor: pointer;" display="none"><path id="kity_path_166" fill="white" stroke="gray" d="M631.5000180006027,219.50000128149986A6,6,0,1,1,619.5000180006027,219.50000128149986A6,6,0,1,1,631.5000180006027,219.50000128149986"></path><path id="kity_path_167" fill="none" stroke="gray"></path></g><path id="node_outline10" fill="none" stroke="none" d="M636.5000180006027,210.50000128149986h75a5,5,0,0,1,5,5v8a5,5,0,0,1,-5,5h-75a5,5,0,0,1,-5,-5v-8a5,5,0,0,1,5,-5z"></path><g id="node_text10" fill="black"><text id="kity_text_91" text-rendering="inherit" font-size="12" dy=".8em" y="211.70000132918358" x="636.5000180006027">Gini impurity</text></g></g><g id="minder_node14"><g id="node_expander10" style="cursor: pointer;" display="none"><path id="kity_path_169" fill="white" stroke="gray" d="M631.5000180006027,245.50000205636024A6,6,0,1,1,619.5000180006027,245.50000205636024A6,6,0,1,1,631.5000180006027,245.50000205636024"></path><path id="kity_path_170" fill="none" stroke="gray"></path></g><path id="node_outline11" fill="none" stroke="none" d="M636.5000180006027,236.50000205636024h62a5,5,0,0,1,5,5v8a5,5,0,0,1,-5,5h-62a5,5,0,0,1,-5,-5v-8a5,5,0,0,1,5,-5z"></path><g id="node_text11" fill="black"><text id="kity_text_93" text-rendering="inherit" font-size="12" dy=".8em" y="237.70000210404396" x="636.5000180006027">Overfitting</text></g></g><g id="minder_node15"><g id="node_expander11" style="cursor: pointer;" display="none"><path id="kity_path_172" fill="white" stroke="gray" d="M631.5000180006027,271.5000028312206A6,6,0,1,1,619.5000180006027,271.5000028312206A6,6,0,1,1,631.5000180006027,271.5000028312206"></path><path id="kity_path_173" fill="none" stroke="gray"></path></g><path id="node_outline12" fill="none" stroke="none" d="M636.5000180006027,262.5000028312206h93a5,5,0,0,1,5,5v8a5,5,0,0,1,-5,5h-93a5,5,0,0,1,-5,-5v-8a5,5,0,0,1,5,-5z"></path><g id="node_text12" fill="black"><text id="kity_text_95" text-rendering="inherit" font-size="12" dy=".8em" y="263.70000287890434" x="636.5000180006027">Random Forests</text></g></g><g id="minder_node16"><g id="node_expander20" style="cursor: pointer;"><path id="kity_path_199" fill="white" stroke="gray" d="M472.50001326203346,332.5000046491623A6,6,0,1,1,460.50001326203346,332.5000046491623A6,6,0,1,1,472.50001326203346,332.5000046491623"></path><path id="kity_path_200" fill="none" stroke="gray" d="M462.00001326203346,332.5000046491623L471.00001326203346,332.5000046491623"></path></g><path id="node_outline21" fill="#ffc000" stroke="none" d="M477.50001326203346,323.5000046491623h66a5,5,0,0,1,5,5v8a5,5,0,0,1,-5,5h-66a5,5,0,0,1,-5,-5v-8a5,5,0,0,1,5,-5z"></path><g id="node_text21" fill="black"><text id="kity_text_114" text-rendering="inherit" font-size="12" dy=".8em" y="324.700004696846" x="477.50001326203346">Application</text></g></g><g id="minder_node17"><g id="node_expander13" style="cursor: pointer;" display="none"><path id="kity_path_178" fill="white" stroke="gray" d="M564.5000160038471,296.5000035762787A6,6,0,1,1,552.5000160038471,296.5000035762787A6,6,0,1,1,564.5000160038471,296.5000035762787"></path><path id="kity_path_179" fill="none" stroke="gray"></path></g><path id="node_outline14" fill="none" stroke="none" d="M569.5000160038471,287.5000035762787h115a5,5,0,0,1,5,5v8a5,5,0,0,1,-5,5h-115a5,5,0,0,1,-5,-5v-8a5,5,0,0,1,5,-5z"></path><g id="node_text14" fill="black"><text id="kity_text_100" text-rendering="inherit" font-size="12" dy=".8em" y="288.7000036239624" x="569.5000160038471">Classification trends</text></g></g><g id="minder_node18"><g id="node_expander19" style="cursor: pointer;"><path id="kity_path_196" fill="white" stroke="gray" d="M564.5000160038471,368.5000057220459A6,6,0,1,1,552.5000160038471,368.5000057220459A6,6,0,1,1,564.5000160038471,368.5000057220459"></path><path id="kity_path_197" fill="none" stroke="gray" d="M554.0000160038471,368.5000057220459L563.0000160038471,368.5000057220459"></path></g><path id="node_outline20" fill="none" stroke="none" d="M569.5000160038471,359.5000057220459h112a5,5,0,0,1,5,5v8a5,5,0,0,1,-5,5h-112a5,5,0,0,1,-5,-5v-8a5,5,0,0,1,5,-5z"></path><g id="node_text20" fill="black"><text id="kity_text_112" text-rendering="inherit" font-size="12" dy=".8em" y="360.7000057697296" x="569.5000160038471">Image classification</text></g></g><g id="minder_node19"><g id="node_expander16" style="cursor: pointer;"><path id="kity_path_187" fill="white" stroke="gray" d="M702.5000201165676,336.5000047683716A6,6,0,1,1,690.5000201165676,336.5000047683716A6,6,0,1,1,702.5000201165676,336.5000047683716"></path><path id="kity_path_188" fill="none" stroke="gray" d="M692.0000201165676,336.5000047683716L701.0000201165676,336.5000047683716"></path></g><path id="node_outline17" fill="none" stroke="none" d="M707.5000201165676,327.5000047683716h62a5,5,0,0,1,5,5v8a5,5,0,0,1,-5,5h-62a5,5,0,0,1,-5,-5v-8a5,5,0,0,1,5,-5z"></path><g id="node_text17" fill="black"><text id="kity_text_106" text-rendering="inherit" font-size="12" dy=".8em" y="328.7000048160553" x="707.5000201165676">supervised</text></g></g><g id="minder_node20"><g id="node_expander14" style="cursor: pointer;" display="none"><path id="kity_path_181" fill="white" stroke="gray" d="M790.500022739172,323.5000043809414A6,6,0,1,1,778.500022739172,323.5000043809414A6,6,0,1,1,790.500022739172,323.5000043809414"></path><path id="kity_path_182" fill="none" stroke="gray"></path></g><path id="node_outline15" fill="none" stroke="none" d="M795.500022739172,314.5000043809414h117a5,5,0,0,1,5,5v8a5,5,0,0,1,-5,5h-117a5,5,0,0,1,-5,-5v-8a5,5,0,0,1,5,-5z"></path><g id="node_text15" fill="black"><text id="kity_text_102" text-rendering="inherit" font-size="12" dy=".8em" y="315.7000044286251" x="795.500022739172">maximum likelihood</text></g></g><g id="minder_node21"><g id="node_expander15" style="cursor: pointer;" display="none"><path id="kity_path_184" fill="white" stroke="gray" d="M790.500022739172,349.5000051558018A6,6,0,1,1,778.500022739172,349.5000051558018A6,6,0,1,1,790.500022739172,349.5000051558018"></path><path id="kity_path_185" fill="none" stroke="gray"></path></g><path id="node_outline16" fill="none" stroke="none" d="M795.500022739172,340.5000051558018h142a5,5,0,0,1,5,5v8a5,5,0,0,1,-5,5h-142a5,5,0,0,1,-5,-5v-8a5,5,0,0,1,5,-5z"></path><g id="node_text16" fill="black"><text id="kity_text_104" text-rendering="inherit" font-size="12" dy=".8em" y="341.7000052034855" x="795.500022739172">support vector machines</text></g></g><g id="minder_node22"><g id="node_expander17" style="cursor: pointer;" display="none"><path id="kity_path_190" fill="white" stroke="gray" d="M702.5000201165676,375.50000593066216A6,6,0,1,1,690.5000201165676,375.50000593066216A6,6,0,1,1,702.5000201165676,375.50000593066216"></path><path id="kity_path_191" fill="none" stroke="gray"></path></g><path id="node_outline18" fill="none" stroke="none" d="M707.5000201165676,366.50000593066216h77a5,5,0,0,1,5,5v8a5,5,0,0,1,-5,5h-77a5,5,0,0,1,-5,-5v-8a5,5,0,0,1,5,-5z"></path><g id="node_text18" fill="black"><text id="kity_text_108" text-rendering="inherit" font-size="12" dy=".8em" y="367.70000597834587" x="707.5000201165676">unsupervised</text></g></g><g id="minder_node23"><g id="node_expander18" style="cursor: pointer;" display="none"><path id="kity_path_193" fill="white" stroke="gray" d="M702.5000201165676,401.50000670552254A6,6,0,1,1,690.5000201165676,401.50000670552254A6,6,0,1,1,702.5000201165676,401.50000670552254"></path><path id="kity_path_194" fill="none" stroke="gray"></path></g><path id="node_outline19" fill="none" stroke="none" d="M707.5000201165676,392.50000670552254h57a5,5,0,0,1,5,5v8a5,5,0,0,1,-5,5h-57a5,5,0,0,1,-5,-5v-8a5,5,0,0,1,5,-5z"></path><g id="node_text19" fill="black"><text id="kity_text_110" text-rendering="inherit" font-size="12" dy=".8em" y="393.70000675320625" x="707.5000201165676">difference</text></g></g></g></g></svg>