<svg id="kity_svg_6" xmlns="http://www.w3.org/2000/svg" xmlns:xlink="http://www.w3.org/1999/xlink" version="1.1" width="813" height="634" style="background: rgb(251, 251, 251); visibility: visible;" viewBox="0 0 813 634"><defs id="kity_defs_7"><linearGradient id="kity_linearGradient_17" x1="0" y1="0" x2="0" y2="1"><stop id="kity_stop_18" offset="0" stop-color="rgb(255, 255, 255)"></stop><stop id="kity_stop_19" offset="1" stop-color="rgb(204, 204, 204)"></stop></linearGradient><marker id="kity_marker_2" orient="auto" refX="6" refY="0" viewBox="-7 -7 14 14" markerWidth="7" markerHeight="7" markerUnits="userSpaceOnUse"><path id="kity_path_3" fill="rgb(115, 161, 191)" stroke="none" d="M6,0A6,6,0,1,1,-6,0A6,6,0,1,1,6,0"></path></marker></defs><g id="kity_g_8"><g id="minder1" text-rendering="optimize-speed"><g id="minder_connect_group1"><path id="kity_path_31" fill="none" stroke="rgb(115, 161, 191)" stroke-width="1" d="M96.5,308.5A92,196,0,0,1,188.5,112.5"></path><path id="kity_path_33" fill="none" stroke="rgb(115, 161, 191)" stroke-width="1" d="M352.5,112.5C360.5,112.5,360.5,29.5,368.5,29.5"></path><path id="kity_path_35" fill="none" stroke="rgb(115, 161, 191)" stroke-width="1" d="M352.5,112.5C360.5,112.5,360.5,73.5,368.5,73.5"></path><path id="kity_path_37" fill="none" stroke="rgb(115, 161, 191)" stroke-width="1" d="M352.5,112.5C360.5,112.5,360.5,117.5,368.5,117.5"></path><path id="kity_path_39" fill="none" stroke="rgb(115, 161, 191)" stroke-width="1" d="M352.5,112.5C360.5,112.5,360.5,143.5,368.5,143.5"></path><path id="kity_path_41" fill="none" stroke="rgb(115, 161, 191)" stroke-width="1" d="M352.5,112.5C360.5,112.5,360.5,169.5,368.5,169.5"></path><path id="kity_path_43" fill="none" stroke="rgb(115, 161, 191)" stroke-width="1" d="M352.5,112.5C360.5,112.5,360.5,195.5,368.5,195.5"></path><path id="kity_path_45" fill="none" stroke="rgb(115, 161, 191)" stroke-width="1" d="M96.5,308.5A92,64.5,0,0,1,188.5,244"></path><path id="kity_path_47" fill="none" stroke="rgb(115, 161, 191)" stroke-width="1" d="M392.5,244.5C400.5,244,400.5,231.5,408.5,231.5"></path><path id="kity_path_49" fill="none" stroke="rgb(115, 161, 191)" stroke-width="1" d="M392.5,244.5C400.5,244,400.5,257.5,408.5,257.5"></path><path id="kity_path_51" fill="none" stroke="rgb(115, 161, 191)" stroke-width="1" d="M96.5,308.5A92,196,0,0,0,188.5,504.5"></path><path id="kity_path_53" fill="none" stroke="rgb(115, 161, 191)" stroke-width="1" d="M371.5,504.5C379.5,504.5,379.5,416.5,387.5,416.5"></path><path id="kity_path_55" fill="none" stroke="rgb(115, 161, 191)" stroke-width="1" d="M453.5,416.5C461.5,416.5,461.5,358.5,469.5,358.5"></path><path id="kity_path_57" fill="none" stroke="rgb(115, 161, 191)" stroke-width="1" d="M548.5,358.5C556.5,358.5,556.5,423.5,564.5,423.5"></path><path id="kity_path_59" fill="none" stroke="rgb(115, 161, 191)" stroke-width="1" d="M548.5,358.5C556.5,358.5,556.5,397.5,564.5,397.5"></path><path id="kity_path_61" fill="none" stroke="rgb(115, 161, 191)" stroke-width="1" d="M548.5,358.5C556.5,358.5,556.5,371.5,564.5,371.5"></path><path id="kity_path_63" fill="none" stroke="rgb(115, 161, 191)" stroke-width="1" d="M548.5,358.5C556.5,358.5,556.5,345.5,564.5,345.5"></path><path id="kity_path_65" fill="none" stroke="rgb(115, 161, 191)" stroke-width="1" d="M548.5,358.5C556.5,358.5,556.5,319.5,564.5,319.5"></path><path id="kity_path_67" fill="none" stroke="rgb(115, 161, 191)" stroke-width="1" d="M453.5,416.5C461.5,416.5,461.5,449.5,469.5,449.5"></path><path id="kity_path_69" fill="none" stroke="rgb(115, 161, 191)" stroke-width="1" d="M548.5,358.5C556.5,358.5,556.5,293.5,564.5,293.5"></path><path id="kity_path_71" fill="none" stroke="rgb(115, 161, 191)" stroke-width="1" d="M453.5,416.5C461.5,416.5,461.5,475.5,469.5,475.5"></path><path id="kity_path_73" fill="none" stroke="rgb(115, 161, 191)" stroke-width="1" d="M371.5,504.5C379.5,504.5,379.5,527.5,387.5,527.5"></path><path id="kity_path_75" fill="none" stroke="rgb(115, 161, 191)" stroke-width="1" d="M562.5,527.5C570.5,527.5,570.5,501.5,578.5,501.5"></path><path id="kity_path_77" fill="none" stroke="rgb(115, 161, 191)" stroke-width="1" d="M562.5,527.5C570.5,527.5,570.5,527.5,578.5,527.5"></path><path id="kity_path_79" fill="none" stroke="rgb(115, 161, 191)" stroke-width="1" d="M562.5,527.5C570.5,527.5,570.5,553.5,578.5,553.5"></path><path id="kity_path_81" fill="none" stroke="rgb(115, 161, 191)" stroke-width="1" d="M371.5,504.5C379.5,504.5,379.5,592.5,387.5,592.5"></path><path id="kity_path_83" fill="none" stroke="rgb(115, 161, 191)" stroke-width="1" d="M527.5,592.5C535.5,592.5,535.5,579.5,543.5,579.5"></path><path id="kity_path_85" fill="none" stroke="rgb(115, 161, 191)" stroke-width="1" d="M527.5,592.5C535.5,592.5,535.5,605.5,543.5,605.5"></path></g><g id="minder_node1"><path id="node_outline1" fill="rgb(115, 161, 191)" stroke="rgb(115, 161, 191)" d="M25.5,294.5h142a5,5,0,0,1,5,5v18a5,5,0,0,1,-5,5h-142a5,5,0,0,1,-5,-5v-18a5,5,0,0,1,5,-5z" stroke-width="3"></path><g id="node_text1" fill="white"><text id="kity_text_22" text-rendering="inherit" font-size="16" dy=".8em" y="298.09999990463257" x="32.5">7 Classification II</text></g></g><g id="kity_g_14" display="none"><path id="kity_path_15" fill="rgba(0, 92, 153, 0.5)" stroke="none" d="M469.5,305.5h79v4h-79z"></path><path id="kity_path_16" fill="none" stroke="rgb(0, 76, 128)" d="M469.5,305.5L548.5,305.5" stroke-width="1"></path></g><g id="minder_node2"><g id="node_expander7" style="cursor: pointer;"><path id="kity_path_192" fill="white" stroke="gray" d="M189.50000530481339,112.49999415874481A6,6,0,1,1,177.50000530481339,112.49999415874481A6,6,0,1,1,189.50000530481339,112.49999415874481"></path><path id="kity_path_193" fill="none" stroke="gray" d="M179.00000530481339,112.49999415874481L188.00000530481339,112.49999415874481"></path></g><path id="node_outline8" fill="rgb(238, 243, 246)" stroke="rgb(115, 161, 191)" d="M193.50000530481339,99.49999415874481h156a3,3,0,0,1,3,3v20a3,3,0,0,1,-3,3h-156a3,3,0,0,1,-3,-3v-20a3,3,0,0,1,3,-3z" stroke-width="1"></path><g id="node_text8" fill="black"><text id="kity_text_101" text-rendering="inherit" font-size="14" dy=".8em" y="103.39999425411224" x="210.50000530481339">Pre-classified data</text></g></g><g id="minder_node3"><g id="node_expander1" display="none" style="cursor: pointer;"><path id="kity_path_174" fill="white" stroke="gray" d="M368.50001016259193,29.499991685152054A6,6,0,1,1,356.50001016259193,29.499991685152054A6,6,0,1,1,368.50001016259193,29.499991685152054"></path><path id="kity_path_175" fill="none" stroke="gray"></path></g><path id="node_outline2" fill="none" stroke="none" d="M373.50001016259193,20.499991685152054h260a5,5,0,0,1,5,5v8a5,5,0,0,1,-5,5h-260a5,5,0,0,1,-5,-5v-8a5,5,0,0,1,5,-5z"></path><g id="node_text2" fill="black"><text id="kity_text_87" text-rendering="inherit" font-size="12" dy=".8em" y="21.69999173283577" x="373.50001016259193">GlobeLand30 - 30m for 2000, 2010 and 2020:</text></g></g><g id="minder_node4"><g id="node_expander2" display="none" style="cursor: pointer;"><path id="kity_path_177" fill="white" stroke="gray" d="M368.50001016259193,73.49999299645427A6,6,0,1,1,356.50001016259193,73.49999299645427A6,6,0,1,1,368.50001016259193,73.49999299645427"></path><path id="kity_path_178" fill="none" stroke="gray"></path></g><path id="node_outline3" fill="none" stroke="none" d="M373.50001016259193,46.49999299645427h283a5,5,0,0,1,5,5v44a5,5,0,0,1,-5,5h-283a5,5,0,0,1,-5,-5v-44a5,5,0,0,1,5,-5z"></path><g id="node_text3" fill="black"><text id="kity_text_89" text-rendering="inherit" font-size="12" dy=".8em" y="47.69999304413798" x="373.50001016259193">European Space Agency’s (ESA) Climate Change</text><text id="kity_text_90" text-rendering="inherit" font-size="12" dy=".8em" y="65.69999304413798" x="373.50001016259193">&#xa0;Initiative (CCI) annual global land cover (300 m)</text><text id="kity_text_91" text-rendering="inherit" font-size="12" dy=".8em" y="83.69999304413798" x="373.50001016259193">&#xa0;(1992-2015</text></g></g><g id="minder_node5"><g id="node_expander3" display="none" style="cursor: pointer;"><path id="kity_path_180" fill="white" stroke="gray" d="M368.50001016259193,117.49999430775642A6,6,0,1,1,356.50001016259193,117.49999430775642A6,6,0,1,1,368.50001016259193,117.49999430775642"></path><path id="kity_path_181" fill="none" stroke="gray"></path></g><path id="node_outline4" fill="none" stroke="none" d="M373.50001016259193,108.49999430775642h209a5,5,0,0,1,5,5v8a5,5,0,0,1,-5,5h-209a5,5,0,0,1,-5,-5v-8a5,5,0,0,1,5,-5z"></path><g id="node_text4" fill="black"><text id="kity_text_93" text-rendering="inherit" font-size="12" dy=".8em" y="109.69999435544014" x="373.50001016259193">Dynamic World - near real time 10m</text></g></g><g id="minder_node6"><g id="node_expander4" display="none" style="cursor: pointer;"><path id="kity_path_183" fill="white" stroke="gray" d="M368.50001016259193,143.4999950826168A6,6,0,1,1,356.50001016259193,143.4999950826168A6,6,0,1,1,368.50001016259193,143.4999950826168"></path><path id="kity_path_184" fill="none" stroke="gray"></path></g><path id="node_outline5" fill="none" stroke="none" d="M373.50001016259193,134.4999950826168h34a5,5,0,0,1,5,5v8a5,5,0,0,1,-5,5h-34a5,5,0,0,1,-5,-5v-8a5,5,0,0,1,5,-5z"></path><g id="node_text5" fill="black"><text id="kity_text_95" text-rendering="inherit" font-size="12" dy=".8em" y="135.69999513030052" x="373.50001016259193">MODI</text></g></g><g id="minder_node7"><g id="node_expander5" display="none" style="cursor: pointer;"><path id="kity_path_186" fill="white" stroke="gray" d="M368.50001016259193,169.4999958574772A6,6,0,1,1,356.50001016259193,169.4999958574772A6,6,0,1,1,368.50001016259193,169.4999958574772"></path><path id="kity_path_187" fill="none" stroke="gray"></path></g><path id="node_outline6" fill="none" stroke="none" d="M373.50001016259193,160.4999958574772h122a5,5,0,0,1,5,5v8a5,5,0,0,1,-5,5h-122a5,5,0,0,1,-5,-5v-8a5,5,0,0,1,5,-5z"></path><g id="node_text6" fill="black"><text id="kity_text_97" text-rendering="inherit" font-size="12" dy=".8em" y="161.6999959051609" x="373.50001016259193">Google building data</text></g></g><g id="minder_node8"><g id="node_expander6" display="none" style="cursor: pointer;"><path id="kity_path_189" fill="white" stroke="gray" d="M368.50001016259193,195.49999663233757A6,6,0,1,1,356.50001016259193,195.49999663233757A6,6,0,1,1,368.50001016259193,195.49999663233757"></path><path id="kity_path_190" fill="none" stroke="gray"></path></g><path id="node_outline7" fill="none" stroke="none" d="M373.50001016259193,186.49999663233757h17a5,5,0,0,1,5,5v8a5,5,0,0,1,-5,5h-17a5,5,0,0,1,-5,-5v-8a5,5,0,0,1,5,-5z"></path><g id="node_text7" fill="black"><text id="kity_text_99" text-rendering="inherit" font-size="12" dy=".8em" y="187.6999966800213" x="373.50001016259193">......</text></g></g><g id="minder_node9"><g id="node_expander10" style="cursor: pointer;"><path id="kity_path_201" fill="white" stroke="gray" d="M189.50000530481339,243.99999806284904A6,6,0,1,1,177.50000530481339,243.99999806284904A6,6,0,1,1,189.50000530481339,243.99999806284904"></path><path id="kity_path_202" fill="none" stroke="gray" d="M179.00000530481339,243.99999806284904L188.00000530481339,243.99999806284904"></path></g><path id="node_outline11" fill="rgb(238, 243, 246)" stroke="rgb(115, 161, 191)" d="M193.50000530481339,220.49999806284904h196a3,3,0,0,1,3,3v41a3,3,0,0,1,-3,3h-196a3,3,0,0,1,-3,-3v-41a3,3,0,0,1,3,-3z" stroke-width="1"></path><g id="node_text11" fill="black"><text id="kity_text_107" text-rendering="inherit" font-size="14" dy=".8em" y="223.89999815821648" x="210.50000530481339">&#xa0;Landcover classification </text><text id="kity_text_108" text-rendering="inherit" font-size="14" dy=".8em" y="244.89999815821648" x="210.50000530481339">(contiuned)</text></g></g><g id="minder_node10"><g id="node_expander8" display="none" style="cursor: pointer;"><path id="kity_path_195" fill="white" stroke="gray" d="M408.50001135468483,231.49999770522118A6,6,0,1,1,396.50001135468483,231.49999770522118A6,6,0,1,1,408.50001135468483,231.49999770522118"></path><path id="kity_path_196" fill="none" stroke="gray"></path></g><path id="node_outline9" fill="none" stroke="none" d="M413.50001135468483,222.49999770522118h204a5,5,0,0,1,5,5v8a5,5,0,0,1,-5,5h-204a5,5,0,0,1,-5,-5v-8a5,5,0,0,1,5,-5z"></path><g id="node_text9" fill="black"><text id="kity_text_103" text-rendering="inherit" font-size="12" dy=".8em" y="223.6999977529049" x="413.50001135468483">Object based image analysis (OBIA)</text></g></g><g id="minder_node11"><g id="node_expander9" display="none" style="cursor: pointer;"><path id="kity_path_198" fill="white" stroke="gray" d="M408.50001135468483,257.49999848008156A6,6,0,1,1,396.50001135468483,257.49999848008156A6,6,0,1,1,408.50001135468483,257.49999848008156"></path><path id="kity_path_199" fill="none" stroke="gray"></path></g><path id="node_outline10" fill="none" stroke="none" d="M413.50001135468483,248.49999848008156h100a5,5,0,0,1,5,5v8a5,5,0,0,1,-5,5h-100a5,5,0,0,1,-5,-5v-8a5,5,0,0,1,5,-5z"></path><g id="node_text10" fill="black"><text id="kity_text_105" text-rendering="inherit" font-size="12" dy=".8em" y="249.69999852776527" x="413.50001135468483">Sub pixel analysis</text></g></g><g id="minder_node12"><g id="node_expander28" style="cursor: pointer;"><path id="kity_path_255" fill="white" stroke="gray" d="M189.50000530481339,504.5000058412552A6,6,0,1,1,177.50000530481339,504.5000058412552A6,6,0,1,1,189.50000530481339,504.5000058412552"></path><path id="kity_path_256" fill="none" stroke="gray" d="M179.00000530481339,504.5000058412552L188.00000530481339,504.5000058412552"></path></g><path id="node_outline29" fill="rgb(238, 243, 246)" stroke="rgb(115, 161, 191)" d="M193.50000530481339,491.5000058412552h175a3,3,0,0,1,3,3v20a3,3,0,0,1,-3,3h-175a3,3,0,0,1,-3,-3v-20a3,3,0,0,1,3,-3z" stroke-width="1"></path><g id="node_text29" fill="black"><text id="kity_text_144" text-rendering="inherit" font-size="14" dy=".8em" y="495.4000059366226" x="210.50000530481339">Accuracy assessment</text></g></g><g id="minder_node13"><g id="node_expander20" style="cursor: pointer;"><path id="kity_path_231" fill="white" stroke="gray" d="M387.50001072883606,416.5000032186508A6,6,0,1,1,375.50001072883606,416.5000032186508A6,6,0,1,1,387.50001072883606,416.5000032186508"></path><path id="kity_path_232" fill="none" stroke="gray" d="M377.00001072883606,416.5000032186508L386.00001072883606,416.5000032186508"></path></g><path id="node_outline21" fill="none" stroke="none" d="M392.50001072883606,407.5000032186508h56a5,5,0,0,1,5,5v8a5,5,0,0,1,-5,5h-56a5,5,0,0,1,-5,-5v-8a5,5,0,0,1,5,-5z"></path><g id="node_text21" fill="black"><text id="kity_text_128" text-rendering="inherit" font-size="12" dy=".8em" y="408.70000326633453" x="392.50001072883606">Approach</text></g></g><g id="minder_node14"><g id="node_expander11" style="cursor: pointer;"><path id="kity_path_204" fill="white" stroke="gray" d="M469.5000131726265,358.5000014901161A6,6,0,1,1,457.5000131726265,358.5000014901161A6,6,0,1,1,469.5000131726265,358.5000014901161"></path><path id="kity_path_205" fill="none" stroke="gray" d="M459.0000131726265,358.5000014901161L468.0000131726265,358.5000014901161"></path></g><path id="node_outline12" fill="none" stroke="none" d="M474.5000131726265,349.5000014901161h69a5,5,0,0,1,5,5v8a5,5,0,0,1,-5,5h-69a5,5,0,0,1,-5,-5v-8a5,5,0,0,1,5,-5z"></path><g id="node_text12" fill="black"><text id="kity_text_110" text-rendering="inherit" font-size="12" dy=".8em" y="350.70000153779984" x="474.5000131726265">Error Matrix</text></g></g><g id="minder_node15" opacity="1"><g id="node_expander12" style="cursor: pointer;" display="none"><path id="kity_path_207" fill="white" stroke="gray" d="M564.5000160038471,423.5000034272671A6,6,0,1,1,552.5000160038471,423.5000034272671A6,6,0,1,1,564.5000160038471,423.5000034272671"></path><path id="kity_path_208" fill="none" stroke="gray"></path></g><path id="node_outline13" fill="none" stroke="none" d="M569.5000160038471,414.5000034272671h123a5,5,0,0,1,5,5v8a5,5,0,0,1,-5,5h-123a5,5,0,0,1,-5,-5v-8a5,5,0,0,1,5,-5z" stroke-width="3"></path><g id="node_text13" fill="black"><text id="kity_text_112" text-rendering="inherit" font-size="12" dy=".8em" y="415.7000034749508" x="569.5000160038471">producer’s accuracy</text></g></g><g id="minder_node16" opacity="1"><g id="node_expander13" style="cursor: pointer;" display="none"><path id="kity_path_210" fill="white" stroke="gray" d="M564.5000160038471,397.5000026524067A6,6,0,1,1,552.5000160038471,397.5000026524067A6,6,0,1,1,564.5000160038471,397.5000026524067"></path><path id="kity_path_211" fill="none" stroke="gray"></path></g><path id="node_outline14" fill="none" stroke="none" d="M569.5000160038471,388.5000026524067h95a5,5,0,0,1,5,5v8a5,5,0,0,1,-5,5h-95a5,5,0,0,1,-5,-5v-8a5,5,0,0,1,5,-5z" stroke-width="3"></path><g id="node_text14" fill="black"><text id="kity_text_114" text-rendering="inherit" font-size="12" dy=".8em" y="389.7000027000904" x="569.5000160038471">user’s accuracy</text></g></g><g id="minder_node17" opacity="1"><g id="node_expander14" style="cursor: pointer;" display="none"><path id="kity_path_213" fill="white" stroke="gray" d="M564.5000160038471,371.5000018775463A6,6,0,1,1,552.5000160038471,371.5000018775463A6,6,0,1,1,564.5000160038471,371.5000018775463"></path><path id="kity_path_214" fill="none" stroke="gray"></path></g><path id="node_outline15" fill="none" stroke="none" d="M569.5000160038471,362.5000018775463h92a5,5,0,0,1,5,5v8a5,5,0,0,1,-5,5h-92a5,5,0,0,1,-5,-5v-8a5,5,0,0,1,5,-5z" stroke-width="3"></path><g id="node_text15" fill="black"><text id="kity_text_116" text-rendering="inherit" font-size="12" dy=".8em" y="363.70000192523" x="569.5000160038471">overall accuracy</text></g></g><g id="minder_node18" opacity="1"><g id="node_expander15" style="cursor: pointer;" display="none"><path id="kity_path_216" fill="white" stroke="gray" d="M564.5000160038471,345.5000011026859A6,6,0,1,1,552.5000160038471,345.5000011026859A6,6,0,1,1,564.5000160038471,345.5000011026859"></path><path id="kity_path_217" fill="none" stroke="gray"></path></g><path id="node_outline16" fill="none" stroke="none" d="M569.5000160038471,336.5000011026859h104a5,5,0,0,1,5,5v8a5,5,0,0,1,-5,5h-104a5,5,0,0,1,-5,-5v-8a5,5,0,0,1,5,-5z" stroke-width="3"></path><g id="node_text16" fill="black"><text id="kity_text_118" text-rendering="inherit" font-size="12" dy=".8em" y="337.70000115036964" x="569.5000160038471">Errors of omission </text></g></g><g id="minder_node19" opacity="1"><g id="node_expander16" style="cursor: pointer;" display="none"><path id="kity_path_219" fill="white" stroke="gray" d="M564.5000160038471,319.50000032782555A6,6,0,1,1,552.5000160038471,319.50000032782555A6,6,0,1,1,564.5000160038471,319.50000032782555"></path><path id="kity_path_220" fill="none" stroke="gray"></path></g><path id="node_outline17" fill="none" stroke="none" d="M569.5000160038471,310.50000032782555h121a5,5,0,0,1,5,5v8a5,5,0,0,1,-5,5h-121a5,5,0,0,1,-5,-5v-8a5,5,0,0,1,5,-5z" stroke-width="3"></path><g id="node_text17" fill="black"><text id="kity_text_120" text-rendering="inherit" font-size="12" dy=".8em" y="311.70000037550926" x="569.5000160038471">Errors of commission</text></g></g><g id="minder_node20"><g id="node_expander17" display="none" style="cursor: pointer;"><path id="kity_path_222" fill="white" stroke="gray" d="M469.5000131726265,449.50000420212746A6,6,0,1,1,457.5000131726265,449.50000420212746A6,6,0,1,1,469.5000131726265,449.50000420212746"></path><path id="kity_path_223" fill="none" stroke="gray"></path></g><path id="node_outline18" fill="none" stroke="none" d="M474.5000131726265,440.50000420212746h100a5,5,0,0,1,5,5v8a5,5,0,0,1,-5,5h-100a5,5,0,0,1,-5,-5v-8a5,5,0,0,1,5,-5z"></path><g id="node_text18" fill="black"><text id="kity_text_122" text-rendering="inherit" font-size="12" dy=".8em" y="441.7000042498112" x="474.5000131726265">Kappa coefficient</text></g></g><g id="minder_node21" opacity="1"><g id="node_expander18" style="cursor: pointer;" display="none"><path id="kity_path_225" fill="white" stroke="gray" d="M564.5000160038471,293.49999955296516A6,6,0,1,1,552.5000160038471,293.49999955296516A6,6,0,1,1,564.5000160038471,293.49999955296516"></path><path id="kity_path_226" fill="none" stroke="gray"></path></g><path id="node_outline19" fill="none" stroke="none" d="M569.5000160038471,284.49999955296516h49a5,5,0,0,1,5,5v8a5,5,0,0,1,-5,5h-49a5,5,0,0,1,-5,-5v-8a5,5,0,0,1,5,-5z" stroke-width="3"></path><g id="node_text19" fill="black"><text id="kity_text_124" text-rendering="inherit" font-size="12" dy=".8em" y="285.6999996006489" x="569.5000160038471">F1-score</text></g></g><g id="minder_node22"><g id="node_expander19" display="none" style="cursor: pointer;"><path id="kity_path_228" fill="white" stroke="gray" d="M469.5000131726265,475.50000497698784A6,6,0,1,1,457.5000131726265,475.50000497698784A6,6,0,1,1,469.5000131726265,475.50000497698784"></path><path id="kity_path_229" fill="none" stroke="gray"></path></g><path id="node_outline20" fill="none" stroke="none" d="M474.5000131726265,466.50000497698784h63a5,5,0,0,1,5,5v8a5,5,0,0,1,-5,5h-63a5,5,0,0,1,-5,-5v-8a5,5,0,0,1,5,-5z"></path><g id="node_text20" fill="black"><text id="kity_text_126" text-rendering="inherit" font-size="12" dy=".8em" y="467.70000502467155" x="474.5000131726265">ROC Curve</text></g></g><g id="minder_node23"><g id="node_expander24" style="cursor: pointer;"><path id="kity_path_243" fill="white" stroke="gray" d="M387.50001072883606,527.5000065267086A6,6,0,1,1,375.50001072883606,527.5000065267086A6,6,0,1,1,387.50001072883606,527.5000065267086"></path><path id="kity_path_244" fill="none" stroke="gray" d="M377.00001072883606,527.5000065267086L386.00001072883606,527.5000065267086"></path></g><path id="node_outline25" fill="none" stroke="none" d="M392.50001072883606,518.5000065267086h165a5,5,0,0,1,5,5v8a5,5,0,0,1,-5,5h-165a5,5,0,0,1,-5,-5v-8a5,5,0,0,1,5,-5z"></path><g id="node_text25" fill="black"><text id="kity_text_136" text-rendering="inherit" font-size="12" dy=".8em" y="519.7000065743923" x="392.50001072883606"> Data use assess the accuracy</text></g></g><g id="minder_node24"><g id="node_expander21" display="none" style="cursor: pointer;"><path id="kity_path_234" fill="white" stroke="gray" d="M578.5000164210796,501.5000057518482A6,6,0,1,1,566.5000164210796,501.5000057518482A6,6,0,1,1,578.5000164210796,501.5000057518482"></path><path id="kity_path_235" fill="none" stroke="gray"></path></g><path id="node_outline22" fill="none" stroke="none" d="M583.5000164210796,492.5000057518482h205a5,5,0,0,1,5,5v8a5,5,0,0,1,-5,5h-205a5,5,0,0,1,-5,-5v-8a5,5,0,0,1,5,-5z"></path><g id="node_text22" fill="black"><text id="kity_text_130" text-rendering="inherit" font-size="12" dy=".8em" y="493.70000579953194" x="583.5000164210796">New dataset to test the output with</text></g></g><g id="minder_node25"><g id="node_expander22" display="none" style="cursor: pointer;"><path id="kity_path_237" fill="white" stroke="gray" d="M578.5000164210796,527.5000065267086A6,6,0,1,1,566.5000164210796,527.5000065267086A6,6,0,1,1,578.5000164210796,527.5000065267086"></path><path id="kity_path_238" fill="none" stroke="gray"></path></g><path id="node_outline23" fill="none" stroke="none" d="M583.5000164210796,518.5000065267086h163a5,5,0,0,1,5,5v8a5,5,0,0,1,-5,5h-163a5,5,0,0,1,-5,-5v-8a5,5,0,0,1,5,-5z"></path><g id="node_text23" fill="black"><text id="kity_text_132" text-rendering="inherit" font-size="12" dy=".8em" y="519.7000065743923" x="583.5000164210796">Train / split the training data</text></g></g><g id="minder_node26"><g id="node_expander23" display="none" style="cursor: pointer;"><path id="kity_path_240" fill="white" stroke="gray" d="M578.5000164210796,553.500007301569A6,6,0,1,1,566.5000164210796,553.500007301569A6,6,0,1,1,578.5000164210796,553.500007301569"></path><path id="kity_path_241" fill="none" stroke="gray"></path></g><path id="node_outline24" fill="none" stroke="none" d="M583.5000164210796,544.500007301569h91a5,5,0,0,1,5,5v8a5,5,0,0,1,-5,5h-91a5,5,0,0,1,-5,-5v-8a5,5,0,0,1,5,-5z"></path><g id="node_text24" fill="black"><text id="kity_text_134" text-rendering="inherit" font-size="12" dy=".8em" y="545.7000073492527" x="583.5000164210796">Cross validation</text></g></g><g id="minder_node27"><g id="node_expander27" style="cursor: pointer;"><path id="kity_path_252" fill="white" stroke="gray" d="M387.50001072883606,592.5000084638596A6,6,0,1,1,375.50001072883606,592.5000084638596A6,6,0,1,1,387.50001072883606,592.5000084638596"></path><path id="kity_path_253" fill="none" stroke="gray" d="M377.00001072883606,592.5000084638596L386.00001072883606,592.5000084638596"></path></g><path id="node_outline28" fill="none" stroke="none" d="M392.50001072883606,583.5000084638596h130a5,5,0,0,1,5,5v8a5,5,0,0,1,-5,5h-130a5,5,0,0,1,-5,-5v-8a5,5,0,0,1,5,-5z"></path><g id="node_text28" fill="black"><text id="kity_text_142" text-rendering="inherit" font-size="12" dy=".8em" y="584.7000085115433" x="392.50001072883606">Spatial autocorrelation</text></g></g><g id="minder_node28"><g id="node_expander25" display="none" style="cursor: pointer;"><path id="kity_path_246" fill="white" stroke="gray" d="M543.5000153779984,579.5000080764294A6,6,0,1,1,531.5000153779984,579.5000080764294A6,6,0,1,1,543.5000153779984,579.5000080764294"></path><path id="kity_path_247" fill="none" stroke="gray"></path></g><path id="node_outline26" fill="none" stroke="none" d="M548.5000153779984,570.5000080764294h163a5,5,0,0,1,5,5v8a5,5,0,0,1,-5,5h-163a5,5,0,0,1,-5,-5v-8a5,5,0,0,1,5,-5z"></path><g id="node_text26" fill="black"><text id="kity_text_138" text-rendering="inherit" font-size="12" dy=".8em" y="571.7000081241131" x="548.5000153779984">Object based image analysis</text></g></g><g id="minder_node29"><g id="node_expander26" display="none" style="cursor: pointer;"><path id="kity_path_249" fill="white" stroke="gray" d="M543.5000153779984,605.5000088512897A6,6,0,1,1,531.5000153779984,605.5000088512897A6,6,0,1,1,543.5000153779984,605.5000088512897"></path><path id="kity_path_250" fill="none" stroke="gray"></path></g><path id="node_outline27" fill="none" stroke="none" d="M548.5000153779984,596.5000088512897h131a5,5,0,0,1,5,5v8a5,5,0,0,1,-5,5h-131a5,5,0,0,1,-5,-5v-8a5,5,0,0,1,5,-5z"></path><g id="node_text27" fill="black"><text id="kity_text_140" text-rendering="inherit" font-size="12" dy=".8em" y="597.7000088989735" x="548.5000153779984">Spatial cross validation</text></g></g><g id="kity_g_12" display="none"><path id="kity_path_13" fill="none" stroke="rgb(66, 94, 112)" d="M474.5,282.5h69a5,5,0,0,1,5,5v8a5,5,0,0,1,-5,5h-69a5,5,0,0,1,-5,-5v-8a5,5,0,0,1,5,-5z" stroke-width="5"></path></g></g></g></svg>