<svg id="kity_svg_6" xmlns="http://www.w3.org/2000/svg" xmlns:xlink="http://www.w3.org/1999/xlink" version="1.1" width="852" height="545" style="background: rgb(251, 251, 251); visibility: visible;" viewBox="0 0 852 545"><defs id="kity_defs_7"><linearGradient id="kity_linearGradient_17" x1="0" y1="0" x2="0" y2="1"><stop id="kity_stop_18" offset="0" stop-color="rgb(255, 255, 255)"></stop><stop id="kity_stop_19" offset="1" stop-color="rgb(204, 204, 204)"></stop></linearGradient><marker id="kity_marker_2" orient="auto" refX="6" refY="0" viewBox="-7 -7 14 14" markerWidth="7" markerHeight="7" markerUnits="userSpaceOnUse"><path id="kity_path_3" fill="rgb(115, 161, 191)" stroke="none" d="M6,0A6,6,0,1,1,-6,0A6,6,0,1,1,6,0"></path></marker></defs><g id="kity_g_8"><g id="minder1" text-rendering="optimize-speed"><g id="minder_connect_group1"><path id="kity_path_31" fill="none" stroke="rgb(115, 161, 191)" stroke-width="1" d="M96.5,287.5A92,107.5,0,0,1,188.5,180"></path><path id="kity_path_33" fill="none" stroke="rgb(115, 161, 191)" stroke-width="1" d="M392.5,180.5C400.5,180,400.5,112.5,408.5,112.5"></path><path id="kity_path_35" fill="none" stroke="rgb(115, 161, 191)" stroke-width="1" d="M523.5,112.5C531.5,112.5,531.5,29.5,539.5,29.5"></path><path id="kity_path_37" fill="none" stroke="rgb(115, 161, 191)" stroke-width="1" d="M523.5,112.5C531.5,112.5,531.5,73.5,539.5,73.5"></path><path id="kity_path_39" fill="none" stroke="rgb(115, 161, 191)" stroke-width="1" d="M523.5,112.5C531.5,112.5,531.5,117.5,539.5,117.5"></path><path id="kity_path_41" fill="none" stroke="rgb(115, 161, 191)" stroke-width="1" d="M523.5,112.5C531.5,112.5,531.5,143.5,539.5,143.5"></path><path id="kity_path_43" fill="none" stroke="rgb(115, 161, 191)" stroke-width="1" d="M523.5,112.5C531.5,112.5,531.5,169.5,539.5,169.5"></path><path id="kity_path_45" fill="none" stroke="rgb(115, 161, 191)" stroke-width="1" d="M523.5,112.5C531.5,112.5,531.5,195.5,539.5,195.5"></path><path id="kity_path_47" fill="none" stroke="rgb(115, 161, 191)" stroke-width="1" d="M392.5,180.5C400.5,180,400.5,221.5,408.5,221.5"></path><path id="kity_path_49" fill="none" stroke="rgb(115, 161, 191)" stroke-width="1" d="M392.5,180.5C400.5,180,400.5,247.5,408.5,247.5"></path><path id="kity_path_51" fill="none" stroke="rgb(115, 161, 191)" stroke-width="1" d="M96.5,287.5A92,118,0,0,0,188.5,405.5"></path><path id="kity_path_53" fill="none" stroke="rgb(115, 161, 191)" stroke-width="1" d="M371.5,405.5C379.5,405.5,379.5,308.5,387.5,308.5"></path><path id="kity_path_55" fill="none" stroke="rgb(115, 161, 191)" stroke-width="1" d="M478.5,308.5C486.5,308.5,486.5,282.5,494.5,282.5"></path><path id="kity_path_57" fill="none" stroke="rgb(115, 161, 191)" stroke-width="1" d="M478.5,308.5C486.5,308.5,486.5,308.5,494.5,308.5"></path><path id="kity_path_59" fill="none" stroke="rgb(115, 161, 191)" stroke-width="1" d="M478.5,308.5C486.5,308.5,486.5,334.5,494.5,334.5"></path><path id="kity_path_61" fill="none" stroke="rgb(115, 161, 191)" stroke-width="1" d="M371.5,405.5C379.5,405.5,379.5,386.5,387.5,386.5"></path><path id="kity_path_63" fill="none" stroke="rgb(115, 161, 191)" stroke-width="1" d="M562.5,386.5C570.5,386.5,570.5,360.5,578.5,360.5"></path><path id="kity_path_65" fill="none" stroke="rgb(115, 161, 191)" stroke-width="1" d="M562.5,386.5C570.5,386.5,570.5,386.5,578.5,386.5"></path><path id="kity_path_67" fill="none" stroke="rgb(115, 161, 191)" stroke-width="1" d="M562.5,386.5C570.5,386.5,570.5,412.5,578.5,412.5"></path><path id="kity_path_69" fill="none" stroke="rgb(115, 161, 191)" stroke-width="1" d="M371.5,405.5C379.5,405.5,379.5,451.5,387.5,451.5"></path><path id="kity_path_71" fill="none" stroke="rgb(115, 161, 191)" stroke-width="1" d="M592.5,451.5C600.5,451.5,600.5,438.5,608.5,438.5"></path><path id="kity_path_73" fill="none" stroke="rgb(115, 161, 191)" stroke-width="1" d="M592.5,451.5C600.5,451.5,600.5,464.5,608.5,464.5"></path><path id="kity_path_75" fill="none" stroke="rgb(115, 161, 191)" stroke-width="1" d="M371.5,405.5C379.5,405.5,379.5,503.5,387.5,503.5"></path><path id="kity_path_77" fill="none" stroke="rgb(115, 161, 191)" stroke-width="1" d="M527.5,503.5C535.5,503.5,535.5,490.5,543.5,490.5"></path><path id="kity_path_79" fill="none" stroke="rgb(115, 161, 191)" stroke-width="1" d="M527.5,503.5C535.5,503.5,535.5,516.5,543.5,516.5"></path></g><g id="minder_node1"><path id="kity_path_235" fill="rgba(0, 0, 0, .25)" stroke="none" d="M33.5,270.5h198a22,22,0,0,1,22,22v0a22,22,0,0,1,-22,22h-198a22,22,0,0,1,-22,-22v0a22,22,0,0,1,22,-22z" display="none"></path><path id="node_outline1" fill="rgb(115, 161, 191)" stroke="rgb(57, 80, 96)" d="M25.5,273.5h142a5,5,0,0,1,5,5v18a5,5,0,0,1,-5,5h-142a5,5,0,0,1,-5,-5v-18a5,5,0,0,1,5,-5z" stroke-width="3"></path><g id="node_text1" fill="white"><text id="kity_text_22" text-rendering="inherit" font-size="16" dy=".8em" y="277.09999990463257" x="32.5">7 Classification II</text></g></g><g id="kity_g_12"><path id="kity_path_13" fill="none" stroke="none" d="M32.5,287.5h0v0h0z"></path></g><g id="kity_g_14"><path id="kity_path_15" fill="none" stroke="none" d="M32.5,287.5h0v0h0z"></path><path id="kity_path_16" fill="none" stroke="none"></path></g><g id="minder_node2"><path id="kity_path_233" fill="rgba(0, 0, 0, .25)" stroke="none" d="M209.50000530481339,159.49999678134918h195a10,10,0,0,1,10,10v30a10,10,0,0,1,-10,10h-195a10,10,0,0,1,-10,-10v-30a10,10,0,0,1,10,-10z" display="none"></path><g id="node_expander10" style="cursor: pointer;"><path id="kity_path_186" fill="white" stroke="gray" d="M189.50000530481339,179.99999678134918A6,6,0,1,1,177.50000530481339,179.99999678134918A6,6,0,1,1,189.50000530481339,179.99999678134918"></path><path id="kity_path_187" fill="none" stroke="gray" d="M179.00000530481339,179.99999678134918L188.00000530481339,179.99999678134918"></path></g><path id="node_outline11" fill="rgb(238, 243, 246)" stroke="rgb(115, 161, 191)" d="M193.50000530481339,156.49999678134918h196a3,3,0,0,1,3,3v41a3,3,0,0,1,-3,3h-196a3,3,0,0,1,-3,-3v-41a3,3,0,0,1,3,-3z" stroke-width="1"></path><g id="node_text11" fill="black"><text id="kity_text_101" text-rendering="inherit" font-size="14" dy=".8em" y="159.8999968767166" x="210.50000530481339">&#xa0;Landcover classification </text><text id="kity_text_102" text-rendering="inherit" font-size="14" dy=".8em" y="180.8999968767166" x="210.50000530481339">(contiuned)</text></g></g><g id="minder_node3"><g id="node_expander7" style="cursor: pointer;"><path id="kity_path_177" fill="white" stroke="gray" d="M408.50001135468483,112.49999478459361A6,6,0,1,1,396.50001135468483,112.49999478459361A6,6,0,1,1,408.50001135468483,112.49999478459361"></path><path id="kity_path_178" fill="none" stroke="gray" d="M398.00001135468483,112.49999478459361L407.00001135468483,112.49999478459361"></path></g><path id="node_outline8" fill="none" stroke="none" d="M413.50001135468483,103.49999478459361h105a5,5,0,0,1,5,5v8a5,5,0,0,1,-5,5h-105a5,5,0,0,1,-5,-5v-8a5,5,0,0,1,5,-5z"></path><g id="node_text8" fill="black"><text id="kity_text_95" text-rendering="inherit" font-size="12" dy=".8em" y="104.69999483227733" x="413.50001135468483">Pre-classified data</text></g></g><g id="minder_node4"><g id="node_expander1" style="cursor: pointer;" display="none"><path id="kity_path_159" fill="white" stroke="gray" d="M539.5000152587891,29.499992311000824A6,6,0,1,1,527.5000152587891,29.499992311000824A6,6,0,1,1,539.5000152587891,29.499992311000824"></path><path id="kity_path_160" fill="none" stroke="gray"></path></g><path id="node_outline2" fill="none" stroke="none" d="M544.5000152587891,20.499992311000824h260a5,5,0,0,1,5,5v8a5,5,0,0,1,-5,5h-260a5,5,0,0,1,-5,-5v-8a5,5,0,0,1,5,-5z"></path><g id="node_text2" fill="black"><text id="kity_text_81" text-rendering="inherit" font-size="12" dy=".8em" y="21.69999235868454" x="544.5000152587891">GlobeLand30 - 30m for 2000, 2010 and 2020:</text></g></g><g id="minder_node5"><g id="node_expander2" style="cursor: pointer;" display="none"><path id="kity_path_162" fill="white" stroke="gray" d="M539.5000152587891,73.49999362230301A6,6,0,1,1,527.5000152587891,73.49999362230301A6,6,0,1,1,539.5000152587891,73.49999362230301"></path><path id="kity_path_163" fill="none" stroke="gray"></path></g><path id="node_outline3" fill="none" stroke="none" d="M544.5000152587891,46.49999362230301h283a5,5,0,0,1,5,5v44a5,5,0,0,1,-5,5h-283a5,5,0,0,1,-5,-5v-44a5,5,0,0,1,5,-5z"></path><g id="node_text3" fill="black"><text id="kity_text_83" text-rendering="inherit" font-size="12" dy=".8em" y="47.699993669986725" x="544.5000152587891">European Space Agency’s (ESA) Climate Change</text><text id="kity_text_84" text-rendering="inherit" font-size="12" dy=".8em" y="65.69999366998672" x="544.5000152587891">&#xa0;Initiative (CCI) annual global land cover (300 m)</text><text id="kity_text_85" text-rendering="inherit" font-size="12" dy=".8em" y="83.69999366998672" x="544.5000152587891">&#xa0;(1992-2015</text></g></g><g id="minder_node6"><g id="node_expander3" style="cursor: pointer;" display="none"><path id="kity_path_165" fill="white" stroke="gray" d="M539.5000152587891,117.49999493360522A6,6,0,1,1,527.5000152587891,117.49999493360522A6,6,0,1,1,539.5000152587891,117.49999493360522"></path><path id="kity_path_166" fill="none" stroke="gray"></path></g><path id="node_outline4" fill="none" stroke="none" d="M544.5000152587891,108.49999493360522h209a5,5,0,0,1,5,5v8a5,5,0,0,1,-5,5h-209a5,5,0,0,1,-5,-5v-8a5,5,0,0,1,5,-5z"></path><g id="node_text4" fill="black"><text id="kity_text_87" text-rendering="inherit" font-size="12" dy=".8em" y="109.69999498128894" x="544.5000152587891">Dynamic World - near real time 10m</text></g></g><g id="minder_node7"><g id="node_expander4" style="cursor: pointer;" display="none"><path id="kity_path_168" fill="white" stroke="gray" d="M539.5000152587891,143.49999570846558A6,6,0,1,1,527.5000152587891,143.49999570846558A6,6,0,1,1,539.5000152587891,143.49999570846558"></path><path id="kity_path_169" fill="none" stroke="gray"></path></g><path id="node_outline5" fill="none" stroke="none" d="M544.5000152587891,134.49999570846558h34a5,5,0,0,1,5,5v8a5,5,0,0,1,-5,5h-34a5,5,0,0,1,-5,-5v-8a5,5,0,0,1,5,-5z"></path><g id="node_text5" fill="black"><text id="kity_text_89" text-rendering="inherit" font-size="12" dy=".8em" y="135.6999957561493" x="544.5000152587891">MODI</text></g></g><g id="minder_node8"><g id="node_expander5" style="cursor: pointer;" display="none"><path id="kity_path_171" fill="white" stroke="gray" d="M539.5000152587891,169.49999648332596A6,6,0,1,1,527.5000152587891,169.49999648332596A6,6,0,1,1,539.5000152587891,169.49999648332596"></path><path id="kity_path_172" fill="none" stroke="gray"></path></g><path id="node_outline6" fill="none" stroke="none" d="M544.5000152587891,160.49999648332596h122a5,5,0,0,1,5,5v8a5,5,0,0,1,-5,5h-122a5,5,0,0,1,-5,-5v-8a5,5,0,0,1,5,-5z"></path><g id="node_text6" fill="black"><text id="kity_text_91" text-rendering="inherit" font-size="12" dy=".8em" y="161.69999653100967" x="544.5000152587891">Google building data</text></g></g><g id="minder_node9"><g id="node_expander6" style="cursor: pointer;" display="none"><path id="kity_path_174" fill="white" stroke="gray" d="M539.5000152587891,195.49999725818634A6,6,0,1,1,527.5000152587891,195.49999725818634A6,6,0,1,1,539.5000152587891,195.49999725818634"></path><path id="kity_path_175" fill="none" stroke="gray"></path></g><path id="node_outline7" fill="none" stroke="none" d="M544.5000152587891,186.49999725818634h17a5,5,0,0,1,5,5v8a5,5,0,0,1,-5,5h-17a5,5,0,0,1,-5,-5v-8a5,5,0,0,1,5,-5z"></path><g id="node_text7" fill="black"><text id="kity_text_93" text-rendering="inherit" font-size="12" dy=".8em" y="187.69999730587006" x="544.5000152587891">......</text></g></g><g id="minder_node10"><g id="node_expander8" style="cursor: pointer;" display="none"><path id="kity_path_180" fill="white" stroke="gray" d="M408.50001135468483,221.49999803304672A6,6,0,1,1,396.50001135468483,221.49999803304672A6,6,0,1,1,408.50001135468483,221.49999803304672"></path><path id="kity_path_181" fill="none" stroke="gray"></path></g><path id="node_outline9" fill="none" stroke="none" d="M413.50001135468483,212.49999803304672h204a5,5,0,0,1,5,5v8a5,5,0,0,1,-5,5h-204a5,5,0,0,1,-5,-5v-8a5,5,0,0,1,5,-5z"></path><g id="node_text9" fill="black"><text id="kity_text_97" text-rendering="inherit" font-size="12" dy=".8em" y="213.69999808073044" x="413.50001135468483">Object based image analysis (OBIA)</text></g></g><g id="minder_node11"><g id="node_expander9" style="cursor: pointer;" display="none"><path id="kity_path_183" fill="white" stroke="gray" d="M408.50001135468483,247.4999988079071A6,6,0,1,1,396.50001135468483,247.4999988079071A6,6,0,1,1,408.50001135468483,247.4999988079071"></path><path id="kity_path_184" fill="none" stroke="gray"></path></g><path id="node_outline10" fill="none" stroke="none" d="M413.50001135468483,238.4999988079071h100a5,5,0,0,1,5,5v8a5,5,0,0,1,-5,5h-100a5,5,0,0,1,-5,-5v-8a5,5,0,0,1,5,-5z"></path><g id="node_text10" fill="black"><text id="kity_text_99" text-rendering="inherit" font-size="12" dy=".8em" y="239.69999885559082" x="413.50001135468483">Sub pixel analysis</text></g></g><g id="minder_node12"><path id="kity_path_234" fill="rgba(0, 0, 0, .25)" stroke="none" d="M209.50000530481339,397.50000351667404h171a10,10,0,0,1,10,10v6a10,10,0,0,1,-10,10h-171a10,10,0,0,1,-10,-10v-6a10,10,0,0,1,10,-10z" display="none"></path><g id="node_expander25" style="cursor: pointer;"><path id="kity_path_231" fill="white" stroke="gray" d="M189.50000530481339,405.50000351667404A6,6,0,1,1,177.50000530481339,405.50000351667404A6,6,0,1,1,189.50000530481339,405.50000351667404"></path><path id="kity_path_232" fill="none" stroke="gray" d="M179.00000530481339,405.50000351667404L188.00000530481339,405.50000351667404"></path></g><path id="node_outline26" fill="rgb(238, 243, 246)" stroke="rgb(115, 161, 191)" d="M193.50000530481339,392.50000351667404h175a3,3,0,0,1,3,3v20a3,3,0,0,1,-3,3h-175a3,3,0,0,1,-3,-3v-20a3,3,0,0,1,3,-3z" stroke-width="1"></path><g id="node_text26" fill="black"><text id="kity_text_132" text-rendering="inherit" font-size="14" dy=".8em" y="396.4000036120415" x="210.50000530481339">Accuracy assessment</text></g></g><g id="minder_node13"><g id="node_expander14" style="cursor: pointer;"><path id="kity_path_198" fill="white" stroke="gray" d="M387.50001072883606,308.50000062584877A6,6,0,1,1,375.50001072883606,308.50000062584877A6,6,0,1,1,387.50001072883606,308.50000062584877"></path><path id="kity_path_199" fill="none" stroke="gray" d="M377.00001072883606,308.50000062584877L386.00001072883606,308.50000062584877"></path></g><path id="node_outline15" fill="none" stroke="none" d="M392.50001072883606,299.50000062584877h81a5,5,0,0,1,5,5v8a5,5,0,0,1,-5,5h-81a5,5,0,0,1,-5,-5v-8a5,5,0,0,1,5,-5z"></path><g id="node_text15" fill="black"><text id="kity_text_110" text-rendering="inherit" font-size="12" dy=".8em" y="300.7000006735325" x="392.50001072883606">Accuracy type</text></g></g><g id="minder_node14"><g id="node_expander11" style="cursor: pointer;" display="none"><path id="kity_path_189" fill="white" stroke="gray" d="M494.50001391768456,282.4999998509884A6,6,0,1,1,482.50001391768456,282.4999998509884A6,6,0,1,1,494.50001391768456,282.4999998509884"></path><path id="kity_path_190" fill="none" stroke="gray"></path></g><path id="node_outline12" fill="none" stroke="none" d="M499.50001391768456,273.4999998509884h123a5,5,0,0,1,5,5v8a5,5,0,0,1,-5,5h-123a5,5,0,0,1,-5,-5v-8a5,5,0,0,1,5,-5z"></path><g id="node_text12" fill="black"><text id="kity_text_104" text-rendering="inherit" font-size="12" dy=".8em" y="274.6999998986721" x="499.50001391768456">producer’s accuracy</text></g></g><g id="minder_node15"><g id="node_expander12" style="cursor: pointer;" display="none"><path id="kity_path_192" fill="white" stroke="gray" d="M494.50001391768456,308.50000062584877A6,6,0,1,1,482.50001391768456,308.50000062584877A6,6,0,1,1,494.50001391768456,308.50000062584877"></path><path id="kity_path_193" fill="none" stroke="gray"></path></g><path id="node_outline13" fill="none" stroke="none" d="M499.50001391768456,299.50000062584877h95a5,5,0,0,1,5,5v8a5,5,0,0,1,-5,5h-95a5,5,0,0,1,-5,-5v-8a5,5,0,0,1,5,-5z"></path><g id="node_text13" fill="black"><text id="kity_text_106" text-rendering="inherit" font-size="12" dy=".8em" y="300.7000006735325" x="499.50001391768456">user’s accuracy</text></g></g><g id="minder_node16"><g id="node_expander13" style="cursor: pointer;" display="none"><path id="kity_path_195" fill="white" stroke="gray" d="M494.50001391768456,334.50000140070915A6,6,0,1,1,482.50001391768456,334.50000140070915A6,6,0,1,1,494.50001391768456,334.50000140070915"></path><path id="kity_path_196" fill="none" stroke="gray"></path></g><path id="node_outline14" fill="none" stroke="none" d="M499.50001391768456,325.50000140070915h92a5,5,0,0,1,5,5v8a5,5,0,0,1,-5,5h-92a5,5,0,0,1,-5,-5v-8a5,5,0,0,1,5,-5z"></path><g id="node_text14" fill="black"><text id="kity_text_108" text-rendering="inherit" font-size="12" dy=".8em" y="326.70000144839287" x="499.50001391768456">overall accuracy</text></g></g><g id="minder_node17"><g id="node_expander18" style="cursor: pointer;"><path id="kity_path_210" fill="white" stroke="gray" d="M387.50001072883606,386.5000029504299A6,6,0,1,1,375.50001072883606,386.5000029504299A6,6,0,1,1,387.50001072883606,386.5000029504299"></path><path id="kity_path_211" fill="none" stroke="gray" d="M377.00001072883606,386.5000029504299L386.00001072883606,386.5000029504299"></path></g><path id="node_outline19" fill="none" stroke="none" d="M392.50001072883606,377.5000029504299h165a5,5,0,0,1,5,5v8a5,5,0,0,1,-5,5h-165a5,5,0,0,1,-5,-5v-8a5,5,0,0,1,5,-5z"></path><g id="node_text19" fill="black"><text id="kity_text_118" text-rendering="inherit" font-size="12" dy=".8em" y="378.70000299811363" x="392.50001072883606"> Data use assess the accuracy</text></g></g><g id="minder_node18"><g id="node_expander15" style="cursor: pointer;" display="none"><path id="kity_path_201" fill="white" stroke="gray" d="M578.5000164210796,360.50000217556953A6,6,0,1,1,566.5000164210796,360.50000217556953A6,6,0,1,1,578.5000164210796,360.50000217556953"></path><path id="kity_path_202" fill="none" stroke="gray"></path></g><path id="node_outline16" fill="none" stroke="none" d="M583.5000164210796,351.50000217556953h205a5,5,0,0,1,5,5v8a5,5,0,0,1,-5,5h-205a5,5,0,0,1,-5,-5v-8a5,5,0,0,1,5,-5z"></path><g id="node_text16" fill="black"><text id="kity_text_112" text-rendering="inherit" font-size="12" dy=".8em" y="352.70000222325325" x="583.5000164210796">New dataset to test the output with</text></g></g><g id="minder_node19"><g id="node_expander16" style="cursor: pointer;" display="none"><path id="kity_path_204" fill="white" stroke="gray" d="M578.5000164210796,386.5000029504299A6,6,0,1,1,566.5000164210796,386.5000029504299A6,6,0,1,1,578.5000164210796,386.5000029504299"></path><path id="kity_path_205" fill="none" stroke="gray"></path></g><path id="node_outline17" fill="none" stroke="none" d="M583.5000164210796,377.5000029504299h163a5,5,0,0,1,5,5v8a5,5,0,0,1,-5,5h-163a5,5,0,0,1,-5,-5v-8a5,5,0,0,1,5,-5z"></path><g id="node_text17" fill="black"><text id="kity_text_114" text-rendering="inherit" font-size="12" dy=".8em" y="378.70000299811363" x="583.5000164210796">Train / split the training data</text></g></g><g id="minder_node20"><g id="node_expander17" style="cursor: pointer;" display="none"><path id="kity_path_207" fill="white" stroke="gray" d="M578.5000164210796,412.5000037252903A6,6,0,1,1,566.5000164210796,412.5000037252903A6,6,0,1,1,578.5000164210796,412.5000037252903"></path><path id="kity_path_208" fill="none" stroke="gray"></path></g><path id="node_outline18" fill="none" stroke="none" d="M583.5000164210796,403.5000037252903h91a5,5,0,0,1,5,5v8a5,5,0,0,1,-5,5h-91a5,5,0,0,1,-5,-5v-8a5,5,0,0,1,5,-5z"></path><g id="node_text18" fill="black"><text id="kity_text_116" text-rendering="inherit" font-size="12" dy=".8em" y="404.700003772974" x="583.5000164210796">Cross validation</text></g></g><g id="minder_node21"><g id="node_expander21" style="cursor: pointer;"><path id="kity_path_219" fill="white" stroke="gray" d="M387.50001072883606,451.5000048875809A6,6,0,1,1,375.50001072883606,451.5000048875809A6,6,0,1,1,387.50001072883606,451.5000048875809"></path><path id="kity_path_220" fill="none" stroke="gray" d="M377.00001072883606,451.5000048875809L386.00001072883606,451.5000048875809"></path></g><path id="node_outline22" fill="none" stroke="none" d="M392.50001072883606,442.5000048875809h195a5,5,0,0,1,5,5v8a5,5,0,0,1,-5,5h-195a5,5,0,0,1,-5,-5v-8a5,5,0,0,1,5,-5z"></path><g id="node_text22" fill="black"><text id="kity_text_124" text-rendering="inherit" font-size="12" dy=".8em" y="443.7000049352646" x="392.50001072883606"> Approach use assess the accuracy</text></g></g><g id="minder_node22"><g id="node_expander19" style="cursor: pointer;" display="none"><path id="kity_path_213" fill="white" stroke="gray" d="M608.5000173151493,438.5000045001507A6,6,0,1,1,596.5000173151493,438.5000045001507A6,6,0,1,1,608.5000173151493,438.5000045001507"></path><path id="kity_path_214" fill="none" stroke="gray"></path></g><path id="node_outline20" fill="none" stroke="none" d="M613.5000173151493,429.5000045001507h68a5,5,0,0,1,5,5v8a5,5,0,0,1,-5,5h-68a5,5,0,0,1,-5,-5v-8a5,5,0,0,1,5,-5z"></path><g id="node_text20" fill="black"><text id="kity_text_120" text-rendering="inherit" font-size="12" dy=".8em" y="430.7000045478344" x="613.5000173151493">Error matrix</text></g></g><g id="minder_node23"><g id="node_expander20" style="cursor: pointer;" display="none"><path id="kity_path_216" fill="white" stroke="gray" d="M608.5000173151493,464.50000527501106A6,6,0,1,1,596.5000173151493,464.50000527501106A6,6,0,1,1,608.5000173151493,464.50000527501106"></path><path id="kity_path_217" fill="none" stroke="gray"></path></g><path id="node_outline21" fill="none" stroke="none" d="M613.5000173151493,455.50000527501106h36a5,5,0,0,1,5,5v8a5,5,0,0,1,-5,5h-36a5,5,0,0,1,-5,-5v-8a5,5,0,0,1,5,-5z"></path><g id="node_text21" fill="black"><text id="kity_text_122" text-rendering="inherit" font-size="12" dy=".8em" y="456.7000053226948" x="613.5000173151493">Kappa</text></g></g><g id="minder_node24"><g id="node_expander24" style="cursor: pointer;"><path id="kity_path_228" fill="white" stroke="gray" d="M387.50001072883606,503.50000643730164A6,6,0,1,1,375.50001072883606,503.50000643730164A6,6,0,1,1,387.50001072883606,503.50000643730164"></path><path id="kity_path_229" fill="none" stroke="gray" d="M377.00001072883606,503.50000643730164L386.00001072883606,503.50000643730164"></path></g><path id="node_outline25" fill="none" stroke="none" d="M392.50001072883606,494.50000643730164h130a5,5,0,0,1,5,5v8a5,5,0,0,1,-5,5h-130a5,5,0,0,1,-5,-5v-8a5,5,0,0,1,5,-5z"></path><g id="node_text25" fill="black"><text id="kity_text_130" text-rendering="inherit" font-size="12" dy=".8em" y="495.70000648498535" x="392.50001072883606">Spatial autocorrelation</text></g></g><g id="minder_node25"><g id="node_expander22" style="cursor: pointer;" display="none"><path id="kity_path_222" fill="white" stroke="gray" d="M543.5000153779984,490.50000604987144A6,6,0,1,1,531.5000153779984,490.50000604987144A6,6,0,1,1,543.5000153779984,490.50000604987144"></path><path id="kity_path_223" fill="none" stroke="gray"></path></g><path id="node_outline23" fill="none" stroke="none" d="M548.5000153779984,481.50000604987144h163a5,5,0,0,1,5,5v8a5,5,0,0,1,-5,5h-163a5,5,0,0,1,-5,-5v-8a5,5,0,0,1,5,-5z"></path><g id="node_text23" fill="black"><text id="kity_text_126" text-rendering="inherit" font-size="12" dy=".8em" y="482.70000609755516" x="548.5000153779984">Object based image analysis</text></g></g><g id="minder_node26"><g id="node_expander23" style="cursor: pointer;" display="none"><path id="kity_path_225" fill="white" stroke="gray" d="M543.5000153779984,516.5000068247318A6,6,0,1,1,531.5000153779984,516.5000068247318A6,6,0,1,1,543.5000153779984,516.5000068247318"></path><path id="kity_path_226" fill="none" stroke="gray"></path></g><path id="node_outline24" fill="none" stroke="none" d="M548.5000153779984,507.5000068247318h131a5,5,0,0,1,5,5v8a5,5,0,0,1,-5,5h-131a5,5,0,0,1,-5,-5v-8a5,5,0,0,1,5,-5z"></path><g id="node_text24" fill="black"><text id="kity_text_128" text-rendering="inherit" font-size="12" dy=".8em" y="508.70000687241554" x="548.5000153779984">Spatial cross validation</text></g></g></g></g></svg>