<svg id="kity_svg_6" xmlns="http://www.w3.org/2000/svg" xmlns:xlink="http://www.w3.org/1999/xlink" version="1.1" width="813" height="659" style="background: rgb(251, 251, 251); visibility: visible;" viewBox="0 0 813 659"><defs id="kity_defs_7"><linearGradient id="kity_linearGradient_17" x1="0" y1="0" x2="0" y2="1"><stop id="kity_stop_18" offset="0" stop-color="rgb(255, 255, 255)"></stop><stop id="kity_stop_19" offset="1" stop-color="rgb(204, 204, 204)"></stop></linearGradient><marker id="kity_marker_2" orient="auto" refX="6" refY="0" viewBox="-7 -7 14 14" markerWidth="7" markerHeight="7" markerUnits="userSpaceOnUse"><path id="kity_path_3" fill="rgb(115, 161, 191)" stroke="none" d="M6,0A6,6,0,1,1,-6,0A6,6,0,1,1,6,0"></path></marker></defs><g id="kity_g_8"><g id="minder1" text-rendering="optimize-speed"><g id="minder_connect_group1"><path id="kity_path_31" fill="none" stroke="rgb(115, 161, 191)" stroke-width="1" d="M96.5,309.5A92,197,0,0,1,188.5,112.5"></path><path id="kity_path_33" fill="none" stroke="rgb(115, 161, 191)" stroke-width="1" d="M352.5,112.5C360.5,112.5,360.5,29.5,368.5,29.5"></path><path id="kity_path_35" fill="none" stroke="rgb(115, 161, 191)" stroke-width="1" d="M352.5,112.5C360.5,112.5,360.5,73.5,368.5,73.5"></path><path id="kity_path_37" fill="none" stroke="rgb(115, 161, 191)" stroke-width="1" d="M352.5,112.5C360.5,112.5,360.5,117.5,368.5,117.5"></path><path id="kity_path_39" fill="none" stroke="rgb(115, 161, 191)" stroke-width="1" d="M352.5,112.5C360.5,112.5,360.5,143.5,368.5,143.5"></path><path id="kity_path_41" fill="none" stroke="rgb(115, 161, 191)" stroke-width="1" d="M352.5,112.5C360.5,112.5,360.5,169.5,368.5,169.5"></path><path id="kity_path_43" fill="none" stroke="rgb(115, 161, 191)" stroke-width="1" d="M352.5,112.5C360.5,112.5,360.5,195.5,368.5,195.5"></path><path id="kity_path_45" fill="none" stroke="rgb(115, 161, 191)" stroke-width="1" d="M96.5,309.5A92,65.5,0,0,1,188.5,244"></path><path id="kity_path_47" fill="none" stroke="rgb(115, 161, 191)" stroke-width="1" d="M392.5,244.5C400.5,244,400.5,231.5,408.5,231.5"></path><path id="kity_path_49" fill="none" stroke="rgb(115, 161, 191)" stroke-width="1" d="M392.5,244.5C400.5,244,400.5,257.5,408.5,257.5"></path><path id="kity_path_51" fill="none" stroke="rgb(115, 161, 191)" stroke-width="1" d="M96.5,309.5A92,197,0,0,0,188.5,506.5"></path><path id="kity_path_53" fill="none" stroke="rgb(115, 161, 191)" stroke-width="1" d="M371.5,506.5C379.5,506.5,379.5,396.5,387.5,396.5"></path><path id="kity_path_55" fill="none" stroke="rgb(115, 161, 191)" stroke-width="1" d="M453.5,396.5C461.5,396.5,461.5,318.5,469.5,318.5"></path><path id="kity_path_57" fill="none" stroke="rgb(115, 161, 191)" stroke-width="1" d="M453.5,396.5C461.5,396.5,461.5,344.5,469.5,344.5"></path><path id="kity_path_59" fill="none" stroke="rgb(115, 161, 191)" stroke-width="1" d="M453.5,396.5C461.5,396.5,461.5,370.5,469.5,370.5"></path><path id="kity_path_61" fill="none" stroke="rgb(115, 161, 191)" stroke-width="1" d="M371.5,506.5C379.5,506.5,379.5,552.5,387.5,552.5"></path><path id="kity_path_63" fill="none" stroke="rgb(115, 161, 191)" stroke-width="1" d="M562.5,552.5C570.5,552.5,570.5,526.5,578.5,526.5"></path><path id="kity_path_65" fill="none" stroke="rgb(115, 161, 191)" stroke-width="1" d="M562.5,552.5C570.5,552.5,570.5,552.5,578.5,552.5"></path><path id="kity_path_67" fill="none" stroke="rgb(115, 161, 191)" stroke-width="1" d="M562.5,552.5C570.5,552.5,570.5,578.5,578.5,578.5"></path><path id="kity_path_75" fill="none" stroke="rgb(115, 161, 191)" stroke-width="1" d="M371.5,506.5C379.5,506.5,379.5,617.5,387.5,617.5"></path><path id="kity_path_77" fill="none" stroke="rgb(115, 161, 191)" stroke-width="1" d="M527.5,617.5C535.5,617.5,535.5,604.5,543.5,604.5"></path><path id="kity_path_79" fill="none" stroke="rgb(115, 161, 191)" stroke-width="1" d="M527.5,617.5C535.5,617.5,535.5,630.5,543.5,630.5"></path><path id="kity_path_234" fill="none" stroke="rgb(115, 161, 191)" stroke-width="1" d="M453.5,396.5C461.5,396.5,461.5,292.5,469.5,292.5"></path><path id="kity_path_258" fill="none" stroke="rgb(115, 161, 191)" stroke-width="1" d="M453.5,396.5C461.5,396.5,461.5,396.5,469.5,396.5"></path><path id="kity_path_266" fill="none" stroke="rgb(115, 161, 191)" stroke-width="1" d="M453.5,396.5C461.5,396.5,461.5,422.5,469.5,422.5"></path><path id="kity_path_274" fill="none" stroke="rgb(115, 161, 191)" stroke-width="1" d="M453.5,396.5C461.5,396.5,461.5,448.5,469.5,448.5"></path><path id="kity_path_282" fill="none" stroke="rgb(115, 161, 191)" stroke-width="1" d="M453.5,396.5C461.5,396.5,461.5,474.5,469.5,474.5"></path><path id="kity_path_290" fill="none" stroke="rgb(115, 161, 191)" stroke-width="1" d="M453.5,396.5C461.5,396.5,461.5,500.5,469.5,500.5"></path></g><g id="minder_node1"><path id="node_outline1" fill="rgb(115, 161, 191)" stroke="rgb(115, 161, 191)" d="M25.5,295.5h142a5,5,0,0,1,5,5v18a5,5,0,0,1,-5,5h-142a5,5,0,0,1,-5,-5v-18a5,5,0,0,1,5,-5z" stroke-width="3"></path><g id="node_text1" fill="white"><text id="kity_text_22" text-rendering="inherit" font-size="16" dy=".8em" y="299.09999990463257" x="32.5">7 Classification II</text></g></g><g id="kity_g_14" display="none"><path id="kity_path_15" fill="rgba(0, 92, 153, 0.5)" stroke="none" d="M468.5,454.5h114v4h-114z"></path><path id="kity_path_16" fill="none" stroke="rgb(0, 76, 128)" d="M468.5,454.5L582.5,454.5" stroke-width="1"></path></g><g id="minder_node2"><g id="node_expander7" style="cursor: pointer;"><path id="kity_path_177" fill="white" stroke="gray" d="M189.50000530481339,112.49999412894249A6,6,0,1,1,177.50000530481339,112.49999412894249A6,6,0,1,1,189.50000530481339,112.49999412894249"></path><path id="kity_path_178" fill="none" stroke="gray" d="M179.00000530481339,112.49999412894249L188.00000530481339,112.49999412894249"></path></g><path id="node_outline8" fill="rgb(238, 243, 246)" stroke="rgb(115, 161, 191)" d="M193.50000530481339,99.49999412894249h156a3,3,0,0,1,3,3v20a3,3,0,0,1,-3,3h-156a3,3,0,0,1,-3,-3v-20a3,3,0,0,1,3,-3z" stroke-width="1"></path><g id="node_text8" fill="black"><text id="kity_text_95" text-rendering="inherit" font-size="14" dy=".8em" y="103.39999422430992" x="210.50000530481339">Pre-classified data</text></g></g><g id="minder_node3"><g id="node_expander1" style="cursor: pointer;" display="none"><path id="kity_path_159" fill="white" stroke="gray" d="M368.50001016259193,29.49999165534973A6,6,0,1,1,356.50001016259193,29.49999165534973A6,6,0,1,1,368.50001016259193,29.49999165534973"></path><path id="kity_path_160" fill="none" stroke="gray"></path></g><path id="node_outline2" fill="none" stroke="none" d="M373.50001016259193,20.49999165534973h260a5,5,0,0,1,5,5v8a5,5,0,0,1,-5,5h-260a5,5,0,0,1,-5,-5v-8a5,5,0,0,1,5,-5z"></path><g id="node_text2" fill="black"><text id="kity_text_81" text-rendering="inherit" font-size="12" dy=".8em" y="21.699991703033447" x="373.50001016259193">GlobeLand30 - 30m for 2000, 2010 and 2020:</text></g></g><g id="minder_node4"><g id="node_expander2" style="cursor: pointer;" display="none"><path id="kity_path_162" fill="white" stroke="gray" d="M368.50001016259193,73.49999296665194A6,6,0,1,1,356.50001016259193,73.49999296665194A6,6,0,1,1,368.50001016259193,73.49999296665194"></path><path id="kity_path_163" fill="none" stroke="gray"></path></g><path id="node_outline3" fill="none" stroke="none" d="M373.50001016259193,46.499992966651945h283a5,5,0,0,1,5,5v44a5,5,0,0,1,-5,5h-283a5,5,0,0,1,-5,-5v-44a5,5,0,0,1,5,-5z"></path><g id="node_text3" fill="black"><text id="kity_text_83" text-rendering="inherit" font-size="12" dy=".8em" y="47.69999301433566" x="373.50001016259193">European Space Agency’s (ESA) Climate Change</text><text id="kity_text_84" text-rendering="inherit" font-size="12" dy=".8em" y="65.69999301433566" x="373.50001016259193">&#xa0;Initiative (CCI) annual global land cover (300 m)</text><text id="kity_text_85" text-rendering="inherit" font-size="12" dy=".8em" y="83.69999301433566" x="373.50001016259193">&#xa0;(1992-2015</text></g></g><g id="minder_node5"><g id="node_expander3" style="cursor: pointer;" display="none"><path id="kity_path_165" fill="white" stroke="gray" d="M368.50001016259193,117.4999942779541A6,6,0,1,1,356.50001016259193,117.4999942779541A6,6,0,1,1,368.50001016259193,117.4999942779541"></path><path id="kity_path_166" fill="none" stroke="gray"></path></g><path id="node_outline4" fill="none" stroke="none" d="M373.50001016259193,108.4999942779541h209a5,5,0,0,1,5,5v8a5,5,0,0,1,-5,5h-209a5,5,0,0,1,-5,-5v-8a5,5,0,0,1,5,-5z"></path><g id="node_text4" fill="black"><text id="kity_text_87" text-rendering="inherit" font-size="12" dy=".8em" y="109.69999432563782" x="373.50001016259193">Dynamic World - near real time 10m</text></g></g><g id="minder_node6"><g id="node_expander4" style="cursor: pointer;" display="none"><path id="kity_path_168" fill="white" stroke="gray" d="M368.50001016259193,143.49999505281448A6,6,0,1,1,356.50001016259193,143.49999505281448A6,6,0,1,1,368.50001016259193,143.49999505281448"></path><path id="kity_path_169" fill="none" stroke="gray"></path></g><path id="node_outline5" fill="none" stroke="none" d="M373.50001016259193,134.49999505281448h34a5,5,0,0,1,5,5v8a5,5,0,0,1,-5,5h-34a5,5,0,0,1,-5,-5v-8a5,5,0,0,1,5,-5z"></path><g id="node_text5" fill="black"><text id="kity_text_89" text-rendering="inherit" font-size="12" dy=".8em" y="135.6999951004982" x="373.50001016259193">MODI</text></g></g><g id="minder_node7"><g id="node_expander5" style="cursor: pointer;" display="none"><path id="kity_path_171" fill="white" stroke="gray" d="M368.50001016259193,169.49999582767487A6,6,0,1,1,356.50001016259193,169.49999582767487A6,6,0,1,1,368.50001016259193,169.49999582767487"></path><path id="kity_path_172" fill="none" stroke="gray"></path></g><path id="node_outline6" fill="none" stroke="none" d="M373.50001016259193,160.49999582767487h122a5,5,0,0,1,5,5v8a5,5,0,0,1,-5,5h-122a5,5,0,0,1,-5,-5v-8a5,5,0,0,1,5,-5z"></path><g id="node_text6" fill="black"><text id="kity_text_91" text-rendering="inherit" font-size="12" dy=".8em" y="161.69999587535858" x="373.50001016259193">Google building data</text></g></g><g id="minder_node8"><g id="node_expander6" style="cursor: pointer;" display="none"><path id="kity_path_174" fill="white" stroke="gray" d="M368.50001016259193,195.49999660253525A6,6,0,1,1,356.50001016259193,195.49999660253525A6,6,0,1,1,368.50001016259193,195.49999660253525"></path><path id="kity_path_175" fill="none" stroke="gray"></path></g><path id="node_outline7" fill="none" stroke="none" d="M373.50001016259193,186.49999660253525h17a5,5,0,0,1,5,5v8a5,5,0,0,1,-5,5h-17a5,5,0,0,1,-5,-5v-8a5,5,0,0,1,5,-5z"></path><g id="node_text7" fill="black"><text id="kity_text_93" text-rendering="inherit" font-size="12" dy=".8em" y="187.69999665021896" x="373.50001016259193">......</text></g></g><g id="minder_node9"><g id="node_expander10" style="cursor: pointer;"><path id="kity_path_186" fill="white" stroke="gray" d="M189.50000530481339,243.99999803304672A6,6,0,1,1,177.50000530481339,243.99999803304672A6,6,0,1,1,189.50000530481339,243.99999803304672"></path><path id="kity_path_187" fill="none" stroke="gray" d="M179.00000530481339,243.99999803304672L188.00000530481339,243.99999803304672"></path></g><path id="node_outline11" fill="rgb(238, 243, 246)" stroke="rgb(115, 161, 191)" d="M193.50000530481339,220.49999803304672h196a3,3,0,0,1,3,3v41a3,3,0,0,1,-3,3h-196a3,3,0,0,1,-3,-3v-41a3,3,0,0,1,3,-3z" stroke-width="1"></path><g id="node_text11" fill="black"><text id="kity_text_101" text-rendering="inherit" font-size="14" dy=".8em" y="223.89999812841415" x="210.50000530481339">&#xa0;Landcover classification </text><text id="kity_text_102" text-rendering="inherit" font-size="14" dy=".8em" y="244.89999812841415" x="210.50000530481339">(contiuned)</text></g></g><g id="minder_node10"><g id="node_expander8" style="cursor: pointer;" display="none"><path id="kity_path_180" fill="white" stroke="gray" d="M408.50001135468483,231.49999767541885A6,6,0,1,1,396.50001135468483,231.49999767541885A6,6,0,1,1,408.50001135468483,231.49999767541885"></path><path id="kity_path_181" fill="none" stroke="gray"></path></g><path id="node_outline9" fill="none" stroke="none" d="M413.50001135468483,222.49999767541885h204a5,5,0,0,1,5,5v8a5,5,0,0,1,-5,5h-204a5,5,0,0,1,-5,-5v-8a5,5,0,0,1,5,-5z"></path><g id="node_text9" fill="black"><text id="kity_text_97" text-rendering="inherit" font-size="12" dy=".8em" y="223.69999772310257" x="413.50001135468483">Object based image analysis (OBIA)</text></g></g><g id="minder_node11"><g id="node_expander9" style="cursor: pointer;" display="none"><path id="kity_path_183" fill="white" stroke="gray" d="M408.50001135468483,257.49999845027924A6,6,0,1,1,396.50001135468483,257.49999845027924A6,6,0,1,1,408.50001135468483,257.49999845027924"></path><path id="kity_path_184" fill="none" stroke="gray"></path></g><path id="node_outline10" fill="none" stroke="none" d="M413.50001135468483,248.49999845027924h100a5,5,0,0,1,5,5v8a5,5,0,0,1,-5,5h-100a5,5,0,0,1,-5,-5v-8a5,5,0,0,1,5,-5z"></path><g id="node_text10" fill="black"><text id="kity_text_99" text-rendering="inherit" font-size="12" dy=".8em" y="249.69999849796295" x="413.50001135468483">Sub pixel analysis</text></g></g><g id="minder_node12"><g id="node_expander25" style="cursor: pointer;"><path id="kity_path_231" fill="white" stroke="gray" d="M189.50000530481339,506.5000058710575A6,6,0,1,1,177.50000530481339,506.5000058710575A6,6,0,1,1,189.50000530481339,506.5000058710575"></path><path id="kity_path_232" fill="none" stroke="gray" d="M179.00000530481339,506.5000058710575L188.00000530481339,506.5000058710575"></path></g><path id="node_outline26" fill="rgb(238, 243, 246)" stroke="rgb(115, 161, 191)" d="M193.50000530481339,493.5000058710575h175a3,3,0,0,1,3,3v20a3,3,0,0,1,-3,3h-175a3,3,0,0,1,-3,-3v-20a3,3,0,0,1,3,-3z" stroke-width="1"></path><g id="node_text26" fill="black"><text id="kity_text_132" text-rendering="inherit" font-size="14" dy=".8em" y="497.40000596642494" x="210.50000530481339">Accuracy assessment</text></g></g><g id="minder_node13"><g id="node_expander14" style="cursor: pointer;"><path id="kity_path_198" fill="white" stroke="gray" d="M387.50001072883606,396.50000259280205A6,6,0,1,1,375.50001072883606,396.50000259280205A6,6,0,1,1,387.50001072883606,396.50000259280205"></path><path id="kity_path_199" fill="none" stroke="gray" d="M377.00001072883606,396.50000259280205L386.00001072883606,396.50000259280205"></path></g><path id="node_outline15" fill="none" stroke="none" d="M392.50001072883606,387.50000259280205h56a5,5,0,0,1,5,5v8a5,5,0,0,1,-5,5h-56a5,5,0,0,1,-5,-5v-8a5,5,0,0,1,5,-5z" stroke-width="3"></path><g id="node_text15" fill="black"><text id="kity_text_110" text-rendering="inherit" font-size="12" dy=".8em" y="388.70000264048576" x="392.50001072883606">Approach</text></g></g><g id="minder_node14"><g id="node_expander11" style="cursor: pointer;" display="none"><path id="kity_path_189" fill="white" stroke="gray" d="M469.5000131726265,318.5000002682209A6,6,0,1,1,457.5000131726265,318.5000002682209A6,6,0,1,1,469.5000131726265,318.5000002682209"></path><path id="kity_path_190" fill="none" stroke="gray"></path></g><path id="node_outline12" fill="none" stroke="none" d="M474.5000131726265,309.5000002682209h123a5,5,0,0,1,5,5v8a5,5,0,0,1,-5,5h-123a5,5,0,0,1,-5,-5v-8a5,5,0,0,1,5,-5z"></path><g id="node_text12" fill="black"><text id="kity_text_104" text-rendering="inherit" font-size="12" dy=".8em" y="310.7000003159046" x="474.5000131726265">producer’s accuracy</text></g></g><g id="minder_node15"><g id="node_expander12" style="cursor: pointer;" display="none"><path id="kity_path_192" fill="white" stroke="gray" d="M469.5000131726265,344.5000010430813A6,6,0,1,1,457.5000131726265,344.5000010430813A6,6,0,1,1,469.5000131726265,344.5000010430813"></path><path id="kity_path_193" fill="none" stroke="gray"></path></g><path id="node_outline13" fill="none" stroke="none" d="M474.5000131726265,335.5000010430813h95a5,5,0,0,1,5,5v8a5,5,0,0,1,-5,5h-95a5,5,0,0,1,-5,-5v-8a5,5,0,0,1,5,-5z"></path><g id="node_text13" fill="black"><text id="kity_text_106" text-rendering="inherit" font-size="12" dy=".8em" y="336.700001090765" x="474.5000131726265">user’s accuracy</text></g></g><g id="minder_node16"><g id="node_expander13" style="cursor: pointer;" display="none"><path id="kity_path_195" fill="white" stroke="gray" d="M469.5000131726265,370.50000181794167A6,6,0,1,1,457.5000131726265,370.50000181794167A6,6,0,1,1,469.5000131726265,370.50000181794167"></path><path id="kity_path_196" fill="none" stroke="gray"></path></g><path id="node_outline14" fill="none" stroke="none" d="M474.5000131726265,361.50000181794167h92a5,5,0,0,1,5,5v8a5,5,0,0,1,-5,5h-92a5,5,0,0,1,-5,-5v-8a5,5,0,0,1,5,-5z"></path><g id="node_text14" fill="black"><text id="kity_text_108" text-rendering="inherit" font-size="12" dy=".8em" y="362.7000018656254" x="474.5000131726265">overall accuracy</text></g></g><g id="minder_node17"><g id="node_expander18" style="cursor: pointer;"><path id="kity_path_210" fill="white" stroke="gray" d="M387.50001072883606,552.5000072419643A6,6,0,1,1,375.50001072883606,552.5000072419643A6,6,0,1,1,387.50001072883606,552.5000072419643"></path><path id="kity_path_211" fill="none" stroke="gray" d="M377.00001072883606,552.5000072419643L386.00001072883606,552.5000072419643"></path></g><path id="node_outline19" fill="none" stroke="none" d="M392.50001072883606,543.5000072419643h165a5,5,0,0,1,5,5v8a5,5,0,0,1,-5,5h-165a5,5,0,0,1,-5,-5v-8a5,5,0,0,1,5,-5z" stroke-width="3"></path><g id="node_text19" fill="black"><text id="kity_text_118" text-rendering="inherit" font-size="12" dy=".8em" y="544.700007289648" x="392.50001072883606"> Data use assess the accuracy</text></g></g><g id="minder_node18"><g id="node_expander15" style="cursor: pointer;" display="none"><path id="kity_path_201" fill="white" stroke="gray" d="M578.5000164210796,526.500006467104A6,6,0,1,1,566.5000164210796,526.500006467104A6,6,0,1,1,578.5000164210796,526.500006467104"></path><path id="kity_path_202" fill="none" stroke="gray"></path></g><path id="node_outline16" fill="none" stroke="none" d="M583.5000164210796,517.500006467104h205a5,5,0,0,1,5,5v8a5,5,0,0,1,-5,5h-205a5,5,0,0,1,-5,-5v-8a5,5,0,0,1,5,-5z"></path><g id="node_text16" fill="black"><text id="kity_text_112" text-rendering="inherit" font-size="12" dy=".8em" y="518.7000065147877" x="583.5000164210796">New dataset to test the output with</text></g></g><g id="minder_node19"><g id="node_expander16" style="cursor: pointer;" display="none"><path id="kity_path_204" fill="white" stroke="gray" d="M578.5000164210796,552.5000072419643A6,6,0,1,1,566.5000164210796,552.5000072419643A6,6,0,1,1,578.5000164210796,552.5000072419643"></path><path id="kity_path_205" fill="none" stroke="gray"></path></g><path id="node_outline17" fill="none" stroke="none" d="M583.5000164210796,543.5000072419643h163a5,5,0,0,1,5,5v8a5,5,0,0,1,-5,5h-163a5,5,0,0,1,-5,-5v-8a5,5,0,0,1,5,-5z"></path><g id="node_text17" fill="black"><text id="kity_text_114" text-rendering="inherit" font-size="12" dy=".8em" y="544.700007289648" x="583.5000164210796">Train / split the training data</text></g></g><g id="minder_node20"><g id="node_expander17" style="cursor: pointer;" display="none"><path id="kity_path_207" fill="white" stroke="gray" d="M578.5000164210796,578.5000080168247A6,6,0,1,1,566.5000164210796,578.5000080168247A6,6,0,1,1,578.5000164210796,578.5000080168247"></path><path id="kity_path_208" fill="none" stroke="gray"></path></g><path id="node_outline18" fill="none" stroke="none" d="M583.5000164210796,569.5000080168247h91a5,5,0,0,1,5,5v8a5,5,0,0,1,-5,5h-91a5,5,0,0,1,-5,-5v-8a5,5,0,0,1,5,-5z"></path><g id="node_text18" fill="black"><text id="kity_text_116" text-rendering="inherit" font-size="12" dy=".8em" y="570.7000080645084" x="583.5000164210796">Cross validation</text></g></g><g id="minder_node24"><g id="node_expander24" style="cursor: pointer;"><path id="kity_path_228" fill="white" stroke="gray" d="M387.50001072883606,617.5000091791153A6,6,0,1,1,375.50001072883606,617.5000091791153A6,6,0,1,1,387.50001072883606,617.5000091791153"></path><path id="kity_path_229" fill="none" stroke="gray" d="M377.00001072883606,617.5000091791153L386.00001072883606,617.5000091791153"></path></g><path id="node_outline25" fill="none" stroke="none" d="M392.50001072883606,608.5000091791153h130a5,5,0,0,1,5,5v8a5,5,0,0,1,-5,5h-130a5,5,0,0,1,-5,-5v-8a5,5,0,0,1,5,-5z"></path><g id="node_text25" fill="black"><text id="kity_text_130" text-rendering="inherit" font-size="12" dy=".8em" y="609.700009226799" x="392.50001072883606">Spatial autocorrelation</text></g></g><g id="minder_node25"><g id="node_expander22" style="cursor: pointer;" display="none"><path id="kity_path_222" fill="white" stroke="gray" d="M543.5000153779984,604.5000087916851A6,6,0,1,1,531.5000153779984,604.5000087916851A6,6,0,1,1,543.5000153779984,604.5000087916851"></path><path id="kity_path_223" fill="none" stroke="gray"></path></g><path id="node_outline23" fill="none" stroke="none" d="M548.5000153779984,595.5000087916851h163a5,5,0,0,1,5,5v8a5,5,0,0,1,-5,5h-163a5,5,0,0,1,-5,-5v-8a5,5,0,0,1,5,-5z"></path><g id="node_text23" fill="black"><text id="kity_text_126" text-rendering="inherit" font-size="12" dy=".8em" y="596.7000088393688" x="548.5000153779984">Object based image analysis</text></g></g><g id="minder_node26"><g id="node_expander23" style="cursor: pointer;" display="none"><path id="kity_path_225" fill="white" stroke="gray" d="M543.5000153779984,630.5000095665455A6,6,0,1,1,531.5000153779984,630.5000095665455A6,6,0,1,1,543.5000153779984,630.5000095665455"></path><path id="kity_path_226" fill="none" stroke="gray"></path></g><path id="node_outline24" fill="none" stroke="none" d="M548.5000153779984,621.5000095665455h131a5,5,0,0,1,5,5v8a5,5,0,0,1,-5,5h-131a5,5,0,0,1,-5,-5v-8a5,5,0,0,1,5,-5z"></path><g id="node_text24" fill="black"><text id="kity_text_128" text-rendering="inherit" font-size="12" dy=".8em" y="622.7000096142292" x="548.5000153779984">Spatial cross validation</text></g></g><g id="minder_node27" opacity="1"><g id="node_expander26" style="cursor: pointer;" display="none"><path id="kity_path_239" fill="white" stroke="gray" d="M469.5000131726265,292.4999994933605A6,6,0,1,1,457.5000131726265,292.4999994933605A6,6,0,1,1,469.5000131726265,292.4999994933605"></path><path id="kity_path_240" fill="none" stroke="gray"></path></g><path id="node_outline27" fill="none" stroke="none" d="M474.5000131726265,283.4999994933605h99a5,5,0,0,1,5,5v8a5,5,0,0,1,-5,5h-99a5,5,0,0,1,-5,-5v-8a5,5,0,0,1,5,-5z" stroke-width="3"></path><g id="node_text27" fill="black"><text id="kity_text_236" text-rendering="inherit" font-size="12" dy=".8em" y="284.69999954104424" x="474.5000131726265">Confusion Matrix</text></g></g><g id="minder_node30" opacity="1"><g id="node_expander29" style="cursor: pointer;" display="none"><path id="kity_path_263" fill="white" stroke="gray" d="M469.5000131726265,396.50000259280205A6,6,0,1,1,457.5000131726265,396.50000259280205A6,6,0,1,1,469.5000131726265,396.50000259280205"></path><path id="kity_path_264" fill="none" stroke="gray"></path></g><path id="node_outline30" fill="none" stroke="none" d="M474.5000131726265,387.50000259280205h104a5,5,0,0,1,5,5v8a5,5,0,0,1,-5,5h-104a5,5,0,0,1,-5,-5v-8a5,5,0,0,1,5,-5z" stroke-width="3"></path><g id="node_text30" fill="black"><text id="kity_text_260" text-rendering="inherit" font-size="12" dy=".8em" y="388.70000264048576" x="474.5000131726265">Errors of omission </text></g></g><g id="kity_g_12" display="none"><path id="kity_path_13" fill="none" stroke="rgb(66, 94, 112)" d="M473.5,431.5h104a5,5,0,0,1,5,5v8a5,5,0,0,1,-5,5h-104a5,5,0,0,1,-5,-5v-8a5,5,0,0,1,5,-5z" stroke-width="5"></path></g><g id="minder_node31"><g id="node_expander30" style="cursor: pointer;" display="none"><path id="kity_path_271" fill="white" stroke="gray" d="M469.5000131726265,422.50000336766243A6,6,0,1,1,457.5000131726265,422.50000336766243A6,6,0,1,1,469.5000131726265,422.50000336766243"></path><path id="kity_path_272" fill="none" stroke="gray"></path></g><path id="node_outline31" fill="none" stroke="none" d="M474.5000131726265,413.50000336766243h121a5,5,0,0,1,5,5v8a5,5,0,0,1,-5,5h-121a5,5,0,0,1,-5,-5v-8a5,5,0,0,1,5,-5z"></path><g id="node_text31" fill="black"><text id="kity_text_268" text-rendering="inherit" font-size="12" dy=".8em" y="414.70000341534615" x="474.5000131726265">Errors of commission</text></g></g><g id="minder_node32"><g id="node_expander31" style="cursor: pointer;" display="none"><path id="kity_path_279" fill="white" stroke="gray" d="M469.5000131726265,448.5000041425228A6,6,0,1,1,457.5000131726265,448.5000041425228A6,6,0,1,1,469.5000131726265,448.5000041425228"></path><path id="kity_path_280" fill="none" stroke="gray"></path></g><path id="node_outline32" fill="none" stroke="none" d="M474.5000131726265,439.5000041425228h100a5,5,0,0,1,5,5v8a5,5,0,0,1,-5,5h-100a5,5,0,0,1,-5,-5v-8a5,5,0,0,1,5,-5z"></path><g id="node_text32" fill="black"><text id="kity_text_276" text-rendering="inherit" font-size="12" dy=".8em" y="440.7000041902065" x="474.5000131726265">Kappa coefficient</text></g></g><g id="minder_node33"><g id="node_expander32" style="cursor: pointer;" display="none"><path id="kity_path_287" fill="white" stroke="gray" d="M469.5000131726265,474.5000049173832A6,6,0,1,1,457.5000131726265,474.5000049173832A6,6,0,1,1,469.5000131726265,474.5000049173832"></path><path id="kity_path_288" fill="none" stroke="gray"></path></g><path id="node_outline33" fill="none" stroke="none" d="M474.5000131726265,465.5000049173832h49a5,5,0,0,1,5,5v8a5,5,0,0,1,-5,5h-49a5,5,0,0,1,-5,-5v-8a5,5,0,0,1,5,-5z"></path><g id="node_text33" fill="black"><text id="kity_text_284" text-rendering="inherit" font-size="12" dy=".8em" y="466.7000049650669" x="474.5000131726265">F1-score</text></g></g><g id="minder_node34"><g id="node_expander33" display="none" style="cursor: pointer;"><path id="kity_path_295" fill="white" stroke="gray" d="M469.5000131726265,500.5000056922436A6,6,0,1,1,457.5000131726265,500.5000056922436A6,6,0,1,1,469.5000131726265,500.5000056922436"></path><path id="kity_path_296" fill="none" stroke="gray"></path></g><path id="node_outline34" fill="none" stroke="none" d="M474.5000131726265,491.5000056922436h63a5,5,0,0,1,5,5v8a5,5,0,0,1,-5,5h-63a5,5,0,0,1,-5,-5v-8a5,5,0,0,1,5,-5z"></path><g id="node_text34" fill="black"><text id="kity_text_292" text-rendering="inherit" font-size="12" dy=".8em" y="492.7000057399273" x="474.5000131726265">ROC Curve</text></g></g></g></g></svg>