<svg id="kity_svg_6" xmlns="http://www.w3.org/2000/svg" xmlns:xlink="http://www.w3.org/1999/xlink" version="1.1" width="813" height="556" style="background: rgb(251, 251, 251); visibility: visible;" viewBox="0 0 813 556"><defs id="kity_defs_7"><linearGradient id="kity_linearGradient_17" x1="0" y1="0" x2="0" y2="1"><stop id="kity_stop_18" offset="0" stop-color="rgb(255, 255, 255)"></stop><stop id="kity_stop_19" offset="1" stop-color="rgb(204, 204, 204)"></stop></linearGradient><marker id="kity_marker_2" orient="auto" refX="6" refY="0" viewBox="-7 -7 14 14" markerWidth="7" markerHeight="7" markerUnits="userSpaceOnUse"><path id="kity_path_3" fill="rgb(115, 161, 191)" stroke="none" d="M6,0A6,6,0,1,1,-6,0A6,6,0,1,1,6,0"></path></marker></defs><g id="kity_g_8"><g id="minder1" text-rendering="optimize-speed"><g id="minder_connect_group1"><path id="kity_path_31" fill="none" stroke="rgb(115, 161, 191)" stroke-width="1" d="M96.5,264.5A92,20.5,0,0,1,188.5,244"></path><path id="kity_path_33" fill="none" stroke="rgb(115, 161, 191)" stroke-width="1" d="M96.5,264.5A92,152,0,0,1,188.5,112.5"></path><path id="kity_path_47" fill="none" stroke="rgb(115, 161, 191)" stroke-width="1" d="M392.5,244.5C400.5,244,400.5,231.5,408.5,231.5"></path><path id="kity_path_49" fill="none" stroke="rgb(115, 161, 191)" stroke-width="1" d="M392.5,244.5C400.5,244,400.5,257.5,408.5,257.5"></path><path id="kity_path_51" fill="none" stroke="rgb(115, 161, 191)" stroke-width="1" d="M96.5,264.5A92,152,0,0,0,188.5,416.5"></path><path id="kity_path_53" fill="none" stroke="rgb(115, 161, 191)" stroke-width="1" d="M371.5,416.5C379.5,416.5,379.5,319.5,387.5,319.5"></path><path id="kity_path_55" fill="none" stroke="rgb(115, 161, 191)" stroke-width="1" d="M478.5,319.5C486.5,319.5,486.5,293.5,494.5,293.5"></path><path id="kity_path_57" fill="none" stroke="rgb(115, 161, 191)" stroke-width="1" d="M478.5,319.5C486.5,319.5,486.5,319.5,494.5,319.5"></path><path id="kity_path_59" fill="none" stroke="rgb(115, 161, 191)" stroke-width="1" d="M478.5,319.5C486.5,319.5,486.5,345.5,494.5,345.5"></path><path id="kity_path_61" fill="none" stroke="rgb(115, 161, 191)" stroke-width="1" d="M371.5,416.5C379.5,416.5,379.5,397.5,387.5,397.5"></path><path id="kity_path_63" fill="none" stroke="rgb(115, 161, 191)" stroke-width="1" d="M562.5,397.5C570.5,397.5,570.5,371.5,578.5,371.5"></path><path id="kity_path_65" fill="none" stroke="rgb(115, 161, 191)" stroke-width="1" d="M562.5,397.5C570.5,397.5,570.5,397.5,578.5,397.5"></path><path id="kity_path_67" fill="none" stroke="rgb(115, 161, 191)" stroke-width="1" d="M562.5,397.5C570.5,397.5,570.5,423.5,578.5,423.5"></path><path id="kity_path_69" fill="none" stroke="rgb(115, 161, 191)" stroke-width="1" d="M371.5,416.5C379.5,416.5,379.5,462.5,387.5,462.5"></path><path id="kity_path_71" fill="none" stroke="rgb(115, 161, 191)" stroke-width="1" d="M592.5,462.5C600.5,462.5,600.5,449.5,608.5,449.5"></path><path id="kity_path_73" fill="none" stroke="rgb(115, 161, 191)" stroke-width="1" d="M592.5,462.5C600.5,462.5,600.5,475.5,608.5,475.5"></path><path id="kity_path_75" fill="none" stroke="rgb(115, 161, 191)" stroke-width="1" d="M371.5,416.5C379.5,416.5,379.5,514.5,387.5,514.5"></path><path id="kity_path_77" fill="none" stroke="rgb(115, 161, 191)" stroke-width="1" d="M527.5,514.5C535.5,514.5,535.5,501.5,543.5,501.5"></path><path id="kity_path_79" fill="none" stroke="rgb(115, 161, 191)" stroke-width="1" d="M527.5,514.5C535.5,514.5,535.5,527.5,543.5,527.5"></path><path id="kity_path_239" fill="none" stroke="rgb(115, 161, 191)" stroke-width="1" d="M352.5,112.5C360.5,112.5,360.5,29.5,368.5,29.5"></path><path id="kity_path_240" fill="none" stroke="rgb(115, 161, 191)" stroke-width="1" d="M352.5,112.5C360.5,112.5,360.5,73.5,368.5,73.5"></path><path id="kity_path_241" fill="none" stroke="rgb(115, 161, 191)" stroke-width="1" d="M352.5,112.5C360.5,112.5,360.5,117.5,368.5,117.5"></path><path id="kity_path_242" fill="none" stroke="rgb(115, 161, 191)" stroke-width="1" d="M352.5,112.5C360.5,112.5,360.5,143.5,368.5,143.5"></path><path id="kity_path_243" fill="none" stroke="rgb(115, 161, 191)" stroke-width="1" d="M352.5,112.5C360.5,112.5,360.5,169.5,368.5,169.5"></path><path id="kity_path_244" fill="none" stroke="rgb(115, 161, 191)" stroke-width="1" d="M352.5,112.5C360.5,112.5,360.5,195.5,368.5,195.5"></path></g><g id="minder_node1"><path id="node_outline1" fill="rgb(115, 161, 191)" stroke="rgb(115, 161, 191)" d="M25.5,250.5h142a5,5,0,0,1,5,5v18a5,5,0,0,1,-5,5h-142a5,5,0,0,1,-5,-5v-18a5,5,0,0,1,5,-5z" stroke-width="3"></path><g id="node_text1" fill="white"><text id="kity_text_22" text-rendering="inherit" font-size="16" dy=".8em" y="254.09999990463257" x="32.5">7 Classification II</text></g></g><g id="kity_g_14" display="none"><path id="kity_path_15" fill="rgba(0, 92, 153, 0.5)" stroke="none" d="M190.5,33.5h202v8h-202z"></path><path id="kity_path_16" fill="none" stroke="rgb(0, 76, 128)" d="M190.5,41.5L392.5,41.5" stroke-width="1"></path></g><g id="minder_node2"><g id="node_expander10" style="cursor: pointer;"><path id="kity_path_186" fill="white" stroke="gray" d="M189.50000530481339,243.99999937415123A6,6,0,1,1,177.50000530481339,243.99999937415123A6,6,0,1,1,189.50000530481339,243.99999937415123"></path><path id="kity_path_187" fill="none" stroke="gray" d="M179.00000530481339,243.99999937415123L188.00000530481339,243.99999937415123"></path></g><path id="node_outline11" fill="rgb(238, 243, 246)" stroke="rgb(115, 161, 191)" d="M193.50000530481339,220.49999937415123h196a3,3,0,0,1,3,3v41a3,3,0,0,1,-3,3h-196a3,3,0,0,1,-3,-3v-41a3,3,0,0,1,3,-3z" stroke-width="1"></path><g id="node_text11" fill="black"><text id="kity_text_101" text-rendering="inherit" font-size="14" dy=".8em" y="223.89999946951866" x="210.50000530481339">&#xa0;Landcover classification </text><text id="kity_text_102" text-rendering="inherit" font-size="14" dy=".8em" y="244.89999946951866" x="210.50000530481339">(contiuned)</text></g></g><g id="minder_node3" opacity="1"><g id="node_expander7" style="cursor: pointer;"><path id="kity_path_177" fill="white" stroke="gray" d="M189.50000530481339,112.499995470047A6,6,0,1,1,177.50000530481339,112.499995470047A6,6,0,1,1,189.50000530481339,112.499995470047"></path><path id="kity_path_178" fill="none" stroke="gray" d="M179.00000530481339,112.499995470047L188.00000530481339,112.499995470047"></path></g><path id="node_outline8" fill="rgb(238, 243, 246)" stroke="rgb(115, 161, 191)" d="M193.50000530481339,99.499995470047h156a3,3,0,0,1,3,3v20a3,3,0,0,1,-3,3h-156a3,3,0,0,1,-3,-3v-20a3,3,0,0,1,3,-3z" stroke-width="1"></path><g id="node_text8" fill="black"><text id="kity_text_95" text-rendering="inherit" font-size="14" dy=".8em" y="103.39999556541443" x="210.50000530481339">Pre-classified data</text></g></g><g id="minder_node10"><g id="node_expander8" display="none" style="cursor: pointer;"><path id="kity_path_180" fill="white" stroke="gray" d="M408.50001135468483,231.49999901652336A6,6,0,1,1,396.50001135468483,231.49999901652336A6,6,0,1,1,408.50001135468483,231.49999901652336"></path><path id="kity_path_181" fill="none" stroke="gray"></path></g><path id="node_outline9" fill="none" stroke="none" d="M413.50001135468483,222.49999901652336h204a5,5,0,0,1,5,5v8a5,5,0,0,1,-5,5h-204a5,5,0,0,1,-5,-5v-8a5,5,0,0,1,5,-5z"></path><g id="node_text9" fill="black"><text id="kity_text_97" text-rendering="inherit" font-size="12" dy=".8em" y="223.69999906420708" x="413.50001135468483">Object based image analysis (OBIA)</text></g></g><g id="minder_node11"><g id="node_expander9" display="none" style="cursor: pointer;"><path id="kity_path_183" fill="white" stroke="gray" d="M408.50001135468483,257.49999979138374A6,6,0,1,1,396.50001135468483,257.49999979138374A6,6,0,1,1,408.50001135468483,257.49999979138374"></path><path id="kity_path_184" fill="none" stroke="gray"></path></g><path id="node_outline10" fill="none" stroke="none" d="M413.50001135468483,248.49999979138374h100a5,5,0,0,1,5,5v8a5,5,0,0,1,-5,5h-100a5,5,0,0,1,-5,-5v-8a5,5,0,0,1,5,-5z"></path><g id="node_text10" fill="black"><text id="kity_text_99" text-rendering="inherit" font-size="12" dy=".8em" y="249.69999983906746" x="413.50001135468483">Sub pixel analysis</text></g></g><g id="minder_node12"><g id="node_expander25" style="cursor: pointer;"><path id="kity_path_231" fill="white" stroke="gray" d="M189.50000530481339,416.500004529953A6,6,0,1,1,177.50000530481339,416.500004529953A6,6,0,1,1,189.50000530481339,416.500004529953"></path><path id="kity_path_232" fill="none" stroke="gray" d="M179.00000530481339,416.500004529953L188.00000530481339,416.500004529953"></path></g><path id="node_outline26" fill="rgb(238, 243, 246)" stroke="rgb(115, 161, 191)" d="M193.50000530481339,403.500004529953h175a3,3,0,0,1,3,3v20a3,3,0,0,1,-3,3h-175a3,3,0,0,1,-3,-3v-20a3,3,0,0,1,3,-3z" stroke-width="1"></path><g id="node_text26" fill="black"><text id="kity_text_132" text-rendering="inherit" font-size="14" dy=".8em" y="407.40000462532043" x="210.50000530481339">Accuracy assessment</text></g></g><g id="minder_node13"><g id="node_expander14" style="cursor: pointer;"><path id="kity_path_198" fill="white" stroke="gray" d="M387.50001072883606,319.50000163912773A6,6,0,1,1,375.50001072883606,319.50000163912773A6,6,0,1,1,387.50001072883606,319.50000163912773"></path><path id="kity_path_199" fill="none" stroke="gray" d="M377.00001072883606,319.50000163912773L386.00001072883606,319.50000163912773"></path></g><path id="node_outline15" fill="none" stroke="none" d="M392.50001072883606,310.50000163912773h81a5,5,0,0,1,5,5v8a5,5,0,0,1,-5,5h-81a5,5,0,0,1,-5,-5v-8a5,5,0,0,1,5,-5z"></path><g id="node_text15" fill="black"><text id="kity_text_110" text-rendering="inherit" font-size="12" dy=".8em" y="311.70000168681145" x="392.50001072883606">Accuracy type</text></g></g><g id="minder_node14"><g id="node_expander11" display="none" style="cursor: pointer;"><path id="kity_path_189" fill="white" stroke="gray" d="M494.50001391768456,293.50000086426735A6,6,0,1,1,482.50001391768456,293.50000086426735A6,6,0,1,1,494.50001391768456,293.50000086426735"></path><path id="kity_path_190" fill="none" stroke="gray"></path></g><path id="node_outline12" fill="none" stroke="none" d="M499.50001391768456,284.50000086426735h123a5,5,0,0,1,5,5v8a5,5,0,0,1,-5,5h-123a5,5,0,0,1,-5,-5v-8a5,5,0,0,1,5,-5z"></path><g id="node_text12" fill="black"><text id="kity_text_104" text-rendering="inherit" font-size="12" dy=".8em" y="285.70000091195107" x="499.50001391768456">producer’s accuracy</text></g></g><g id="minder_node15"><g id="node_expander12" display="none" style="cursor: pointer;"><path id="kity_path_192" fill="white" stroke="gray" d="M494.50001391768456,319.50000163912773A6,6,0,1,1,482.50001391768456,319.50000163912773A6,6,0,1,1,494.50001391768456,319.50000163912773"></path><path id="kity_path_193" fill="none" stroke="gray"></path></g><path id="node_outline13" fill="none" stroke="none" d="M499.50001391768456,310.50000163912773h95a5,5,0,0,1,5,5v8a5,5,0,0,1,-5,5h-95a5,5,0,0,1,-5,-5v-8a5,5,0,0,1,5,-5z"></path><g id="node_text13" fill="black"><text id="kity_text_106" text-rendering="inherit" font-size="12" dy=".8em" y="311.70000168681145" x="499.50001391768456">user’s accuracy</text></g></g><g id="minder_node16"><g id="node_expander13" display="none" style="cursor: pointer;"><path id="kity_path_195" fill="white" stroke="gray" d="M494.50001391768456,345.5000024139881A6,6,0,1,1,482.50001391768456,345.5000024139881A6,6,0,1,1,494.50001391768456,345.5000024139881"></path><path id="kity_path_196" fill="none" stroke="gray"></path></g><path id="node_outline14" fill="none" stroke="none" d="M499.50001391768456,336.5000024139881h92a5,5,0,0,1,5,5v8a5,5,0,0,1,-5,5h-92a5,5,0,0,1,-5,-5v-8a5,5,0,0,1,5,-5z"></path><g id="node_text14" fill="black"><text id="kity_text_108" text-rendering="inherit" font-size="12" dy=".8em" y="337.70000246167183" x="499.50001391768456">overall accuracy</text></g></g><g id="minder_node17"><g id="node_expander18" style="cursor: pointer;"><path id="kity_path_210" fill="white" stroke="gray" d="M387.50001072883606,397.5000039637089A6,6,0,1,1,375.50001072883606,397.5000039637089A6,6,0,1,1,387.50001072883606,397.5000039637089"></path><path id="kity_path_211" fill="none" stroke="gray" d="M377.00001072883606,397.5000039637089L386.00001072883606,397.5000039637089"></path></g><path id="node_outline19" fill="none" stroke="none" d="M392.50001072883606,388.5000039637089h165a5,5,0,0,1,5,5v8a5,5,0,0,1,-5,5h-165a5,5,0,0,1,-5,-5v-8a5,5,0,0,1,5,-5z"></path><g id="node_text19" fill="black"><text id="kity_text_118" text-rendering="inherit" font-size="12" dy=".8em" y="389.7000040113926" x="392.50001072883606"> Data use assess the accuracy</text></g></g><g id="minder_node18"><g id="node_expander15" display="none" style="cursor: pointer;"><path id="kity_path_201" fill="white" stroke="gray" d="M578.5000164210796,371.5000031888485A6,6,0,1,1,566.5000164210796,371.5000031888485A6,6,0,1,1,578.5000164210796,371.5000031888485"></path><path id="kity_path_202" fill="none" stroke="gray"></path></g><path id="node_outline16" fill="none" stroke="none" d="M583.5000164210796,362.5000031888485h205a5,5,0,0,1,5,5v8a5,5,0,0,1,-5,5h-205a5,5,0,0,1,-5,-5v-8a5,5,0,0,1,5,-5z"></path><g id="node_text16" fill="black"><text id="kity_text_112" text-rendering="inherit" font-size="12" dy=".8em" y="363.7000032365322" x="583.5000164210796">New dataset to test the output with</text></g></g><g id="minder_node19"><g id="node_expander16" display="none" style="cursor: pointer;"><path id="kity_path_204" fill="white" stroke="gray" d="M578.5000164210796,397.5000039637089A6,6,0,1,1,566.5000164210796,397.5000039637089A6,6,0,1,1,578.5000164210796,397.5000039637089"></path><path id="kity_path_205" fill="none" stroke="gray"></path></g><path id="node_outline17" fill="none" stroke="none" d="M583.5000164210796,388.5000039637089h163a5,5,0,0,1,5,5v8a5,5,0,0,1,-5,5h-163a5,5,0,0,1,-5,-5v-8a5,5,0,0,1,5,-5z"></path><g id="node_text17" fill="black"><text id="kity_text_114" text-rendering="inherit" font-size="12" dy=".8em" y="389.7000040113926" x="583.5000164210796">Train / split the training data</text></g></g><g id="minder_node20"><g id="node_expander17" display="none" style="cursor: pointer;"><path id="kity_path_207" fill="white" stroke="gray" d="M578.5000164210796,423.50000473856926A6,6,0,1,1,566.5000164210796,423.50000473856926A6,6,0,1,1,578.5000164210796,423.50000473856926"></path><path id="kity_path_208" fill="none" stroke="gray"></path></g><path id="node_outline18" fill="none" stroke="none" d="M583.5000164210796,414.50000473856926h91a5,5,0,0,1,5,5v8a5,5,0,0,1,-5,5h-91a5,5,0,0,1,-5,-5v-8a5,5,0,0,1,5,-5z"></path><g id="node_text18" fill="black"><text id="kity_text_116" text-rendering="inherit" font-size="12" dy=".8em" y="415.700004786253" x="583.5000164210796">Cross validation</text></g></g><g id="minder_node21"><g id="node_expander21" style="cursor: pointer;"><path id="kity_path_219" fill="white" stroke="gray" d="M387.50001072883606,462.50000590085983A6,6,0,1,1,375.50001072883606,462.50000590085983A6,6,0,1,1,387.50001072883606,462.50000590085983"></path><path id="kity_path_220" fill="none" stroke="gray" d="M377.00001072883606,462.50000590085983L386.00001072883606,462.50000590085983"></path></g><path id="node_outline22" fill="none" stroke="none" d="M392.50001072883606,453.50000590085983h195a5,5,0,0,1,5,5v8a5,5,0,0,1,-5,5h-195a5,5,0,0,1,-5,-5v-8a5,5,0,0,1,5,-5z"></path><g id="node_text22" fill="black"><text id="kity_text_124" text-rendering="inherit" font-size="12" dy=".8em" y="454.70000594854355" x="392.50001072883606"> Approach use assess the accuracy</text></g></g><g id="minder_node22"><g id="node_expander19" display="none" style="cursor: pointer;"><path id="kity_path_213" fill="white" stroke="gray" d="M608.5000173151493,449.50000551342964A6,6,0,1,1,596.5000173151493,449.50000551342964A6,6,0,1,1,608.5000173151493,449.50000551342964"></path><path id="kity_path_214" fill="none" stroke="gray"></path></g><path id="node_outline20" fill="none" stroke="none" d="M613.5000173151493,440.50000551342964h68a5,5,0,0,1,5,5v8a5,5,0,0,1,-5,5h-68a5,5,0,0,1,-5,-5v-8a5,5,0,0,1,5,-5z"></path><g id="node_text20" fill="black"><text id="kity_text_120" text-rendering="inherit" font-size="12" dy=".8em" y="441.70000556111336" x="613.5000173151493">Error matrix</text></g></g><g id="minder_node23"><g id="node_expander20" display="none" style="cursor: pointer;"><path id="kity_path_216" fill="white" stroke="gray" d="M608.5000173151493,475.50000628829A6,6,0,1,1,596.5000173151493,475.50000628829A6,6,0,1,1,608.5000173151493,475.50000628829"></path><path id="kity_path_217" fill="none" stroke="gray"></path></g><path id="node_outline21" fill="none" stroke="none" d="M613.5000173151493,466.50000628829h36a5,5,0,0,1,5,5v8a5,5,0,0,1,-5,5h-36a5,5,0,0,1,-5,-5v-8a5,5,0,0,1,5,-5z"></path><g id="node_text21" fill="black"><text id="kity_text_122" text-rendering="inherit" font-size="12" dy=".8em" y="467.70000633597374" x="613.5000173151493">Kappa</text></g></g><g id="minder_node24"><g id="node_expander24" style="cursor: pointer;"><path id="kity_path_228" fill="white" stroke="gray" d="M387.50001072883606,514.5000074505806A6,6,0,1,1,375.50001072883606,514.5000074505806A6,6,0,1,1,387.50001072883606,514.5000074505806"></path><path id="kity_path_229" fill="none" stroke="gray" d="M377.00001072883606,514.5000074505806L386.00001072883606,514.5000074505806"></path></g><path id="node_outline25" fill="none" stroke="none" d="M392.50001072883606,505.5000074505806h130a5,5,0,0,1,5,5v8a5,5,0,0,1,-5,5h-130a5,5,0,0,1,-5,-5v-8a5,5,0,0,1,5,-5z"></path><g id="node_text25" fill="black"><text id="kity_text_130" text-rendering="inherit" font-size="12" dy=".8em" y="506.7000074982643" x="392.50001072883606">Spatial autocorrelation</text></g></g><g id="minder_node25"><g id="node_expander22" display="none" style="cursor: pointer;"><path id="kity_path_222" fill="white" stroke="gray" d="M543.5000153779984,501.5000070631504A6,6,0,1,1,531.5000153779984,501.5000070631504A6,6,0,1,1,543.5000153779984,501.5000070631504"></path><path id="kity_path_223" fill="none" stroke="gray"></path></g><path id="node_outline23" fill="none" stroke="none" d="M548.5000153779984,492.5000070631504h163a5,5,0,0,1,5,5v8a5,5,0,0,1,-5,5h-163a5,5,0,0,1,-5,-5v-8a5,5,0,0,1,5,-5z"></path><g id="node_text23" fill="black"><text id="kity_text_126" text-rendering="inherit" font-size="12" dy=".8em" y="493.7000071108341" x="548.5000153779984">Object based image analysis</text></g></g><g id="minder_node26"><g id="node_expander23" display="none" style="cursor: pointer;"><path id="kity_path_225" fill="white" stroke="gray" d="M543.5000153779984,527.5000078380108A6,6,0,1,1,531.5000153779984,527.5000078380108A6,6,0,1,1,543.5000153779984,527.5000078380108"></path><path id="kity_path_226" fill="none" stroke="gray"></path></g><path id="node_outline24" fill="none" stroke="none" d="M548.5000153779984,518.5000078380108h131a5,5,0,0,1,5,5v8a5,5,0,0,1,-5,5h-131a5,5,0,0,1,-5,-5v-8a5,5,0,0,1,5,-5z"></path><g id="node_text24" fill="black"><text id="kity_text_128" text-rendering="inherit" font-size="12" dy=".8em" y="519.7000078856945" x="548.5000153779984">Spatial cross validation</text></g></g><g id="kity_g_12" display="none"><path id="kity_path_13" fill="none" stroke="rgb(66, 94, 112)" d="M193.5,46.5h196a3,3,0,0,1,3,3v41a3,3,0,0,1,-3,3h-196a3,3,0,0,1,-3,-3v-41a3,3,0,0,1,3,-3z" stroke-width="5"></path></g><g id="minder_node4"><g id="node_expander1" display="none" style="cursor: pointer;"><path id="kity_path_159" fill="white" stroke="gray" d="M368.50001016259193,29.499992996454267A6,6,0,1,1,356.50001016259193,29.499992996454267A6,6,0,1,1,368.50001016259193,29.499992996454267"></path><path id="kity_path_160" fill="none" stroke="gray"></path></g><path id="node_outline2" fill="none" stroke="none" d="M373.50001016259193,20.499992996454267h260a5,5,0,0,1,5,5v8a5,5,0,0,1,-5,5h-260a5,5,0,0,1,-5,-5v-8a5,5,0,0,1,5,-5z"></path><g id="node_text2" fill="black"><text id="kity_text_81" text-rendering="inherit" font-size="12" dy=".8em" y="21.699993044137983" x="373.50001016259193">GlobeLand30 - 30m for 2000, 2010 and 2020:</text></g></g><g id="minder_node5"><g id="node_expander2" display="none" style="cursor: pointer;"><path id="kity_path_162" fill="white" stroke="gray" d="M368.50001016259193,73.49999430775642A6,6,0,1,1,356.50001016259193,73.49999430775642A6,6,0,1,1,368.50001016259193,73.49999430775642"></path><path id="kity_path_163" fill="none" stroke="gray"></path></g><path id="node_outline3" fill="none" stroke="none" d="M373.50001016259193,46.499994307756424h283a5,5,0,0,1,5,5v44a5,5,0,0,1,-5,5h-283a5,5,0,0,1,-5,-5v-44a5,5,0,0,1,5,-5z"></path><g id="node_text3" fill="black"><text id="kity_text_83" text-rendering="inherit" font-size="12" dy=".8em" y="47.69999435544014" x="373.50001016259193">European Space Agency’s (ESA) Climate Change</text><text id="kity_text_84" text-rendering="inherit" font-size="12" dy=".8em" y="65.69999435544014" x="373.50001016259193">&#xa0;Initiative (CCI) annual global land cover (300 m)</text><text id="kity_text_85" text-rendering="inherit" font-size="12" dy=".8em" y="83.69999435544014" x="373.50001016259193">&#xa0;(1992-2015</text></g></g><g id="minder_node6"><g id="node_expander3" display="none" style="cursor: pointer;"><path id="kity_path_165" fill="white" stroke="gray" d="M368.50001016259193,117.49999561905861A6,6,0,1,1,356.50001016259193,117.49999561905861A6,6,0,1,1,368.50001016259193,117.49999561905861"></path><path id="kity_path_166" fill="none" stroke="gray"></path></g><path id="node_outline4" fill="none" stroke="none" d="M373.50001016259193,108.49999561905861h209a5,5,0,0,1,5,5v8a5,5,0,0,1,-5,5h-209a5,5,0,0,1,-5,-5v-8a5,5,0,0,1,5,-5z"></path><g id="node_text4" fill="black"><text id="kity_text_87" text-rendering="inherit" font-size="12" dy=".8em" y="109.69999566674232" x="373.50001016259193">Dynamic World - near real time 10m</text></g></g><g id="minder_node7"><g id="node_expander4" display="none" style="cursor: pointer;"><path id="kity_path_168" fill="white" stroke="gray" d="M368.50001016259193,143.499996393919A6,6,0,1,1,356.50001016259193,143.499996393919A6,6,0,1,1,368.50001016259193,143.499996393919"></path><path id="kity_path_169" fill="none" stroke="gray"></path></g><path id="node_outline5" fill="none" stroke="none" d="M373.50001016259193,134.499996393919h34a5,5,0,0,1,5,5v8a5,5,0,0,1,-5,5h-34a5,5,0,0,1,-5,-5v-8a5,5,0,0,1,5,-5z"></path><g id="node_text5" fill="black"><text id="kity_text_89" text-rendering="inherit" font-size="12" dy=".8em" y="135.6999964416027" x="373.50001016259193">MODI</text></g></g><g id="minder_node8"><g id="node_expander5" display="none" style="cursor: pointer;"><path id="kity_path_171" fill="white" stroke="gray" d="M368.50001016259193,169.49999716877937A6,6,0,1,1,356.50001016259193,169.49999716877937A6,6,0,1,1,368.50001016259193,169.49999716877937"></path><path id="kity_path_172" fill="none" stroke="gray"></path></g><path id="node_outline6" fill="none" stroke="none" d="M373.50001016259193,160.49999716877937h122a5,5,0,0,1,5,5v8a5,5,0,0,1,-5,5h-122a5,5,0,0,1,-5,-5v-8a5,5,0,0,1,5,-5z"></path><g id="node_text6" fill="black"><text id="kity_text_91" text-rendering="inherit" font-size="12" dy=".8em" y="161.6999972164631" x="373.50001016259193">Google building data</text></g></g><g id="minder_node9"><g id="node_expander6" display="none" style="cursor: pointer;"><path id="kity_path_174" fill="white" stroke="gray" d="M368.50001016259193,195.49999794363976A6,6,0,1,1,356.50001016259193,195.49999794363976A6,6,0,1,1,368.50001016259193,195.49999794363976"></path><path id="kity_path_175" fill="none" stroke="gray"></path></g><path id="node_outline7" fill="none" stroke="none" d="M373.50001016259193,186.49999794363976h17a5,5,0,0,1,5,5v8a5,5,0,0,1,-5,5h-17a5,5,0,0,1,-5,-5v-8a5,5,0,0,1,5,-5z"></path><g id="node_text7" fill="black"><text id="kity_text_93" text-rendering="inherit" font-size="12" dy=".8em" y="187.69999799132347" x="373.50001016259193">......</text></g></g></g></g></svg>