<svg id="kity_svg_6" xmlns="http://www.w3.org/2000/svg" xmlns:xlink="http://www.w3.org/1999/xlink" version="1.1" width="768" height="594" style="background: rgb(251, 251, 251); visibility: visible;" viewBox="0 0 768 594"><defs id="kity_defs_7"><linearGradient id="kity_linearGradient_17" x1="0" y1="0" x2="0" y2="1"><stop id="kity_stop_18" offset="0" stop-color="rgb(255, 255, 255)"></stop><stop id="kity_stop_19" offset="1" stop-color="rgb(204, 204, 204)"></stop></linearGradient><marker id="kity_marker_2" orient="auto" refX="6" refY="0" viewBox="-7 -7 14 14" markerWidth="7" markerHeight="7" markerUnits="userSpaceOnUse"><path id="kity_path_3" fill="rgb(115, 161, 191)" stroke="none" d="M6,0A6,6,0,1,1,-6,0A6,6,0,1,1,6,0"></path></marker></defs><g id="kity_g_8"><g id="minder1" text-rendering="optimize-speed"><g id="minder_connect_group1"><path id="kity_path_31" fill="none" stroke="rgb(115, 161, 191)" stroke-width="1" d="M132,290.5A127.5,209,0,0,1,259.5,81.5"></path><path id="kity_path_33" fill="none" stroke="rgb(115, 161, 191)" stroke-width="1" d="M385.5,81.5C393.5,81.5,393.5,81.5,401.5,81.5"></path><path id="kity_path_35" fill="none" stroke="rgb(115, 161, 191)" stroke-width="1" d="M514.5,81.5C522.5,81.5,522.5,29.5,530.5,29.5"></path><path id="kity_path_37" fill="none" stroke="rgb(115, 161, 191)" stroke-width="1" d="M514.5,81.5C522.5,81.5,522.5,81.5,530.5,81.5"></path><path id="kity_path_39" fill="none" stroke="rgb(115, 161, 191)" stroke-width="1" d="M580.5,81.5C588.5,81.5,588.5,55.5,596.5,55.5"></path><path id="kity_path_41" fill="none" stroke="rgb(115, 161, 191)" stroke-width="1" d="M580.5,81.5C588.5,81.5,588.5,81.5,596.5,81.5"></path><path id="kity_path_43" fill="none" stroke="rgb(115, 161, 191)" stroke-width="1" d="M580.5,81.5C588.5,81.5,588.5,107.5,596.5,107.5"></path><path id="kity_path_45" fill="none" stroke="rgb(115, 161, 191)" stroke-width="1" d="M514.5,81.5C522.5,81.5,522.5,133.5,530.5,133.5"></path><path id="kity_path_47" fill="none" stroke="rgb(115, 161, 191)" stroke-width="1" d="M132,290.5A127.5,3,0,0,1,259.5,287.5"></path><path id="kity_path_49" fill="none" stroke="rgb(115, 161, 191)" stroke-width="1" d="M340.5,287.5C348.5,287.5,348.5,199.5,356.5,199.5"></path><path id="kity_path_51" fill="none" stroke="rgb(115, 161, 191)" stroke-width="1" d="M403.5,199.5C411.5,199.5,411.5,167.5,419.5,167.5"></path><path id="kity_path_53" fill="none" stroke="rgb(115, 161, 191)" stroke-width="1" d="M403.5,199.5C411.5,199.5,411.5,193.5,419.5,193.5"></path><path id="kity_path_55" fill="none" stroke="rgb(115, 161, 191)" stroke-width="1" d="M403.5,199.5C411.5,199.5,411.5,232.5,419.5,232.5"></path><path id="kity_path_57" fill="none" stroke="rgb(115, 161, 191)" stroke-width="1" d="M575.5,232.5C583.5,232.5,583.5,219.5,591.5,219.5"></path><path id="kity_path_59" fill="none" stroke="rgb(115, 161, 191)" stroke-width="1" d="M575.5,232.5C583.5,232.5,583.5,245.5,591.5,245.5"></path><path id="kity_path_61" fill="none" stroke="rgb(115, 161, 191)" stroke-width="1" d="M340.5,287.5C348.5,287.5,348.5,297.5,356.5,297.5"></path><path id="kity_path_63" fill="none" stroke="rgb(115, 161, 191)" stroke-width="1" d="M445.5,297.5C453.5,297.5,453.5,271.5,461.5,271.5"></path><path id="kity_path_65" fill="none" stroke="rgb(115, 161, 191)" stroke-width="1" d="M445.5,297.5C453.5,297.5,453.5,297.5,461.5,297.5"></path><path id="kity_path_67" fill="none" stroke="rgb(115, 161, 191)" stroke-width="1" d="M445.5,297.5C453.5,297.5,453.5,323.5,461.5,323.5"></path><path id="kity_path_69" fill="none" stroke="rgb(115, 161, 191)" stroke-width="1" d="M340.5,287.5C348.5,287.5,348.5,375.5,356.5,375.5"></path><path id="kity_path_71" fill="none" stroke="rgb(115, 161, 191)" stroke-width="1" d="M420.5,375.5C428.5,375.5,428.5,349.5,436.5,349.5"></path><path id="kity_path_73" fill="none" stroke="rgb(115, 161, 191)" stroke-width="1" d="M420.5,375.5C428.5,375.5,428.5,375.5,436.5,375.5"></path><path id="kity_path_75" fill="none" stroke="rgb(115, 161, 191)" stroke-width="1" d="M420.5,375.5C428.5,375.5,428.5,401.5,436.5,401.5"></path><path id="kity_path_77" fill="none" stroke="rgb(115, 161, 191)" stroke-width="1" d="M132,290.5A127.5,210,0,0,0,259.5,500.5"></path><path id="kity_path_79" fill="none" stroke="rgb(115, 161, 191)" stroke-width="1" d="M354.5,500.5C362.5,500.5,362.5,461.5,370.5,461.5"></path><path id="kity_path_81" fill="none" stroke="rgb(115, 161, 191)" stroke-width="1" d="M432.5,461.5C440.5,461.5,440.5,435.5,448.5,435.5"></path><path id="kity_path_83" fill="none" stroke="rgb(115, 161, 191)" stroke-width="1" d="M432.5,461.5C440.5,461.5,440.5,461.5,448.5,461.5"></path><path id="kity_path_85" fill="none" stroke="rgb(115, 161, 191)" stroke-width="1" d="M432.5,461.5C440.5,461.5,440.5,487.5,448.5,487.5"></path><path id="kity_path_87" fill="none" stroke="rgb(115, 161, 191)" stroke-width="1" d="M354.5,500.5C362.5,500.5,362.5,539.5,370.5,539.5"></path><path id="kity_path_89" fill="none" stroke="rgb(115, 161, 191)" stroke-width="1" d="M450.5,539.5C458.5,539.5,458.5,513.5,466.5,513.5"></path><path id="kity_path_91" fill="none" stroke="rgb(115, 161, 191)" stroke-width="1" d="M450.5,539.5C458.5,539.5,458.5,539.5,466.5,539.5"></path><path id="kity_path_93" fill="none" stroke="rgb(115, 161, 191)" stroke-width="1" d="M450.5,539.5C458.5,539.5,458.5,565.5,466.5,565.5"></path></g><g id="minder_node1"><path id="kity_path_289" fill="rgba(0, 0, 0, .25)" stroke="none" d="M33.5,273.5h305a22,22,0,0,1,22,22v0a22,22,0,0,1,-22,22h-305a22,22,0,0,1,-22,-22v0a22,22,0,0,1,22,-22z" display="none"></path><path id="node_outline1" fill="rgb(115, 161, 191)" stroke="rgb(57, 80, 96)" d="M25.5,276.5h213a5,5,0,0,1,5,5v18a5,5,0,0,1,-5,5h-213a5,5,0,0,1,-5,-5v-18a5,5,0,0,1,5,-5z" stroke-width="3"></path><g id="node_text1" fill="white"><text id="kity_text_22" text-rendering="inherit" font-size="16" dy=".8em" y="280.09999990463257" x="32.5">&#xa0;8 Temperature and policy</text></g></g><g id="kity_g_12"><path id="kity_path_13" fill="none" stroke="none" d="M32.5,290.5h0v0h0z"></path></g><g id="kity_g_14"><path id="kity_path_15" fill="none" stroke="none" d="M32.5,290.5h0v0h0z"></path><path id="kity_path_16" fill="none" stroke="none"></path></g><g id="minder_node2"><path id="kity_path_286" fill="rgba(0, 0, 0, .25)" stroke="none" d="M280.5000074207783,73.49999377131462h107a10,10,0,0,1,10,10v6a10,10,0,0,1,-10,10h-107a10,10,0,0,1,-10,-10v-6a10,10,0,0,1,10,-10z" display="none"></path><g id="node_expander8" style="cursor: pointer;"><path id="kity_path_212" fill="white" stroke="gray" d="M260.5000074207783,81.49999377131462A6,6,0,1,1,248.50000742077827,81.49999377131462A6,6,0,1,1,260.5000074207783,81.49999377131462"></path><path id="kity_path_213" fill="none" stroke="gray" d="M250.00000742077827,81.49999377131462L259.0000074207783,81.49999377131462"></path></g><path id="node_outline9" fill="#73a1bf" stroke="rgb(115, 161, 191)" d="M264.5000074207783,68.49999377131462h118a3,3,0,0,1,3,3v20a3,3,0,0,1,-3,3h-118a3,3,0,0,1,-3,-3v-20a3,3,0,0,1,3,-3z" stroke-width="1"></path><g id="node_text9" fill="black"><text id="kity_text_109" text-rendering="inherit" font-size="14" dy=".8em" y="72.39999386668205" x="281.5000074207783">Temperature</text></g></g><g id="minder_node3"><g id="node_expander7" style="cursor: pointer;"><path id="kity_path_209" fill="white" stroke="gray" d="M401.5000111460686,81.49999377131462A6,6,0,1,1,389.5000111460686,81.49999377131462A6,6,0,1,1,401.5000111460686,81.49999377131462"></path><path id="kity_path_210" fill="none" stroke="gray" d="M391.0000111460686,81.49999377131462L400.0000111460686,81.49999377131462"></path></g><path id="node_outline8" fill="#ffc000" stroke="none" d="M406.5000111460686,72.49999377131462h103a5,5,0,0,1,5,5v8a5,5,0,0,1,-5,5h-103a5,5,0,0,1,-5,-5v-8a5,5,0,0,1,5,-5z"></path><g id="node_text8" fill="black"><text id="kity_text_107" text-rendering="inherit" font-size="12" dy=".8em" y="73.69999381899834" x="406.5000111460686">Urban Heat Island</text></g></g><g id="minder_node4"><g id="node_expander1" style="cursor: pointer;" display="none"><path id="kity_path_191" fill="white" stroke="gray" d="M530.5000149905682,29.499992221593857A6,6,0,1,1,518.5000149905682,29.499992221593857A6,6,0,1,1,530.5000149905682,29.499992221593857"></path><path id="kity_path_192" fill="none" stroke="gray"></path></g><path id="node_outline2" fill="none" stroke="none" d="M535.5000149905682,20.499992221593857h57a5,5,0,0,1,5,5v8a5,5,0,0,1,-5,5h-57a5,5,0,0,1,-5,-5v-8a5,5,0,0,1,5,-5z"></path><g id="node_text2" fill="black"><text id="kity_text_95" text-rendering="inherit" font-size="12" dy=".8em" y="21.699992269277573" x="535.5000149905682">Definition</text></g></g><g id="minder_node5"><g id="node_expander5" style="cursor: pointer;"><path id="kity_path_203" fill="white" stroke="gray" d="M530.5000149905682,81.49999377131462A6,6,0,1,1,518.5000149905682,81.49999377131462A6,6,0,1,1,530.5000149905682,81.49999377131462"></path><path id="kity_path_204" fill="none" stroke="gray" d="M520.0000149905682,81.49999377131462L529.0000149905682,81.49999377131462"></path></g><path id="node_outline6" fill="none" stroke="none" d="M535.5000149905682,72.49999377131462h40a5,5,0,0,1,5,5v8a5,5,0,0,1,-5,5h-40a5,5,0,0,1,-5,-5v-8a5,5,0,0,1,5,-5z"></path><g id="node_text6" fill="black"><text id="kity_text_103" text-rendering="inherit" font-size="12" dy=".8em" y="73.69999381899834" x="535.5000149905682">Impact</text></g></g><g id="minder_node6"><g id="node_expander2" style="cursor: pointer;" display="none"><path id="kity_path_194" fill="white" stroke="gray" d="M596.5000169575214,55.49999299645427A6,6,0,1,1,584.5000169575214,55.49999299645427A6,6,0,1,1,596.5000169575214,55.49999299645427"></path><path id="kity_path_195" fill="none" stroke="gray"></path></g><path id="node_outline3" fill="none" stroke="none" d="M601.5000169575214,46.49999299645427h34a5,5,0,0,1,5,5v8a5,5,0,0,1,-5,5h-34a5,5,0,0,1,-5,-5v-8a5,5,0,0,1,5,-5z"></path><g id="node_text3" fill="black"><text id="kity_text_97" text-rendering="inherit" font-size="12" dy=".8em" y="47.69999304413798" x="601.5000169575214">Social</text></g></g><g id="minder_node7"><g id="node_expander3" style="cursor: pointer;" display="none"><path id="kity_path_197" fill="white" stroke="gray" d="M596.5000169575214,81.49999377131462A6,6,0,1,1,584.5000169575214,81.49999377131462A6,6,0,1,1,596.5000169575214,81.49999377131462"></path><path id="kity_path_198" fill="none" stroke="gray"></path></g><path id="node_outline4" fill="none" stroke="none" d="M601.5000169575214,72.49999377131462h83a5,5,0,0,1,5,5v8a5,5,0,0,1,-5,5h-83a5,5,0,0,1,-5,-5v-8a5,5,0,0,1,5,-5z"></path><g id="node_text4" fill="black"><text id="kity_text_99" text-rendering="inherit" font-size="12" dy=".8em" y="73.69999381899834" x="601.5000169575214">Environmental</text></g></g><g id="minder_node8"><g id="node_expander4" style="cursor: pointer;" display="none"><path id="kity_path_200" fill="white" stroke="gray" d="M596.5000169575214,107.499994546175A6,6,0,1,1,584.5000169575214,107.499994546175A6,6,0,1,1,596.5000169575214,107.499994546175"></path><path id="kity_path_201" fill="none" stroke="gray"></path></g><path id="node_outline5" fill="none" stroke="none" d="M601.5000169575214,98.499994546175h56a5,5,0,0,1,5,5v8a5,5,0,0,1,-5,5h-56a5,5,0,0,1,-5,-5v-8a5,5,0,0,1,5,-5z"></path><g id="node_text5" fill="black"><text id="kity_text_101" text-rendering="inherit" font-size="12" dy=".8em" y="99.69999459385872" x="601.5000169575214">Economic</text></g></g><g id="minder_node9"><g id="node_expander6" style="cursor: pointer;" display="none"><path id="kity_path_206" fill="white" stroke="gray" d="M530.5000149905682,133.49999532103539A6,6,0,1,1,518.5000149905682,133.49999532103539A6,6,0,1,1,530.5000149905682,133.49999532103539"></path><path id="kity_path_207" fill="none" stroke="gray"></path></g><path id="node_outline7" fill="none" stroke="none" d="M535.5000149905682,124.49999532103539h45a5,5,0,0,1,5,5v8a5,5,0,0,1,-5,5h-45a5,5,0,0,1,-5,-5v-8a5,5,0,0,1,5,-5z"></path><g id="node_text7" fill="black"><text id="kity_text_105" text-rendering="inherit" font-size="12" dy=".8em" y="125.6999953687191" x="535.5000149905682">Context</text></g></g><g id="minder_node10"><path id="kity_path_287" fill="rgba(0, 0, 0, .25)" stroke="none" d="M280.5000074207783,279.49999991059303h55a10,10,0,0,1,10,10v6a10,10,0,0,1,-10,10h-55a10,10,0,0,1,-10,-10v-6a10,10,0,0,1,10,-10z" display="none"></path><g id="node_expander23" style="cursor: pointer;"><path id="kity_path_257" fill="white" stroke="gray" d="M260.5000074207783,287.49999991059303A6,6,0,1,1,248.50000742077827,287.49999991059303A6,6,0,1,1,260.5000074207783,287.49999991059303"></path><path id="kity_path_258" fill="none" stroke="gray" d="M250.00000742077827,287.49999991059303L259.0000074207783,287.49999991059303"></path></g><path id="node_outline24" fill="rgb(238, 243, 246)" stroke="rgb(115, 161, 191)" d="M264.5000074207783,274.49999991059303h73a3,3,0,0,1,3,3v20a3,3,0,0,1,-3,3h-73a3,3,0,0,1,-3,-3v-20a3,3,0,0,1,3,-3z" stroke-width="1"></path><g id="node_text24" fill="black"><text id="kity_text_139" text-rendering="inherit" font-size="14" dy=".8em" y="278.40000000596046" x="281.5000074207783">Policy</text></g></g><g id="minder_node11"><g id="node_expander14" style="cursor: pointer;"><path id="kity_path_230" fill="white" stroke="gray" d="M356.50000980496407,199.49999728798866A6,6,0,1,1,344.50000980496407,199.49999728798866A6,6,0,1,1,356.50000980496407,199.49999728798866"></path><path id="kity_path_231" fill="none" stroke="gray" d="M346.00000980496407,199.49999728798866L355.00000980496407,199.49999728798866"></path></g><path id="node_outline15" fill="#ffc000" stroke="none" d="M361.50000980496407,190.49999728798866h37a5,5,0,0,1,5,5v8a5,5,0,0,1,-5,5h-37a5,5,0,0,1,-5,-5v-8a5,5,0,0,1,5,-5z"></path><g id="node_text15" fill="black"><text id="kity_text_121" text-rendering="inherit" font-size="12" dy=".8em" y="191.69999733567238" x="361.50000980496407">Global</text></g></g><g id="minder_node12"><g id="node_expander9" style="cursor: pointer;" display="none"><path id="kity_path_215" fill="white" stroke="gray" d="M419.5000116825104,167.49999633431435A6,6,0,1,1,407.5000116825104,167.49999633431435A6,6,0,1,1,419.5000116825104,167.49999633431435"></path><path id="kity_path_216" fill="none" stroke="gray"></path></g><path id="node_outline10" fill="none" stroke="none" d="M424.5000116825104,158.49999633431435h113a5,5,0,0,1,5,5v8a5,5,0,0,1,-5,5h-113a5,5,0,0,1,-5,-5v-8a5,5,0,0,1,5,-5z"></path><g id="node_text10" fill="black"><text id="kity_text_111" text-rendering="inherit" font-size="12" dy=".8em" y="159.69999638199806" x="424.5000116825104">New Urban Agenda</text></g></g><g id="minder_node13"><g id="node_expander10" style="cursor: pointer;" display="none"><path id="kity_path_218" fill="white" stroke="gray" d="M419.5000116825104,193.49999710917473A6,6,0,1,1,407.5000116825104,193.49999710917473A6,6,0,1,1,419.5000116825104,193.49999710917473"></path><path id="kity_path_219" fill="none" stroke="gray"></path></g><path id="node_outline11" fill="none" stroke="none" d="M424.5000116825104,184.49999710917473h219a5,5,0,0,1,5,5v8a5,5,0,0,1,-5,5h-219a5,5,0,0,1,-5,-5v-8a5,5,0,0,1,5,-5z"></path><g id="node_text11" fill="black"><text id="kity_text_113" text-rendering="inherit" font-size="12" dy=".8em" y="185.69999715685844" x="424.5000116825104">Sustainable Development Goals (SDG)</text></g></g><g id="minder_node14"><g id="node_expander13" style="cursor: pointer;"><path id="kity_path_227" fill="white" stroke="gray" d="M419.5000116825104,232.4999982714653A6,6,0,1,1,407.5000116825104,232.4999982714653A6,6,0,1,1,419.5000116825104,232.4999982714653"></path><path id="kity_path_228" fill="none" stroke="gray" d="M409.0000116825104,232.4999982714653L418.0000116825104,232.4999982714653"></path></g><path id="node_outline14" fill="none" stroke="none" d="M424.5000116825104,223.4999982714653h146a5,5,0,0,1,5,5v8a5,5,0,0,1,-5,5h-146a5,5,0,0,1,-5,-5v-8a5,5,0,0,1,5,-5z"></path><g id="node_text14" fill="black"><text id="kity_text_119" text-rendering="inherit" font-size="12" dy=".8em" y="224.69999831914902" x="424.5000116825104">Beat The Heat Handbook</text></g></g><g id="minder_node15"><g id="node_expander11" style="cursor: pointer;" display="none"><path id="kity_path_221" fill="white" stroke="gray" d="M591.5000168085098,219.4999978840351A6,6,0,1,1,579.5000168085098,219.4999978840351A6,6,0,1,1,591.5000168085098,219.4999978840351"></path><path id="kity_path_222" fill="none" stroke="gray"></path></g><path id="node_outline12" fill="none" stroke="none" d="M596.5000168085098,210.4999978840351h70a5,5,0,0,1,5,5v8a5,5,0,0,1,-5,5h-70a5,5,0,0,1,-5,-5v-8a5,5,0,0,1,5,-5z"></path><g id="node_text12" fill="black"><text id="kity_text_115" text-rendering="inherit" font-size="12" dy=".8em" y="211.69999793171883" x="596.5000168085098">Superblocks</text></g></g><g id="minder_node16"><g id="node_expander12" style="cursor: pointer;" display="none"><path id="kity_path_224" fill="white" stroke="gray" d="M591.5000168085098,245.4999986588955A6,6,0,1,1,579.5000168085098,245.4999986588955A6,6,0,1,1,591.5000168085098,245.4999986588955"></path><path id="kity_path_225" fill="none" stroke="gray"></path></g><path id="node_outline13" fill="none" stroke="none" d="M596.5000168085098,236.4999986588955h147a5,5,0,0,1,5,5v8a5,5,0,0,1,-5,5h-147a5,5,0,0,1,-5,-5v-8a5,5,0,0,1,5,-5z"></path><g id="node_text13" fill="black"><text id="kity_text_117" text-rendering="inherit" font-size="12" dy=".8em" y="237.6999987065792" x="596.5000168085098">Sydney's western suburbs</text></g></g><g id="minder_node17"><g id="node_expander18" style="cursor: pointer;"><path id="kity_path_242" fill="white" stroke="gray" d="M356.50000980496407,297.50000020861626A6,6,0,1,1,344.50000980496407,297.50000020861626A6,6,0,1,1,356.50000980496407,297.50000020861626"></path><path id="kity_path_243" fill="none" stroke="gray" d="M346.00000980496407,297.50000020861626L355.00000980496407,297.50000020861626"></path></g><path id="node_outline19" fill="none" stroke="none" d="M361.50000980496407,288.50000020861626h79a5,5,0,0,1,5,5v8a5,5,0,0,1,-5,5h-79a5,5,0,0,1,-5,-5v-8a5,5,0,0,1,5,-5z"></path><g id="node_text19" fill="black"><text id="kity_text_129" text-rendering="inherit" font-size="12" dy=".8em" y="289.7000002563" x="361.50000980496407">Metropolitan&#xa0;</text></g></g><g id="minder_node18"><g id="node_expander15" style="cursor: pointer;" display="none"><path id="kity_path_233" fill="white" stroke="gray" d="M461.5000129342079,271.4999994337559A6,6,0,1,1,449.5000129342079,271.4999994337559A6,6,0,1,1,461.5000129342079,271.4999994337559"></path><path id="kity_path_234" fill="none" stroke="gray"></path></g><path id="node_outline16" fill="none" stroke="none" d="M466.5000129342079,262.4999994337559h158a5,5,0,0,1,5,5v8a5,5,0,0,1,-5,5h-158a5,5,0,0,1,-5,-5v-8a5,5,0,0,1,5,-5z"></path><g id="node_text16" fill="black"><text id="kity_text_123" text-rendering="inherit" font-size="12" dy=".8em" y="263.6999994814396" x="466.5000129342079">Perth and Peel @3.5 million</text></g></g><g id="minder_node19"><g id="node_expander16" style="cursor: pointer;" display="none"><path id="kity_path_236" fill="white" stroke="gray" d="M461.5000129342079,297.50000020861626A6,6,0,1,1,449.5000129342079,297.50000020861626A6,6,0,1,1,461.5000129342079,297.50000020861626"></path><path id="kity_path_237" fill="none" stroke="gray"></path></g><path id="node_outline17" fill="none" stroke="none" d="M466.5000129342079,288.50000020861626h97a5,5,0,0,1,5,5v8a5,5,0,0,1,-5,5h-97a5,5,0,0,1,-5,-5v-8a5,5,0,0,1,5,-5z"></path><g id="node_text17" fill="black"><text id="kity_text_125" text-rendering="inherit" font-size="12" dy=".8em" y="289.7000002563" x="466.5000129342079">The London Plan</text></g></g><g id="minder_node20"><g id="node_expander17" style="cursor: pointer;" display="none"><path id="kity_path_239" fill="white" stroke="gray" d="M461.5000129342079,323.50000098347664A6,6,0,1,1,449.5000129342079,323.50000098347664A6,6,0,1,1,461.5000129342079,323.50000098347664"></path><path id="kity_path_240" fill="none" stroke="gray"></path></g><path id="node_outline18" fill="none" stroke="none" d="M466.5000129342079,314.50000098347664h141a5,5,0,0,1,5,5v8a5,5,0,0,1,-5,5h-141a5,5,0,0,1,-5,-5v-8a5,5,0,0,1,5,-5z"></path><g id="node_text18" fill="black"><text id="kity_text_127" text-rendering="inherit" font-size="12" dy=".8em" y="315.70000103116035" x="466.5000129342079">Singapore' s Master Plan</text></g></g><g id="minder_node21"><g id="node_expander22" style="cursor: pointer;"><path id="kity_path_254" fill="white" stroke="gray" d="M356.50000980496407,375.5000025331974A6,6,0,1,1,344.50000980496407,375.5000025331974A6,6,0,1,1,356.50000980496407,375.5000025331974"></path><path id="kity_path_255" fill="none" stroke="gray" d="M346.00000980496407,375.5000025331974L355.00000980496407,375.5000025331974"></path></g><path id="node_outline23" fill="none" stroke="none" d="M361.50000980496407,366.5000025331974h54a5,5,0,0,1,5,5v8a5,5,0,0,1,-5,5h-54a5,5,0,0,1,-5,-5v-8a5,5,0,0,1,5,-5z"></path><g id="node_text23" fill="black"><text id="kity_text_137" text-rendering="inherit" font-size="12" dy=".8em" y="367.7000025808811" x="361.50000980496407">Local city</text></g></g><g id="minder_node22"><g id="node_expander19" style="cursor: pointer;" display="none"><path id="kity_path_245" fill="white" stroke="gray" d="M436.50001218914986,349.500001758337A6,6,0,1,1,424.50001218914986,349.500001758337A6,6,0,1,1,436.50001218914986,349.500001758337"></path><path id="kity_path_246" fill="none" stroke="gray"></path></g><path id="node_outline20" fill="none" stroke="none" d="M441.50001218914986,340.500001758337h128a5,5,0,0,1,5,5v8a5,5,0,0,1,-5,5h-128a5,5,0,0,1,-5,-5v-8a5,5,0,0,1,5,-5z"></path><g id="node_text20" fill="black"><text id="kity_text_131" text-rendering="inherit" font-size="12" dy=".8em" y="341.70000180602074" x="441.50001218914986">Seattle' s Green Factor</text></g></g><g id="minder_node23"><g id="node_expander20" style="cursor: pointer;" display="none"><path id="kity_path_248" fill="white" stroke="gray" d="M436.50001218914986,375.5000025331974A6,6,0,1,1,424.50001218914986,375.5000025331974A6,6,0,1,1,436.50001218914986,375.5000025331974"></path><path id="kity_path_249" fill="none" stroke="gray"></path></g><path id="node_outline21" fill="none" stroke="none" d="M441.50001218914986,366.5000025331974h207a5,5,0,0,1,5,5v8a5,5,0,0,1,-5,5h-207a5,5,0,0,1,-5,-5v-8a5,5,0,0,1,5,-5z"></path><g id="node_text21" fill="black"><text id="kity_text_133" text-rendering="inherit" font-size="12" dy=".8em" y="367.7000025808811" x="441.50001218914986">Baton Rouge' s landscape ordinance</text></g></g><g id="minder_node24"><g id="node_expander21" style="cursor: pointer;" display="none"><path id="kity_path_251" fill="white" stroke="gray" d="M436.50001218914986,401.5000033080578A6,6,0,1,1,424.50001218914986,401.5000033080578A6,6,0,1,1,436.50001218914986,401.5000033080578"></path><path id="kity_path_252" fill="none" stroke="gray"></path></g><path id="node_outline22" fill="none" stroke="none" d="M441.50001218914986,392.5000033080578h146a5,5,0,0,1,5,5v8a5,5,0,0,1,-5,5h-146a5,5,0,0,1,-5,-5v-8a5,5,0,0,1,5,-5z"></path><g id="node_text22" fill="black"><text id="kity_text_135" text-rendering="inherit" font-size="12" dy=".8em" y="393.7000033557415" x="441.50001218914986">Fremantle' s Urban Forest</text></g></g><g id="minder_node25"><path id="kity_path_288" fill="rgba(0, 0, 0, .25)" stroke="none" d="M280.5000074207783,492.5000062584877h71a10,10,0,0,1,10,10v6a10,10,0,0,1,-10,10h-71a10,10,0,0,1,-10,-10v-6a10,10,0,0,1,10,-10z" display="none"></path><g id="node_expander32" style="cursor: pointer;"><path id="kity_path_284" fill="white" stroke="gray" d="M260.5000074207783,500.5000062584877A6,6,0,1,1,248.50000742077827,500.5000062584877A6,6,0,1,1,260.5000074207783,500.5000062584877"></path><path id="kity_path_285" fill="none" stroke="gray" d="M250.00000742077827,500.5000062584877L259.0000074207783,500.5000062584877"></path></g><path id="node_outline33" fill="rgb(238, 243, 246)" stroke="rgb(115, 161, 191)" d="M264.5000074207783,487.5000062584877h87a3,3,0,0,1,3,3v20a3,3,0,0,1,-3,3h-87a3,3,0,0,1,-3,-3v-20a3,3,0,0,1,3,-3z" stroke-width="1"></path><g id="node_text33" fill="black"><text id="kity_text_157" text-rendering="inherit" font-size="14" dy=".8em" y="491.40000635385513" x="281.5000074207783">Projects</text></g></g><g id="minder_node26"><g id="node_expander27" style="cursor: pointer;"><path id="kity_path_269" fill="white" stroke="gray" d="M370.5000102221966,461.5000050961971A6,6,0,1,1,358.5000102221966,461.5000050961971A6,6,0,1,1,370.5000102221966,461.5000050961971"></path><path id="kity_path_270" fill="none" stroke="gray" d="M360.0000102221966,461.5000050961971L369.0000102221966,461.5000050961971"></path></g><path id="node_outline28" fill="#ffc000" stroke="none" d="M375.5000102221966,452.5000050961971h52a5,5,0,0,1,5,5v8a5,5,0,0,1,-5,5h-52a5,5,0,0,1,-5,-5v-8a5,5,0,0,1,5,-5z"></path><g id="node_text28" fill="black"><text id="kity_text_147" text-rendering="inherit" font-size="12" dy=".8em" y="453.70000514388084" x="375.5000102221966">First step</text></g></g><g id="minder_node27"><g id="node_expander24" style="cursor: pointer;" display="none"><path id="kity_path_260" fill="white" stroke="gray" d="M448.5000125467777,435.50000432133675A6,6,0,1,1,436.5000125467777,435.50000432133675A6,6,0,1,1,448.5000125467777,435.50000432133675"></path><path id="kity_path_261" fill="none" stroke="gray"></path></g><path id="node_outline25" fill="none" stroke="none" d="M453.5000125467777,426.50000432133675h107a5,5,0,0,1,5,5v8a5,5,0,0,1,-5,5h-107a5,5,0,0,1,-5,-5v-8a5,5,0,0,1,5,-5z"></path><g id="node_text25" fill="black"><text id="kity_text_141" text-rendering="inherit" font-size="12" dy=".8em" y="427.70000436902046" x="453.5000125467777">Search for EO data</text></g></g><g id="minder_node28"><g id="node_expander25" style="cursor: pointer;" display="none"><path id="kity_path_263" fill="white" stroke="gray" d="M448.5000125467777,461.5000050961971A6,6,0,1,1,436.5000125467777,461.5000050961971A6,6,0,1,1,448.5000125467777,461.5000050961971"></path><path id="kity_path_264" fill="none" stroke="gray"></path></g><path id="node_outline26" fill="none" stroke="none" d="M453.5000125467777,452.5000050961971h93a5,5,0,0,1,5,5v8a5,5,0,0,1,-5,5h-93a5,5,0,0,1,-5,-5v-8a5,5,0,0,1,5,-5z"></path><g id="node_text26" fill="black"><text id="kity_text_143" text-rendering="inherit" font-size="12" dy=".8em" y="453.70000514388084" x="453.5000125467777">Identify an issue</text></g></g><g id="minder_node29"><g id="node_expander26" style="cursor: pointer;" display="none"><path id="kity_path_266" fill="white" stroke="gray" d="M448.5000125467777,487.5000058710575A6,6,0,1,1,436.5000125467777,487.5000058710575A6,6,0,1,1,448.5000125467777,487.5000058710575"></path><path id="kity_path_267" fill="none" stroke="gray"></path></g><path id="node_outline27" fill="none" stroke="none" d="M453.5000125467777,478.5000058710575h120a5,5,0,0,1,5,5v8a5,5,0,0,1,-5,5h-120a5,5,0,0,1,-5,-5v-8a5,5,0,0,1,5,-5z"></path><g id="node_text27" fill="black"><text id="kity_text_145" text-rendering="inherit" font-size="12" dy=".8em" y="479.7000059187412" x="453.5000125467777">Look at global policy</text></g></g><g id="minder_node30"><g id="node_expander31" style="cursor: pointer;"><path id="kity_path_281" fill="white" stroke="gray" d="M370.5000102221966,539.5000074207783A6,6,0,1,1,358.5000102221966,539.5000074207783A6,6,0,1,1,370.5000102221966,539.5000074207783"></path><path id="kity_path_282" fill="none" stroke="gray" d="M360.0000102221966,539.5000074207783L369.0000102221966,539.5000074207783"></path></g><path id="node_outline32" fill="none" stroke="none" d="M375.5000102221966,530.5000074207783h70a5,5,0,0,1,5,5v8a5,5,0,0,1,-5,5h-70a5,5,0,0,1,-5,-5v-8a5,5,0,0,1,5,-5z"></path><g id="node_text32" fill="black"><text id="kity_text_155" text-rendering="inherit" font-size="12" dy=".8em" y="531.700007468462" x="375.5000102221966">Second step</text></g></g><g id="minder_node31"><g id="node_expander28" style="cursor: pointer;" display="none"><path id="kity_path_272" fill="white" stroke="gray" d="M466.5000130832195,513.5000066459179A6,6,0,1,1,454.5000130832195,513.5000066459179A6,6,0,1,1,466.5000130832195,513.5000066459179"></path><path id="kity_path_273" fill="none" stroke="gray"></path></g><path id="node_outline29" fill="none" stroke="none" d="M471.5000130832195,504.5000066459179h114a5,5,0,0,1,5,5v8a5,5,0,0,1,-5,5h-114a5,5,0,0,1,-5,-5v-8a5,5,0,0,1,5,-5z"></path><g id="node_text29" fill="black"><text id="kity_text_149" text-rendering="inherit" font-size="12" dy=".8em" y="505.7000066936016" x="471.5000130832195">What can be solved</text></g></g><g id="minder_node32"><g id="node_expander29" style="cursor: pointer;" display="none"><path id="kity_path_275" fill="white" stroke="gray" d="M466.5000130832195,539.5000074207783A6,6,0,1,1,454.5000130832195,539.5000074207783A6,6,0,1,1,466.5000130832195,539.5000074207783"></path><path id="kity_path_276" fill="none" stroke="gray"></path></g><path id="node_outline30" fill="none" stroke="none" d="M471.5000130832195,530.5000074207783h179a5,5,0,0,1,5,5v8a5,5,0,0,1,-5,5h-179a5,5,0,0,1,-5,-5v-8a5,5,0,0,1,5,-5z"></path><g id="node_text30" fill="black"><text id="kity_text_151" text-rendering="inherit" font-size="12" dy=".8em" y="531.700007468462" x="471.5000130832195">Contribute to another question</text></g></g><g id="minder_node33"><g id="node_expander30" style="cursor: pointer;" display="none"><path id="kity_path_278" fill="white" stroke="gray" d="M466.5000130832195,565.5000081956387A6,6,0,1,1,454.5000130832195,565.5000081956387A6,6,0,1,1,466.5000130832195,565.5000081956387"></path><path id="kity_path_279" fill="none" stroke="gray"></path></g><path id="node_outline31" fill="none" stroke="none" d="M471.5000130832195,556.5000081956387h82a5,5,0,0,1,5,5v8a5,5,0,0,1,-5,5h-82a5,5,0,0,1,-5,-5v-8a5,5,0,0,1,5,-5z"></path><g id="node_text31" fill="black"><text id="kity_text_153" text-rendering="inherit" font-size="12" dy=".8em" y="557.7000082433224" x="471.5000130832195"> data workflow </text></g></g></g></g></svg>