<svg id="kity_svg_6" xmlns="http://www.w3.org/2000/svg" xmlns:xlink="http://www.w3.org/1999/xlink" version="1.1" width="932" height="776" style="background: rgb(251, 251, 251); visibility: visible;" viewBox="0 0 932 776"><defs id="kity_defs_7"><linearGradient id="kity_linearGradient_17" x1="0" y1="0" x2="0" y2="1"><stop id="kity_stop_18" offset="0" stop-color="rgb(255, 255, 255)"></stop><stop id="kity_stop_19" offset="1" stop-color="rgb(204, 204, 204)"></stop></linearGradient><marker id="kity_marker_2" orient="auto" refX="6" refY="0" viewBox="-7 -7 14 14" markerWidth="7" markerHeight="7" markerUnits="userSpaceOnUse"><path id="kity_path_3" fill="rgb(115, 161, 191)" stroke="none" d="M6,0A6,6,0,1,1,-6,0A6,6,0,1,1,6,0"></path></marker></defs><g id="kity_g_8"><g id="minder1" text-rendering="optimize-speed"><g id="minder_connect_group1"><path id="kity_path_31" fill="none" stroke="rgb(115, 161, 191)" stroke-width="1" d="M178,387.5A173.5,222,0,0,1,351.5,165.5"></path><path id="kity_path_33" fill="none" stroke="rgb(115, 161, 191)" stroke-width="1" d="M465.5,165.5C473.5,165.5,473.5,68.5,481.5,68.5"></path><path id="kity_path_35" fill="none" stroke="rgb(115, 161, 191)" stroke-width="1" d="M560.5,68.5C568.5,68.5,568.5,29.5,576.5,29.5"></path><path id="kity_path_37" fill="none" stroke="rgb(115, 161, 191)" stroke-width="1" d="M560.5,68.5C568.5,68.5,568.5,55.5,576.5,55.5"></path><path id="kity_path_39" fill="none" stroke="rgb(115, 161, 191)" stroke-width="1" d="M560.5,68.5C568.5,68.5,568.5,81.5,576.5,81.5"></path><path id="kity_path_41" fill="none" stroke="rgb(115, 161, 191)" stroke-width="1" d="M560.5,68.5C568.5,68.5,568.5,107.5,576.5,107.5"></path><path id="kity_path_43" fill="none" stroke="rgb(115, 161, 191)" stroke-width="1" d="M465.5,165.5C473.5,165.5,473.5,133.5,481.5,133.5"></path><path id="kity_path_45" fill="none" stroke="rgb(115, 161, 191)" stroke-width="1" d="M465.5,165.5C473.5,165.5,473.5,185.5,481.5,185.5"></path><path id="kity_path_47" fill="none" stroke="rgb(115, 161, 191)" stroke-width="1" d="M628.5,185.5C636.5,185.5,636.5,159.5,644.5,159.5"></path><path id="kity_path_49" fill="none" stroke="rgb(115, 161, 191)" stroke-width="1" d="M628.5,185.5C636.5,185.5,636.5,185.5,644.5,185.5"></path><path id="kity_path_51" fill="none" stroke="rgb(115, 161, 191)" stroke-width="1" d="M628.5,185.5C636.5,185.5,636.5,211.5,644.5,211.5"></path><path id="kity_path_53" fill="none" stroke="rgb(115, 161, 191)" stroke-width="1" d="M465.5,165.5C473.5,165.5,473.5,263.5,481.5,263.5"></path><path id="kity_path_55" fill="none" stroke="rgb(115, 161, 191)" stroke-width="1" d="M524.5,263.5C532.5,263.5,532.5,237.5,540.5,237.5"></path><path id="kity_path_57" fill="none" stroke="rgb(115, 161, 191)" stroke-width="1" d="M524.5,263.5C532.5,263.5,532.5,263.5,540.5,263.5"></path><path id="kity_path_59" fill="none" stroke="rgb(115, 161, 191)" stroke-width="1" d="M524.5,263.5C532.5,263.5,532.5,289.5,540.5,289.5"></path><path id="kity_path_61" fill="none" stroke="rgb(115, 161, 191)" stroke-width="1" d="M178,387.5A173.5,39,0,0,1,351.5,348.5"></path><path id="kity_path_63" fill="none" stroke="rgb(115, 161, 191)" stroke-width="1" d="M530.5,348.5C538.5,348.5,538.5,322.5,546.5,322.5"></path><path id="kity_path_65" fill="none" stroke="rgb(115, 161, 191)" stroke-width="1" d="M634.5,322.5C642.5,322.5,642.5,322.5,650.5,322.5"></path><path id="kity_path_67" fill="none" stroke="rgb(115, 161, 191)" stroke-width="1" d="M530.5,348.5C538.5,348.5,538.5,374.5,546.5,374.5"></path><path id="kity_path_69" fill="none" stroke="rgb(115, 161, 191)" stroke-width="1" d="M647.5,374.5C655.5,374.5,655.5,348.5,663.5,348.5"></path><path id="kity_path_71" fill="none" stroke="rgb(115, 161, 191)" stroke-width="1" d="M647.5,374.5C655.5,374.5,655.5,374.5,663.5,374.5"></path><path id="kity_path_73" fill="none" stroke="rgb(115, 161, 191)" stroke-width="1" d="M647.5,374.5C655.5,374.5,655.5,400.5,663.5,400.5"></path><path id="kity_path_75" fill="none" stroke="rgb(115, 161, 191)" stroke-width="1" d="M178,387.5A173.5,223,0,0,0,351.5,610.5"></path><path id="kity_path_77" fill="none" stroke="rgb(115, 161, 191)" stroke-width="1" d="M497.5,610.5C505.5,610.5,505.5,500.5,513.5,500.5"></path><path id="kity_path_79" fill="none" stroke="rgb(115, 161, 191)" stroke-width="1" d="M592.5,500.5C600.5,500.5,600.5,435.5,608.5,435.5"></path><path id="kity_path_81" fill="none" stroke="rgb(115, 161, 191)" stroke-width="1" d="M592.5,500.5C600.5,500.5,600.5,461.5,608.5,461.5"></path><path id="kity_path_83" fill="none" stroke="rgb(115, 161, 191)" stroke-width="1" d="M592.5,500.5C600.5,500.5,600.5,487.5,608.5,487.5"></path><path id="kity_path_85" fill="none" stroke="rgb(115, 161, 191)" stroke-width="1" d="M592.5,500.5C600.5,500.5,600.5,513.5,608.5,513.5"></path><path id="kity_path_87" fill="none" stroke="rgb(115, 161, 191)" stroke-width="1" d="M592.5,500.5C600.5,500.5,600.5,539.5,608.5,539.5"></path><path id="kity_path_89" fill="none" stroke="rgb(115, 161, 191)" stroke-width="1" d="M592.5,500.5C600.5,500.5,600.5,565.5,608.5,565.5"></path><path id="kity_path_91" fill="none" stroke="rgb(115, 161, 191)" stroke-width="1" d="M497.5,610.5C505.5,610.5,505.5,591.5,513.5,591.5"></path><path id="kity_path_93" fill="none" stroke="rgb(115, 161, 191)" stroke-width="1" d="M497.5,610.5C505.5,610.5,505.5,617.5,513.5,617.5"></path><path id="kity_path_95" fill="none" stroke="rgb(115, 161, 191)" stroke-width="1" d="M497.5,610.5C505.5,610.5,505.5,656.5,513.5,656.5"></path><path id="kity_path_97" fill="none" stroke="rgb(115, 161, 191)" stroke-width="1" d="M608.5,656.5C616.5,656.5,616.5,643.5,624.5,643.5"></path><path id="kity_path_99" fill="none" stroke="rgb(115, 161, 191)" stroke-width="1" d="M608.5,656.5C616.5,656.5,616.5,669.5,624.5,669.5"></path><path id="kity_path_101" fill="none" stroke="rgb(115, 161, 191)" stroke-width="1" d="M497.5,610.5C505.5,610.5,505.5,721.5,513.5,721.5"></path><path id="kity_path_103" fill="none" stroke="rgb(115, 161, 191)" stroke-width="1" d="M597.5,721.5C605.5,721.5,605.5,695.5,613.5,695.5"></path><path id="kity_path_105" fill="none" stroke="rgb(115, 161, 191)" stroke-width="1" d="M597.5,721.5C605.5,721.5,605.5,721.5,613.5,721.5"></path><path id="kity_path_107" fill="none" stroke="rgb(115, 161, 191)" stroke-width="1" d="M597.5,721.5C605.5,721.5,605.5,747.5,613.5,747.5"></path></g><g id="minder_node1"><path id="kity_path_346" fill="rgba(0, 0, 0, .25)" stroke="none" d="M33.5,370.5h443a22,22,0,0,1,22,22v0a22,22,0,0,1,-22,22h-443a22,22,0,0,1,-22,-22v0a22,22,0,0,1,22,-22z" display="none"></path><path id="node_outline1" fill="rgb(115, 161, 191)" stroke="rgb(57, 80, 96)" d="M25.5,373.5h305a5,5,0,0,1,5,5v18a5,5,0,0,1,-5,5h-305a5,5,0,0,1,-5,-5v-18a5,5,0,0,1,5,-5z" stroke-width="3"></path><g id="node_text1" fill="white"><text id="kity_text_22" text-rendering="inherit" font-size="16" dy=".8em" y="377.09999990463257" x="32.5">9 Synthetic Aperture Radar (SAR) data</text></g></g><g id="kity_g_12"><path id="kity_path_13" fill="none" stroke="none" d="M32.5,387.5h0v0h0z"></path></g><g id="kity_g_14"><path id="kity_path_15" fill="none" stroke="none" d="M32.5,387.5h0v0h0z"></path><path id="kity_path_16" fill="none" stroke="none"></path></g><g id="minder_node2"><path id="kity_path_343" fill="rgba(0, 0, 0, .25)" stroke="none" d="M372.50001016259193,157.49999338388443h92a10,10,0,0,1,10,10v6a10,10,0,0,1,-10,10h-92a10,10,0,0,1,-10,-10v-6a10,10,0,0,1,10,-10z" display="none"></path><g id="node_expander15" style="cursor: pointer;"><path id="kity_path_269" fill="white" stroke="gray" d="M352.50001016259193,165.49999338388443A6,6,0,1,1,340.50001016259193,165.49999338388443A6,6,0,1,1,352.50001016259193,165.49999338388443"></path><path id="kity_path_270" fill="none" stroke="gray" d="M342.00001016259193,165.49999338388443L351.00001016259193,165.49999338388443"></path></g><path id="node_outline16" fill="rgb(238, 243, 246)" stroke="rgb(115, 161, 191)" d="M356.50001016259193,152.49999338388443h106a3,3,0,0,1,3,3v20a3,3,0,0,1,-3,3h-106a3,3,0,0,1,-3,-3v-20a3,3,0,0,1,3,-3z" stroke-width="1"></path><g id="node_text16" fill="black"><text id="kity_text_138" text-rendering="inherit" font-size="14" dy=".8em" y="156.39999347925186" x="373.50001016259193">SAR Basics</text></g></g><g id="minder_node3"><g id="node_expander5" style="cursor: pointer;"><path id="kity_path_239" fill="white" stroke="gray" d="M481.50001353025436,68.49999049305916A6,6,0,1,1,469.50001353025436,68.49999049305916A6,6,0,1,1,481.50001353025436,68.49999049305916"></path><path id="kity_path_240" fill="none" stroke="gray" d="M471.00001353025436,68.49999049305916L480.00001353025436,68.49999049305916"></path></g><path id="node_outline6" fill="none" stroke="none" d="M486.50001353025436,59.49999049305916h69a5,5,0,0,1,5,5v8a5,5,0,0,1,-5,5h-69a5,5,0,0,1,-5,-5v-8a5,5,0,0,1,5,-5z"></path><g id="node_text6" fill="black"><text id="kity_text_117" text-rendering="inherit" font-size="12" dy=".8em" y="60.699990540742874" x="486.50001353025436">Background</text></g></g><g id="minder_node4"><g id="node_expander1" style="cursor: pointer;" display="none"><path id="kity_path_227" fill="white" stroke="gray" d="M576.500016361475,29.49998933076853A6,6,0,1,1,564.500016361475,29.49998933076853A6,6,0,1,1,576.500016361475,29.49998933076853"></path><path id="kity_path_228" fill="none" stroke="gray"></path></g><path id="node_outline2" fill="none" stroke="none" d="M581.500016361475,20.49998933076853h83a5,5,0,0,1,5,5v8a5,5,0,0,1,-5,5h-83a5,5,0,0,1,-5,-5v-8a5,5,0,0,1,5,-5z"></path><g id="node_text2" fill="black"><text id="kity_text_109" text-rendering="inherit" font-size="12" dy=".8em" y="21.699989378452244" x="581.500016361475">Active sensors</text></g></g><g id="minder_node5"><g id="node_expander2" style="cursor: pointer;" display="none"><path id="kity_path_230" fill="white" stroke="gray" d="M576.500016361475,55.49999010562897A6,6,0,1,1,564.500016361475,55.49999010562897A6,6,0,1,1,576.500016361475,55.49999010562897"></path><path id="kity_path_231" fill="none" stroke="gray"></path></g><path id="node_outline3" fill="none" stroke="none" d="M581.500016361475,46.49999010562897h147a5,5,0,0,1,5,5v8a5,5,0,0,1,-5,5h-147a5,5,0,0,1,-5,-5v-8a5,5,0,0,1,5,-5z"></path><g id="node_text3" fill="black"><text id="kity_text_111" text-rendering="inherit" font-size="12" dy=".8em" y="47.69999015331268" x="581.500016361475">Have surface texture data</text></g></g><g id="minder_node6"><g id="node_expander3" style="cursor: pointer;" display="none"><path id="kity_path_233" fill="white" stroke="gray" d="M576.500016361475,81.49999088048929A6,6,0,1,1,564.500016361475,81.49999088048929A6,6,0,1,1,576.500016361475,81.49999088048929"></path><path id="kity_path_234" fill="none" stroke="gray"></path></g><path id="node_outline4" fill="#ffc000" stroke="none" d="M581.500016361475,72.49999088048929h186a5,5,0,0,1,5,5v8a5,5,0,0,1,-5,5h-186a5,5,0,0,1,-5,-5v-8a5,5,0,0,1,5,-5z"></path><g id="node_text4" fill="black"><text id="kity_text_113" text-rendering="inherit" font-size="12" dy=".8em" y="73.69999092817301" x="581.500016361475">See through weather and clouds</text></g></g><g id="minder_node7"><g id="node_expander4" style="cursor: pointer;" display="none"><path id="kity_path_236" fill="white" stroke="gray" d="M576.500016361475,107.49999165534973A6,6,0,1,1,564.500016361475,107.49999165534973A6,6,0,1,1,576.500016361475,107.49999165534973"></path><path id="kity_path_237" fill="none" stroke="gray"></path></g><path id="node_outline5" fill="none" stroke="none" d="M581.500016361475,98.49999165534973h260a5,5,0,0,1,5,5v8a5,5,0,0,1,-5,5h-260a5,5,0,0,1,-5,-5v-8a5,5,0,0,1,5,-5z"></path><g id="node_text5" fill="black"><text id="kity_text_115" text-rendering="inherit" font-size="12" dy=".8em" y="99.69999170303345" x="581.500016361475">Different wavelengths - different applications</text></g></g><g id="minder_node8"><g id="node_expander6" style="cursor: pointer;" display="none"><path id="kity_path_242" fill="white" stroke="gray" d="M481.50001353025436,133.4999924302101A6,6,0,1,1,469.50001353025436,133.4999924302101A6,6,0,1,1,481.50001353025436,133.4999924302101"></path><path id="kity_path_243" fill="none" stroke="gray"></path></g><path id="node_outline7" fill="none" stroke="none" d="M486.50001353025436,124.49999243021011h95a5,5,0,0,1,5,5v8a5,5,0,0,1,-5,5h-95a5,5,0,0,1,-5,-5v-8a5,5,0,0,1,5,-5z"></path><g id="node_text7" fill="black"><text id="kity_text_119" text-rendering="inherit" font-size="12" dy=".8em" y="125.69999247789383" x="486.50001353025436">SAR polarization</text></g></g><g id="minder_node9"><g id="node_expander10" style="cursor: pointer;"><path id="kity_path_254" fill="white" stroke="gray" d="M481.50001353025436,185.4999939799309A6,6,0,1,1,469.50001353025436,185.4999939799309A6,6,0,1,1,481.50001353025436,185.4999939799309"></path><path id="kity_path_255" fill="none" stroke="gray" d="M471.00001353025436,185.4999939799309L480.00001353025436,185.4999939799309"></path></g><path id="node_outline11" fill="#ffc000" stroke="none" d="M486.50001353025436,167.4999939799309h137a5,5,0,0,1,5,5v26a5,5,0,0,1,-5,5h-137a5,5,0,0,1,-5,-5v-26a5,5,0,0,1,5,-5z"></path><g id="node_text11" fill="black"><text id="kity_text_127" text-rendering="inherit" font-size="12" dy=".8em" y="168.69999402761462" x="486.50001353025436">Amplitude (backscatter) </text><text id="kity_text_128" text-rendering="inherit" font-size="12" dy=".8em" y="186.69999402761462" x="486.50001353025436">and phase</text></g></g><g id="minder_node10"><g id="node_expander7" style="cursor: pointer;" display="none"><path id="kity_path_245" fill="white" stroke="gray" d="M644.5000183880329,159.4999932050705A6,6,0,1,1,632.5000183880329,159.4999932050705A6,6,0,1,1,644.5000183880329,159.4999932050705"></path><path id="kity_path_246" fill="none" stroke="gray"></path></g><path id="node_outline8" fill="none" stroke="none" d="M649.5000183880329,150.4999932050705h68a5,5,0,0,1,5,5v8a5,5,0,0,1,-5,5h-68a5,5,0,0,1,-5,-5v-8a5,5,0,0,1,5,-5z"></path><g id="node_text8" fill="black"><text id="kity_text_121" text-rendering="inherit" font-size="12" dy=".8em" y="151.6999932527542" x="649.5000183880329">polarization</text></g></g><g id="minder_node11"><g id="node_expander8" style="cursor: pointer;" display="none"><path id="kity_path_248" fill="white" stroke="gray" d="M644.5000183880329,185.4999939799309A6,6,0,1,1,632.5000183880329,185.4999939799309A6,6,0,1,1,644.5000183880329,185.4999939799309"></path><path id="kity_path_249" fill="none" stroke="gray"></path></g><path id="node_outline9" fill="none" stroke="none" d="M649.5000183880329,176.4999939799309h181a5,5,0,0,1,5,5v8a5,5,0,0,1,-5,5h-181a5,5,0,0,1,-5,-5v-8a5,5,0,0,1,5,-5z"></path><g id="node_text9" fill="black"><text id="kity_text_123" text-rendering="inherit" font-size="12" dy=".8em" y="177.69999402761462" x="649.5000183880329">Permativity (dielectric constant)</text></g></g><g id="minder_node12"><g id="node_expander9" style="cursor: pointer;" display="none"><path id="kity_path_251" fill="white" stroke="gray" d="M644.5000183880329,211.49999475479126A6,6,0,1,1,632.5000183880329,211.49999475479126A6,6,0,1,1,644.5000183880329,211.49999475479126"></path><path id="kity_path_252" fill="none" stroke="gray"></path></g><path id="node_outline10" fill="none" stroke="none" d="M649.5000183880329,202.49999475479126h122a5,5,0,0,1,5,5v8a5,5,0,0,1,-5,5h-122a5,5,0,0,1,-5,-5v-8a5,5,0,0,1,5,-5z"></path><g id="node_text10" fill="black"><text id="kity_text_125" text-rendering="inherit" font-size="12" dy=".8em" y="203.69999480247498" x="649.5000183880329">Wavelength (or band</text></g></g><g id="minder_node13"><g id="node_expander14" style="cursor: pointer;"><path id="kity_path_266" fill="white" stroke="gray" d="M481.50001353025436,263.499996304512A6,6,0,1,1,469.50001353025436,263.499996304512A6,6,0,1,1,481.50001353025436,263.499996304512"></path><path id="kity_path_267" fill="none" stroke="gray" d="M471.00001353025436,263.499996304512L480.00001353025436,263.499996304512"></path></g><path id="node_outline15" fill="none" stroke="none" d="M486.50001353025436,254.49999630451202h33a5,5,0,0,1,5,5v8a5,5,0,0,1,-5,5h-33a5,5,0,0,1,-5,-5v-8a5,5,0,0,1,5,-5z"></path><g id="node_text15" fill="black"><text id="kity_text_136" text-rendering="inherit" font-size="12" dy=".8em" y="255.69999635219574" x="486.50001353025436">Types</text></g></g><g id="minder_node14"><g id="node_expander11" style="cursor: pointer;" display="none"><path id="kity_path_257" fill="white" stroke="gray" d="M540.5000152885914,237.49999552965164A6,6,0,1,1,528.5000152885914,237.49999552965164A6,6,0,1,1,540.5000152885914,237.49999552965164"></path><path id="kity_path_258" fill="none" stroke="gray"></path></g><path id="node_outline12" fill="none" stroke="none" d="M545.5000152885914,228.49999552965164h23a5,5,0,0,1,5,5v8a5,5,0,0,1,-5,5h-23a5,5,0,0,1,-5,-5v-8a5,5,0,0,1,5,-5z"></path><g id="node_text12" fill="black"><text id="kity_text_130" text-rendering="inherit" font-size="12" dy=".8em" y="229.69999557733536" x="545.5000152885914">SAR</text></g></g><g id="minder_node15"><g id="node_expander12" style="cursor: pointer;" display="none"><path id="kity_path_260" fill="white" stroke="gray" d="M540.5000152885914,263.499996304512A6,6,0,1,1,528.5000152885914,263.499996304512A6,6,0,1,1,540.5000152885914,263.499996304512"></path><path id="kity_path_261" fill="none" stroke="gray"></path></g><path id="node_outline13" fill="none" stroke="none" d="M545.5000152885914,254.49999630451202h34a5,5,0,0,1,5,5v8a5,5,0,0,1,-5,5h-34a5,5,0,0,1,-5,-5v-8a5,5,0,0,1,5,-5z"></path><g id="node_text13" fill="black"><text id="kity_text_132" text-rendering="inherit" font-size="12" dy=".8em" y="255.69999635219574" x="545.5000152885914">InSAR</text></g></g><g id="minder_node16"><g id="node_expander13" style="cursor: pointer;" display="none"><path id="kity_path_263" fill="white" stroke="gray" d="M540.5000152885914,289.4999970793724A6,6,0,1,1,528.5000152885914,289.4999970793724A6,6,0,1,1,540.5000152885914,289.4999970793724"></path><path id="kity_path_264" fill="none" stroke="gray"></path></g><path id="node_outline14" fill="none" stroke="none" d="M545.5000152885914,280.4999970793724h43a5,5,0,0,1,5,5v8a5,5,0,0,1,-5,5h-43a5,5,0,0,1,-5,-5v-8a5,5,0,0,1,5,-5z"></path><g id="node_text14" fill="black"><text id="kity_text_134" text-rendering="inherit" font-size="12" dy=".8em" y="281.6999971270561" x="545.5000152885914">DInSAR</text></g></g><g id="minder_node17"><path id="kity_path_344" fill="rgba(0, 0, 0, .25)" stroke="none" d="M372.50001016259193,340.4999988377094h167a10,10,0,0,1,10,10v6a10,10,0,0,1,-10,10h-167a10,10,0,0,1,-10,-10v-6a10,10,0,0,1,10,-10z" display="none"></path><g id="node_expander22" style="cursor: pointer;"><path id="kity_path_290" fill="white" stroke="gray" d="M352.50001016259193,348.4999988377094A6,6,0,1,1,340.50001016259193,348.4999988377094A6,6,0,1,1,352.50001016259193,348.4999988377094"></path><path id="kity_path_291" fill="none" stroke="gray" d="M342.00001016259193,348.4999988377094L351.00001016259193,348.4999988377094"></path></g><path id="node_outline23" fill="rgb(238, 243, 246)" stroke="rgb(115, 161, 191)" d="M356.50001016259193,335.4999988377094h171a3,3,0,0,1,3,3v20a3,3,0,0,1,-3,3h-171a3,3,0,0,1,-3,-3v-20a3,3,0,0,1,3,-3z" stroke-width="1"></path><g id="node_text23" fill="black"><text id="kity_text_152" text-rendering="inherit" font-size="14" dy=".8em" y="339.39999893307686" x="373.50001016259193">SAR data processing</text></g></g><g id="minder_node18"><g id="node_expander17" style="cursor: pointer;"><path id="kity_path_275" fill="white" stroke="gray" d="M546.5000154674053,322.49999806284904A6,6,0,1,1,534.5000154674053,322.49999806284904A6,6,0,1,1,546.5000154674053,322.49999806284904"></path><path id="kity_path_276" fill="none" stroke="gray" d="M536.0000154674053,322.49999806284904L545.0000154674053,322.49999806284904"></path></g><path id="node_outline18" fill="none" stroke="none" d="M551.5000154674053,313.49999806284904h78a5,5,0,0,1,5,5v8a5,5,0,0,1,-5,5h-78a5,5,0,0,1,-5,-5v-8a5,5,0,0,1,5,-5z"></path><g id="node_text18" fill="black"><text id="kity_text_142" text-rendering="inherit" font-size="12" dy=".8em" y="314.69999811053276" x="551.5000154674053">GEE SAR data</text></g></g><g id="minder_node19"><g id="node_expander16" style="cursor: pointer;" display="none"><path id="kity_path_272" fill="white" stroke="gray" d="M650.5000185668468,322.49999806284904A6,6,0,1,1,638.5000185668468,322.49999806284904A6,6,0,1,1,650.5000185668468,322.49999806284904"></path><path id="kity_path_273" fill="none" stroke="gray"></path></g><path id="node_outline17" fill="#ffc000" stroke="none" d="M655.5000185668468,313.49999806284904h252a5,5,0,0,1,5,5v8a5,5,0,0,1,-5,5h-252a5,5,0,0,1,-5,-5v-8a5,5,0,0,1,5,-5z"></path><g id="node_text17" fill="black"><text id="kity_text_140" text-rendering="inherit" font-size="12" dy=".8em" y="314.69999811053276" x="655.5000185668468">just have amplitude (backscatter) not phase</text></g></g><g id="minder_node20"><g id="node_expander21" style="cursor: pointer;"><path id="kity_path_287" fill="white" stroke="gray" d="M546.5000154674053,374.4999996125698A6,6,0,1,1,534.5000154674053,374.4999996125698A6,6,0,1,1,546.5000154674053,374.4999996125698"></path><path id="kity_path_288" fill="none" stroke="gray" d="M536.0000154674053,374.4999996125698L545.0000154674053,374.4999996125698"></path></g><path id="node_outline22" fill="#ffc000" stroke="none" d="M551.5000154674053,365.4999996125698h91a5,5,0,0,1,5,5v8a5,5,0,0,1,-5,5h-91a5,5,0,0,1,-5,-5v-8a5,5,0,0,1,5,-5z"></path><g id="node_text22" fill="black"><text id="kity_text_150" text-rendering="inherit" font-size="12" dy=".8em" y="366.6999996602535" x="551.5000154674053">SAR data values</text></g></g><g id="minder_node21"><g id="node_expander18" style="cursor: pointer;" display="none"><path id="kity_path_278" fill="white" stroke="gray" d="M663.500018954277,348.4999988377094A6,6,0,1,1,651.500018954277,348.4999988377094A6,6,0,1,1,663.500018954277,348.4999988377094"></path><path id="kity_path_279" fill="none" stroke="gray"></path></g><path id="node_outline19" fill="none" stroke="none" d="M668.500018954277,339.4999988377094h135a5,5,0,0,1,5,5v8a5,5,0,0,1,-5,5h-135a5,5,0,0,1,-5,-5v-8a5,5,0,0,1,5,-5z"></path><g id="node_text19" fill="black"><text id="kity_text_144" text-rendering="inherit" font-size="12" dy=".8em" y="340.69999888539314" x="668.500018954277">power scale , RAW data</text></g></g><g id="minder_node22"><g id="node_expander19" style="cursor: pointer;" display="none"><path id="kity_path_281" fill="white" stroke="gray" d="M663.500018954277,374.4999996125698A6,6,0,1,1,651.500018954277,374.4999996125698A6,6,0,1,1,663.500018954277,374.4999996125698"></path><path id="kity_path_282" fill="none" stroke="gray"></path></g><path id="node_outline20" fill="none" stroke="none" d="M668.500018954277,365.4999996125698h90a5,5,0,0,1,5,5v8a5,5,0,0,1,-5,5h-90a5,5,0,0,1,-5,-5v-8a5,5,0,0,1,5,-5z"></path><g id="node_text20" fill="black"><text id="kity_text_146" text-rendering="inherit" font-size="12" dy=".8em" y="366.6999996602535" x="668.500018954277">amplitude scale</text></g></g><g id="minder_node23"><g id="node_expander20" style="cursor: pointer;" display="none"><path id="kity_path_284" fill="white" stroke="gray" d="M663.500018954277,400.5000003874302A6,6,0,1,1,651.500018954277,400.5000003874302A6,6,0,1,1,663.500018954277,400.5000003874302"></path><path id="kity_path_285" fill="none" stroke="gray"></path></g><path id="node_outline21" fill="none" stroke="none" d="M668.500018954277,391.5000003874302h93a5,5,0,0,1,5,5v8a5,5,0,0,1,-5,5h-93a5,5,0,0,1,-5,-5v-8a5,5,0,0,1,5,-5z"></path><g id="node_text21" fill="black"><text id="kity_text_148" text-rendering="inherit" font-size="12" dy=".8em" y="392.7000004351139" x="668.500018954277">dB scale , in GEE</text></g></g><g id="minder_node24"><path id="kity_path_345" fill="rgba(0, 0, 0, .25)" stroke="none" d="M372.50001016259193,602.5000066459179h129a10,10,0,0,1,10,10v6a10,10,0,0,1,-10,10h-129a10,10,0,0,1,-10,-10v-6a10,10,0,0,1,10,-10z" display="none"></path><g id="node_expander39" style="cursor: pointer;"><path id="kity_path_341" fill="white" stroke="gray" d="M352.50001016259193,610.5000066459179A6,6,0,1,1,340.50001016259193,610.5000066459179A6,6,0,1,1,352.50001016259193,610.5000066459179"></path><path id="kity_path_342" fill="none" stroke="gray" d="M342.00001016259193,610.5000066459179L351.00001016259193,610.5000066459179"></path></g><path id="node_outline40" fill="rgb(238, 243, 246)" stroke="rgb(115, 161, 191)" d="M356.50001016259193,597.5000066459179h138a3,3,0,0,1,3,3v20a3,3,0,0,1,-3,3h-138a3,3,0,0,1,-3,-3v-20a3,3,0,0,1,3,-3z" stroke-width="1"></path><g id="node_text40" fill="black"><text id="kity_text_186" text-rendering="inherit" font-size="14" dy=".8em" y="601.4000067412853" x="373.50001016259193">Identify change</text></g></g><g id="minder_node25"><g id="node_expander29" style="cursor: pointer;"><path id="kity_path_311" fill="white" stroke="gray" d="M513.5000144839287,500.50000336766243A6,6,0,1,1,501.5000144839287,500.50000336766243A6,6,0,1,1,513.5000144839287,500.50000336766243"></path><path id="kity_path_312" fill="none" stroke="gray" d="M503.0000144839287,500.50000336766243L512.0000144839287,500.50000336766243"></path></g><path id="node_outline30" fill="none" stroke="none" d="M518.5000144839287,491.50000336766243h69a5,5,0,0,1,5,5v8a5,5,0,0,1,-5,5h-69a5,5,0,0,1,-5,-5v-8a5,5,0,0,1,5,-5z"></path><g id="node_text30" fill="black"><text id="kity_text_166" text-rendering="inherit" font-size="12" dy=".8em" y="492.70000341534615" x="518.5000144839287">Approaches</text></g></g><g id="minder_node26"><g id="node_expander23" style="cursor: pointer;" display="none"><path id="kity_path_293" fill="white" stroke="gray" d="M608.5000173151493,435.5000014305115A6,6,0,1,1,596.5000173151493,435.5000014305115A6,6,0,1,1,608.5000173151493,435.5000014305115"></path><path id="kity_path_294" fill="none" stroke="gray"></path></g><path id="node_outline24" fill="none" stroke="none" d="M613.5000173151493,426.5000014305115h91a5,5,0,0,1,5,5v8a5,5,0,0,1,-5,5h-91a5,5,0,0,1,-5,-5v-8a5,5,0,0,1,5,-5z"></path><g id="node_text24" fill="black"><text id="kity_text_154" text-rendering="inherit" font-size="12" dy=".8em" y="427.7000014781952" x="613.5000173151493">subtract images</text></g></g><g id="minder_node27"><g id="node_expander24" style="cursor: pointer;" display="none"><path id="kity_path_296" fill="white" stroke="gray" d="M608.5000173151493,461.50000220537186A6,6,0,1,1,596.5000173151493,461.50000220537186A6,6,0,1,1,608.5000173151493,461.50000220537186"></path><path id="kity_path_297" fill="none" stroke="gray"></path></g><path id="node_outline25" fill="none" stroke="none" d="M613.5000173151493,452.50000220537186h126a5,5,0,0,1,5,5v8a5,5,0,0,1,-5,5h-126a5,5,0,0,1,-5,-5v-8a5,5,0,0,1,5,-5z"></path><g id="node_text25" fill="black"><text id="kity_text_156" text-rendering="inherit" font-size="12" dy=".8em" y="453.7000022530556" x="613.5000173151493">(original) ratio images</text></g></g><g id="minder_node28"><g id="node_expander25" style="cursor: pointer;" display="none"><path id="kity_path_299" fill="white" stroke="gray" d="M608.5000173151493,487.50000298023224A6,6,0,1,1,596.5000173151493,487.50000298023224A6,6,0,1,1,608.5000173151493,487.50000298023224"></path><path id="kity_path_300" fill="none" stroke="gray"></path></g><path id="node_outline26" fill="none" stroke="none" d="M613.5000173151493,478.50000298023224h108a5,5,0,0,1,5,5v8a5,5,0,0,1,-5,5h-108a5,5,0,0,1,-5,-5v-8a5,5,0,0,1,5,-5z"></path><g id="node_text26" fill="black"><text id="kity_text_158" text-rendering="inherit" font-size="12" dy=".8em" y="479.70000302791595" x="613.5000173151493">Improved ratio (IR)</text></g></g><g id="minder_node29"><g id="node_expander26" style="cursor: pointer;" display="none"><path id="kity_path_302" fill="white" stroke="gray" d="M608.5000173151493,513.5000037550926A6,6,0,1,1,596.5000173151493,513.5000037550926A6,6,0,1,1,608.5000173151493,513.5000037550926"></path><path id="kity_path_303" fill="none" stroke="gray"></path></g><path id="node_outline27" fill="none" stroke="none" d="M613.5000173151493,504.5000037550926h107a5,5,0,0,1,5,5v8a5,5,0,0,1,-5,5h-107a5,5,0,0,1,-5,-5v-8a5,5,0,0,1,5,-5z"></path><g id="node_text27" fill="black"><text id="kity_text_160" text-rendering="inherit" font-size="12" dy=".8em" y="505.70000380277634" x="613.5000173151493">mean ratio images</text></g></g><g id="minder_node30"><g id="node_expander27" style="cursor: pointer;" display="none"><path id="kity_path_305" fill="white" stroke="gray" d="M608.5000173151493,539.500004529953A6,6,0,1,1,596.5000173151493,539.500004529953A6,6,0,1,1,608.5000173151493,539.500004529953"></path><path id="kity_path_306" fill="none" stroke="gray"></path></g><path id="node_outline28" fill="none" stroke="none" d="M613.5000173151493,530.500004529953h93a5,5,0,0,1,5,5v8a5,5,0,0,1,-5,5h-93a5,5,0,0,1,-5,-5v-8a5,5,0,0,1,5,-5z"></path><g id="node_text28" fill="black"><text id="kity_text_162" text-rendering="inherit" font-size="12" dy=".8em" y="531.7000045776367" x="613.5000173151493">log ratio images</text></g></g><g id="minder_node31"><g id="node_expander28" style="cursor: pointer;" display="none"><path id="kity_path_308" fill="white" stroke="gray" d="M608.5000173151493,565.5000053048134A6,6,0,1,1,596.5000173151493,565.5000053048134A6,6,0,1,1,608.5000173151493,565.5000053048134"></path><path id="kity_path_309" fill="none" stroke="gray"></path></g><path id="node_outline29" fill="none" stroke="none" d="M613.5000173151493,556.5000053048134h182a5,5,0,0,1,5,5v8a5,5,0,0,1,-5,5h-182a5,5,0,0,1,-5,-5v-8a5,5,0,0,1,5,-5z"></path><g id="node_text29" fill="black"><text id="kity_text_164" text-rendering="inherit" font-size="12" dy=".8em" y="557.7000053524971" x="613.5000173151493">improved ratio log ratio images</text></g></g><g id="minder_node32"><g id="node_expander30" style="cursor: pointer;" display="none"><path id="kity_path_314" fill="white" stroke="gray" d="M513.5000144839287,591.5000060796738A6,6,0,1,1,501.5000144839287,591.5000060796738A6,6,0,1,1,513.5000144839287,591.5000060796738"></path><path id="kity_path_315" fill="none" stroke="gray"></path></g><path id="node_outline31" fill="none" stroke="none" d="M518.5000144839287,582.5000060796738h61a5,5,0,0,1,5,5v8a5,5,0,0,1,-5,5h-61a5,5,0,0,1,-5,-5v-8a5,5,0,0,1,5,-5z"></path><g id="node_text31" fill="black"><text id="kity_text_168" text-rendering="inherit" font-size="12" dy=".8em" y="583.7000061273575" x="518.5000144839287"> ROC curve</text></g></g><g id="minder_node33"><g id="node_expander31" style="cursor: pointer;" display="none"><path id="kity_path_317" fill="white" stroke="gray" d="M513.5000144839287,617.5000068545341A6,6,0,1,1,501.5000144839287,617.5000068545341A6,6,0,1,1,513.5000144839287,617.5000068545341"></path><path id="kity_path_318" fill="none" stroke="gray"></path></g><path id="node_outline32" fill="none" stroke="none" d="M518.5000144839287,608.5000068545341h153a5,5,0,0,1,5,5v8a5,5,0,0,1,-5,5h-153a5,5,0,0,1,-5,-5v-8a5,5,0,0,1,5,-5z"></path><g id="node_text32" fill="black"><text id="kity_text_170" text-rendering="inherit" font-size="12" dy=".8em" y="609.7000069022179" x="518.5000144839287">Through image collections</text></g></g><g id="minder_node34"><g id="node_expander34" style="cursor: pointer;"><path id="kity_path_326" fill="white" stroke="gray" d="M513.5000144839287,656.5000080168247A6,6,0,1,1,501.5000144839287,656.5000080168247A6,6,0,1,1,513.5000144839287,656.5000080168247"></path><path id="kity_path_327" fill="none" stroke="gray" d="M503.0000144839287,656.5000080168247L512.0000144839287,656.5000080168247"></path></g><path id="node_outline35" fill="#ffc000" stroke="none" d="M518.5000144839287,647.5000080168247h85a5,5,0,0,1,5,5v8a5,5,0,0,1,-5,5h-85a5,5,0,0,1,-5,-5v-8a5,5,0,0,1,5,-5z"></path><g id="node_text35" fill="black"><text id="kity_text_176" text-rendering="inherit" font-size="12" dy=".8em" y="648.7000080645084" x="518.5000144839287">Statistical tests</text></g></g><g id="minder_node35"><g id="node_expander32" style="cursor: pointer;" display="none"><path id="kity_path_320" fill="white" stroke="gray" d="M624.5000177919865,643.5000076293945A6,6,0,1,1,612.5000177919865,643.5000076293945A6,6,0,1,1,624.5000177919865,643.5000076293945"></path><path id="kity_path_321" fill="none" stroke="gray"></path></g><path id="node_outline33" fill="none" stroke="none" d="M629.5000177919865,634.5000076293945h36a5,5,0,0,1,5,5v8a5,5,0,0,1,-5,5h-36a5,5,0,0,1,-5,-5v-8a5,5,0,0,1,5,-5z"></path><g id="node_text33" fill="black"><text id="kity_text_172" text-rendering="inherit" font-size="12" dy=".8em" y="635.7000076770782" x="629.5000177919865">t-tests</text></g></g><g id="minder_node36"><g id="node_expander33" style="cursor: pointer;" display="none"><path id="kity_path_323" fill="white" stroke="gray" d="M624.5000177919865,669.5000084042549A6,6,0,1,1,612.5000177919865,669.5000084042549A6,6,0,1,1,624.5000177919865,669.5000084042549"></path><path id="kity_path_324" fill="none" stroke="gray"></path></g><path id="node_outline34" fill="none" stroke="none" d="M629.5000177919865,660.5000084042549h107a5,5,0,0,1,5,5v8a5,5,0,0,1,-5,5h-107a5,5,0,0,1,-5,-5v-8a5,5,0,0,1,5,-5z"></path><g id="node_text34" fill="black"><text id="kity_text_174" text-rendering="inherit" font-size="12" dy=".8em" y="661.7000084519386" x="629.5000177919865">standard deviation</text></g></g><g id="minder_node37"><g id="node_expander38" style="cursor: pointer;"><path id="kity_path_338" fill="white" stroke="gray" d="M513.5000144839287,721.5000099539757A6,6,0,1,1,501.5000144839287,721.5000099539757A6,6,0,1,1,513.5000144839287,721.5000099539757"></path><path id="kity_path_339" fill="none" stroke="gray" d="M503.0000144839287,721.5000099539757L512.0000144839287,721.5000099539757"></path></g><path id="node_outline39" fill="#ffc000" stroke="none" d="M518.5000144839287,712.5000099539757h74a5,5,0,0,1,5,5v8a5,5,0,0,1,-5,5h-74a5,5,0,0,1,-5,-5v-8a5,5,0,0,1,5,-5z"></path><g id="node_text39" fill="black"><text id="kity_text_184" text-rendering="inherit" font-size="12" dy=".8em" y="713.7000100016594" x="518.5000144839287">image fusion</text></g></g><g id="minder_node38"><g id="node_expander35" style="cursor: pointer;" display="none"><path id="kity_path_329" fill="white" stroke="gray" d="M613.5000174641609,695.5000091791153A6,6,0,1,1,601.5000174641609,695.5000091791153A6,6,0,1,1,613.5000174641609,695.5000091791153"></path><path id="kity_path_330" fill="none" stroke="gray"></path></g><path id="node_outline36" fill="none" stroke="none" d="M618.5000174641609,686.5000091791153h167a5,5,0,0,1,5,5v8a5,5,0,0,1,-5,5h-167a5,5,0,0,1,-5,-5v-8a5,5,0,0,1,5,-5z"></path><g id="node_text36" fill="black"><text id="kity_text_178" text-rendering="inherit" font-size="12" dy=".8em" y="687.700009226799" x="618.5000174641609">Principal component analysis</text></g></g><g id="minder_node39"><g id="node_expander36" style="cursor: pointer;" display="none"><path id="kity_path_332" fill="white" stroke="gray" d="M613.5000174641609,721.5000099539757A6,6,0,1,1,601.5000174641609,721.5000099539757A6,6,0,1,1,613.5000174641609,721.5000099539757"></path><path id="kity_path_333" fill="none" stroke="gray"></path></g><path id="node_outline37" fill="none" stroke="none" d="M618.5000174641609,712.5000099539757h163a5,5,0,0,1,5,5v8a5,5,0,0,1,-5,5h-163a5,5,0,0,1,-5,-5v-8a5,5,0,0,1,5,-5z"></path><g id="node_text37" fill="black"><text id="kity_text_180" text-rendering="inherit" font-size="12" dy=".8em" y="713.7000100016594" x="618.5000174641609">Object based image analysis</text></g></g><g id="minder_node40"><g id="node_expander37" style="cursor: pointer;" display="none"><path id="kity_path_335" fill="white" stroke="gray" d="M613.5000174641609,747.5000107288361A6,6,0,1,1,601.5000174641609,747.5000107288361A6,6,0,1,1,613.5000174641609,747.5000107288361"></path><path id="kity_path_336" fill="none" stroke="gray"></path></g><path id="node_outline38" fill="none" stroke="none" d="M618.5000174641609,738.5000107288361h88a5,5,0,0,1,5,5v8a5,5,0,0,1,-5,5h-88a5,5,0,0,1,-5,-5v-8a5,5,0,0,1,5,-5z"></path><g id="node_text38" fill="black"><text id="kity_text_182" text-rendering="inherit" font-size="12" dy=".8em" y="739.7000107765198" x="618.5000174641609">Intensity fusion</text></g></g></g></g></svg>